<?xml version="1.0" ?>
<svg xmlns="http://www.w3.org/2000/svg" baseProfile="full" height="217.7mm" width="217.7mm" viewBox="0 0 800.0 800.0" version="1.1">
<path d="M 4.34,800.00 L 5.14,800.00 L 23.08,800.00 L 31.75,800.00 L 50.29,800.00 L 58.84,800.00 L 77.20,800.00 L 85.63,800.00 L 103.81,800.00 L 112.15,800.00 L 130.03,800.00 L 138.40,800.00 L 156.08,800.00 L 164.31,800.00 L 181.86,800.00 L 190.04,800.00 L 207.41,800.00 L 215.48,800.00 L 232.72,800.00 L 241.36,800.00 L 257.86,800.00 L 265.83,800.00 L 282.78,800.00 L 290.71,800.00 L 307.46,800.00 L 315.27,800.00 L 332.12,800.00 L 339.84,800.00 L 356.43,800.00 L 364.19,800.00 L 380.63,800.00 L 388.30,800.00 L 404.77,800.00 L 412.45,800.00 L 428.74,800.00 L 436.36,800.00 L 452.55,800.00 L 460.12,800.00 L 476.22,800.00 L 483.75,800.00 L 499.76,800.00 L 507.26,800.00 L 523.18,800.00 L 530.64,800.00 L 546.49,800.00 L 553.90,800.00 L 569.68,800.00 L 577.06,800.00 L 592.76,800.00 L 600.10,800.00 L 615.48,800.00 L 623.65,800.00 L 638.65,800.00 L 645.87,800.00 L 661.36,800.00 L 668.62,800.00 L 684.17,800.00 L 691.35,800.00 L 706.66,800.00 L 713.85,800.00 L 729.26,800.00 L 736.45,800.00 L 751.73,800.00 L 758.82,800.00 L 774.03,800.00 L 781.12,800.00 L 788.24,800.00 L 796.32,800.00 L 800.00,800.00 L 800.00,794.16 L 800.00,788.24 L 800.00,769.63 L 800.00,757.98 L 800.00,733.47 L 800.00,720.56 L 800.00,696.10 L 800.00,682.84 L 800.00,657.25 L 800.00,643.99 L 800.00,617.16 L 800.00,604.32 L 800.00,576.09 L 800.00,562.69 L 800.00,533.84 L 800.00,519.86 L 800.00,489.86 L 800.00,475.35 L 800.00,443.96 L 800.00,428.86 L 800.00,395.92 L 800.00,380.01 L 800.00,345.36 L 800.00,328.49 L 800.00,291.20 L 800.00,273.49 L 800.00,234.57 L 800.00,213.90 L 800.00,170.25 L 800.00,149.17 L 800.00,100.16 L 800.00,75.61 L 800.00,19.25 L 800.00,5.14 L 800.00,0.00 L 0.00,0.00 L 0.00,800.00 L 4.34,800.00 Z M 33.97,38.35 L 39.97,22.20 L 45.75,5.96 L 46.03,5.14 L 49.02,5.14 L 42.67,23.18 L 36.65,39.37 L 27.19,63.50 L 20.61,79.47 L 10.32,103.25 L 5.14,114.65 L 5.14,107.74 L 11.17,94.20 L 17.96,78.36 L 24.53,62.42 L 33.97,38.35 Z M 5.14,67.47 L 5.14,59.96 L 10.19,47.47 L 19.31,23.71 L 25.12,7.76 L 26.02,5.14 L 29.06,5.14 L 24.94,16.72 L 19.01,32.67 L 9.70,56.43 L 5.14,67.47 Z M 35.36,85.67 L 42.03,69.49 L 51.60,45.05 L 57.70,28.65 L 65.98,5.14 L 68.99,5.14 L 66.28,13.11 L 57.37,37.86 L 51.14,54.26 L 44.69,70.56 L 38.00,86.78 L 27.55,110.92 L 20.31,126.90 L 12.84,142.77 L 5.15,158.53 L 5.14,158.54 L 5.14,152.02 L 6.45,149.40 L 17.70,125.69 L 24.93,109.76 L 35.36,85.67 Z M 42.17,117.43 L 52.75,92.98 L 59.52,76.56 L 66.06,60.04 L 72.37,43.44 L 81.39,18.37 L 85.89,5.14 L 88.91,5.14 L 81.14,27.71 L 75.05,44.44 L 68.73,61.08 L 62.18,77.63 L 51.92,102.28 L 44.79,118.60 L 37.44,134.81 L 29.86,150.92 L 19.20,175.45 L 17.70,184.70 L 13.86,192.77 L 9.74,200.69 L 5.33,208.46 L 5.14,208.81 L 5.14,192.75 L 7.39,189.38 L 19.48,165.64 L 27.27,149.68 L 34.83,133.61 L 42.17,117.43 Z M 24.58,188.23 L 31.21,181.52 L 44.29,157.83 L 51.96,141.52 L 59.41,125.11 L 66.62,108.59 L 77.01,83.63 L 83.65,66.87 L 90.05,50.01 L 96.22,33.08 L 105.02,7.51 L 105.79,5.14 L 108.80,5.14 L 104.86,16.98 L 95.86,42.54 L 86.32,67.90 L 79.67,84.70 L 69.26,109.72 L 58.32,134.51 L 50.67,160.89 L 47.43,169.40 L 43.40,177.51 L 39.25,185.58 L 35.03,193.60 L 30.80,201.62 L 26.63,209.67 L 22.19,217.58 L 17.88,225.56 L 13.30,233.38 L 8.70,241.19 L 5.14,247.12 L 5.14,224.53 L 7.58,219.90 L 11.89,212.01 L 15.94,203.99 L 20.18,196.07 L 24.58,188.23 Z M 23.83,228.82 L 28.22,220.84 L 32.37,212.73 L 36.68,204.70 L 40.82,196.58 L 44.85,188.41 L 48.84,180.22 L 52.83,172.03 L 57.50,164.16 L 72.89,141.12 L 83.97,116.02 L 94.51,90.69 L 101.24,73.69 L 110.89,48.01 L 120.01,22.13 L 125.66,5.14 L 128.67,5.14 L 128.51,5.66 L 119.74,31.72 L 110.42,57.59 L 103.91,74.73 L 93.70,100.25 L 82.96,125.56 L 82.18,135.25 L 80.06,144.37 L 68.40,169.38 L 56.21,194.15 L 52.02,202.34 L 47.73,210.48 L 43.44,218.61 L 38.92,226.63 L 34.42,234.65 L 29.97,242.70 L 25.29,250.61 L 20.72,258.59 L 16.06,266.52 L 11.06,274.25 L 6.47,282.22 L 5.14,284.40 L 5.14,263.00 L 6.33,260.81 L 10.90,252.93 L 15.28,244.93 L 19.60,236.90 L 23.83,228.82 Z M 26.90,262.16 L 31.49,254.14 L 35.86,245.99 L 40.36,237.91 L 44.68,229.74 L 48.88,221.50 L 53.19,213.33 L 57.39,205.10 L 61.57,196.85 L 73.81,171.98 L 85.52,146.85 L 90.96,139.15 L 97.62,131.97 L 108.50,106.35 L 118.83,80.51 L 125.42,63.17 L 134.85,36.98 L 143.72,10.61 L 145.46,5.14 L 148.44,5.14 L 146.45,11.49 L 137.56,37.93 L 131.32,55.44 L 121.51,81.55 L 111.15,107.44 L 111.17,117.54 L 108.54,126.55 L 97.24,152.17 L 85.41,177.54 L 73.05,202.65 L 64.49,219.24 L 60.08,227.46 L 55.64,235.67 L 51.02,243.77 L 46.39,251.88 L 42.00,260.11 L 37.21,268.12 L 32.38,276.10 L 27.62,284.12 L 22.73,292.06 L 17.81,299.98 L 12.91,307.92 L 7.67,315.64 L 5.14,319.24 L 5.14,300.02 L 8.16,294.05 L 12.98,286.16 L 17.90,278.32 L 22.28,270.17 L 26.90,262.16 Z M 24.18,303.91 L 29.00,295.86 L 33.75,287.77 L 38.51,279.69 L 43.09,271.51 L 47.59,263.29 L 52.38,255.22 L 56.83,246.97 L 61.16,238.65 L 65.55,230.37 L 69.87,222.05 L 78.41,205.36 L 90.82,180.13 L 102.71,154.64 L 114.05,128.92 L 118.73,120.71 L 125.94,113.54 L 136.42,87.33 L 146.35,60.92 L 152.67,43.19 L 161.67,16.44 L 165.21,5.14 L 168.21,5.14 L 164.40,17.33 L 158.44,35.22 L 149.05,61.90 L 139.10,88.37 L 138.76,98.38 L 136.79,107.78 L 122.12,142.67 L 106.49,177.14 L 89.89,211.16 L 72.34,244.70 L 67.69,252.94 L 63.12,261.22 L 58.32,269.38 L 53.52,277.53 L 48.69,285.67 L 43.88,293.81 L 39.02,301.93 L 33.94,309.91 L 28.84,317.88 L 23.60,325.75 L 18.41,333.66 L 13.13,341.50 L 7.52,349.12 L 5.14,351.25 L 5.14,338.37 L 5.76,336.68 L 9.79,328.10 L 14.49,319.97 L 19.23,311.87 L 24.18,303.91 Z M 25.40,338.16 L 30.42,330.08 L 35.29,321.91 L 40.19,313.75 L 44.99,305.54 L 49.91,297.40 L 54.75,289.22 L 59.46,280.96 L 64.08,272.65 L 68.60,264.28 L 73.22,255.98 L 77.65,247.57 L 95.25,213.87 L 111.92,179.70 L 127.62,145.07 L 142.35,110.02 L 147.43,101.81 L 154.01,94.16 L 164.08,67.37 L 173.59,40.37 L 179.61,22.27 L 184.98,5.14 L 188.02,5.14 L 185.26,14.05 L 179.35,32.24 L 173.19,50.34 L 165.43,78.05 L 164.79,88.05 L 146.97,132.59 L 127.61,176.48 L 106.74,219.67 L 84.34,262.09 L 79.64,270.46 L 74.86,278.78 L 69.99,287.04 L 65.03,295.25 L 60.20,303.54 L 55.16,311.70 L 50.11,319.86 L 44.96,327.95 L 39.83,336.05 L 34.58,344.08 L 29.31,352.09 L 23.77,359.92 L 18.19,367.72 L 11.30,374.62 L 5.14,380.81 L 5.14,375.46 L 7.51,372.02 L 12.22,363.69 L 15.52,354.44 L 20.35,346.22 L 25.40,338.16 Z M 25.57,372.70 L 30.70,364.52 L 35.74,356.30 L 40.94,348.18 L 46.06,340.00 L 51.18,331.83 L 56.16,323.58 L 61.13,315.32 L 65.99,306.99 L 70.95,298.73 L 75.67,290.32 L 80.35,281.90 L 85.02,273.46 L 89.64,265.00 L 112.09,222.37 L 133.06,179.00 L 152.50,134.91 L 170.40,90.18 L 176.53,82.17 L 188.30,55.60 L 194.54,37.29 L 200.51,18.89 L 204.77,5.14 L 207.76,5.14 L 200.28,28.99 L 191.92,56.86 L 192.50,67.36 L 185.85,85.64 L 178.94,103.83 L 171.78,121.91 L 164.37,139.90 L 156.70,157.78 L 148.79,175.55 L 140.63,193.21 L 132.23,210.75 L 123.58,228.18 L 114.68,245.48 L 105.55,262.65 L 96.18,279.70 L 91.39,288.16 L 86.50,296.58 L 81.44,304.88 L 76.56,313.29 L 71.33,321.50 L 66.42,329.89 L 61.11,338.04 L 55.86,346.22 L 50.62,354.42 L 45.18,362.47 L 39.85,370.60 L 34.15,378.48 L 28.62,386.47 L 22.57,394.11 L 17.88,402.68 L 8.77,408.12 L 5.14,413.15 L 5.14,408.24 L 6.44,406.45 L 12.04,398.57 L 17.59,390.64 L 21.66,381.71 L 25.57,372.70 Z M 30.46,399.59 L 35.48,391.17 L 40.91,383.04 L 46.05,374.72 L 51.45,366.57 L 56.62,358.28 L 61.89,350.05 L 67.03,341.74 L 72.00,333.32 L 77.24,325.07 L 82.05,316.57 L 87.09,308.20 L 91.84,299.65 L 96.64,291.15 L 101.42,282.63 L 110.83,265.51 L 120.00,248.26 L 128.93,230.88 L 137.62,213.38 L 146.06,195.76 L 154.26,178.03 L 162.20,160.18 L 169.90,142.22 L 177.34,124.16 L 184.53,106.00 L 191.47,87.73 L 198.15,69.37 L 205.21,61.49 L 215.50,33.93 L 224.30,5.87 L 224.51,5.14 L 228.21,5.14 L 221.77,35.97 L 219.91,45.73 L 213.55,64.39 L 206.94,82.97 L 196.53,110.65 L 189.27,128.98 L 181.76,147.21 L 170.01,174.35 L 161.87,192.31 L 153.48,210.15 L 140.42,236.68 L 131.41,254.22 L 122.15,271.63 L 107.81,297.49 L 97.92,314.55 L 92.80,322.97 L 87.69,331.40 L 82.45,339.75 L 77.19,348.09 L 71.84,356.37 L 66.48,364.64 L 61.03,372.85 L 55.69,381.13 L 49.92,389.12 L 44.14,397.10 L 37.34,404.37 L 30.25,411.41 L 24.18,419.15 L 18.71,427.32 L 13.81,435.92 L 7.59,443.54 L 5.14,446.13 L 5.14,440.18 L 10.26,433.30 L 16.05,425.39 L 21.78,417.43 L 23.97,406.98 L 30.46,399.59 Z M 42.43,420.00 L 46.68,410.86 L 51.09,401.86 L 56.42,393.51 L 61.64,385.08 L 67.17,376.86 L 72.48,368.50 L 77.77,360.13 L 82.95,351.68 L 88.10,343.23 L 93.16,334.71 L 98.22,326.21 L 103.16,317.62 L 113.03,300.46 L 127.43,274.48 L 136.72,257.00 L 145.77,239.39 L 158.89,212.74 L 167.32,194.82 L 175.50,176.79 L 187.29,149.53 L 194.84,131.23 L 202.13,112.82 L 212.58,85.02 L 219.22,66.36 L 225.60,47.62 L 229.90,38.61 L 243.81,5.14 L 251.60,5.14 L 249.89,13.59 L 243.98,32.68 L 234.62,61.15 L 224.67,89.42 L 217.70,108.15 L 206.77,136.05 L 195.25,163.72 L 187.25,182.03 L 174.78,209.28 L 161.73,236.26 L 152.72,254.09 L 138.75,280.60 L 124.22,306.81 L 109.12,332.71 L 103.86,341.20 L 98.57,349.67 L 93.19,358.09 L 87.87,366.54 L 82.39,374.89 L 76.72,383.11 L 70.79,391.16 L 63.82,398.50 L 58.10,406.66 L 53.36,415.51 L 47.83,423.81 L 42.05,431.95 L 36.50,440.25 L 31.03,448.61 L 25.03,456.59 L 15.98,462.26 L 9.78,470.05 L 5.14,476.02 L 5.14,469.91 L 7.19,468.06 L 13.54,460.40 L 18.64,451.81 L 24.20,443.57 L 30.96,436.22 L 37.06,428.37 L 42.43,420.00 Z M 5.14,15.85 L 5.14,7.47 L 5.99,5.14 L 9.04,5.14 L 5.14,15.85 Z M 43.70,445.48 L 49.86,437.54 L 55.68,429.35 L 61.64,421.26 L 68.26,413.62 L 73.80,405.23 L 77.97,395.93 L 83.06,387.26 L 88.29,378.69 L 93.60,370.17 L 98.95,361.68 L 104.12,353.08 L 109.26,344.47 L 114.31,335.80 L 129.43,309.78 L 144.02,283.46 L 158.06,256.83 L 167.11,238.93 L 180.20,211.83 L 192.73,184.47 L 200.77,166.08 L 212.33,138.30 L 223.31,110.28 L 230.31,91.47 L 240.30,63.08 L 249.70,34.49 L 255.63,15.33 L 259.37,5.97 L 259.67,5.14 L 272.05,5.14 L 270.85,9.35 L 264.99,28.73 L 258.87,48.02 L 252.48,67.23 L 245.83,86.35 L 238.90,105.37 L 231.71,124.30 L 224.26,143.12 L 216.55,161.83 L 208.57,180.44 L 195.18,207.70 L 188.73,215.84 L 184.71,225.11 L 181.90,234.98 L 178.63,244.65 L 164.85,271.70 L 150.50,298.46 L 135.59,324.92 L 120.02,350.98 L 114.68,359.58 L 109.20,368.09 L 103.70,376.59 L 97.68,384.74 L 90.87,392.37 L 85.16,400.71 L 81.01,410.09 L 75.61,418.65 L 69.64,426.82 L 63.54,434.89 L 57.07,442.70 L 51.29,450.99 L 43.63,457.90 L 36.92,465.49 L 31.31,473.89 L 26.67,483.05 L 21.20,491.60 L 15.32,499.84 L 9.01,507.75 L 5.14,512.52 L 5.14,499.71 L 9.31,495.08 L 16.28,487.76 L 22.45,479.81 L 28.41,471.69 L 31.41,461.36 L 37.35,453.27 L 43.70,445.48 Z M 260.13,102.33 L 252.98,121.55 L 241.76,150.19 L 233.94,169.14 L 225.86,187.99 L 217.52,206.73 L 202.95,233.85 L 196.98,242.33 L 194.71,252.63 L 190.94,262.20 L 176.79,289.51 L 162.06,316.52 L 146.77,343.21 L 130.67,369.41 L 124.65,377.74 L 117.60,385.40 L 112.48,394.28 L 107.79,403.44 L 102.27,412.07 L 96.80,420.74 L 90.79,429.05 L 84.93,437.45 L 78.78,445.65 L 71.40,452.96 L 64.16,460.34 L 59.09,469.30 L 54.32,478.51 L 48.44,486.90 L 42.02,494.88 L 35.99,503.16 L 30.01,511.49 L 22.26,518.40 L 15.76,526.30 L 9.83,534.67 L 5.14,540.29 L 5.14,526.18 L 9.09,520.86 L 15.49,512.96 L 21.83,505.01 L 28.49,497.30 L 35.46,489.82 L 43.14,482.87 L 49.73,475.07 L 55.12,466.37 L 59.44,456.92 L 65.52,448.75 L 70.81,440.03 L 76.34,431.48 L 81.89,422.95 L 87.90,414.74 L 95.03,407.26 L 100.49,398.66 L 104.73,389.28 L 109.63,380.35 L 114.95,371.68 L 120.16,362.95 L 125.39,354.23 L 140.79,327.92 L 155.76,301.35 L 170.16,274.48 L 184.01,247.31 L 189.69,238.78 L 195.71,230.38 L 200.40,221.33 L 202.52,211.09 L 214.07,182.84 L 222.08,164.16 L 229.82,145.36 L 237.31,126.47 L 244.53,107.46 L 251.48,88.36 L 258.16,69.17 L 264.58,49.88 L 270.73,30.50 L 276.60,11.04 L 278.29,5.14 L 291.68,5.14 L 288.95,14.68 L 283.02,34.31 L 273.62,63.59 L 267.01,83.01 L 260.13,102.33 Z M 18.10,541.52 L 25.21,534.01 L 31.64,525.95 L 36.71,516.80 L 43.44,508.98 L 50.01,501.03 L 56.06,492.68 L 62.55,484.66 L 70.04,477.37 L 77.10,469.75 L 81.89,460.47 L 86.41,451.03 L 92.04,442.39 L 97.85,433.88 L 103.40,425.19 L 109.36,416.78 L 115.14,408.25 L 121.64,400.19 L 127.60,391.75 L 131.50,382.02 L 136.31,372.89 L 151.95,346.25 L 167.30,319.45 L 182.08,292.33 L 196.30,264.91 L 201.73,256.11 L 208.54,247.97 L 211.51,237.95 L 222.99,209.21 L 231.36,190.40 L 239.47,171.47 L 247.32,152.43 L 258.59,123.68 L 265.77,104.38 L 272.67,84.98 L 279.31,65.49 L 288.75,36.08 L 294.70,16.37 L 297.92,5.14 L 311.31,5.14 L 309.94,10.03 L 304.08,29.95 L 297.94,49.80 L 288.21,79.39 L 281.38,99.01 L 274.27,118.52 L 266.90,137.94 L 255.33,166.87 L 247.28,186.02 L 238.96,205.05 L 230.38,223.96 L 215.10,251.17 L 212.19,261.30 L 207.78,270.71 L 193.45,298.37 L 178.53,325.72 L 163.05,352.76 L 152.03,370.37 L 144.76,378.09 L 140.65,387.74 L 135.38,396.69 L 129.40,405.18 L 123.58,413.78 L 118.06,422.57 L 112.44,431.29 L 106.56,439.84 L 99.60,447.64 L 91.47,454.60 L 86.31,463.63 L 82.01,473.31 L 76.36,482.03 L 70.14,490.34 L 63.83,498.58 L 57.06,506.46 L 49.28,513.55 L 41.88,520.89 L 35.42,528.98 L 28.91,537.03 L 22.34,545.03 L 16.04,553.25 L 9.63,561.39 L 5.14,567.48 L 5.14,556.63 L 11.50,549.44 L 18.10,541.52 Z M 328.08,15.23 L 322.14,35.41 L 315.92,55.50 L 306.07,85.47 L 299.15,105.34 L 291.96,125.10 L 284.49,144.76 L 272.77,174.06 L 264.62,193.45 L 256.20,212.72 L 247.51,231.88 L 233.80,260.29 L 229.33,269.81 L 215.01,297.93 L 200.10,325.73 L 184.61,353.22 L 179.05,362.15 L 172.64,370.57 L 167.93,380.00 L 162.66,389.09 L 157.20,398.08 L 150.95,406.57 L 144.94,415.20 L 139.53,424.21 L 133.60,432.89 L 127.89,441.71 L 119.18,448.48 L 113.47,457.28 L 109.42,467.26 L 104.09,476.36 L 98.05,484.97 L 91.69,493.33 L 84.73,501.25 L 76.89,508.49 L 69.57,516.09 L 63.46,524.62 L 58.53,534.09 L 52.77,542.93 L 46.43,551.32 L 39.34,559.09 L 30.42,565.32 L 24.72,574.23 L 18.60,582.81 L 12.03,591.02 L 5.14,598.41 L 5.14,585.68 L 5.49,585.30 L 13.24,578.18 L 20.62,570.74 L 27.64,562.98 L 34.67,555.22 L 41.31,547.14 L 47.89,539.01 L 54.42,530.83 L 59.88,521.83 L 64.86,512.47 L 70.73,503.82 L 76.95,495.43 L 83.14,487.03 L 89.78,478.96 L 97.66,471.76 L 104.55,463.82 L 108.36,453.73 L 113.22,444.40 L 119.04,435.74 L 124.99,427.17 L 130.93,418.59 L 136.45,409.73 L 141.67,400.68 L 147.50,392.02 L 154.35,383.99 L 157.93,373.94 L 168.22,355.80 L 183.77,328.65 L 198.74,301.19 L 213.14,273.42 L 218.05,264.22 L 224.33,255.67 L 235.83,226.48 L 244.44,207.49 L 252.79,188.38 L 260.87,169.15 L 272.49,140.11 L 279.90,120.62 L 287.03,101.02 L 293.89,81.33 L 303.66,51.61 L 309.82,31.69 L 315.71,11.68 L 317.54,5.14 L 330.90,5.14 L 328.08,15.23 Z M 343.25,30.66 L 337.09,51.04 L 327.33,81.46 L 316.92,111.67 L 305.89,141.65 L 298.19,161.50 L 286.12,191.08 L 273.44,220.40 L 260.14,249.44 L 250.94,268.65 L 236.63,297.21 L 221.73,325.47 L 205.44,352.96 L 200.43,362.35 L 195.53,371.82 L 190.14,381.00 L 184.67,390.14 L 179.14,399.24 L 173.53,408.29 L 167.86,417.30 L 161.69,425.99 L 155.60,434.73 L 148.68,442.91 L 142.03,451.25 L 137.60,461.09 L 131.86,470.06 L 125.83,478.84 L 119.53,487.41 L 113.13,495.92 L 105.66,503.63 L 97.36,510.70 L 92.12,520.05 L 87.05,529.56 L 80.46,537.90 L 73.96,546.32 L 68.01,555.18 L 59.76,562.19 L 51.42,569.08 L 44.62,577.23 L 37.77,585.34 L 32.50,594.81 L 25.42,602.74 L 18.04,610.40 L 10.39,617.81 L 5.14,624.38 L 5.14,614.77 L 5.91,613.78 L 12.64,605.60 L 19.41,597.48 L 26.67,589.78 L 34.27,582.36 L 42.17,575.18 L 46.74,565.21 L 53.03,556.70 L 59.95,548.71 L 67.35,541.08 L 75.45,533.99 L 82.25,525.86 L 87.73,516.72 L 92.58,507.12 L 98.19,498.13 L 104.27,489.48 L 110.56,481.00 L 117.43,472.91 L 125.48,465.63 L 131.73,457.08 L 134.87,446.42 L 140.88,437.73 L 146.55,428.81 L 152.62,420.15 L 157.97,411.02 L 162.95,401.68 L 168.60,392.75 L 174.31,383.86 L 180.45,375.23 L 184.77,365.50 L 189.81,356.22 L 205.36,328.62 L 220.33,300.71 L 234.71,272.48 L 239.55,263.09 L 252.96,234.39 L 261.68,215.16 L 270.13,195.81 L 278.32,176.34 L 290.08,146.93 L 297.58,127.19 L 304.80,107.35 L 311.75,87.41 L 321.64,57.32 L 327.89,37.14 L 333.85,16.88 L 337.13,5.14 L 350.47,5.14 L 343.25,30.66 Z M 358.27,46.32 L 345.23,87.42 L 338.52,96.52 L 336.76,107.30 L 334.70,118.00 L 315.74,168.45 L 295.02,218.21 L 272.59,267.22 L 248.45,315.41 L 243.39,324.93 L 237.05,333.76 L 232.00,343.27 L 227.60,353.15 L 222.65,362.73 L 206.38,390.68 L 189.53,418.29 L 177.65,436.28 L 170.76,444.65 L 165.95,454.38 L 160.18,463.49 L 153.42,471.93 L 147.09,480.65 L 140.77,489.38 L 134.50,498.13 L 126.91,505.94 L 120.12,514.29 L 115.04,523.93 L 108.84,532.74 L 102.00,541.07 L 95.13,549.36 L 87.33,556.92 L 79.70,564.59 L 72.77,572.80 L 65.95,581.11 L 59.07,589.36 L 52.14,597.57 L 45.15,605.73 L 39.13,614.74 L 34.35,624.88 L 27.54,633.25 L 5.14,657.44 L 5.14,639.92 L 13.42,634.96 L 21.11,627.46 L 27.69,618.96 L 34.42,610.62 L 41.34,602.44 L 49.96,595.71 L 56.88,587.52 L 63.74,579.28 L 68.94,569.68 L 74.12,560.10 L 81.49,552.29 L 88.18,543.94 L 94.67,535.42 L 102.56,527.97 L 110.17,520.28 L 114.59,510.22 L 119.72,500.71 L 125.81,491.91 L 131.86,483.09 L 138.07,474.38 L 144.45,465.79 L 152.01,457.98 L 157.24,448.59 L 162.06,438.96 L 167.59,429.80 L 172.92,420.51 L 178.62,411.47 L 184.25,402.38 L 189.84,393.27 L 195.36,384.11 L 200.84,374.93 L 206.68,365.96 L 212.26,356.83 L 227.01,328.33 L 241.97,299.96 L 256.33,271.28 L 265.57,252.00 L 278.92,222.84 L 291.65,193.40 L 303.77,163.71 L 311.50,143.78 L 322.58,113.68 L 333.02,83.35 L 342.82,52.82 L 349.00,32.35 L 356.70,5.14 L 370.07,5.14 L 358.27,46.32 Z M 385.46,20.33 L 373.14,62.20 L 359.45,103.64 L 356.10,114.03 L 347.89,122.69 L 345.28,133.32 L 345.01,144.83 L 333.28,175.39 L 320.91,205.70 L 307.91,235.75 L 294.71,253.69 L 289.76,263.38 L 286.97,274.11 L 282.65,284.12 L 277.58,293.76 L 272.80,303.56 L 268.45,313.57 L 265.10,324.11 L 260.08,333.80 L 254.89,343.40 L 249.70,353.00 L 233.63,381.52 L 216.97,409.70 L 205.05,427.98 L 198.96,437.04 L 193.84,446.71 L 187.90,455.86 L 181.89,464.97 L 175.82,474.04 L 169.43,482.89 L 162.85,491.60 L 155.29,499.62 L 148.39,508.08 L 143.37,517.89 L 137.39,527.03 L 130.32,535.36 L 123.29,543.71 L 115.15,551.19 L 107.75,559.23 L 87.40,584.73 L 66.51,609.80 L 61.95,620.23 L 55.95,629.47 L 48.84,637.74 L 41.57,645.88 L 34.03,653.78 L 26.48,661.65 L 19.01,669.60 L 11.77,677.77 L 5.14,684.88 L 5.14,666.27 L 32.00,637.27 L 39.60,629.54 L 49.10,623.47 L 57.26,616.18 L 64.32,607.94 L 71.33,599.65 L 78.28,591.30 L 85.17,582.91 L 91.84,574.34 L 97.69,565.13 L 103.25,555.71 L 109.62,546.93 L 115.90,538.10 L 122.70,529.66 L 130.50,521.95 L 136.46,512.87 L 141.51,503.16 L 147.76,494.30 L 153.82,485.33 L 159.76,476.27 L 165.15,466.85 L 171.40,458.00 L 178.47,449.70 L 183.35,439.95 L 194.62,421.47 L 211.54,393.75 L 227.87,365.70 L 233.52,356.46 L 239.60,347.44 L 244.88,337.99 L 248.76,327.78 L 253.77,318.19 L 278.00,269.81 L 300.52,220.61 L 321.31,170.66 L 340.35,120.01 L 345.47,110.33 L 350.74,100.68 L 350.92,89.31 L 364.01,48.05 L 375.94,6.44 L 376.27,5.14 L 389.48,5.14 L 385.46,20.33 Z M 403.64,25.41 L 394.39,57.22 L 387.39,78.17 L 383.57,88.54 L 379.79,98.91 L 375.82,109.22 L 371.44,119.37 L 367.16,129.56 L 363.01,139.77 L 358.01,149.67 L 354.13,159.97 L 350.19,170.25 L 349.75,181.91 L 346.72,192.59 L 333.99,223.18 L 319.69,253.07 L 312.57,261.94 L 307.13,271.56 L 302.81,281.70 L 299.52,292.35 L 295.76,302.79 L 291.71,313.11 L 286.98,323.09 L 281.89,332.89 L 276.74,342.66 L 271.52,352.39 L 266.05,361.99 L 260.59,371.59 L 255.46,381.37 L 249.97,390.95 L 244.42,400.50 L 238.80,410.01 L 232.42,419.06 L 226.67,428.48 L 221.53,438.28 L 215.65,447.63 L 209.70,456.93 L 203.68,466.20 L 197.44,475.31 L 190.99,484.27 L 184.15,492.97 L 177.71,501.93 L 172.01,511.41 L 165.61,520.41 L 159.05,529.28 L 152.24,537.98 L 144.72,546.13 L 137.77,554.70 L 132.04,564.20 L 125.06,572.75 L 116.30,579.88 L 108.94,588.10 L 102.02,596.65 L 95.03,605.16 L 88.27,613.86 L 82.88,623.73 L 76.67,632.93 L 69.87,641.65 L 62.95,650.27 L 40.69,674.81 L 17.79,698.75 L 9.91,706.49 L 5.14,711.53 L 5.14,693.75 L 8.70,689.97 L 16.40,682.18 L 24.18,674.46 L 31.63,666.42 L 38.87,658.19 L 46.02,649.89 L 53.33,641.73 L 60.67,633.60 L 69.02,626.33 L 78.69,620.17 L 99.79,594.84 L 120.36,569.08 L 126.37,559.83 L 131.51,549.94 L 137.64,540.83 L 143.61,531.61 L 150.54,523.10 L 158.31,515.18 L 164.07,505.81 L 169.06,495.92 L 174.90,486.63 L 180.79,477.40 L 186.89,468.29 L 192.92,459.15 L 198.88,449.96 L 205.55,441.22 L 211.10,431.77 L 222.10,412.81 L 238.83,384.52 L 254.96,355.89 L 260.24,346.29 L 265.38,336.62 L 270.56,326.97 L 277.27,318.10 L 282.85,308.63 L 287.87,298.87 L 292.45,288.90 L 297.65,279.22 L 304.23,270.19 L 308.52,260.07 L 313.39,238.19 L 326.44,208.03 L 338.86,177.60 L 350.63,146.92 L 357.92,137.92 L 362.71,127.97 L 361.77,116.01 L 365.54,105.72 L 378.87,63.98 L 391.24,21.95 L 395.68,5.14 L 409.06,5.14 L 403.64,25.41 Z M 427.67,8.91 L 424.76,19.70 L 421.26,30.33 L 417.82,40.96 L 414.48,51.62 L 410.62,62.12 L 406.92,72.66 L 402.72,83.04 L 398.72,93.46 L 394.45,103.79 L 390.83,114.33 L 387.27,124.89 L 384.00,135.55 L 380.94,146.30 L 377.22,156.81 L 373.29,167.25 L 369.63,177.79 L 368.18,189.21 L 364.21,199.66 L 351.33,230.61 L 336.32,260.62 L 331.32,270.60 L 327.50,281.14 L 323.23,291.48 L 318.75,301.73 L 313.83,311.76 L 298.61,341.63 L 282.77,371.18 L 277.27,380.91 L 271.49,390.48 L 265.89,400.14 L 260.00,409.64 L 253.77,418.93 L 248.96,429.07 L 243.42,438.78 L 237.54,448.28 L 231.58,457.74 L 225.56,467.15 L 219.24,476.38 L 212.26,485.15 L 206.60,494.80 L 200.81,504.37 L 194.36,513.51 L 187.19,522.12 L 180.24,530.88 L 173.22,539.58 L 166.74,548.66 L 160.03,557.59 L 152.60,565.96 L 145.33,574.43 L 137.49,582.46 L 130.60,591.21 L 124.40,600.52 L 120.35,611.60 L 113.42,620.37 L 99.05,637.50 L 77.06,662.80 L 54.54,687.63 L 31.50,711.99 L 7.96,735.86 L 5.14,738.60 L 5.14,720.79 L 6.89,719.05 L 14.84,711.32 L 22.39,703.19 L 45.10,678.89 L 67.44,654.25 L 75.15,646.27 L 82.87,638.29 L 91.06,630.69 L 99.95,623.66 L 107.36,615.36 L 114.42,606.77 L 121.41,598.12 L 127.86,589.04 L 132.79,578.79 L 139.37,569.85 L 147.08,561.77 L 153.45,552.66 L 159.12,543.05 L 165.39,533.89 L 171.77,524.81 L 178.19,515.77 L 185.18,507.13 L 191.31,497.87 L 196.91,488.27 L 202.77,478.84 L 208.71,469.48 L 214.74,460.18 L 220.72,450.84 L 226.62,441.46 L 233.15,432.46 L 238.93,423.00 L 243.95,413.08 L 249.59,403.54 L 255.17,393.95 L 260.68,384.33 L 266.41,374.84 L 271.68,365.08 L 276.80,355.25 L 282.04,345.48 L 287.21,335.67 L 292.31,325.83 L 297.62,316.09 L 303.49,306.62 L 309.49,297.21 L 315.83,287.93 L 321.01,278.09 L 324.92,267.65 L 327.01,256.39 L 339.50,225.54 L 352.28,194.84 L 357.48,184.97 L 365.11,176.03 L 369.09,165.65 L 373.00,155.24 L 375.65,144.37 L 378.99,133.76 L 382.06,123.07 L 384.88,112.30 L 387.98,101.64 L 391.10,90.99 L 394.05,80.28 L 400.14,58.96 L 409.41,27.02 L 415.28,5.14 L 428.65,5.14 L 427.67,8.91 Z M 441.46,12.55 L 439.20,23.63 L 436.15,34.48 L 432.30,45.12 L 428.95,55.88 L 425.73,66.68 L 422.44,77.46 L 419.06,88.22 L 415.62,98.95 L 415.69,110.86 L 413.14,121.92 L 409.37,132.58 L 404.87,142.98 L 400.46,153.40 L 396.81,164.10 L 392.89,174.69 L 388.57,185.14 L 383.92,195.44 L 381.71,206.73 L 368.67,238.05 L 354.81,269.00 L 350.28,279.36 L 335.73,310.01 L 320.54,340.34 L 304.72,370.34 L 287.98,399.85 L 281.97,409.43 L 276.48,419.31 L 270.97,429.19 L 265.39,439.02 L 259.50,448.67 L 253.50,458.26 L 246.88,467.45 L 240.30,476.65 L 234.98,486.68 L 229.04,496.30 L 222.73,505.68 L 215.73,514.59 L 208.78,523.53 L 202.22,532.72 L 195.52,541.82 L 188.91,550.98 L 181.07,559.23 L 173.10,567.36 L 166.11,576.21 L 159.27,585.17 L 152.36,594.07 L 145.39,602.93 L 138.51,611.87 L 133.66,622.46 L 127.56,632.08 L 120.72,641.09 L 106.06,658.31 L 83.63,683.75 L 60.67,708.72 L 37.19,733.21 L 13.21,757.19 L 5.14,764.92 L 5.14,746.97 L 12.19,740.12 L 35.82,716.16 L 58.94,691.71 L 81.54,666.78 L 103.62,641.38 L 118.04,624.20 L 125.33,615.67 L 135.37,609.34 L 143.14,601.15 L 150.10,592.31 L 155.98,582.64 L 162.31,573.33 L 168.36,563.81 L 175.00,554.76 L 181.75,545.78 L 187.83,536.31 L 193.85,526.82 L 199.52,517.09 L 205.79,507.79 L 212.58,498.84 L 219.38,489.88 L 224.72,479.96 L 230.60,470.40 L 236.65,460.95 L 242.62,451.46 L 248.54,441.93 L 254.66,432.53 L 261.39,423.47 L 266.56,413.49 L 271.93,403.63 L 277.46,393.87 L 282.68,383.93 L 288.03,374.07 L 303.93,344.41 L 319.21,314.43 L 324.18,304.37 L 329.45,294.46 L 334.78,284.57 L 340.43,274.81 L 344.75,264.44 L 356.85,232.98 L 369.78,201.91 L 374.13,191.57 L 380.85,182.14 L 385.21,171.78 L 389.16,161.25 L 393.17,150.75 L 397.70,140.43 L 401.86,129.97 L 405.60,119.36 L 409.12,108.67 L 411.85,97.73 L 414.69,86.83 L 417.19,75.84 L 420.04,64.96 L 422.57,54.00 L 425.48,43.16 L 428.13,32.25 L 430.59,21.28 L 433.47,10.44 L 434.85,5.14 L 443.22,5.14 L 441.46,12.55 Z M 453.34,39.28 L 447.86,61.45 L 445.11,72.53 L 442.11,83.55 L 437.85,94.18 L 437.50,106.06 L 434.75,117.19 L 431.10,128.04 L 427.37,138.85 L 422.37,149.21 L 417.25,159.51 L 414.11,170.53 L 410.50,181.38 L 406.07,191.92 L 400.75,202.11 L 399.20,213.80 L 376.86,266.44 L 352.69,318.28 L 326.72,369.24 L 298.99,419.26 L 287.35,438.95 L 281.26,448.63 L 274.83,458.11 L 268.01,467.32 L 262.66,477.47 L 257.28,487.60 L 251.05,497.19 L 244.59,506.63 L 237.59,515.71 L 230.54,524.73 L 223.69,533.89 L 216.82,543.02 L 209.42,551.77 L 201.54,560.15 L 194.80,569.36 L 188.35,578.77 L 182.94,588.98 L 176.62,598.53 L 169.16,607.20 L 161.94,616.05 L 155.11,625.21 L 148.28,634.39 L 142.10,644.10 L 135.02,653.09 L 127.73,661.90 L 120.35,670.64 L 105.28,687.85 L 82.23,713.27 L 58.65,738.21 L 34.55,762.64 L 9.95,786.56 L 8.15,788.24 L 5.14,788.24 L 5.14,773.24 L 17.40,761.48 L 41.48,737.40 L 65.04,712.83 L 88.09,687.77 L 110.61,662.23 L 125.32,644.94 L 132.97,636.55 L 141.26,628.66 L 150.67,621.65 L 157.93,612.87 L 164.97,603.93 L 171.94,594.93 L 178.86,585.89 L 185.50,576.64 L 191.04,566.58 L 196.59,556.56 L 203.23,547.34 L 209.65,537.97 L 216.09,528.61 L 222.00,518.89 L 227.74,509.06 L 234.03,499.62 L 240.56,490.33 L 247.58,481.35 L 253.21,471.46 L 258.66,461.48 L 264.61,451.81 L 270.52,442.13 L 276.60,432.54 L 282.63,422.92 L 288.53,413.21 L 293.78,403.14 L 310.00,373.20 L 325.88,343.08 L 341.12,312.64 L 355.72,281.88 L 360.63,271.64 L 374.19,240.41 L 387.27,208.98 L 393.47,199.23 L 397.09,188.44 L 400.89,177.73 L 404.94,167.12 L 409.12,156.55 L 412.37,145.65 L 415.41,134.68 L 419.01,123.92 L 423.69,113.52 L 430.84,103.90 L 434.32,93.06 L 437.72,82.19 L 441.05,71.31 L 444.30,60.40 L 447.27,49.41 L 449.59,38.24 L 452.56,27.25 L 456.17,16.44 L 459.28,5.14 L 462.36,5.14 L 453.34,39.28 Z M 481.87,11.29 L 479.06,22.49 L 476.32,33.71 L 473.51,44.92 L 471.22,56.27 L 468.61,67.55 L 465.54,78.70 L 462.74,89.94 L 459.56,101.06 L 456.26,112.16 L 452.65,123.15 L 448.96,134.12 L 445.19,145.06 L 441.20,155.92 L 435.79,166.26 L 431.37,176.95 L 427.95,188.01 L 423.72,198.77 L 418.50,209.13 L 416.01,220.59 L 412.32,231.58 L 389.35,284.67 L 364.54,336.93 L 337.91,388.29 L 309.51,438.69 L 297.09,458.22 L 290.25,467.59 L 284.31,477.51 L 278.79,487.70 L 272.56,497.44 L 265.49,506.64 L 259.41,516.48 L 252.78,525.95 L 245.72,535.12 L 237.50,543.48 L 230.23,552.49 L 223.55,561.89 L 217.15,571.50 L 212.48,582.39 L 206.39,592.27 L 199.67,601.68 L 193.09,611.22 L 185.79,620.19 L 178.36,629.06 L 170.94,637.94 L 163.85,647.08 L 156.60,656.09 L 149.34,665.10 L 142.04,674.08 L 134.57,682.92 L 127.04,691.70 L 111.67,709.00 L 88.18,734.56 L 64.15,759.61 L 39.61,784.15 L 35.35,788.24 L 16.83,788.24 L 38.78,766.90 L 62.96,742.37 L 86.63,717.35 L 109.76,691.84 L 124.89,674.56 L 132.42,665.89 L 139.92,657.20 L 147.51,648.58 L 155.88,640.58 L 163.48,631.94 L 170.95,623.19 L 177.90,614.03 L 184.48,604.59 L 192.09,595.93 L 200.47,587.84 L 207.68,578.85 L 214.48,569.56 L 220.01,559.35 L 225.89,549.42 L 232.16,539.78 L 238.33,530.07 L 244.16,520.14 L 249.91,510.17 L 256.07,500.47 L 262.32,490.85 L 269.29,481.67 L 276.16,472.41 L 281.41,462.15 L 286.93,452.06 L 292.64,442.10 L 304.19,422.26 L 332.02,372.05 L 358.08,320.91 L 382.34,268.88 L 404.77,216.05 L 411.73,206.45 L 414.77,195.30 L 418.56,184.44 L 423.01,173.84 L 427.79,163.35 L 430.43,152.08 L 433.04,140.83 L 436.78,129.97 L 440.44,119.09 L 444.85,108.45 L 451.50,98.51 L 454.10,87.26 L 457.80,76.36 L 461.59,65.49 L 468.75,43.59 L 478.91,5.14 L 483.00,5.14 L 481.87,11.29 Z M 506.46,5.52 L 503.59,16.87 L 500.64,28.19 L 497.53,39.47 L 494.24,50.70 L 490.94,61.93 L 487.67,73.16 L 484.39,84.39 L 481.21,95.66 L 477.77,106.84 L 474.17,117.98 L 470.55,129.11 L 466.82,140.20 L 463.01,151.26 L 459.12,162.30 L 454.75,173.16 L 449.43,183.66 L 444.87,194.44 L 441.07,205.50 L 436.99,216.45 L 434.06,227.88 L 429.77,238.77 L 406.53,292.47 L 381.44,345.32 L 354.51,397.26 L 325.79,448.24 L 313.38,468.09 L 306.82,477.79 L 300.31,487.51 L 293.83,497.24 L 286.86,506.66 L 280.98,516.78 L 273.75,526.01 L 267.88,536.14 L 262.00,546.27 L 254.29,555.16 L 246.44,563.92 L 239.87,573.57 L 233.39,583.29 L 227.48,593.45 L 221.49,603.56 L 215.06,613.36 L 208.07,622.76 L 200.90,632.00 L 193.28,640.89 L 185.89,649.96 L 178.62,659.13 L 171.06,668.06 L 163.65,677.11 L 156.15,686.09 L 148.67,695.09 L 141.07,703.99 L 133.50,712.91 L 117.83,730.30 L 93.89,755.97 L 69.42,781.14 L 62.22,788.24 L 44.01,788.24 L 68.44,763.81 L 92.55,738.66 L 116.13,713.02 L 131.55,695.65 L 139.23,686.94 L 146.85,678.17 L 154.51,669.44 L 162.09,660.64 L 169.56,651.74 L 177.05,642.86 L 184.10,633.62 L 191.01,624.27 L 197.91,614.93 L 205.42,606.05 L 212.64,596.94 L 220.38,588.21 L 229.40,580.40 L 236.56,571.20 L 243.31,561.71 L 249.35,551.72 L 254.29,541.00 L 260.26,530.99 L 266.53,521.21 L 273.20,511.69 L 278.76,501.44 L 285.02,491.65 L 291.86,482.23 L 298.13,472.44 L 303.37,462.02 L 314.69,441.73 L 343.19,391.14 L 369.91,339.60 L 394.81,287.15 L 417.87,233.87 L 422.95,223.39 L 429.07,213.32 L 432.31,202.10 L 436.38,191.21 L 441.12,180.57 L 444.71,169.51 L 447.15,158.04 L 450.86,147.03 L 454.64,136.05 L 458.34,125.04 L 461.97,114.01 L 465.76,103.03 L 469.52,92.04 L 473.49,81.10 L 477.04,70.03 L 480.90,59.05 L 484.92,48.10 L 488.27,36.96 L 491.53,25.79 L 494.56,14.55 L 497.54,5.14 L 506.55,5.14 L 506.46,5.52 Z M 518.88,33.01 L 506.15,78.60 L 492.15,123.82 L 476.90,168.63 L 468.54,190.77 L 463.19,201.40 L 458.02,212.07 L 454.35,223.33 L 451.68,235.00 L 428.57,289.47 L 403.56,343.09 L 376.70,395.81 L 348.01,447.56 L 329.91,478.10 L 323.29,487.92 L 315.61,497.07 L 307.92,506.19 L 302.47,516.72 L 297.81,527.79 L 291.47,537.78 L 285.32,547.90 L 278.66,557.68 L 271.73,567.28 L 264.16,576.42 L 257.28,586.04 L 250.22,595.52 L 242.98,604.88 L 236.05,614.45 L 230.20,624.85 L 223.02,634.27 L 215.77,643.62 L 208.10,652.64 L 200.60,661.79 L 193.18,671.00 L 185.64,680.12 L 178.16,689.28 L 170.60,698.38 L 162.85,707.33 L 155.24,716.39 L 147.31,725.17 L 139.72,734.25 L 123.76,751.73 L 99.36,777.53 L 88.80,788.24 L 70.76,788.24 L 73.67,785.37 L 98.24,760.11 L 122.27,734.34 L 137.98,716.89 L 145.91,708.22 L 153.69,699.42 L 161.47,690.62 L 169.11,681.69 L 176.71,672.73 L 184.03,663.54 L 191.51,654.48 L 198.75,645.23 L 205.63,635.70 L 212.83,626.42 L 220.09,617.18 L 227.77,608.26 L 235.75,599.55 L 243.70,590.78 L 250.93,581.49 L 257.94,572.03 L 263.53,561.58 L 269.15,551.17 L 276.44,541.91 L 283.61,532.56 L 289.29,522.21 L 296.18,512.67 L 301.84,502.33 L 307.86,492.22 L 313.70,482.02 L 319.35,471.70 L 330.96,451.27 L 359.79,400.12 L 386.81,347.99 L 412.00,294.94 L 435.32,241.06 L 439.88,230.23 L 445.66,219.89 L 450.14,209.02 L 454.74,198.19 L 458.43,187.01 L 461.20,175.51 L 464.77,164.31 L 468.68,153.24 L 472.50,142.13 L 476.25,131.00 L 479.95,119.86 L 483.52,108.67 L 487.09,97.48 L 490.77,86.32 L 494.18,75.08 L 497.46,63.80 L 500.54,52.46 L 503.47,41.09 L 506.44,29.72 L 509.40,18.36 L 512.28,6.97 L 512.73,5.14 L 525.83,5.14 L 518.88,33.01 Z M 534.02,49.39 L 520.83,95.40 L 506.36,141.02 L 490.62,186.22 L 482.15,208.60 L 477.13,219.49 L 473.55,230.93 L 469.18,242.07 L 445.80,297.14 L 420.52,351.36 L 393.36,404.67 L 364.24,456.92 L 357.96,467.12 L 350.95,476.86 L 343.05,486.05 L 336.46,496.02 L 329.58,505.80 L 323.51,516.08 L 320.09,528.08 L 314.20,538.51 L 294.23,568.34 L 273.37,597.56 L 265.90,606.91 L 258.99,616.68 L 252.10,626.46 L 245.21,636.25 L 237.97,645.78 L 230.64,655.23 L 222.98,664.43 L 215.42,673.71 L 207.94,683.04 L 200.27,692.22 L 192.55,701.36 L 184.89,710.55 L 177.05,719.58 L 169.20,728.61 L 161.29,737.58 L 153.45,746.62 L 145.70,755.74 L 129.44,773.30 L 115.12,788.24 L 97.23,788.24 L 103.68,781.69 L 128.16,755.81 L 144.18,738.27 L 152.39,729.68 L 160.14,720.68 L 168.08,711.84 L 175.76,702.78 L 183.51,693.77 L 191.20,684.72 L 198.71,675.51 L 206.22,666.31 L 213.51,656.92 L 220.50,647.31 L 227.78,637.93 L 235.01,628.51 L 243.42,619.97 L 250.62,610.51 L 257.39,600.73 L 264.20,590.99 L 271.05,581.28 L 277.08,571.00 L 283.61,561.07 L 290.29,551.25 L 297.32,541.67 L 304.04,531.87 L 312.29,523.05 L 319.61,513.61 L 324.56,502.66 L 329.37,491.66 L 335.11,481.24 L 353.21,450.56 L 382.00,398.63 L 408.95,345.72 L 434.05,291.91 L 457.25,237.25 L 463.39,226.91 L 468.37,216.09 L 471.70,204.63 L 474.68,193.06 L 482.55,170.64 L 497.86,125.67 L 511.90,80.30 L 524.68,34.54 L 532.01,5.14 L 545.38,5.14 L 534.02,49.39 Z M 564.27,7.47 L 552.23,54.34 L 538.89,100.85 L 524.26,146.97 L 508.35,192.67 L 499.90,215.34 L 495.58,226.64 L 477.45,271.51 L 458.08,315.85 L 437.48,359.63 L 415.66,402.82 L 409.95,413.49 L 403.87,423.95 L 397.82,434.43 L 391.58,444.80 L 385.14,455.04 L 379.35,465.65 L 373.53,476.25 L 367.12,486.50 L 361.18,497.03 L 355.40,507.67 L 348.61,517.69 L 340.33,526.75 L 333.59,536.78 L 329.61,548.60 L 323.33,558.95 L 302.93,588.96 L 281.83,618.49 L 274.42,628.05 L 267.55,638.02 L 260.27,647.68 L 252.92,657.29 L 245.51,666.85 L 238.03,676.36 L 230.17,685.57 L 222.47,694.89 L 214.97,704.39 L 207.23,713.68 L 199.42,722.92 L 191.51,732.06 L 183.37,741.01 L 175.37,750.08 L 167.12,758.93 L 159.49,768.33 L 151.45,777.37 L 141.24,788.24 L 123.43,788.24 L 133.81,777.41 L 150.13,759.79 L 158.49,751.16 L 166.63,742.32 L 174.57,733.31 L 182.45,724.24 L 190.21,715.07 L 198.02,705.95 L 205.65,696.67 L 213.20,687.33 L 220.80,678.03 L 228.20,668.57 L 235.37,658.93 L 242.73,649.44 L 250.05,639.92 L 257.59,630.57 L 264.99,621.10 L 272.24,611.52 L 278.79,601.44 L 299.18,571.73 L 319.22,541.80 L 326.39,532.13 L 335.89,523.94 L 342.59,513.93 L 348.35,503.33 L 354.25,492.84 L 358.69,481.48 L 363.88,470.59 L 369.67,460.06 L 398.66,407.48 L 425.91,353.99 L 451.28,299.58 L 474.74,244.32 L 479.27,233.20 L 484.44,222.32 L 488.01,210.83 L 496.26,188.27 L 512.05,142.91 L 526.57,97.13 L 539.81,50.96 L 551.58,5.14 L 564.79,5.14 L 564.27,7.47 Z M 579.69,23.78 L 563.86,82.84 L 545.99,141.31 L 526.08,199.12 L 521.78,210.57 L 517.55,222.05 L 499.55,267.53 L 480.28,312.49 L 459.76,356.89 L 438.01,400.71 L 431.74,411.23 L 424.95,421.46 L 417.71,431.44 L 410.85,441.59 L 408.72,454.37 L 403.11,465.25 L 397.03,475.86 L 390.88,486.43 L 384.66,496.96 L 378.36,507.44 L 371.92,517.84 L 365.01,527.94 L 358.05,538.00 L 350.05,547.38 L 343.18,557.48 L 338.82,569.24 L 332.24,579.55 L 311.41,609.75 L 289.95,639.50 L 267.87,668.80 L 245.08,697.55 L 237.27,706.97 L 229.48,716.39 L 221.69,725.81 L 213.97,735.30 L 206.04,744.61 L 197.96,753.79 L 189.55,762.67 L 181.24,771.64 L 172.81,780.50 L 166.80,788.24 L 149.47,788.24 L 155.85,781.45 L 164.21,772.64 L 172.86,764.10 L 180.77,754.87 L 188.80,745.76 L 196.56,736.42 L 204.41,727.16 L 212.25,717.89 L 220.02,708.56 L 227.91,699.33 L 235.46,689.82 L 242.73,680.08 L 250.23,670.54 L 257.67,660.95 L 265.05,651.31 L 272.35,641.61 L 279.94,632.12 L 286.84,622.13 L 307.86,592.39 L 328.33,562.27 L 335.39,552.38 L 344.60,543.87 L 350.93,533.48 L 355.56,522.03 L 361.55,511.45 L 368.39,501.40 L 374.94,491.16 L 380.87,480.55 L 387.23,470.20 L 393.49,459.78 L 398.94,448.91 L 404.46,438.08 L 410.01,427.27 L 415.38,416.38 L 420.98,405.60 L 442.87,362.26 L 463.54,318.33 L 482.98,273.83 L 501.17,228.81 L 505.54,217.49 L 513.99,194.72 L 529.96,148.87 L 544.64,102.58 L 558.02,55.91 L 570.10,8.88 L 571.04,5.14 L 583.99,5.14 L 579.69,23.78 Z M 600.94,16.34 L 588.65,64.23 L 575.02,111.76 L 560.07,158.88 L 551.95,182.24 L 547.26,193.68 L 543.44,205.44 L 539.54,217.18 L 521.66,263.27 L 502.50,308.85 L 482.08,353.88 L 459.81,398.02 L 453.41,408.62 L 447.24,419.33 L 441.48,430.26 L 435.29,440.94 L 428.55,451.32 L 423.70,462.75 L 419.18,474.37 L 413.37,485.29 L 407.16,495.98 L 400.86,506.62 L 394.50,517.21 L 388.06,527.76 L 381.16,538.03 L 374.43,548.39 L 367.19,558.43 L 359.51,568.17 L 352.98,578.65 L 347.61,589.91 L 340.94,600.32 L 319.67,630.70 L 297.77,660.62 L 275.24,690.08 L 259.73,709.33 L 251.80,718.82 L 243.91,728.33 L 236.11,737.91 L 228.25,747.45 L 220.31,756.93 L 212.22,766.27 L 204.04,775.54 L 195.61,784.58 L 192.43,788.24 L 176.23,788.24 L 178.75,785.92 L 186.78,776.63 L 194.80,767.34 L 202.59,757.84 L 210.59,748.53 L 218.60,739.24 L 226.70,730.02 L 234.59,720.61 L 242.35,711.10 L 249.97,701.48 L 272.62,672.46 L 294.78,643.06 L 316.31,613.21 L 337.22,582.90 L 344.27,572.86 L 353.39,564.16 L 359.87,553.71 L 365.07,542.45 L 371.16,531.78 L 377.16,521.06 L 383.49,510.55 L 389.81,500.03 L 396.06,489.47 L 402.23,478.86 L 408.33,468.21 L 414.75,457.74 L 424.49,449.09 L 429.37,437.74 L 433.71,426.12 L 438.34,414.68 L 443.35,403.45 L 465.17,359.49 L 485.76,314.93 L 505.09,269.82 L 523.16,224.18 L 527.55,212.72 L 531.72,201.18 L 551.69,143.17 L 569.63,84.49 L 585.51,25.23 L 590.15,5.14 L 603.49,5.14 L 600.94,16.34 Z M 619.28,20.78 L 610.09,57.11 L 600.14,93.24 L 589.43,129.16 L 577.54,164.70 L 572.89,176.31 L 569.33,188.29 L 565.77,200.28 L 548.35,247.11 L 529.63,293.44 L 509.63,339.23 L 487.97,384.26 L 481.29,394.89 L 475.81,406.10 L 471.57,417.96 L 465.82,429.05 L 459.81,440.00 L 453.54,450.81 L 447.51,461.75 L 441.27,472.56 L 435.24,483.50 L 429.34,494.51 L 423.43,505.53 L 417.07,516.28 L 410.64,526.99 L 404.13,537.65 L 397.23,548.07 L 390.41,558.53 L 383.63,569.02 L 376.20,579.09 L 368.65,589.05 L 361.75,599.46 L 356.25,610.81 L 349.41,621.27 L 327.70,651.82 L 305.36,681.90 L 282.39,711.52 L 266.49,730.79 L 258.50,740.39 L 250.37,749.87 L 242.28,759.39 L 234.15,768.87 L 226.27,778.57 L 218.15,788.07 L 218.00,788.24 L 201.05,788.24 L 208.53,779.52 L 216.73,770.22 L 224.88,760.87 L 233.06,751.54 L 241.19,742.17 L 249.23,732.73 L 257.06,723.10 L 264.72,713.34 L 279.97,693.78 L 302.57,664.22 L 324.55,634.19 L 345.89,603.71 L 353.13,593.64 L 361.54,584.33 L 368.64,574.14 L 374.45,563.10 L 380.55,552.28 L 387.01,541.69 L 393.17,530.91 L 399.63,520.32 L 406.02,509.69 L 412.33,499.01 L 418.57,488.29 L 425.08,477.73 L 432.71,467.78 L 439.86,457.54 L 444.98,446.18 L 450.49,435.04 L 456.28,424.06 L 461.50,412.78 L 466.35,401.32 L 487.51,356.43 L 508.00,311.26 L 527.22,265.52 L 545.16,219.27 L 549.82,207.76 L 554.39,196.22 L 557.92,184.31 L 565.76,160.78 L 580.76,113.49 L 594.44,65.80 L 606.77,17.75 L 609.64,5.14 L 622.89,5.14 L 619.28,20.78 Z M 634.61,37.47 L 625.06,74.12 L 614.75,110.56 L 607.27,134.68 L 603.02,146.58 L 598.72,158.45 L 595.13,170.55 L 591.64,182.69 L 587.74,194.70 L 570.47,242.15 L 551.88,289.10 L 531.99,335.51 L 510.10,381.01 L 504.24,392.19 L 499.74,404.04 L 494.08,415.33 L 488.35,426.58 L 482.54,437.79 L 476.66,448.96 L 470.52,459.99 L 464.41,471.03 L 458.20,482.03 L 451.99,493.01 L 445.77,504.00 L 439.57,514.99 L 433.28,525.94 L 426.78,536.76 L 420.20,547.54 L 413.46,558.21 L 406.31,568.62 L 399.59,579.31 L 392.47,589.73 L 385.29,600.11 L 377.79,610.27 L 370.65,620.67 L 364.79,631.96 L 357.66,642.38 L 335.51,673.09 L 312.72,703.34 L 289.30,733.10 L 281.32,742.89 L 272.99,752.38 L 264.87,762.04 L 256.60,771.58 L 248.43,781.20 L 242.08,788.24 L 226.11,788.24 L 231.08,782.78 L 239.61,773.59 L 247.77,764.06 L 255.84,754.46 L 263.73,744.72 L 271.62,734.98 L 287.09,715.24 L 310.13,685.53 L 332.55,655.34 L 354.34,624.69 L 361.71,614.55 L 370.27,605.20 L 377.30,594.81 L 383.52,583.88 L 389.73,572.95 L 396.43,562.36 L 402.95,551.64 L 409.24,540.79 L 415.77,530.09 L 422.23,519.35 L 428.61,508.56 L 435.28,497.94 L 441.82,487.24 L 448.08,476.37 L 453.97,465.30 L 459.92,454.26 L 465.48,443.02 L 471.14,431.83 L 476.91,420.70 L 484.03,410.26 L 489.76,399.09 L 494.13,387.27 L 515.09,341.71 L 535.17,295.77 L 553.95,249.28 L 571.42,202.29 L 576.18,190.67 L 580.76,178.99 L 584.09,166.88 L 595.16,130.93 L 605.90,94.89 L 615.89,58.64 L 625.11,22.19 L 629.05,5.14 L 642.31,5.14 L 634.61,37.47 Z M 658.92,17.24 L 649.79,54.40 L 639.73,91.33 L 636.03,103.53 L 632.27,115.72 L 627.76,127.68 L 623.60,139.74 L 620.45,152.10 L 617.30,164.48 L 613.78,176.75 L 597.00,224.94 L 578.88,272.63 L 559.44,319.81 L 538.08,366.14 L 532.85,377.77 L 527.82,389.50 L 510.93,423.84 L 493.32,457.81 L 481.15,480.24 L 474.76,491.28 L 468.46,502.37 L 462.06,513.40 L 455.56,524.37 L 449.48,535.60 L 442.92,546.53 L 436.27,557.42 L 429.55,568.26 L 422.53,578.92 L 415.40,589.50 L 408.42,600.17 L 401.25,610.72 L 393.53,620.89 L 386.27,631.36 L 379.25,642.01 L 372.92,653.14 L 365.69,663.65 L 343.09,694.53 L 319.85,724.93 L 295.97,754.84 L 279.41,774.24 L 271.01,783.85 L 267.60,788.24 L 251.95,788.24 L 253.89,785.91 L 262.19,776.33 L 270.24,766.55 L 278.31,756.78 L 286.03,746.73 L 293.97,736.86 L 317.47,707.00 L 340.34,676.65 L 362.57,645.84 L 369.94,635.54 L 378.45,626.01 L 385.52,615.49 L 392.09,604.63 L 398.83,593.90 L 405.49,583.11 L 412.40,572.49 L 418.72,561.50 L 425.31,550.68 L 431.91,539.87 L 438.43,529.01 L 445.01,518.19 L 451.54,507.33 L 457.89,496.36 L 464.09,485.32 L 470.15,474.19 L 476.14,463.03 L 481.95,451.77 L 487.86,440.57 L 493.69,429.32 L 499.44,418.04 L 505.11,406.71 L 511.78,395.87 L 516.92,384.28 L 537.47,337.95 L 557.43,291.39 L 576.08,244.28 L 593.41,196.67 L 597.73,184.76 L 602.31,172.94 L 606.63,161.01 L 610.05,148.80 L 613.37,136.57 L 620.51,112.26 L 630.85,75.70 L 640.43,38.92 L 648.48,5.14 L 661.15,5.14 L 658.92,17.24 Z M 678.56,8.62 L 676.27,21.31 L 674.22,34.07 L 671.22,46.60 L 667.97,59.07 L 664.34,71.44 L 660.61,83.78 L 656.94,96.13 L 652.94,108.38 L 649.47,120.78 L 646.33,133.29 L 643.31,145.84 L 639.65,158.19 L 627.57,194.92 L 614.73,231.39 L 601.13,267.58 L 586.77,303.48 L 571.41,338.96 L 564.06,349.79 L 558.86,361.56 L 555.81,374.33 L 539.23,409.26 L 521.92,443.83 L 503.88,478.03 L 485.12,511.84 L 478.50,522.89 L 471.91,533.97 L 465.41,545.09 L 459.05,556.31 L 452.34,567.31 L 445.55,578.26 L 438.68,589.17 L 431.46,599.85 L 424.31,610.57 L 417.07,621.23 L 409.71,631.80 L 402.21,642.28 L 394.70,652.74 L 387.65,663.53 L 380.97,674.59 L 373.49,685.09 L 358.20,705.83 L 334.72,736.55 L 310.59,766.76 L 292.70,788.24 L 276.74,788.24 L 284.61,778.61 L 300.62,758.63 L 324.58,728.63 L 347.89,698.13 L 370.57,667.14 L 378.14,656.82 L 386.47,647.02 L 393.97,636.63 L 401.07,625.97 L 407.56,614.91 L 414.46,604.12 L 421.40,593.36 L 428.03,582.41 L 434.64,571.44 L 441.38,560.57 L 448.05,549.64 L 454.64,538.67 L 461.58,527.91 L 467.93,516.79 L 474.22,505.65 L 480.47,494.47 L 486.47,483.17 L 498.61,460.63 L 516.28,426.55 L 533.23,392.10 L 539.17,380.74 L 544.74,369.22 L 564.95,322.17 L 584.46,274.84 L 602.64,226.99 L 619.47,178.65 L 623.94,166.64 L 628.60,154.69 L 633.08,142.67 L 636.40,130.29 L 639.19,117.76 L 642.55,105.40 L 645.81,93.02 L 655.60,55.90 L 664.76,18.61 L 668.19,6.27 L 668.52,5.14 L 678.94,5.14 L 678.56,8.62 Z M 694.53,12.25 L 693.29,25.30 L 690.94,38.11 L 688.24,50.84 L 685.22,63.50 L 681.56,75.99 L 677.85,88.47 L 674.55,101.05 L 671.82,113.80 L 668.75,126.46 L 665.33,139.02 L 653.65,176.29 L 641.19,213.31 L 627.96,250.06 L 613.97,286.53 L 599.01,322.61 L 592.32,333.90 L 587.42,345.95 L 581.03,357.35 L 577.36,369.96 L 572.94,382.25 L 556.19,417.53 L 538.70,452.45 L 520.48,487.01 L 501.55,521.17 L 488.31,543.59 L 481.66,554.78 L 475.19,566.08 L 468.41,577.20 L 461.55,588.26 L 454.50,599.20 L 447.43,610.14 L 440.03,620.85 L 432.83,631.70 L 425.59,642.51 L 417.77,652.94 L 410.34,663.61 L 403.07,674.41 L 395.48,684.98 L 388.76,696.18 L 373.31,717.14 L 349.58,748.16 L 325.22,778.69 L 317.26,788.24 L 300.51,788.24 L 315.24,770.56 L 339.44,740.24 L 363.00,709.43 L 378.35,688.61 L 385.98,678.17 L 394.25,668.19 L 402.01,657.82 L 409.16,647.04 L 416.18,636.16 L 423.18,625.28 L 430.15,614.39 L 437.06,603.46 L 443.75,592.38 L 450.64,581.44 L 457.45,570.45 L 464.19,559.42 L 471.13,548.50 L 477.77,537.40 L 484.17,526.17 L 490.37,514.82 L 509.16,480.88 L 527.25,446.57 L 544.62,411.89 L 561.26,376.85 L 568.96,366.15 L 574.34,354.37 L 577.41,341.58 L 592.32,305.77 L 606.72,269.75 L 620.37,233.44 L 633.25,196.86 L 645.37,160.01 L 649.42,147.73 L 653.95,135.59 L 658.19,123.35 L 661.92,110.96 L 664.95,98.37 L 668.14,85.83 L 671.09,73.23 L 673.97,60.61 L 677.05,48.05 L 680.21,35.52 L 684.14,23.16 L 687.66,10.69 L 689.56,5.14 L 695.64,5.14 L 694.53,12.25 Z M 712.11,16.24 L 709.42,29.09 L 707.98,42.24 L 705.46,55.14 L 702.32,67.89 L 699.74,80.80 L 696.72,93.59 L 693.85,106.44 L 690.58,119.17 L 687.15,131.87 L 675.62,169.60 L 663.29,207.08 L 650.19,244.30 L 636.31,281.23 L 620.75,317.49 L 616.60,330.00 L 611.46,342.11 L 605.45,353.83 L 598.80,365.26 L 595.54,378.20 L 573.14,425.80 L 549.43,472.76 L 524.41,519.03 L 497.87,564.44 L 491.33,575.86 L 484.48,587.08 L 477.55,598.26 L 470.54,609.39 L 463.23,620.32 L 455.92,631.25 L 448.50,642.11 L 441.09,652.97 L 433.75,663.87 L 426.02,674.51 L 418.31,685.16 L 410.89,696.01 L 403.25,706.70 L 396.26,717.88 L 380.50,738.94 L 356.32,770.12 L 341.64,788.24 L 325.07,788.24 L 329.87,782.48 L 354.31,751.86 L 378.11,720.73 L 393.61,699.70 L 402.15,689.75 L 409.67,679.06 L 417.36,668.49 L 424.73,657.70 L 431.57,646.55 L 438.84,635.69 L 446.00,624.76 L 452.80,613.60 L 459.79,602.57 L 466.64,591.44 L 473.52,580.34 L 480.33,569.19 L 487.29,558.14 L 493.92,546.88 L 506.76,524.13 L 525.76,489.86 L 544.03,455.20 L 561.58,420.16 L 578.39,384.76 L 584.82,373.34 L 591.85,362.16 L 595.98,349.69 L 601.44,337.81 L 604.94,325.10 L 619.55,288.73 L 633.59,252.15 L 646.86,215.29 L 659.36,178.15 L 671.08,140.76 L 675.11,128.33 L 679.32,115.95 L 683.69,103.60 L 687.31,91.04 L 690.35,78.32 L 693.27,65.57 L 696.65,52.94 L 700.17,40.34 L 703.86,27.78 L 708.49,15.42 L 711.49,5.14 L 714.87,5.14 L 712.11,16.24 Z M 733.93,7.61 L 731.58,20.67 L 729.91,33.89 L 727.33,46.92 L 724.47,59.88 L 721.82,72.90 L 718.93,85.87 L 715.80,98.78 L 712.39,111.61 L 708.96,124.45 L 697.57,162.63 L 685.39,200.57 L 672.42,238.25 L 658.66,275.65 L 648.32,300.13 L 643.92,312.67 L 639.10,325.05 L 634.00,337.31 L 628.73,349.51 L 621.19,360.71 L 617.60,373.63 L 612.73,386.00 L 584.24,445.99 L 553.68,504.95 L 521.07,562.81 L 486.47,619.50 L 479.15,630.58 L 471.72,641.59 L 464.21,652.55 L 456.83,663.58 L 449.36,674.57 L 441.61,685.35 L 433.81,696.09 L 426.12,706.91 L 418.32,717.65 L 410.89,728.67 L 403.52,739.74 L 387.46,760.90 L 365.95,788.24 L 349.36,788.24 L 361.02,773.84 L 385.28,742.57 L 401.09,721.44 L 409.65,711.36 L 417.42,700.69 L 425.26,690.06 L 432.66,679.13 L 439.89,668.08 L 447.36,657.20 L 454.61,646.17 L 461.69,635.03 L 468.73,623.87 L 475.61,612.60 L 482.64,601.44 L 489.59,590.23 L 496.46,578.97 L 503.49,567.80 L 529.64,521.96 L 554.74,475.54 L 578.54,428.43 L 601.01,380.68 L 608.55,369.60 L 612.53,356.92 L 616.98,344.47 L 622.13,332.33 L 628.11,320.52 L 641.90,283.40 L 655.83,246.35 L 668.97,209.02 L 681.34,171.42 L 692.91,133.57 L 696.83,120.97 L 700.73,108.36 L 704.86,95.80 L 708.65,83.15 L 712.72,70.56 L 716.04,57.78 L 719.80,45.09 L 724.47,32.62 L 727.71,19.79 L 730.29,6.81 L 730.58,5.14 L 734.48,5.14 L 733.93,7.61 Z M 754.66,12.17 L 752.27,25.37 L 749.75,38.55 L 746.87,51.64 L 743.98,64.74 L 741.01,77.83 L 737.78,90.85 L 727.10,129.65 L 715.60,168.21 L 703.30,206.53 L 690.19,244.58 L 675.89,282.20 L 670.25,294.39 L 666.60,307.36 L 661.61,319.82 L 656.54,332.24 L 651.39,344.62 L 645.97,356.89 L 638.22,368.15 L 634.74,381.26 L 629.91,393.79 L 601.14,454.38 L 570.27,513.93 L 537.35,572.36 L 502.40,629.61 L 495.11,640.87 L 487.46,651.89 L 479.96,663.01 L 472.47,674.13 L 464.88,685.19 L 457.40,696.32 L 449.47,707.14 L 441.38,717.84 L 433.58,728.75 L 425.75,739.62 L 418.57,751.00 L 410.56,761.76 L 394.19,783.01 L 390.02,788.24 L 373.58,788.24 L 392.21,764.56 L 408.33,743.33 L 416.82,733.04 L 425.11,722.59 L 432.88,711.75 L 440.60,700.88 L 448.05,689.83 L 455.41,678.71 L 462.91,667.68 L 470.32,656.61 L 477.46,645.35 L 484.52,634.05 L 491.54,622.71 L 526.25,565.85 L 558.95,507.81 L 589.61,448.66 L 618.19,388.48 L 624.22,376.58 L 631.36,365.15 L 634.39,351.93 L 639.53,339.64 L 644.65,327.34 L 649.88,315.08 L 655.36,302.91 L 664.27,277.78 L 678.07,240.26 L 691.09,202.47 L 703.31,164.41 L 714.73,126.10 L 718.54,113.33 L 722.20,100.51 L 725.95,87.72 L 729.76,74.94 L 733.64,62.17 L 737.13,49.29 L 740.72,36.43 L 745.04,23.73 L 748.49,10.81 L 749.68,5.14 L 755.36,5.14 L 754.66,12.17 Z M 774.60,16.55 L 771.91,29.83 L 768.98,43.06 L 765.99,56.27 L 752.52,108.75 L 737.58,160.84 L 721.20,212.49 L 703.38,263.66 L 698.02,276.12 L 693.64,288.94 L 689.08,301.70 L 684.14,314.31 L 679.11,326.89 L 673.99,339.43 L 668.78,351.94 L 663.31,364.33 L 656.53,376.15 L 651.71,388.82 L 647.09,401.59 L 641.45,413.90 L 635.73,426.18 L 629.92,438.42 L 624.02,450.62 L 618.00,462.75 L 611.97,474.88 L 586.87,522.90 L 560.44,570.20 L 532.69,616.74 L 503.10,662.13 L 495.79,673.53 L 488.11,684.69 L 480.53,695.91 L 472.81,707.03 L 464.90,718.02 L 457.06,729.06 L 448.83,739.82 L 440.74,750.68 L 432.86,761.69 L 425.59,773.16 L 413.98,788.24 L 397.69,788.24 L 398.92,786.71 L 415.34,765.38 L 423.50,754.68 L 432.34,744.49 L 440.37,733.68 L 448.30,722.79 L 455.78,711.59 L 463.26,700.39 L 471.03,689.40 L 478.55,678.24 L 486.01,667.03 L 493.30,655.71 L 500.29,644.20 L 507.47,632.82 L 542.52,575.40 L 575.55,516.78 L 606.51,457.05 L 635.37,396.27 L 641.55,384.29 L 648.92,372.82 L 651.84,359.41 L 656.92,346.95 L 662.09,334.53 L 667.18,322.07 L 672.17,309.57 L 678.33,297.53 L 682.31,284.63 L 695.85,246.59 L 708.99,208.42 L 721.33,169.99 L 732.86,131.30 L 743.58,92.38 L 747.13,79.40 L 750.75,66.43 L 754.27,53.43 L 757.62,40.39 L 761.14,27.39 L 764.62,14.36 L 767.73,5.14 L 776.86,5.14 L 774.60,16.55 Z M 788.24,44.15 L 787.50,47.40 L 777.71,87.25 L 770.73,113.70 L 763.37,140.05 L 751.65,179.37 L 743.37,205.45 L 730.29,244.34 L 720.96,270.06 L 716.39,282.95 L 701.68,321.25 L 686.18,359.25 L 674.56,384.02 L 668.82,396.44 L 663.67,409.11 L 658.58,421.82 L 652.80,434.22 L 646.93,446.57 L 640.98,458.89 L 634.87,471.12 L 628.81,483.39 L 603.47,531.88 L 576.78,579.63 L 548.76,626.63 L 519.18,672.65 L 511.25,683.80 L 503.75,695.24 L 495.97,706.48 L 488.09,717.65 L 480.45,728.99 L 472.44,740.08 L 464.29,751.05 L 456.09,761.99 L 447.75,772.83 L 440.08,784.17 L 437.27,788.24 L 421.55,788.24 L 430.37,776.79 L 439.42,766.60 L 447.72,755.82 L 455.65,744.78 L 463.30,733.54 L 471.18,722.45 L 478.83,711.22 L 486.52,700.01 L 494.19,688.79 L 501.61,677.39 L 509.24,666.14 L 537.80,619.89 L 565.63,573.20 L 592.15,525.76 L 617.33,477.59 L 623.45,465.46 L 629.41,453.25 L 635.33,441.01 L 641.16,428.74 L 646.90,416.42 L 652.55,404.07 L 659.06,392.09 L 665.19,379.93 L 669.19,366.85 L 674.31,354.26 L 679.54,341.72 L 684.67,329.13 L 689.72,316.52 L 694.68,303.87 L 699.84,291.29 L 705.01,278.71 L 709.02,265.71 L 726.89,214.38 L 743.33,162.57 L 758.31,110.33 L 771.83,57.68 L 775.13,44.50 L 778.30,31.28 L 781.53,18.08 L 784.56,5.14 L 788.24,5.14 L 788.24,44.15 Z M 785.27,131.96 L 773.71,171.74 L 765.54,198.13 L 752.60,237.49 L 738.84,276.56 L 724.26,315.34 L 708.88,353.81 L 692.55,391.88 L 686.22,404.18 L 680.67,416.82 L 675.71,429.73 L 669.87,442.25 L 663.95,454.72 L 657.94,467.16 L 651.66,479.46 L 645.48,491.81 L 639.30,504.16 L 633.03,516.46 L 613.45,552.97 L 593.12,589.07 L 572.03,624.73 L 550.20,659.94 L 535.12,683.08 L 527.21,694.40 L 519.35,705.75 L 511.54,717.14 L 503.68,728.49 L 495.57,739.66 L 487.79,751.06 L 479.65,762.21 L 471.31,773.21 L 462.94,784.19 L 460.43,788.24 L 446.23,788.24 L 454.75,778.06 L 462.75,766.90 L 470.73,755.73 L 478.60,744.48 L 486.47,733.24 L 494.54,722.13 L 502.22,710.75 L 509.83,699.34 L 517.58,688.01 L 524.73,676.28 L 553.87,629.77 L 581.97,582.63 L 608.75,534.73 L 634.17,486.10 L 640.38,473.86 L 646.37,461.52 L 652.34,449.16 L 658.23,436.77 L 664.03,424.34 L 670.34,412.14 L 676.42,399.82 L 681.74,387.16 L 691.71,361.57 L 707.26,323.46 L 722.01,285.04 L 726.90,272.21 L 735.95,246.31 L 749.08,207.30 L 757.38,181.15 L 769.14,141.70 L 776.52,115.27 L 783.53,88.74 L 788.24,69.55 L 788.24,120.86 L 785.27,131.96 Z M 787.69,190.53 L 779.26,217.11 L 765.89,256.74 L 761.29,269.90 L 746.85,309.15 L 731.59,348.09 L 715.52,386.70 L 704.21,412.19 L 697.92,424.65 L 692.18,437.34 L 686.94,450.28 L 680.96,462.88 L 674.90,475.43 L 668.70,487.92 L 662.22,500.26 L 655.82,512.65 L 649.40,525.02 L 643.25,537.54 L 623.23,574.26 L 602.44,610.55 L 580.90,646.40 L 558.61,681.79 L 542.87,704.81 L 535.02,716.33 L 527.19,727.85 L 519.18,739.26 L 511.10,750.62 L 503.13,762.05 L 494.93,773.31 L 486.59,784.48 L 484.18,788.24 L 470.55,788.24 L 477.90,778.08 L 485.90,766.75 L 493.94,755.47 L 502.18,744.32 L 509.93,732.83 L 517.78,721.41 L 525.52,709.92 L 533.05,698.29 L 540.37,686.52 L 555.26,663.15 L 577.16,627.84 L 598.31,592.07 L 618.71,555.86 L 638.35,519.24 L 644.81,506.99 L 651.19,494.69 L 657.39,482.30 L 663.33,469.79 L 669.36,457.32 L 675.30,444.80 L 681.15,432.25 L 687.71,420.01 L 693.49,407.42 L 698.33,394.41 L 714.43,356.10 L 729.86,317.51 L 744.48,278.61 L 758.28,239.42 L 771.26,199.94 L 779.45,173.48 L 788.24,143.23 L 788.24,188.70 L 787.69,190.53 Z M 787.69,249.43 L 783.74,262.95 L 769.44,302.68 L 754.31,342.09 L 738.36,381.18 L 721.59,419.93 L 715.68,432.70 L 709.29,445.25 L 703.47,458.06 L 697.86,470.97 L 691.85,483.70 L 685.64,496.33 L 679.32,508.90 L 672.72,521.33 L 666.13,533.76 L 659.53,546.19 L 653.17,558.75 L 646.52,571.15 L 625.80,607.94 L 604.30,644.28 L 582.06,680.16 L 558.83,715.41 L 550.58,726.82 L 542.68,738.46 L 534.78,750.11 L 526.60,761.55 L 518.31,772.91 L 510.24,784.44 L 507.77,788.24 L 493.68,788.24 L 501.15,777.83 L 509.28,766.45 L 517.48,755.12 L 525.43,743.60 L 533.27,732.02 L 541.13,720.45 L 548.82,708.76 L 563.66,685.04 L 586.01,649.55 L 607.62,613.59 L 628.47,577.18 L 648.55,540.35 L 655.42,528.17 L 661.85,515.75 L 668.13,503.25 L 674.15,490.62 L 680.29,478.06 L 686.37,465.47 L 692.37,452.84 L 698.94,440.47 L 704.82,427.77 L 709.98,414.76 L 721.03,389.07 L 737.15,350.34 L 752.46,311.28 L 766.94,271.91 L 771.63,258.73 L 784.97,218.96 L 788.24,208.65 L 788.24,247.85 L 787.69,249.43 Z M 787.13,309.25 L 777.04,335.81 L 761.21,375.38 L 744.56,414.61 L 727.09,453.48 L 708.81,491.97 L 689.73,530.08 L 682.90,542.53 L 676.24,555.08 L 669.61,567.64 L 663.06,580.24 L 642.14,617.37 L 620.44,654.05 L 597.99,690.27 L 574.71,725.96 L 566.40,737.49 L 558.13,749.04 L 550.13,760.77 L 541.94,772.37 L 533.76,783.98 L 531.06,788.24 L 516.84,788.24 L 524.78,777.55 L 532.82,765.94 L 540.81,754.29 L 548.92,742.73 L 556.86,731.06 L 564.29,719.04 L 587.12,683.37 L 609.44,647.38 L 630.99,610.94 L 651.78,574.04 L 658.62,561.70 L 665.59,549.41 L 672.14,536.91 L 678.51,524.31 L 684.71,511.63 L 691.01,499.00 L 697.25,486.33 L 703.51,473.68 L 709.99,461.13 L 716.09,448.39 L 721.43,435.31 L 727.07,422.37 L 743.89,383.51 L 759.89,344.30 L 775.06,304.77 L 788.24,268.17 L 788.24,306.15 L 787.13,309.25 Z M 778.66,382.57 L 761.85,422.16 L 744.22,461.39 L 725.77,500.24 L 706.51,538.70 L 699.90,551.42 L 692.95,563.96 L 686.11,576.56 L 679.37,589.21 L 672.64,601.87 L 651.26,639.19 L 629.11,676.06 L 606.19,712.46 L 582.10,748.08 L 573.81,759.78 L 565.51,771.46 L 557.36,783.25 L 554.26,788.24 L 540.16,788.24 L 548.32,776.87 L 556.44,765.16 L 564.60,753.47 L 572.32,741.49 L 579.84,729.37 L 603.05,693.48 L 625.58,657.16 L 647.33,620.37 L 668.31,583.13 L 675.38,570.76 L 682.20,558.24 L 688.81,545.62 L 695.07,532.82 L 714.20,494.60 L 732.54,455.99 L 750.06,417.01 L 766.76,377.67 L 782.63,337.98 L 788.24,323.21 L 788.24,358.60 L 778.66,382.57 Z M 779.14,429.71 L 761.35,469.30 L 742.73,508.51 L 723.29,547.32 L 709.82,572.93 L 702.81,585.59 L 695.78,598.23 L 689.08,611.06 L 682.01,623.68 L 660.17,661.20 L 637.56,698.24 L 614.17,734.81 L 597.90,758.74 L 589.48,770.50 L 581.15,782.33 L 577.49,788.24 L 563.33,788.24 L 563.74,787.74 L 572.05,776.01 L 580.06,764.05 L 587.91,752.00 L 611.24,715.71 L 634.22,679.21 L 656.44,642.23 L 677.88,604.80 L 685.07,592.35 L 692.08,579.79 L 698.80,567.07 L 705.25,554.22 L 711.85,541.44 L 731.16,502.87 L 749.67,463.91 L 767.35,424.56 L 784.20,384.86 L 788.24,374.76 L 788.24,408.27 L 779.14,429.71 Z M 778.47,477.22 L 759.69,516.78 L 740.08,555.95 L 719.51,594.62 L 712.42,607.38 L 705.31,620.13 L 698.41,633.00 L 676.38,670.86 L 653.56,708.24 L 629.96,745.14 L 613.67,769.38 L 604.88,781.05 L 600.53,788.24 L 586.17,788.24 L 587.40,786.67 L 595.53,774.65 L 603.39,762.44 L 619.19,738.10 L 642.65,701.42 L 665.33,664.27 L 687.22,626.65 L 694.38,614.02 L 701.73,601.50 L 708.57,588.70 L 715.25,575.82 L 728.63,550.07 L 748.12,511.14 L 766.79,471.82 L 784.64,432.12 L 788.24,423.63 L 788.24,455.49 L 778.47,477.22 Z M 776.65,525.06 L 756.86,564.57 L 743.19,590.68 L 736.23,603.66 L 728.92,616.45 L 721.66,629.27 L 714.68,642.24 L 707.50,655.11 L 685.00,693.15 L 661.71,730.71 L 637.64,767.77 L 623.09,788.24 L 609.06,788.24 L 611.26,785.42 L 618.91,772.91 L 634.98,748.43 L 658.65,711.42 L 681.53,673.93 L 703.63,635.97 L 711.09,623.36 L 718.16,610.54 L 725.06,597.62 L 745.41,558.69 L 765.08,519.42 L 783.92,479.74 L 788.24,470.12 L 788.24,500.64 L 776.65,525.06 Z M 773.64,573.20 L 752.81,612.62 L 745.55,625.60 L 738.28,638.56 L 730.88,651.45 L 723.84,664.54 L 708.79,690.18 L 685.56,728.24 L 661.54,765.81 L 646.52,788.24 L 631.67,788.24 L 642.64,771.09 L 666.78,733.92 L 690.13,696.25 L 712.69,658.11 L 720.17,645.36 L 727.68,632.63 L 734.73,619.64 L 741.54,606.53 L 748.52,593.51 L 762.19,567.32 L 782.04,527.69 L 788.24,514.62 L 788.24,544.04 L 773.64,573.20 Z M 769.42,621.61 L 762.07,634.68 L 754.80,647.79 L 747.36,660.81 L 740.06,673.91 L 732.63,686.93 L 717.28,712.69 L 693.57,750.93 L 669.34,788.24 L 653.74,788.24 L 666.56,769.09 L 690.65,731.42 L 713.95,693.25 L 729.03,667.54 L 736.78,654.80 L 744.00,641.75 L 751.16,628.68 L 758.15,615.51 L 778.97,575.94 L 788.24,557.44 L 788.24,585.95 L 769.42,621.61 Z M 778.57,643.75 L 771.32,657.03 L 763.85,670.17 L 756.25,683.25 L 748.91,696.48 L 733.42,722.47 L 709.50,761.04 L 691.84,788.24 L 676.49,788.24 L 698.64,754.14 L 722.41,715.80 L 737.81,689.97 L 745.49,677.04 L 753.12,664.08 L 760.42,650.93 L 767.71,637.78 L 774.73,624.48 L 788.24,598.83 L 788.24,625.96 L 778.57,643.75 Z M 787.74,666.20 L 780.27,679.50 L 772.59,692.68 L 765.17,706.02 L 757.41,719.16 L 741.61,745.27 L 717.21,784.00 L 714.42,788.24 L 698.99,788.24 L 714.57,764.25 L 738.55,725.58 L 754.08,699.52 L 761.99,686.56 L 769.44,673.35 L 776.84,660.11 L 784.28,646.88 L 788.24,639.39 L 788.24,665.31 L 787.74,666.20 Z M 781.29,715.48 L 773.62,728.82 L 757.68,755.15 L 736.84,788.24 L 721.60,788.24 L 722.26,787.25 L 746.72,748.41 L 762.57,722.24 L 770.37,709.08 L 778.33,696.00 L 785.83,682.66 L 788.24,678.39 L 788.24,703.21 L 781.29,715.48 Z M 773.75,765.04 L 759.14,788.24 L 743.93,788.24 L 762.79,758.30 L 778.78,731.90 L 786.80,718.71 L 788.24,716.30 L 788.24,741.11 L 773.75,765.04 Z M 781.43,788.24 L 766.23,788.24 L 778.86,768.18 L 788.24,752.69 L 788.24,777.43 L 781.43,788.24 Z " fill="black"/>
</svg>
