<?xml version="1.0" ?>
<svg xmlns="http://www.w3.org/2000/svg" baseProfile="full" height="217.7mm" width="217.7mm" viewBox="0 0 800.0 800.0" version="1.1">
<path d="M 0.00,499.41 L 0.00,513.21 L 0.00,519.83 L 0.00,534.05 L 0.00,540.74 L 0.00,555.08 L 0.00,561.79 L 0.00,576.21 L 0.00,582.95 L 0.00,597.46 L 0.00,604.28 L 0.00,618.94 L 0.00,625.80 L 0.00,640.56 L 0.00,647.50 L 0.00,662.42 L 0.00,669.39 L 0.00,684.50 L 0.00,691.56 L 0.00,706.85 L 0.00,714.00 L 0.00,729.50 L 0.00,736.75 L 0.00,752.50 L 0.00,759.86 L 0.00,775.90 L 0.00,783.45 L 0.00,794.86 L 0.00,799.78 L 0.00,800.00 L 800.00,800.00 L 800.00,0.00 L 795.54,0.00 L 794.86,0.00 L 776.57,0.00 L 767.70,0.00 L 748.48,0.00 L 739.41,0.00 L 719.80,0.00 L 710.66,0.00 L 690.76,0.00 L 681.46,0.00 L 661.31,0.00 L 651.76,0.00 L 631.26,0.00 L 621.47,0.00 L 600.45,0.00 L 590.57,0.00 L 569.15,0.00 L 558.99,0.00 L 537.04,0.00 L 526.68,0.00 L 504.25,0.00 L 493.55,0.00 L 470.40,0.00 L 459.38,0.00 L 444.97,0.00 L 421.57,0.00 L 408.84,0.00 L 382.05,0.00 L 371.90,0.00 L 342.43,0.00 L 333.62,0.00 L 304.10,0.00 L 293.10,0.00 L 263.76,0.00 L 250.33,0.00 L 215.67,0.00 L 205.16,0.00 L 170.14,0.00 L 155.99,0.00 L 116.00,0.00 L 102.13,0.00 L 63.28,0.00 L 41.45,0.00 L 11.76,0.00 L 0.71,0.00 L 0.00,0.00 L 0.00,11.76 L 0.00,12.98 L 0.00,19.18 L 0.00,32.58 L 0.00,38.80 L 0.00,52.15 L 0.00,58.37 L 0.00,71.72 L 0.00,77.94 L 0.00,91.33 L 0.00,97.59 L 0.00,111.02 L 0.00,117.28 L 0.00,130.69 L 0.00,136.96 L 0.00,150.42 L 0.00,156.69 L 0.00,170.08 L 0.00,176.40 L 0.00,189.92 L 0.00,196.22 L 0.00,209.66 L 0.00,216.03 L 0.00,229.52 L 0.00,235.89 L 0.00,249.27 L 0.00,255.96 L 0.00,269.21 L 0.00,275.84 L 0.00,288.92 L 0.00,296.13 L 0.00,308.90 L 0.00,316.23 L 0.00,328.65 L 0.00,336.59 L 0.00,348.93 L 0.00,356.78 L 0.00,368.89 L 0.00,377.18 L 0.00,388.81 L 0.00,397.86 L 0.00,408.88 L 0.00,418.24 L 0.00,428.90 L 0.00,439.18 L 0.00,449.21 L 0.00,460.17 L 0.00,469.31 L 0.00,481.09 L 0.00,491.84 L 0.00,499.41 Z M 349.79,761.70 L 343.61,752.39 L 334.09,738.59 L 327.58,729.50 L 317.59,716.05 L 310.77,707.19 L 300.31,694.09 L 293.18,685.48 L 282.27,672.75 L 274.85,664.39 L 259.86,655.47 L 248.33,643.45 L 236.55,631.67 L 228.56,623.95 L 216.38,612.59 L 208.12,605.16 L 195.55,594.23 L 182.75,583.57 L 174.09,576.61 L 160.93,566.40 L 152.04,559.74 L 138.53,550.00 L 124.81,540.54 L 115.56,534.39 L 101.53,525.42 L 92.07,519.60 L 77.73,511.12 L 63.21,502.94 L 53.44,497.66 L 38.65,489.99 L 28.70,485.05 L 23.80,482.44 L 19.03,479.52 L 14.30,476.50 L 11.76,474.99 L 11.76,466.19 L 12.64,466.70 L 17.83,468.88 L 23.33,470.38 L 28.74,472.12 L 34.17,473.84 L 39.41,475.98 L 49.48,481.06 L 59.48,486.29 L 74.35,494.40 L 84.16,499.97 L 98.73,508.59 L 108.35,514.50 L 117.87,520.55 L 132.01,529.87 L 141.32,536.25 L 155.12,546.05 L 164.20,552.75 L 173.19,559.57 L 186.50,570.04 L 195.24,577.18 L 208.17,588.10 L 216.67,595.54 L 225.05,603.09 L 237.43,614.64 L 245.55,622.48 L 257.52,634.45 L 257.86,641.97 L 265.60,650.09 L 276.98,662.47 L 284.43,670.86 L 295.38,683.63 L 302.53,692.28 L 313.03,705.43 L 323.25,718.79 L 329.90,727.82 L 339.65,741.53 L 345.98,750.79 L 355.25,764.83 L 361.26,774.30 L 370.02,788.66 L 373.62,794.86 L 370.31,794.86 L 364.68,785.34 L 358.82,775.82 L 349.79,761.70 Z M 26.07,490.44 L 35.95,495.34 L 50.63,502.95 L 60.32,508.20 L 74.73,516.31 L 88.96,524.73 L 98.35,530.50 L 112.28,539.41 L 121.46,545.51 L 135.07,554.90 L 148.48,564.57 L 157.30,571.18 L 170.37,581.31 L 178.96,588.22 L 191.66,598.80 L 204.14,609.65 L 212.33,617.02 L 224.42,628.30 L 232.35,635.96 L 244.04,647.65 L 255.49,659.58 L 262.96,675.10 L 270.24,683.29 L 280.93,695.76 L 287.91,704.20 L 298.16,717.04 L 304.84,725.72 L 314.64,738.91 L 321.01,747.82 L 330.34,761.34 L 336.40,770.46 L 345.26,784.30 L 350.99,793.63 L 351.72,794.86 L 348.36,794.86 L 345.70,790.46 L 336.98,776.61 L 331.00,767.48 L 324.90,758.43 L 315.51,745.02 L 309.09,736.19 L 299.24,723.12 L 292.52,714.52 L 285.69,706.01 L 271.40,696.68 L 260.73,684.40 L 253.47,676.35 L 242.38,664.45 L 231.04,652.79 L 223.35,645.15 L 211.61,633.89 L 199.64,622.88 L 191.53,615.68 L 179.18,605.10 L 166.61,594.78 L 158.11,588.04 L 145.19,578.16 L 132.07,568.56 L 123.21,562.31 L 109.76,553.16 L 96.12,544.31 L 86.92,538.56 L 72.98,530.18 L 58.87,522.10 L 49.36,516.88 L 34.98,509.29 L 20.43,502.01 L 11.76,497.85 L 11.76,485.15 L 15.79,486.41 L 21.02,488.24 L 26.07,490.44 Z M 368.70,756.17 L 359.25,741.84 L 352.79,732.40 L 342.85,718.41 L 336.06,709.21 L 325.63,695.57 L 314.93,682.16 L 307.64,673.35 L 296.47,660.32 L 288.88,651.77 L 277.26,639.14 L 269.37,630.85 L 261.81,630.25 L 249.75,618.19 L 241.57,610.29 L 229.10,598.66 L 220.65,591.05 L 212.10,583.56 L 199.07,572.55 L 190.26,565.37 L 176.85,554.82 L 167.80,547.95 L 158.65,541.20 L 144.74,531.32 L 135.36,524.90 L 121.13,515.51 L 111.53,509.42 L 101.84,503.46 L 87.16,494.78 L 77.28,489.16 L 62.30,481.00 L 52.23,475.73 L 42.08,470.60 L 37.15,467.74 L 32.38,464.52 L 27.56,461.40 L 22.79,458.12 L 17.68,455.59 L 12.25,453.75 L 11.76,453.55 L 11.76,444.58 L 15.60,446.24 L 20.70,448.92 L 26.01,451.16 L 31.29,453.47 L 36.43,456.06 L 42.06,457.67 L 47.49,459.69 L 52.89,461.80 L 58.11,464.28 L 68.34,469.63 L 83.55,477.93 L 93.60,483.63 L 108.51,492.45 L 118.34,498.50 L 132.94,507.84 L 142.56,514.23 L 156.82,524.07 L 166.21,530.79 L 180.12,541.12 L 189.27,548.17 L 202.81,558.97 L 211.71,566.34 L 224.86,577.61 L 233.50,585.28 L 246.25,597.00 L 251.14,608.57 L 259.34,616.60 L 271.43,628.86 L 283.27,641.37 L 294.83,654.13 L 306.13,667.12 L 317.15,680.35 L 327.89,693.81 L 334.90,702.90 L 345.17,716.73 L 355.14,730.76 L 364.82,745.01 L 374.20,759.45 L 383.27,774.08 L 392.04,788.90 L 395.42,794.86 L 392.14,794.86 L 383.77,780.47 L 374.82,765.83 L 368.70,756.17 Z M 396.96,765.79 L 387.71,750.88 L 378.15,736.15 L 368.28,721.63 L 358.11,707.32 L 347.64,693.23 L 340.50,683.96 L 329.55,670.24 L 318.31,656.75 L 306.80,643.50 L 295.01,630.50 L 282.94,617.74 L 270.62,605.24 L 262.26,597.06 L 250.36,592.63 L 237.51,580.82 L 228.81,573.10 L 215.56,561.74 L 206.60,554.32 L 192.96,543.44 L 183.75,536.34 L 169.74,525.93 L 160.28,519.16 L 145.91,509.25 L 136.22,502.82 L 121.52,493.41 L 111.62,487.32 L 96.60,478.44 L 86.48,472.69 L 71.16,464.34 L 60.85,458.95 L 55.74,456.17 L 50.77,453.09 L 45.81,449.99 L 40.99,446.55 L 35.67,444.17 L 30.44,441.58 L 25.21,439.00 L 19.74,436.93 L 14.42,434.54 L 11.76,433.35 L 11.76,423.83 L 12.53,424.16 L 17.96,426.45 L 23.33,428.88 L 28.72,431.24 L 34.12,433.60 L 39.49,436.04 L 44.79,438.62 L 49.99,441.40 L 55.54,443.48 L 61.12,445.52 L 66.59,447.78 L 71.98,450.22 L 82.41,455.77 L 92.76,461.46 L 103.03,467.29 L 118.28,476.31 L 128.34,482.50 L 138.32,488.83 L 148.20,495.30 L 162.86,505.26 L 172.51,512.07 L 182.07,519.01 L 191.53,526.09 L 205.53,536.95 L 214.73,544.35 L 223.84,551.88 L 232.83,559.54 L 243.51,574.16 L 247.13,578.92 L 255.74,586.89 L 268.46,599.09 L 280.91,611.54 L 293.11,624.26 L 301.08,632.87 L 312.82,646.00 L 324.29,659.38 L 335.47,672.99 L 342.76,682.19 L 353.46,696.19 L 363.87,710.40 L 373.97,724.83 L 380.54,734.57 L 390.13,749.34 L 399.41,764.31 L 408.38,779.47 L 414.18,789.68 L 417.00,794.86 L 413.73,794.86 L 411.67,791.08 L 405.89,780.90 L 396.96,765.79 Z M 413.10,756.02 L 403.64,740.77 L 393.86,725.71 L 387.17,715.79 L 376.87,701.09 L 366.27,686.60 L 355.37,672.34 L 347.94,662.96 L 336.54,649.09 L 324.86,635.46 L 312.90,622.08 L 304.77,613.30 L 292.34,600.35 L 279.65,587.66 L 266.70,575.23 L 257.92,567.10 L 252.75,563.90 L 236.75,555.00 L 227.69,547.29 L 218.53,539.70 L 209.25,532.25 L 195.15,521.31 L 185.63,514.18 L 176.00,507.19 L 166.28,500.33 L 151.52,490.30 L 141.57,483.79 L 131.52,477.41 L 121.39,471.18 L 106.03,462.10 L 95.68,456.22 L 85.26,450.49 L 74.76,444.90 L 69.62,441.89 L 64.53,438.76 L 59.50,435.50 L 54.41,432.34 L 48.94,429.96 L 43.53,427.46 L 38.15,424.88 L 32.77,422.31 L 27.36,419.81 L 21.88,417.46 L 16.43,415.04 L 11.76,413.11 L 11.76,402.74 L 14.63,403.94 L 20.14,406.40 L 25.64,408.85 L 31.23,411.12 L 36.68,413.70 L 42.15,416.25 L 47.65,418.70 L 53.12,421.24 L 58.32,424.32 L 63.89,426.66 L 69.32,429.27 L 74.92,431.57 L 80.56,433.79 L 86.06,436.32 L 96.68,442.06 L 107.22,447.95 L 122.88,457.06 L 133.21,463.32 L 143.45,469.72 L 158.64,479.58 L 168.65,486.34 L 178.57,493.23 L 193.26,503.83 L 202.93,511.06 L 212.50,518.43 L 226.66,529.73 L 237.34,545.13 L 246.42,552.98 L 259.85,564.98 L 273.02,577.27 L 285.93,589.82 L 298.58,602.65 L 306.86,611.34 L 319.05,624.60 L 330.96,638.11 L 342.58,651.86 L 353.92,665.86 L 364.96,680.09 L 372.15,689.70 L 382.68,704.31 L 392.91,719.14 L 402.83,734.17 L 412.42,749.41 L 418.64,759.68 L 427.70,775.25 L 436.43,791.00 L 438.47,794.86 L 435.22,794.86 L 428.15,781.88 L 422.23,771.47 L 413.10,756.02 Z M 432.39,751.49 L 426.05,741.03 L 416.27,725.50 L 406.18,710.19 L 395.76,695.09 L 385.03,680.21 L 377.70,670.42 L 366.46,655.92 L 354.91,641.66 L 343.07,627.65 L 330.94,613.89 L 318.52,600.39 L 310.09,591.53 L 297.21,578.47 L 284.06,565.68 L 270.64,553.17 L 256.96,540.94 L 247.71,532.95 L 230.45,525.08 L 216.20,513.70 L 206.56,506.28 L 196.82,499.00 L 182.03,488.33 L 172.04,481.39 L 161.96,474.59 L 146.67,464.65 L 136.35,458.21 L 125.95,451.91 L 110.19,442.73 L 99.57,436.80 L 88.88,431.02 L 83.65,427.89 L 78.54,424.53 L 73.34,421.33 L 67.93,418.51 L 62.62,415.51 L 56.92,413.31 L 51.44,410.65 L 45.96,407.99 L 40.41,405.49 L 34.80,403.10 L 29.30,400.48 L 23.69,398.11 L 18.04,395.84 L 12.41,393.50 L 11.76,393.23 L 11.76,382.12 L 16.35,383.94 L 22.06,386.27 L 27.75,388.63 L 33.36,391.18 L 39.00,393.67 L 44.57,396.30 L 50.17,398.87 L 55.77,401.45 L 61.32,404.12 L 66.85,406.85 L 72.40,409.52 L 77.91,412.28 L 83.27,415.32 L 89.06,417.54 L 94.76,419.95 L 100.34,422.61 L 105.77,425.53 L 116.54,431.55 L 127.23,437.72 L 137.83,444.03 L 148.34,450.50 L 158.76,457.11 L 169.08,463.87 L 179.31,470.77 L 189.45,477.81 L 199.48,485.00 L 209.41,492.32 L 219.24,499.78 L 225.86,511.29 L 235.42,518.98 L 249.56,530.76 L 263.45,542.84 L 277.09,555.20 L 290.46,567.85 L 303.57,580.77 L 316.40,593.97 L 328.95,607.43 L 341.22,621.15 L 353.20,635.12 L 364.88,649.34 L 372.50,658.96 L 383.68,673.58 L 394.55,688.43 L 405.10,703.51 L 415.34,718.80 L 425.26,734.31 L 434.85,750.02 L 444.11,765.93 L 453.03,782.02 L 459.80,794.86 L 456.55,794.86 L 450.51,783.39 L 441.61,767.34 L 432.39,751.49 Z M 458.02,758.02 L 448.59,741.83 L 438.83,725.83 L 428.73,710.04 L 418.31,694.47 L 407.56,679.12 L 396.49,664.00 L 385.11,649.11 L 377.35,639.32 L 365.45,624.84 L 353.26,610.61 L 340.77,596.64 L 327.98,582.93 L 314.92,569.50 L 301.58,556.34 L 287.96,543.46 L 274.08,530.87 L 259.93,518.58 L 245.54,506.58 L 235.80,498.76 L 222.90,495.03 L 213.01,487.51 L 203.01,480.14 L 192.91,472.91 L 182.70,465.82 L 172.40,458.87 L 162.01,452.07 L 151.52,445.41 L 140.94,438.90 L 130.27,432.54 L 119.51,426.33 L 108.66,420.27 L 103.23,417.26 L 97.89,414.06 L 92.64,410.70 L 87.43,407.22 L 81.76,404.64 L 76.20,401.86 L 70.64,399.06 L 65.02,396.41 L 59.39,393.75 L 53.76,391.11 L 48.10,388.52 L 42.38,386.08 L 36.69,383.57 L 30.94,381.20 L 25.23,378.72 L 19.51,376.29 L 13.77,373.89 L 11.76,373.15 L 11.76,361.36 L 12.00,361.46 L 17.85,363.79 L 23.65,366.24 L 29.46,368.66 L 35.21,371.23 L 41.02,373.66 L 46.79,376.17 L 52.57,378.67 L 58.26,381.37 L 63.87,384.24 L 69.63,386.78 L 75.19,389.73 L 80.95,392.30 L 86.50,395.28 L 92.10,398.13 L 97.72,400.98 L 103.37,403.76 L 109.03,406.53 L 114.74,409.21 L 120.37,412.05 L 142.20,424.65 L 163.67,437.86 L 184.76,451.66 L 205.46,466.04 L 217.72,481.21 L 227.70,488.79 L 242.48,500.42 L 257.01,512.35 L 271.28,524.59 L 280.65,532.91 L 294.49,545.63 L 308.06,558.64 L 321.36,571.94 L 330.06,580.95 L 342.88,594.70 L 355.41,608.72 L 367.65,622.99 L 375.64,632.65 L 387.37,647.34 L 398.79,662.28 L 409.89,677.45 L 417.11,687.69 L 427.68,703.24 L 437.92,719.01 L 447.83,734.99 L 454.25,745.75 L 463.59,762.07 L 472.59,778.57 L 481.03,794.86 L 477.78,794.86 L 475.84,790.99 L 467.10,774.41 L 458.02,758.02 Z M 477.56,754.26 L 468.05,737.66 L 461.51,726.70 L 451.43,710.44 L 441.01,694.39 L 430.25,678.56 L 422.90,668.14 L 411.60,652.69 L 399.98,637.49 L 388.04,622.54 L 379.91,612.71 L 367.45,598.18 L 354.70,583.92 L 341.65,569.92 L 332.79,560.74 L 319.26,547.21 L 305.44,533.97 L 291.36,521.02 L 281.82,512.55 L 267.29,500.09 L 252.50,487.95 L 237.47,476.11 L 227.31,468.40 L 208.95,461.17 L 188.12,446.68 L 166.89,432.79 L 145.27,419.50 L 123.30,406.81 L 117.87,403.51 L 112.48,400.14 L 107.00,396.94 L 101.46,393.82 L 95.85,390.84 L 90.19,387.96 L 84.43,385.28 L 78.84,382.26 L 73.02,379.71 L 67.36,376.82 L 61.50,374.35 L 55.70,371.78 L 49.94,369.11 L 44.14,366.51 L 38.35,363.92 L 32.46,361.54 L 26.59,359.10 L 20.68,356.78 L 14.79,354.42 L 11.76,353.19 L 11.76,340.88 L 13.04,341.37 L 19.01,343.75 L 25.00,346.10 L 30.93,348.58 L 36.83,351.14 L 42.76,353.62 L 48.69,356.10 L 54.54,358.77 L 60.41,361.38 L 66.26,364.06 L 72.03,366.88 L 77.84,369.64 L 83.63,372.44 L 89.31,375.45 L 95.13,378.17 L 100.84,381.14 L 106.57,384.05 L 112.18,387.19 L 117.81,390.29 L 123.48,393.32 L 129.34,396.00 L 135.10,398.87 L 140.77,401.93 L 157.38,411.76 L 173.78,421.93 L 189.97,432.44 L 205.50,443.90 L 208.32,451.06 L 218.72,458.51 L 234.13,469.96 L 249.30,481.72 L 264.22,493.80 L 278.88,506.19 L 293.28,518.89 L 302.73,527.51 L 316.68,540.70 L 330.34,554.18 L 343.73,567.94 L 356.82,581.98 L 369.61,596.29 L 377.97,605.98 L 390.26,620.73 L 402.24,635.73 L 413.89,650.98 L 425.23,666.47 L 436.24,682.19 L 443.40,692.80 L 453.85,708.90 L 463.97,725.21 L 473.74,741.73 L 483.16,758.46 L 492.23,775.38 L 498.08,786.76 L 502.07,794.86 L 498.90,794.86 L 495.52,788.05 L 486.72,771.06 L 477.56,754.26 Z M 46.51,522.15 L 55.94,527.34 L 69.94,535.36 L 83.78,543.67 L 92.90,549.37 L 106.44,558.16 L 119.78,567.23 L 128.58,573.44 L 141.60,582.97 L 154.42,592.77 L 162.85,599.45 L 175.32,609.70 L 187.58,620.20 L 195.62,627.34 L 207.50,638.27 L 219.15,649.44 L 226.79,657.02 L 238.04,668.59 L 249.04,680.39 L 256.24,688.39 L 266.83,700.57 L 273.29,716.13 L 279.99,724.46 L 286.57,732.88 L 296.22,745.69 L 302.50,754.33 L 311.70,767.47 L 317.67,776.33 L 323.53,785.28 L 329.56,794.86 L 326.20,794.86 L 323.98,791.31 L 318.22,782.36 L 312.32,773.49 L 306.31,764.71 L 300.16,762.53 L 293.01,754.62 L 283.55,741.88 L 273.82,729.34 L 263.83,717.01 L 253.59,704.89 L 243.09,692.99 L 232.35,681.31 L 221.37,669.85 L 210.15,658.63 L 198.69,647.65 L 187.01,636.91 L 175.11,626.41 L 162.99,616.17 L 150.66,606.18 L 138.12,596.45 L 125.38,586.99 L 112.44,577.80 L 99.32,568.88 L 86.01,560.24 L 77.03,554.63 L 63.43,546.46 L 49.66,538.57 L 35.73,530.97 L 21.64,523.67 L 11.76,518.81 L 11.76,504.51 L 17.80,507.40 L 32.23,514.63 L 46.51,522.15 Z M 205.68,765.12 L 196.46,754.21 L 187.01,743.49 L 177.34,732.97 L 167.45,722.66 L 157.34,712.55 L 147.03,702.66 L 136.51,692.99 L 125.79,683.54 L 118.54,677.37 L 107.50,668.30 L 96.27,659.46 L 84.86,650.86 L 73.27,642.51 L 61.51,634.39 L 49.58,626.53 L 37.49,618.91 L 25.24,611.55 L 12.84,604.45 L 11.76,603.86 L 11.76,589.20 L 14.87,590.87 L 27.56,598.01 L 40.09,605.42 L 52.46,613.10 L 64.67,621.02 L 76.71,629.21 L 88.58,637.64 L 100.27,646.32 L 111.77,655.24 L 123.08,664.40 L 134.20,673.80 L 145.12,683.43 L 155.84,693.28 L 166.35,703.36 L 176.64,713.65 L 186.72,724.16 L 196.57,734.88 L 206.20,745.80 L 215.60,756.92 L 224.76,768.23 L 233.68,779.73 L 242.36,791.42 L 244.80,794.86 L 228.88,794.86 L 223.43,787.51 L 214.67,776.22 L 205.68,765.12 Z M 46.33,631.57 L 58.15,639.37 L 69.81,647.41 L 81.30,655.69 L 92.61,664.22 L 103.74,672.98 L 114.68,681.97 L 121.87,688.08 L 132.50,697.45 L 142.92,707.04 L 153.14,716.84 L 163.16,726.86 L 172.96,737.08 L 182.55,747.50 L 191.92,758.13 L 201.06,768.94 L 209.97,779.95 L 218.65,791.14 L 221.41,794.86 L 205.25,794.86 L 202.75,791.58 L 194.08,780.73 L 185.19,770.05 L 176.07,759.57 L 166.74,749.27 L 157.19,739.18 L 147.44,729.29 L 137.48,719.60 L 127.32,710.12 L 116.96,700.86 L 106.41,691.82 L 99.27,685.92 L 88.42,677.25 L 77.38,668.81 L 66.17,660.61 L 54.79,652.64 L 43.24,644.91 L 31.54,637.42 L 19.68,630.18 L 11.76,625.58 L 11.76,610.75 L 22.20,616.73 L 34.34,624.02 L 46.33,631.57 Z M 155.94,765.40 L 146.74,755.53 L 137.33,745.86 L 127.71,736.38 L 117.91,727.10 L 107.91,718.04 L 97.72,709.18 L 87.35,700.54 L 76.80,692.12 L 66.08,683.92 L 55.18,675.95 L 44.13,668.21 L 32.91,660.70 L 21.54,653.42 L 11.76,647.45 L 11.76,632.52 L 16.61,635.34 L 28.36,642.51 L 39.96,649.93 L 51.40,657.59 L 62.68,665.48 L 73.79,673.62 L 84.72,681.98 L 95.48,690.57 L 102.55,696.42 L 113.01,705.38 L 123.27,714.56 L 133.34,723.94 L 143.21,733.54 L 152.88,743.35 L 162.34,753.35 L 171.59,763.55 L 180.62,773.94 L 189.43,784.52 L 197.68,794.86 L 181.23,794.86 L 173.72,785.72 L 164.94,775.47 L 155.94,765.40 Z M 40.74,673.16 L 51.69,680.83 L 62.48,688.72 L 73.11,696.85 L 83.56,705.19 L 93.83,713.75 L 103.92,722.52 L 113.83,731.51 L 123.55,740.69 L 133.07,750.08 L 142.39,759.67 L 151.51,769.45 L 160.42,779.42 L 169.13,789.57 L 173.47,794.86 L 156.70,794.86 L 153.61,791.19 L 144.94,781.36 L 136.07,771.72 L 127.00,762.26 L 117.74,753.00 L 108.28,743.93 L 98.64,735.06 L 88.81,726.39 L 78.80,717.93 L 68.62,709.69 L 58.26,701.66 L 47.74,693.84 L 37.06,686.25 L 26.23,678.89 L 15.24,671.75 L 11.76,669.60 L 11.76,654.48 L 18.36,658.51 L 29.62,665.72 L 40.74,673.16 Z M 11.76,785.02 L 11.76,768.69 L 18.01,773.54 L 26.87,780.71 L 35.57,788.07 L 43.27,794.86 L 23.68,794.86 L 21.51,793.00 L 12.92,785.94 L 11.76,785.02 Z M 11.76,792.75 L 14.32,794.86 L 11.76,794.86 L 11.76,792.75 Z M 88.39,777.10 L 79.45,768.64 L 70.33,760.36 L 61.03,752.29 L 51.57,744.40 L 45.18,739.26 L 35.45,731.71 L 25.56,724.37 L 15.53,717.24 L 11.76,714.68 L 11.76,699.14 L 12.46,699.60 L 22.87,706.67 L 33.13,713.96 L 43.23,721.46 L 53.17,729.18 L 62.95,737.10 L 72.56,745.22 L 82.00,753.54 L 91.26,762.05 L 100.34,770.76 L 109.24,779.66 L 117.95,788.74 L 123.57,794.86 L 106.01,794.86 L 105.75,794.57 L 97.16,785.74 L 88.39,777.10 Z M 31.82,736.49 L 41.45,743.96 L 47.78,749.05 L 57.15,756.86 L 66.34,764.85 L 75.37,773.04 L 84.23,781.41 L 92.90,789.97 L 97.66,794.86 L 79.55,794.86 L 78.14,793.44 L 69.53,785.19 L 60.76,777.12 L 51.82,769.24 L 42.72,761.55 L 33.46,754.05 L 24.04,746.74 L 14.47,739.64 L 11.76,737.71 L 11.76,721.93 L 12.10,722.17 L 22.04,729.23 L 31.82,736.49 Z M 38.89,766.17 L 47.90,773.78 L 56.75,781.58 L 65.43,789.56 L 70.95,794.86 L 52.17,794.86 L 48.14,791.14 L 39.49,783.52 L 30.69,776.09 L 21.74,768.83 L 12.63,761.77 L 11.76,761.12 L 11.76,745.10 L 20.41,751.52 L 29.73,758.75 L 38.89,766.17 Z M 113.52,775.46 L 104.54,766.48 L 95.37,757.68 L 86.01,749.08 L 76.48,740.67 L 66.77,732.47 L 56.90,724.47 L 46.86,716.69 L 36.65,709.11 L 26.29,701.75 L 15.78,694.60 L 11.76,691.99 L 11.76,676.66 L 12.02,676.82 L 22.91,683.89 L 33.64,691.18 L 44.22,698.70 L 54.64,706.44 L 64.89,714.39 L 74.98,722.56 L 84.89,730.93 L 94.62,739.52 L 104.17,748.30 L 113.54,757.28 L 122.72,766.46 L 131.70,775.83 L 140.48,785.38 L 148.84,794.86 L 131.69,794.86 L 130.92,793.99 L 122.32,784.63 L 113.52,775.46 Z M 46.73,543.81 L 60.39,551.63 L 73.89,559.74 L 82.79,565.30 L 95.99,573.88 L 109.02,582.73 L 121.85,591.85 L 134.49,601.23 L 146.93,610.88 L 159.16,620.79 L 171.19,630.95 L 183.00,641.36 L 194.59,652.02 L 205.95,662.92 L 217.08,674.05 L 227.98,685.41 L 238.64,697.00 L 249.05,708.81 L 259.21,720.84 L 269.12,733.07 L 278.77,745.51 L 288.15,758.15 L 293.27,767.39 L 293.17,773.84 L 299.06,782.44 L 304.83,791.12 L 307.23,794.86 L 297.83,794.86 L 295.40,791.13 L 286.71,778.33 L 277.74,765.71 L 268.52,753.29 L 262.22,745.12 L 252.57,733.02 L 242.66,721.14 L 232.51,709.46 L 222.12,697.99 L 211.48,686.75 L 200.62,675.73 L 189.53,664.95 L 178.21,654.39 L 166.67,644.08 L 154.92,634.01 L 142.97,624.19 L 130.81,614.62 L 118.45,605.30 L 105.90,596.25 L 93.16,587.47 L 80.24,578.95 L 67.15,570.70 L 53.88,562.73 L 40.46,555.04 L 26.87,547.63 L 13.13,540.51 L 11.76,539.84 L 11.76,525.50 L 18.93,529.03 L 32.91,536.27 L 46.73,543.81 Z M 229.46,764.50 L 220.22,753.09 L 210.74,741.88 L 201.03,730.86 L 191.09,720.05 L 180.93,709.46 L 170.54,699.07 L 159.95,688.91 L 149.14,678.97 L 138.12,669.26 L 126.91,659.78 L 115.50,650.54 L 103.89,641.54 L 92.10,632.79 L 80.14,624.28 L 67.99,616.03 L 55.68,608.03 L 43.20,600.29 L 30.56,592.82 L 17.76,585.61 L 11.76,582.39 L 11.76,567.82 L 19.59,571.95 L 32.67,579.20 L 45.59,586.72 L 58.35,594.51 L 70.95,602.56 L 83.38,610.88 L 95.63,619.46 L 107.69,628.29 L 119.57,637.37 L 131.26,646.70 L 142.75,656.27 L 154.03,666.09 L 165.11,676.13 L 175.97,686.40 L 186.62,696.90 L 197.05,707.62 L 207.24,718.56 L 217.21,729.71 L 226.94,741.06 L 236.43,752.62 L 245.68,764.37 L 254.68,776.31 L 263.43,788.44 L 267.85,794.86 L 252.16,794.86 L 247.21,787.90 L 238.46,776.11 L 229.46,764.50 Z M 250.43,760.71 L 241.11,748.86 L 231.54,737.20 L 221.73,725.76 L 211.67,714.51 L 201.39,703.49 L 190.88,692.68 L 180.14,682.09 L 169.19,671.73 L 158.02,661.60 L 146.64,651.71 L 135.05,642.05 L 123.27,632.65 L 111.29,623.49 L 99.12,614.58 L 86.77,605.93 L 74.24,597.54 L 61.53,589.42 L 48.66,581.56 L 35.63,573.98 L 22.44,566.67 L 11.76,561.04 L 11.76,546.56 L 24.05,552.93 L 37.53,560.28 L 50.85,567.91 L 64.00,575.81 L 76.99,583.99 L 89.80,592.44 L 102.44,601.15 L 114.89,610.13 L 127.15,619.37 L 139.21,628.86 L 151.07,638.60 L 162.72,648.59 L 174.16,658.82 L 185.39,669.29 L 196.39,679.99 L 207.17,690.92 L 217.71,702.07 L 228.02,713.44 L 238.09,725.02 L 247.92,736.82 L 257.49,748.81 L 263.74,756.92 L 272.89,769.24 L 281.78,781.75 L 290.41,794.45 L 290.67,794.86 L 275.14,794.86 L 268.33,784.98 L 259.51,772.75 L 250.43,760.71 Z M 487.59,733.73 L 477.65,716.92 L 467.36,700.33 L 456.72,683.95 L 449.44,673.15 L 438.24,657.15 L 426.71,641.39 L 414.84,625.88 L 402.66,610.61 L 390.16,595.61 L 381.65,585.75 L 368.63,571.19 L 355.31,556.91 L 341.70,542.91 L 327.79,529.19 L 313.60,515.77 L 303.98,507.00 L 289.33,494.08 L 274.42,481.47 L 259.24,469.18 L 243.81,457.21 L 228.13,445.57 L 217.54,437.99 L 209.78,437.75 L 193.29,427.44 L 177.00,416.86 L 160.49,406.62 L 143.77,396.74 L 138.22,393.38 L 132.74,389.91 L 127.31,386.34 L 121.65,383.19 L 115.90,380.19 L 110.09,377.31 L 104.37,374.27 L 98.56,371.38 L 92.85,368.32 L 86.95,365.64 L 81.11,362.82 L 75.26,360.04 L 69.33,357.40 L 63.44,354.71 L 57.54,352.03 L 51.58,349.49 L 45.66,346.84 L 39.71,344.28 L 33.69,341.88 L 27.67,339.48 L 21.67,337.04 L 15.62,334.71 L 11.76,333.20 L 11.76,320.60 L 13.77,321.35 L 19.89,323.70 L 26.00,326.11 L 32.12,328.48 L 38.19,330.98 L 44.24,333.50 L 50.26,336.12 L 56.31,338.67 L 62.29,341.35 L 68.27,344.06 L 74.21,346.84 L 80.16,349.62 L 86.04,352.52 L 91.95,355.37 L 97.75,358.45 L 103.68,361.26 L 109.55,364.19 L 115.26,367.43 L 121.09,370.44 L 126.87,373.54 L 132.52,376.87 L 138.28,380.01 L 144.03,383.16 L 149.87,386.17 L 155.76,389.08 L 161.52,392.24 L 178.34,402.50 L 194.66,413.52 L 197.64,420.89 L 208.47,428.19 L 224.52,439.43 L 240.33,451.00 L 255.89,462.90 L 271.20,475.12 L 286.25,487.66 L 301.04,500.51 L 315.55,513.67 L 329.78,527.13 L 343.73,540.89 L 357.39,554.93 L 370.75,569.26 L 379.49,578.96 L 392.34,593.75 L 404.88,608.80 L 417.10,624.11 L 429.00,639.67 L 440.57,655.48 L 451.81,671.53 L 462.71,687.81 L 473.26,704.31 L 483.47,721.04 L 493.32,737.97 L 502.82,755.10 L 508.95,766.63 L 517.85,784.09 L 523.05,794.86 L 519.90,794.86 L 512.36,779.54 L 506.41,767.96 L 497.18,750.75 L 487.59,733.73 Z M 552.07,774.66 L 549.08,768.59 L 546.05,762.53 L 542.80,756.58 L 539.85,750.48 L 536.47,744.61 L 533.41,738.56 L 530.08,732.67 L 526.73,726.78 L 523.64,720.74 L 520.11,714.97 L 516.83,709.03 L 513.35,703.22 L 509.93,697.38 L 506.23,691.70 L 502.83,685.84 L 499.22,680.11 L 495.57,674.40 L 491.80,668.77 L 484.39,657.43 L 472.85,640.71 L 464.96,629.69 L 452.85,613.38 L 444.58,602.64 L 431.90,586.76 L 423.27,576.32 L 410.04,560.90 L 401.05,550.77 L 387.29,535.81 L 377.95,526.00 L 363.68,511.53 L 354.00,502.05 L 339.24,488.09 L 329.23,478.95 L 313.99,465.51 L 303.68,456.73 L 287.97,443.83 L 277.36,435.42 L 261.21,423.08 L 250.31,415.04 L 233.74,403.27 L 222.57,395.61 L 205.60,384.43 L 194.16,377.17 L 185.95,377.59 L 180.05,374.31 L 174.51,370.45 L 168.94,366.62 L 163.14,363.17 L 157.21,359.96 L 151.35,356.61 L 145.48,353.29 L 139.49,350.20 L 133.51,347.08 L 127.52,343.97 L 121.51,340.92 L 115.54,337.77 L 109.44,334.89 L 103.37,331.97 L 97.29,329.05 L 91.18,326.19 L 85.06,323.36 L 78.94,320.54 L 72.76,317.85 L 66.62,315.07 L 60.41,312.43 L 54.16,309.90 L 47.98,307.20 L 41.76,304.60 L 35.44,302.26 L 29.18,299.77 L 22.90,297.30 L 16.57,294.98 L 11.76,293.19 L 11.76,280.10 L 14.47,281.04 L 20.92,283.29 L 27.23,285.91 L 33.65,288.25 L 40.02,290.70 L 46.34,293.27 L 52.60,296.01 L 58.97,298.48 L 65.24,301.16 L 71.45,304.02 L 77.71,306.73 L 83.89,309.62 L 90.10,312.46 L 96.26,315.40 L 102.43,318.33 L 108.59,321.26 L 114.69,324.33 L 120.79,327.39 L 126.84,330.54 L 132.79,333.89 L 138.89,336.95 L 144.91,340.17 L 150.92,343.40 L 156.94,346.61 L 162.86,350.01 L 168.76,353.44 L 173.22,359.32 L 178.29,364.12 L 189.91,371.16 L 207.15,382.02 L 218.52,389.46 L 235.38,400.91 L 251.99,412.72 L 262.93,420.78 L 279.12,433.16 L 289.77,441.60 L 305.52,454.54 L 320.99,467.80 L 331.15,476.82 L 346.16,490.62 L 356.00,499.99 L 370.51,514.30 L 384.72,528.91 L 394.02,538.81 L 407.71,553.91 L 416.66,564.13 L 429.81,579.70 L 442.64,595.54 L 455.35,611.48 L 459.22,617.07 L 463.27,622.52 L 467.35,627.96 L 471.26,633.52 L 475.19,639.05 L 479.09,644.62 L 483.01,650.17 L 486.98,655.69 L 490.77,661.32 L 494.56,666.97 L 498.25,672.68 L 501.81,678.46 L 505.55,684.14 L 508.96,690.02 L 512.62,695.75 L 515.88,701.71 L 519.58,707.42 L 522.93,713.33 L 526.14,719.33 L 529.81,725.06 L 533.37,730.86 L 536.41,736.94 L 539.47,743.01 L 542.43,749.13 L 545.70,755.09 L 548.94,761.07 L 552.03,767.12 L 554.65,773.41 L 558.05,779.31 L 561.09,785.39 L 563.67,791.69 L 565.19,794.86 L 561.54,794.86 L 560.79,793.02 L 557.85,786.91 L 554.95,780.80 L 552.07,774.66 Z M 33.03,308.35 L 39.18,311.00 L 45.40,313.48 L 51.62,315.94 L 57.74,318.67 L 63.87,321.36 L 70.02,324.01 L 76.09,326.82 L 82.19,329.59 L 88.24,332.44 L 94.27,335.34 L 100.29,338.28 L 106.27,341.28 L 112.18,344.42 L 118.19,347.37 L 124.11,350.50 L 130.01,353.66 L 135.87,356.89 L 141.67,360.23 L 147.55,363.42 L 153.40,366.67 L 159.12,370.13 L 164.93,373.45 L 170.93,376.45 L 176.91,379.51 L 182.48,383.23 L 185.68,390.74 L 196.93,397.88 L 213.62,408.88 L 224.61,416.41 L 240.90,427.98 L 251.63,435.89 L 267.50,448.03 L 277.95,456.30 L 293.39,468.99 L 303.54,477.63 L 318.53,490.84 L 328.37,499.83 L 342.89,513.56 L 352.41,522.88 L 366.44,537.11 L 375.63,546.76 L 389.16,561.47 L 398.00,571.43 L 411.01,586.61 L 419.50,596.88 L 431.97,612.50 L 440.10,623.05 L 452.02,639.10 L 459.77,649.93 L 471.12,666.38 L 478.58,677.43 L 482.12,683.07 L 485.71,688.68 L 489.26,694.32 L 492.94,699.88 L 496.25,705.66 L 499.74,711.33 L 503.10,717.09 L 506.59,722.77 L 509.73,728.65 L 513.24,734.32 L 516.40,740.18 L 519.51,746.08 L 522.79,751.88 L 525.67,757.89 L 528.91,763.72 L 531.76,769.74 L 534.75,775.70 L 537.69,781.68 L 540.66,787.64 L 543.52,793.66 L 544.06,794.86 L 540.82,794.86 L 532.18,776.97 L 523.13,759.22 L 516.90,747.49 L 507.24,730.06 L 497.21,712.84 L 486.83,695.84 L 476.10,679.05 L 465.01,662.49 L 453.58,646.17 L 441.81,630.09 L 429.71,614.26 L 417.28,598.69 L 404.53,583.38 L 391.45,568.34 L 382.57,558.47 L 368.98,543.90 L 355.08,529.61 L 340.90,515.62 L 326.42,501.93 L 311.66,488.55 L 296.62,475.47 L 281.31,462.72 L 265.74,450.29 L 249.91,438.19 L 233.83,426.42 L 217.51,414.99 L 206.50,407.56 L 198.48,407.68 L 181.51,397.41 L 164.60,387.08 L 159.02,383.53 L 153.53,379.82 L 147.94,376.28 L 142.22,372.96 L 136.45,369.72 L 130.54,366.74 L 124.71,363.62 L 118.89,360.48 L 112.90,357.67 L 107.04,354.61 L 101.19,351.53 L 95.17,348.78 L 89.21,345.91 L 83.20,343.16 L 77.21,340.36 L 71.17,337.67 L 65.13,334.97 L 59.07,332.34 L 53.03,329.66 L 46.92,327.13 L 40.82,324.59 L 34.69,322.11 L 28.58,319.59 L 22.42,317.19 L 16.25,314.82 L 11.76,313.12 L 11.76,300.28 L 14.26,301.19 L 20.51,303.60 L 26.78,305.95 L 33.03,308.35 Z M 571.59,772.82 L 569.03,766.39 L 565.59,760.39 L 562.55,754.19 L 559.58,747.96 L 556.54,741.76 L 553.11,735.76 L 549.69,729.76 L 546.18,723.81 L 543.09,717.63 L 540.05,711.43 L 536.45,705.53 L 532.90,699.60 L 529.63,693.52 L 525.84,687.74 L 522.36,681.78 L 518.55,676.02 L 514.99,670.10 L 511.17,664.35 L 507.39,658.57 L 503.64,652.77 L 499.82,647.03 L 496.08,641.22 L 492.23,635.49 L 488.27,629.83 L 484.27,624.20 L 480.16,618.65 L 476.15,613.03 L 472.03,607.49 L 467.66,602.14 L 455.18,585.60 L 442.14,569.50 L 428.77,553.68 L 419.67,543.29 L 405.76,527.94 L 396.30,517.87 L 381.86,503.02 L 367.11,488.48 L 357.11,478.95 L 341.86,464.93 L 331.53,455.76 L 315.80,442.28 L 299.80,429.13 L 288.97,420.55 L 272.51,407.97 L 261.40,399.77 L 244.51,387.77 L 227.38,376.13 L 215.82,368.57 L 198.29,357.53 L 186.48,350.37 L 179.75,348.19 L 172.37,347.19 L 166.39,343.81 L 160.37,340.48 L 154.41,337.05 L 148.40,333.72 L 142.34,330.47 L 136.32,327.14 L 130.11,324.19 L 123.95,321.12 L 117.81,318.04 L 111.61,315.06 L 105.44,312.03 L 99.23,309.09 L 92.98,306.23 L 86.73,303.37 L 80.42,300.64 L 74.15,297.83 L 67.78,295.25 L 61.44,292.58 L 55.17,289.78 L 48.74,287.35 L 42.34,284.83 L 35.96,282.29 L 29.58,279.71 L 23.07,277.52 L 16.66,275.03 L 11.76,273.20 L 11.76,259.91 L 14.43,260.80 L 20.95,263.25 L 27.48,265.66 L 34.03,268.01 L 40.49,270.60 L 46.98,273.10 L 53.47,275.63 L 59.88,278.35 L 66.32,280.97 L 72.68,283.80 L 79.09,286.53 L 85.43,289.39 L 91.78,292.24 L 98.06,295.23 L 104.32,298.28 L 110.62,301.22 L 116.84,304.34 L 123.14,307.31 L 129.30,310.55 L 135.53,313.63 L 141.68,316.89 L 147.89,320.03 L 154.04,323.28 L 160.13,326.65 L 164.71,332.71 L 169.99,337.46 L 181.99,344.38 L 199.80,355.09 L 217.38,366.16 L 234.72,377.59 L 246.15,385.42 L 263.08,397.45 L 279.76,409.84 L 296.18,422.57 L 306.97,431.25 L 322.94,444.55 L 338.62,458.18 L 354.01,472.14 L 364.10,481.62 L 379.00,496.10 L 393.59,510.90 L 407.86,525.99 L 417.23,536.19 L 421.82,541.38 L 426.40,546.58 L 430.94,551.81 L 435.51,557.01 L 439.92,562.35 L 444.35,567.67 L 448.75,573.03 L 453.17,578.36 L 457.58,583.70 L 461.79,589.20 L 466.11,594.62 L 470.36,600.08 L 474.53,605.61 L 478.68,611.16 L 482.75,616.77 L 486.76,622.42 L 491.12,627.82 L 495.03,633.54 L 498.84,639.33 L 502.76,645.04 L 506.47,650.89 L 510.40,656.60 L 514.01,662.52 L 518.09,668.13 L 521.80,673.99 L 525.38,679.92 L 528.99,685.83 L 532.46,691.83 L 536.14,697.71 L 539.52,703.75 L 543.29,709.58 L 546.49,715.74 L 550.04,721.69 L 553.25,727.83 L 556.58,733.92 L 559.97,739.96 L 562.91,746.24 L 566.30,752.30 L 569.11,758.64 L 572.05,764.92 L 575.33,771.03 L 578.16,777.36 L 581.09,783.64 L 584.11,789.88 L 586.22,794.86 L 582.01,794.86 L 580.40,791.56 L 577.63,785.24 L 574.43,779.11 L 571.59,772.82 Z M 591.50,771.08 L 588.34,764.80 L 585.55,758.34 L 582.32,752.09 L 578.87,745.95 L 575.92,739.56 L 572.44,733.44 L 569.32,727.14 L 566.05,720.91 L 562.58,714.80 L 559.36,708.54 L 555.70,702.53 L 552.53,696.24 L 548.89,690.22 L 545.46,684.08 L 541.74,678.11 L 538.07,672.11 L 534.30,666.17 L 530.57,660.21 L 527.13,654.06 L 523.13,648.27 L 519.37,642.32 L 515.31,636.57 L 511.39,630.73 L 507.27,625.03 L 503.17,619.32 L 499.45,613.33 L 495.28,607.66 L 491.11,602.00 L 486.93,596.34 L 482.70,590.72 L 478.47,585.09 L 474.24,579.47 L 469.81,574.00 L 465.51,568.43 L 461.15,562.91 L 456.68,557.48 L 452.17,552.07 L 447.57,546.74 L 443.05,541.35 L 438.44,536.04 L 433.78,530.76 L 429.06,525.54 L 419.60,515.12 L 405.10,499.78 L 390.27,484.75 L 375.14,470.03 L 364.88,460.40 L 349.24,446.22 L 333.31,432.37 L 317.09,418.85 L 306.12,410.04 L 289.44,397.10 L 272.49,384.51 L 255.28,372.28 L 243.67,364.33 L 226.04,352.71 L 208.18,341.46 L 190.08,330.58 L 177.89,323.55 L 171.01,321.44 L 163.38,320.74 L 157.21,317.42 L 151.06,314.07 L 144.91,310.70 L 138.67,307.53 L 132.46,304.28 L 126.14,301.27 L 119.90,298.07 L 113.55,295.11 L 107.24,292.07 L 100.84,289.21 L 94.43,286.39 L 88.05,283.52 L 81.61,280.74 L 75.20,277.93 L 68.71,275.30 L 62.27,272.55 L 55.75,270.00 L 49.27,267.34 L 42.76,264.75 L 36.19,262.33 L 29.67,259.78 L 23.09,257.36 L 16.47,255.08 L 11.76,253.33 L 11.76,239.86 L 14.08,240.65 L 20.78,242.99 L 27.45,245.39 L 34.09,247.88 L 40.74,250.34 L 47.35,252.92 L 53.94,255.54 L 60.55,258.10 L 67.12,260.78 L 73.65,263.54 L 80.19,266.28 L 86.66,269.18 L 93.10,272.15 L 99.58,275.04 L 106.02,278.01 L 112.42,281.06 L 118.82,284.10 L 125.14,287.33 L 131.53,290.41 L 137.89,293.53 L 144.24,296.70 L 150.58,299.85 L 155.30,306.09 L 160.79,310.79 L 173.16,317.59 L 185.43,324.56 L 203.66,335.34 L 215.68,342.73 L 233.52,354.14 L 245.27,361.95 L 256.92,369.92 L 274.17,382.19 L 285.53,390.56 L 302.35,403.42 L 313.41,412.19 L 324.35,421.11 L 340.52,434.78 L 351.14,444.07 L 366.83,458.29 L 377.12,467.96 L 387.27,477.76 L 402.24,492.73 L 412.04,502.88 L 426.54,518.32 L 431.22,523.60 L 436.03,528.77 L 440.70,534.06 L 445.33,539.39 L 449.82,544.84 L 454.43,550.17 L 459.31,555.30 L 463.57,560.94 L 468.01,566.43 L 472.66,571.75 L 477.12,577.22 L 481.24,582.96 L 485.69,588.45 L 489.94,594.09 L 494.15,599.76 L 498.21,605.54 L 502.58,611.09 L 506.48,616.99 L 510.53,622.77 L 514.50,628.60 L 518.50,634.42 L 522.43,640.29 L 526.48,646.08 L 530.23,652.06 L 534.27,657.87 L 538.13,663.78 L 541.72,669.87 L 545.48,675.84 L 549.14,681.89 L 552.57,688.07 L 556.27,694.08 L 559.70,700.26 L 563.16,706.42 L 566.78,712.49 L 570.18,718.68 L 573.36,724.99 L 576.55,731.30 L 579.94,737.49 L 583.06,743.83 L 586.15,750.18 L 589.55,756.38 L 592.63,762.74 L 595.53,769.18 L 598.57,775.56 L 601.58,781.95 L 604.25,788.50 L 607.24,794.86 L 602.37,794.86 L 600.28,790.26 L 597.26,783.91 L 594.47,777.45 L 591.50,771.08 Z M 631.14,768.54 L 627.82,762.05 L 624.97,755.33 L 622.04,748.65 L 618.60,742.21 L 615.38,735.67 L 612.03,729.20 L 608.81,722.66 L 605.68,716.07 L 602.28,709.62 L 598.97,703.12 L 595.22,696.85 L 591.74,690.45 L 587.66,684.38 L 584.60,677.73 L 581.08,671.34 L 577.15,665.19 L 573.01,659.17 L 569.75,652.62 L 565.82,646.48 L 561.94,640.31 L 558.01,634.16 L 554.43,627.79 L 550.02,621.96 L 546.05,615.84 L 542.06,609.74 L 537.82,603.80 L 533.73,597.76 L 529.35,591.93 L 525.24,585.90 L 521.20,579.81 L 516.96,573.87 L 512.41,568.16 L 507.91,562.43 L 503.43,556.66 L 498.74,551.08 L 494.37,545.23 L 489.78,539.56 L 485.29,533.81 L 480.69,528.14 L 476.07,522.49 L 471.47,516.82 L 466.77,511.24 L 461.59,506.07 L 457.03,500.36 L 451.96,495.11 L 447.15,489.62 L 442.25,484.20 L 437.27,478.87 L 432.18,473.62 L 427.15,468.34 L 422.00,463.16 L 416.86,457.97 L 401.16,442.71 L 385.14,427.77 L 368.82,413.17 L 357.76,403.63 L 340.94,389.61 L 323.82,375.95 L 306.42,362.64 L 294.67,353.98 L 276.82,341.29 L 258.70,328.98 L 240.33,317.05 L 227.95,309.32 L 209.18,298.04 L 190.17,287.15 L 170.94,276.67 L 158.00,269.90 L 150.69,268.20 L 142.90,267.50 L 136.35,264.34 L 129.77,261.25 L 123.19,258.17 L 116.58,255.15 L 109.95,252.18 L 103.36,249.11 L 96.66,246.31 L 89.99,243.42 L 83.32,240.55 L 69.87,235.04 L 49.57,227.09 L 29.12,219.57 L 11.76,213.59 L 11.76,200.00 L 12.57,200.26 L 33.43,207.44 L 54.14,215.06 L 74.69,223.11 L 95.06,231.59 L 108.51,237.55 L 115.25,240.50 L 121.94,243.56 L 128.56,246.76 L 135.03,250.28 L 139.68,257.52 L 152.79,264.03 L 172.29,274.14 L 191.57,284.65 L 210.63,295.56 L 223.21,303.06 L 241.87,314.63 L 260.29,326.59 L 278.45,338.94 L 290.42,347.38 L 308.14,360.35 L 325.59,373.69 L 342.75,387.39 L 354.03,396.72 L 370.71,411.01 L 387.08,425.65 L 403.14,440.63 L 408.56,445.56 L 413.81,450.66 L 418.98,455.84 L 424.20,460.98 L 429.48,466.05 L 434.50,471.39 L 439.77,476.48 L 444.76,481.84 L 449.58,487.36 L 454.58,492.71 L 459.76,497.90 L 464.31,503.66 L 469.44,508.89 L 474.26,514.41 L 478.93,520.06 L 483.76,525.57 L 488.57,531.09 L 493.17,536.79 L 497.78,542.48 L 502.72,547.92 L 507.18,553.74 L 511.67,559.53 L 516.12,565.35 L 520.61,571.14 L 524.79,577.17 L 529.23,583.00 L 533.59,588.89 L 537.90,594.82 L 542.19,600.76 L 546.42,606.75 L 550.54,612.82 L 554.61,618.91 L 558.58,625.07 L 562.43,631.31 L 566.44,637.45 L 570.75,643.40 L 574.51,649.69 L 578.33,655.95 L 581.65,662.51 L 585.79,668.58 L 589.53,674.88 L 593.48,681.07 L 597.49,687.23 L 600.10,694.17 L 603.68,700.57 L 607.15,707.03 L 611.03,713.27 L 614.04,719.97 L 617.51,726.43 L 620.64,733.06 L 624.10,739.53 L 626.98,746.29 L 630.37,752.79 L 633.47,759.44 L 636.59,766.07 L 639.60,772.76 L 642.23,779.61 L 645.07,786.37 L 648.53,792.87 L 649.29,794.86 L 642.58,794.86 L 640.00,788.54 L 636.86,781.96 L 633.91,775.29 L 631.14,768.54 Z M 32.70,187.18 L 60.84,197.42 L 88.69,208.45 L 116.21,220.25 L 128.51,229.33 L 134.51,234.12 L 147.95,240.56 L 167.94,250.57 L 181.15,257.48 L 200.78,268.18 L 213.74,275.54 L 232.98,286.92 L 245.67,294.73 L 264.51,306.78 L 276.92,315.02 L 295.33,327.72 L 307.45,336.40 L 325.39,349.73 L 337.20,358.82 L 354.67,372.77 L 366.16,382.27 L 383.13,396.82 L 400.01,411.49 L 405.29,416.76 L 410.74,421.85 L 416.25,426.87 L 421.67,431.98 L 427.19,437.00 L 432.45,442.27 L 437.75,447.52 L 443.07,452.74 L 448.33,458.03 L 453.49,463.42 L 458.60,468.85 L 463.87,474.13 L 468.99,479.55 L 473.87,485.20 L 479.15,490.48 L 483.99,496.16 L 488.59,502.04 L 494.03,507.21 L 498.65,513.07 L 503.29,518.92 L 508.07,524.64 L 512.99,530.26 L 517.25,536.41 L 522.05,542.12 L 526.76,547.91 L 531.10,553.98 L 535.92,559.69 L 540.28,565.75 L 545.06,571.49 L 549.38,577.58 L 553.50,583.81 L 558.18,589.65 L 562.21,595.94 L 566.70,601.91 L 570.56,608.31 L 574.59,614.60 L 578.73,620.81 L 582.77,627.08 L 586.65,633.46 L 590.73,639.71 L 594.55,646.13 L 598.42,652.51 L 602.35,658.86 L 606.21,665.25 L 609.89,671.75 L 613.50,678.29 L 616.79,684.99 L 620.52,691.46 L 624.27,697.92 L 628.00,704.40 L 631.12,711.19 L 634.35,717.92 L 637.45,724.72 L 640.90,731.34 L 644.98,737.66 L 648.04,744.47 L 651.08,751.30 L 654.29,758.04 L 657.00,765.01 L 659.45,772.09 L 663.06,778.66 L 666.25,785.42 L 668.92,792.40 L 670.15,794.86 L 662.55,794.86 L 659.56,788.23 L 657.26,781.15 L 654.24,774.37 L 650.92,767.72 L 647.88,760.95 L 644.86,754.17 L 641.72,747.45 L 638.79,740.63 L 635.24,734.10 L 632.19,727.33 L 628.71,720.77 L 625.48,714.09 L 621.70,707.69 L 618.71,700.88 L 615.20,694.34 L 611.72,687.78 L 607.18,681.82 L 603.95,675.12 L 600.57,668.51 L 596.88,662.07 L 593.51,655.44 L 589.23,649.35 L 585.37,643.01 L 581.36,636.77 L 577.80,630.24 L 573.87,623.94 L 569.68,617.81 L 565.52,611.66 L 561.40,605.49 L 557.22,599.35 L 553.07,593.20 L 548.90,587.06 L 544.66,580.96 L 540.40,574.89 L 536.12,568.81 L 531.51,562.99 L 527.12,557.00 L 522.61,551.11 L 518.06,545.24 L 513.39,539.47 L 509.12,533.37 L 504.45,527.60 L 499.69,521.89 L 495.05,516.09 L 490.36,510.33 L 485.43,504.77 L 480.57,499.16 L 475.95,493.32 L 470.66,488.09 L 465.93,482.35 L 460.95,476.84 L 455.71,471.56 L 450.56,466.21 L 445.62,460.65 L 440.35,455.41 L 435.27,449.98 L 430.06,444.68 L 424.73,439.51 L 419.40,434.33 L 414.17,429.04 L 397.87,413.84 L 381.24,398.97 L 364.32,384.46 L 352.86,374.99 L 335.44,361.08 L 317.72,347.54 L 299.73,334.37 L 287.59,325.80 L 269.14,313.27 L 250.44,301.12 L 231.49,289.37 L 218.73,281.76 L 199.38,270.68 L 179.80,260.01 L 160.01,249.75 L 146.69,243.14 L 138.06,243.95 L 131.20,241.15 L 124.45,238.11 L 117.73,235.03 L 111.01,231.93 L 97.42,226.08 L 76.94,217.55 L 56.27,209.45 L 35.45,201.79 L 14.46,194.57 L 11.76,193.70 L 11.76,180.21 L 32.70,187.18 Z M 80.96,246.15 L 87.63,248.94 L 94.26,251.80 L 100.81,254.85 L 107.44,257.72 L 113.98,260.78 L 120.50,263.88 L 127.01,267.02 L 133.48,270.23 L 139.93,273.47 L 145.10,279.26 L 150.69,284.13 L 163.43,290.80 L 182.37,301.12 L 201.08,311.84 L 219.57,322.94 L 231.76,330.56 L 249.85,342.31 L 267.69,354.43 L 285.26,366.92 L 296.84,375.46 L 313.97,388.56 L 330.82,402.01 L 347.39,415.82 L 358.28,425.21 L 374.35,439.58 L 390.13,454.29 L 405.59,469.33 L 410.70,474.38 L 415.72,479.53 L 420.79,484.63 L 425.74,489.85 L 430.70,495.04 L 435.69,500.22 L 440.69,505.39 L 445.35,510.88 L 450.45,515.97 L 454.85,521.67 L 459.65,527.02 L 464.48,532.35 L 469.22,537.77 L 473.90,543.23 L 478.60,548.68 L 483.13,554.27 L 487.80,559.75 L 492.06,565.55 L 496.47,571.23 L 500.76,577.01 L 504.94,582.87 L 509.33,588.56 L 513.85,594.17 L 518.22,599.89 L 522.23,605.87 L 526.45,611.70 L 530.44,617.69 L 534.60,623.56 L 538.69,629.49 L 542.26,635.76 L 546.57,641.53 L 550.45,647.60 L 554.28,653.69 L 557.99,659.86 L 562.28,665.67 L 565.60,672.08 L 569.04,678.40 L 572.82,684.53 L 576.95,690.46 L 579.99,697.01 L 583.53,703.28 L 586.72,709.74 L 590.26,716.01 L 593.62,722.37 L 597.16,728.65 L 600.51,735.02 L 603.65,741.50 L 606.83,747.96 L 609.69,754.57 L 612.98,760.97 L 616.25,767.39 L 618.96,774.07 L 622.13,780.54 L 625.03,787.13 L 627.64,793.84 L 628.09,794.86 L 622.67,794.86 L 620.05,789.30 L 617.32,782.68 L 614.15,776.25 L 611.24,769.70 L 608.27,763.19 L 605.07,756.78 L 601.96,750.33 L 599.08,743.77 L 595.80,737.40 L 592.46,731.06 L 589.30,724.63 L 585.86,718.35 L 582.32,712.12 L 578.91,705.82 L 575.62,699.45 L 572.11,693.21 L 568.46,687.05 L 565.01,680.77 L 561.20,674.70 L 557.53,668.55 L 553.88,662.39 L 549.97,656.38 L 546.25,650.26 L 542.63,644.08 L 538.62,638.13 L 534.84,632.04 L 530.86,626.09 L 526.86,620.14 L 522.76,614.26 L 518.65,608.40 L 514.31,602.69 L 510.36,596.71 L 506.02,591.01 L 501.74,585.26 L 497.43,579.53 L 493.24,573.72 L 488.64,568.22 L 484.31,562.52 L 480.08,556.72 L 475.57,551.15 L 470.79,545.80 L 466.57,539.99 L 462.00,534.47 L 457.23,529.11 L 452.53,523.70 L 447.79,518.33 L 443.11,512.89 L 438.24,507.63 L 423.63,491.85 L 413.67,481.54 L 398.46,466.33 L 388.15,456.37 L 377.70,446.55 L 361.77,432.11 L 350.98,422.66 L 334.55,408.78 L 323.44,399.72 L 312.20,390.82 L 295.12,377.75 L 283.58,369.24 L 266.05,356.79 L 254.22,348.69 L 242.28,340.75 L 224.16,329.16 L 211.95,321.65 L 193.43,310.70 L 180.97,303.62 L 168.40,296.72 L 161.36,294.70 L 153.49,294.29 L 147.21,290.91 L 140.88,287.61 L 134.52,284.37 L 128.15,281.16 L 121.65,278.20 L 115.21,275.14 L 108.72,272.17 L 102.22,269.22 L 95.72,266.28 L 89.14,263.51 L 82.56,260.76 L 76.01,257.94 L 69.40,255.23 L 62.80,252.54 L 56.20,249.82 L 49.55,247.25 L 42.87,244.73 L 36.21,242.18 L 29.50,239.76 L 22.79,237.34 L 16.07,234.95 L 11.76,233.47 L 11.76,219.93 L 27.10,225.22 L 47.44,232.70 L 67.62,240.61 L 80.96,246.15 Z M 750.97,767.30 L 748.14,759.74 L 744.94,752.34 L 741.64,744.98 L 738.39,737.60 L 734.90,730.33 L 732.13,722.73 L 728.79,715.39 L 724.80,708.36 L 722.03,700.74 L 718.18,693.64 L 714.53,686.45 L 711.22,679.09 L 707.45,671.96 L 703.71,664.82 L 699.95,657.68 L 696.34,650.47 L 692.36,643.45 L 688.57,636.33 L 684.80,629.19 L 680.69,622.25 L 676.85,615.15 L 672.83,608.16 L 668.67,601.24 L 664.22,594.51 L 660.01,587.62 L 655.67,580.82 L 651.44,573.95 L 647.22,567.07 L 643.02,560.17 L 638.16,553.71 L 633.62,547.04 L 628.99,540.43 L 624.74,533.56 L 619.93,527.07 L 615.48,520.33 L 610.78,513.77 L 605.82,507.40 L 601.09,500.86 L 596.51,494.19 L 591.48,487.87 L 586.40,481.60 L 581.45,475.21 L 576.64,468.71 L 571.73,462.30 L 566.62,456.04 L 561.04,450.17 L 556.05,443.81 L 551.11,437.40 L 545.44,431.63 L 540.11,425.55 L 534.56,419.68 L 529.16,413.67 L 523.71,407.71 L 518.49,401.51 L 513.68,394.93 L 507.47,389.68 L 501.67,384.04 L 495.86,378.43 L 490.20,372.65 L 484.59,366.82 L 478.69,361.29 L 472.92,355.62 L 466.85,350.28 L 461.02,344.68 L 454.96,339.32 L 449.25,333.58 L 443.18,328.23 L 436.96,323.05 L 431.05,317.52 L 424.67,312.54 L 418.56,307.23 L 412.49,301.88 L 406.20,296.79 L 399.85,291.77 L 393.47,286.80 L 387.01,281.93 L 367.74,267.17 L 354.65,257.66 L 334.77,243.74 L 321.35,234.69 L 300.99,221.47 L 287.27,212.89 L 266.47,200.39 L 252.45,192.30 L 231.22,180.54 L 216.93,172.94 L 195.31,161.92 L 180.76,154.83 L 158.77,144.57 L 143.98,137.99 L 121.64,128.50 L 106.64,122.44 L 98.64,120.68 L 89.77,121.26 L 67.09,112.92 L 44.24,105.05 L 21.23,97.66 L 11.76,94.84 L 11.76,81.41 L 25.04,85.37 L 48.30,92.84 L 71.41,100.79 L 79.03,103.68 L 84.98,111.05 L 100.14,116.81 L 122.73,125.85 L 137.69,132.14 L 159.95,141.96 L 174.68,148.76 L 196.58,159.35 L 211.06,166.66 L 232.59,178.01 L 246.80,185.83 L 267.92,197.92 L 281.85,206.23 L 302.53,219.05 L 316.17,227.84 L 336.39,241.37 L 349.71,250.63 L 369.44,264.86 L 382.60,274.36 L 388.92,279.44 L 395.33,284.42 L 401.66,289.49 L 408.00,294.55 L 414.54,299.37 L 420.66,304.70 L 427.15,309.58 L 433.25,314.94 L 439.28,320.36 L 445.71,325.33 L 451.85,330.64 L 457.82,336.14 L 463.88,341.55 L 469.97,346.91 L 475.79,352.57 L 481.71,358.12 L 487.77,363.53 L 493.56,369.22 L 499.33,374.93 L 504.99,380.75 L 511.12,386.11 L 516.53,392.17 L 522.28,397.91 L 527.98,403.69 L 533.65,409.51 L 538.83,415.78 L 544.74,421.39 L 550.22,427.38 L 555.60,433.47 L 560.39,440.07 L 566.14,445.84 L 571.38,452.04 L 577.08,457.87 L 581.95,464.39 L 586.93,470.81 L 592.43,476.82 L 597.16,483.44 L 602.71,489.41 L 607.59,495.92 L 612.34,502.52 L 617.25,509.00 L 621.99,515.60 L 627.19,521.88 L 631.66,528.68 L 636.52,535.20 L 641.14,541.90 L 645.56,548.72 L 650.26,555.36 L 654.89,562.05 L 659.43,568.80 L 663.65,575.76 L 668.15,582.53 L 672.09,589.66 L 676.51,596.49 L 680.85,603.37 L 684.90,610.43 L 689.23,617.32 L 693.33,624.35 L 697.13,631.54 L 701.16,638.61 L 705.33,645.60 L 708.80,652.98 L 713.03,659.95 L 716.49,667.32 L 720.50,674.41 L 724.11,681.70 L 727.76,688.98 L 731.33,696.29 L 734.52,703.78 L 738.48,710.91 L 741.67,718.41 L 745.15,725.77 L 748.33,733.26 L 751.40,740.80 L 755.23,748.02 L 757.50,755.88 L 760.78,763.34 L 764.15,770.76 L 766.88,778.43 L 769.69,786.07 L 772.44,793.73 L 772.95,794.86 L 761.82,794.86 L 759.98,789.75 L 757.48,782.07 L 754.26,774.67 L 750.97,767.30 Z M 87.64,126.87 L 93.78,133.22 L 100.75,137.32 L 115.54,143.29 L 137.58,152.65 L 152.16,159.14 L 173.85,169.25 L 188.19,176.25 L 209.52,187.12 L 223.61,194.61 L 244.55,206.21 L 258.37,214.19 L 278.89,226.52 L 292.42,234.98 L 312.50,248.02 L 325.73,256.94 L 345.33,270.67 L 358.25,280.05 L 377.48,294.30 L 383.72,299.28 L 389.96,304.25 L 396.17,309.26 L 402.38,314.28 L 408.72,319.13 L 414.96,324.11 L 420.85,329.50 L 427.14,334.42 L 433.05,339.79 L 439.04,345.07 L 445.30,350.04 L 451.15,355.48 L 457.15,360.75 L 462.83,366.37 L 468.74,371.74 L 474.43,377.34 L 480.35,382.71 L 486.13,388.22 L 491.68,393.96 L 497.16,399.77 L 502.17,406.04 L 508.47,411.06 L 514.30,416.54 L 519.81,422.33 L 525.29,428.15 L 530.53,434.18 L 535.91,440.09 L 540.87,446.37 L 546.47,452.09 L 551.93,457.93 L 556.73,464.33 L 561.91,470.42 L 567.19,476.42 L 572.50,482.41 L 577.58,488.59 L 582.43,494.94 L 587.25,501.32 L 592.44,507.42 L 597.37,513.72 L 602.00,520.24 L 606.79,526.65 L 611.74,532.94 L 616.24,539.55 L 621.20,545.85 L 625.70,552.47 L 630.19,559.09 L 634.27,565.98 L 638.92,572.50 L 643.46,579.09 L 647.89,585.76 L 652.10,592.56 L 656.37,599.34 L 660.28,606.32 L 664.41,613.18 L 668.56,620.01 L 672.81,626.80 L 676.68,633.80 L 680.80,640.67 L 684.80,647.61 L 688.51,654.70 L 692.50,661.64 L 696.24,668.72 L 699.89,675.85 L 703.41,683.04 L 707.30,690.05 L 710.74,697.27 L 713.89,704.64 L 718.02,711.55 L 720.82,719.08 L 724.17,726.35 L 727.98,733.41 L 730.98,740.84 L 734.11,748.21 L 737.09,755.64 L 740.06,763.07 L 743.30,770.40 L 745.98,777.95 L 748.63,785.51 L 751.88,792.83 L 752.68,794.86 L 741.93,794.86 L 739.34,789.11 L 736.50,781.70 L 733.72,774.27 L 730.97,766.82 L 727.38,759.72 L 724.62,752.27 L 721.42,745.02 L 718.54,737.61 L 714.86,730.57 L 711.86,723.21 L 708.31,716.11 L 705.12,708.85 L 701.70,701.68 L 698.09,694.62 L 694.61,687.49 L 691.48,680.17 L 687.44,673.32 L 683.75,666.29 L 679.94,659.34 L 676.10,652.39 L 672.49,645.31 L 668.46,638.48 L 664.70,631.48 L 660.86,624.53 L 656.67,617.79 L 652.63,610.95 L 648.60,604.12 L 644.26,597.46 L 640.53,590.43 L 635.90,583.96 L 631.43,577.40 L 627.01,570.81 L 622.84,564.04 L 618.43,557.44 L 614.06,550.81 L 609.53,544.29 L 604.59,538.06 L 600.12,531.49 L 595.72,524.88 L 590.84,518.61 L 586.01,512.30 L 581.61,505.67 L 576.76,499.38 L 571.84,493.13 L 567.24,486.64 L 562.16,480.53 L 556.89,474.57 L 552.03,468.28 L 547.11,462.03 L 542.13,455.83 L 536.59,450.11 L 531.52,443.98 L 526.09,438.18 L 520.48,432.54 L 515.50,426.32 L 510.34,420.26 L 504.69,414.66 L 499.45,408.66 L 493.83,403.04 L 488.23,397.39 L 482.49,391.88 L 477.19,385.94 L 471.58,380.29 L 465.95,374.67 L 459.90,369.49 L 454.08,364.07 L 448.31,358.60 L 442.57,353.08 L 436.76,347.64 L 430.56,342.65 L 424.66,337.31 L 418.78,331.94 L 412.78,326.71 L 406.66,321.62 L 400.56,316.50 L 394.38,311.49 L 388.16,306.53 L 381.84,301.68 L 362.93,287.10 L 343.67,273.00 L 330.66,263.83 L 317.52,254.83 L 304.26,246.02 L 284.15,233.16 L 270.59,224.82 L 256.92,216.67 L 243.13,208.71 L 222.25,197.13 L 208.19,189.66 L 194.04,182.38 L 179.78,175.30 L 158.21,165.06 L 143.71,158.49 L 129.12,152.11 L 114.45,145.95 L 106.19,145.14 L 83.07,138.90 L 60.76,130.69 L 38.29,122.95 L 15.65,115.68 L 11.76,114.52 L 11.76,101.10 L 19.46,103.39 L 42.35,110.74 L 65.08,118.57 L 87.64,126.87 Z M 783.66,652.14 L 779.97,644.37 L 775.91,636.78 L 771.77,629.23 L 767.61,621.71 L 763.66,614.07 L 759.80,606.37 L 755.48,598.93 L 751.19,591.48 L 746.91,584.02 L 742.71,576.51 L 738.58,568.96 L 734.15,561.58 L 729.62,554.27 L 725.23,546.87 L 720.73,539.53 L 716.01,532.34 L 711.46,525.03 L 706.87,517.75 L 702.09,510.59 L 697.11,503.57 L 692.45,496.33 L 687.14,489.54 L 682.30,482.42 L 677.13,475.55 L 672.04,468.60 L 666.85,461.74 L 661.74,454.82 L 656.56,447.95 L 651.45,441.02 L 646.47,433.99 L 640.55,427.70 L 635.86,420.42 L 630.53,413.65 L 624.64,407.35 L 619.32,400.57 L 613.28,394.42 L 608.07,387.54 L 602.51,380.96 L 596.86,374.46 L 590.68,368.44 L 584.72,362.22 L 579.19,355.60 L 573.23,349.38 L 567.40,343.05 L 561.40,336.87 L 555.13,330.96 L 549.20,324.71 L 543.24,318.49 L 536.90,312.65 L 530.81,306.57 L 524.36,300.85 L 518.41,294.60 L 512.37,288.44 L 505.66,283.01 L 499.15,277.37 L 492.81,271.53 L 486.15,266.07 L 479.85,260.18 L 473.38,254.49 L 466.57,249.20 L 459.99,243.64 L 453.44,238.03 L 446.59,232.81 L 426.33,216.75 L 405.57,201.34 L 391.56,191.30 L 370.28,176.62 L 355.92,167.08 L 334.14,153.15 L 312.07,139.68 L 297.21,130.96 L 274.69,118.27 L 259.52,110.07 L 236.57,98.18 L 213.37,86.76 L 197.78,79.42 L 174.20,68.83 L 158.36,62.04 L 134.42,52.27 L 110.28,43.00 L 94.09,37.11 L 69.64,28.69 L 53.25,23.36 L 44.11,23.75 L 35.35,23.04 L 27.12,20.60 L 11.76,16.26 L 11.76,11.76 L 27.49,11.76 L 29.34,13.05 L 45.88,18.05 L 62.34,23.27 L 86.90,31.54 L 103.18,37.33 L 127.43,46.45 L 143.50,52.81 L 159.47,59.39 L 183.25,69.68 L 198.98,76.82 L 222.39,87.94 L 237.86,95.62 L 253.23,103.51 L 276.07,115.76 L 291.15,124.19 L 313.54,137.22 L 328.32,146.17 L 342.97,155.33 L 364.70,169.44 L 379.03,179.10 L 400.25,193.96 L 414.28,204.05 L 421.16,209.27 L 428.12,214.39 L 435.12,219.46 L 441.92,224.79 L 448.82,229.99 L 455.46,235.52 L 462.17,240.96 L 468.95,246.32 L 475.59,251.85 L 482.07,257.57 L 488.76,263.04 L 495.27,268.72 L 501.84,274.34 L 508.09,280.31 L 514.52,286.09 L 520.96,291.85 L 527.52,297.49 L 533.63,303.60 L 539.89,309.56 L 546.16,315.50 L 552.07,321.82 L 558.26,327.85 L 564.20,334.12 L 570.40,340.16 L 576.36,346.41 L 582.27,352.71 L 588.28,358.92 L 594.04,365.36 L 600.07,371.57 L 605.65,378.17 L 611.50,384.54 L 616.81,391.37 L 622.63,397.76 L 628.24,404.34 L 633.87,410.89 L 639.36,417.57 L 644.75,424.32 L 649.91,431.26 L 655.54,437.83 L 660.69,444.77 L 666.22,451.42 L 671.36,458.37 L 676.58,465.26 L 681.38,472.45 L 686.04,479.75 L 691.54,486.44 L 696.50,493.52 L 701.31,500.70 L 706.47,507.64 L 711.28,514.82 L 716.12,521.98 L 720.83,529.23 L 725.50,536.50 L 729.66,544.10 L 734.41,551.32 L 738.50,558.95 L 743.50,566.03 L 747.56,573.66 L 752.20,580.97 L 756.60,588.41 L 760.53,596.11 L 764.84,603.60 L 768.72,611.33 L 772.75,618.97 L 776.73,626.64 L 780.65,634.34 L 784.38,642.14 L 788.34,649.82 L 792.36,657.46 L 794.86,662.12 L 794.86,676.21 L 794.47,675.57 L 791.73,667.35 L 787.04,660.06 L 783.66,652.14 Z M 48.41,38.62 L 64.59,43.87 L 88.72,52.18 L 104.71,58.00 L 128.53,67.14 L 152.16,76.79 L 167.79,83.49 L 191.07,93.95 L 206.46,101.19 L 229.36,112.46 L 252.01,124.20 L 266.98,132.29 L 289.21,144.82 L 303.88,153.43 L 325.66,166.72 L 347.16,180.47 L 361.33,189.89 L 382.34,204.38 L 396.17,214.28 L 416.65,229.49 L 436.99,244.92 L 443.51,250.38 L 450.27,255.55 L 456.92,260.86 L 463.27,266.53 L 469.88,271.89 L 476.59,277.14 L 482.84,282.92 L 489.36,288.40 L 495.61,294.18 L 501.58,300.25 L 508.15,305.68 L 514.72,311.11 L 520.72,317.16 L 526.98,322.92 L 532.92,329.03 L 539.15,334.83 L 545.33,340.69 L 551.09,346.97 L 557.02,353.07 L 563.04,359.09 L 568.85,365.32 L 575.00,371.22 L 580.63,377.61 L 585.96,384.27 L 591.72,390.54 L 597.48,396.81 L 603.51,402.85 L 608.60,409.70 L 614.34,416.00 L 619.41,422.85 L 624.95,429.32 L 631.04,435.34 L 635.80,442.44 L 641.41,448.87 L 646.80,455.46 L 652.02,462.20 L 657.21,468.95 L 662.23,475.84 L 667.26,482.71 L 672.10,489.73 L 677.18,496.57 L 681.69,503.80 L 686.76,510.66 L 691.40,517.80 L 696.15,524.87 L 700.99,531.88 L 705.76,538.94 L 710.27,546.17 L 714.89,553.33 L 719.53,560.48 L 723.92,567.78 L 728.31,575.08 L 732.90,582.27 L 737.30,589.57 L 741.54,596.96 L 745.65,604.43 L 749.63,611.96 L 753.97,619.31 L 758.12,626.75 L 761.94,634.38 L 765.69,642.03 L 769.40,649.71 L 773.37,657.25 L 777.56,664.69 L 780.31,672.82 L 784.92,680.06 L 787.69,688.18 L 792.02,695.56 L 794.86,701.50 L 794.86,724.46 L 794.10,722.50 L 790.45,714.86 L 787.31,707.00 L 783.57,699.40 L 779.96,691.75 L 776.60,683.98 L 772.60,676.52 L 768.69,669.01 L 765.74,661.03 L 761.95,653.47 L 758.16,645.90 L 754.22,638.41 L 750.79,630.65 L 746.22,623.50 L 742.34,615.97 L 738.12,608.64 L 734.27,601.09 L 729.50,594.07 L 725.72,586.48 L 721.65,579.05 L 716.95,572.00 L 712.78,564.63 L 708.22,557.50 L 704.17,550.04 L 699.46,543.00 L 695.08,535.75 L 690.12,528.88 L 685.56,521.74 L 680.46,514.97 L 675.80,507.90 L 671.05,500.89 L 666.23,493.93 L 661.27,487.06 L 656.57,480.01 L 651.08,473.54 L 646.33,466.51 L 641.19,459.79 L 636.31,452.85 L 631.27,446.04 L 625.64,439.68 L 620.86,432.65 L 615.18,426.35 L 609.98,419.66 L 604.72,413.00 L 598.99,406.75 L 593.46,400.32 L 588.03,393.81 L 582.31,387.56 L 576.56,381.33 L 570.99,374.93 L 565.10,368.84 L 559.40,362.56 L 553.60,356.37 L 547.69,350.29 L 541.54,344.45 L 535.84,338.16 L 529.79,332.22 L 523.93,326.09 L 517.63,320.40 L 511.35,314.70 L 505.27,308.79 L 499.19,302.88 L 492.92,297.17 L 486.59,291.51 L 480.41,285.70 L 473.86,280.31 L 467.31,274.91 L 461.21,268.99 L 454.66,263.60 L 448.09,258.23 L 441.67,252.68 L 434.91,247.54 L 428.32,242.20 L 421.61,236.99 L 414.92,231.78 L 408.14,226.67 L 401.33,221.61 L 394.46,216.63 L 373.73,201.85 L 352.67,187.54 L 338.47,178.25 L 316.93,164.68 L 302.41,155.89 L 280.41,143.09 L 265.60,134.81 L 243.16,122.78 L 228.06,115.02 L 205.22,103.78 L 189.86,96.55 L 166.64,86.12 L 151.04,79.43 L 127.47,69.81 L 111.65,63.67 L 87.76,54.88 L 71.73,49.30 L 62.98,48.73 L 54.13,48.55 L 37.97,43.59 L 13.67,36.35 L 11.76,35.82 L 11.76,22.49 L 25.42,26.36 L 33.60,28.82 L 41.21,33.11 L 48.41,38.62 Z M 671.60,766.78 L 667.99,760.12 L 664.54,753.39 L 661.51,746.48 L 658.19,739.70 L 654.81,732.95 L 652.36,725.75 L 649.18,718.89 L 645.55,712.26 L 641.97,705.62 L 638.18,699.08 L 634.90,692.27 L 631.56,685.49 L 628.10,678.78 L 624.11,672.35 L 620.35,665.81 L 616.57,659.27 L 612.87,652.69 L 609.16,646.11 L 605.29,639.63 L 601.29,633.22 L 597.46,626.71 L 593.33,620.38 L 589.28,614.01 L 585.25,607.62 L 581.01,601.37 L 576.52,595.29 L 572.57,588.85 L 568.07,582.78 L 564.14,576.31 L 559.55,570.30 L 555.09,564.21 L 551.01,557.84 L 546.41,551.84 L 542.19,545.56 L 537.42,539.70 L 532.92,533.62 L 528.44,527.54 L 523.32,521.95 L 518.80,515.89 L 514.05,510.02 L 509.07,504.33 L 504.00,498.72 L 499.66,492.48 L 494.41,487.04 L 489.33,481.45 L 484.60,475.54 L 479.39,470.06 L 474.34,464.43 L 469.38,458.73 L 464.17,453.25 L 458.93,447.79 L 453.72,442.32 L 448.50,436.85 L 443.18,431.48 L 437.75,426.21 L 432.51,420.76 L 427.09,415.48 L 421.69,410.18 L 416.16,405.02 L 410.38,400.13 L 393.67,384.78 L 376.44,370.01 L 364.79,360.37 L 347.05,346.21 L 335.07,336.98 L 316.85,323.45 L 304.55,314.64 L 285.87,301.76 L 273.27,293.39 L 254.15,281.16 L 241.27,273.24 L 221.74,261.68 L 208.58,254.21 L 188.66,243.35 L 175.25,236.34 L 154.96,226.18 L 141.32,219.64 L 133.71,218.08 L 118.65,214.77 L 90.97,202.90 L 62.97,191.81 L 34.67,181.51 L 11.76,173.89 L 11.76,160.33 L 31.70,166.88 L 53.26,174.47 L 74.66,182.52 L 95.88,191.00 L 116.85,200.08 L 121.86,207.58 L 135.67,213.84 L 156.22,223.60 L 176.56,233.79 L 196.69,244.40 L 209.98,251.71 L 229.73,263.02 L 249.23,274.73 L 268.48,286.86 L 281.17,295.16 L 299.99,307.95 L 318.54,321.13 L 336.80,334.70 L 348.82,343.95 L 366.60,358.15 L 384.08,372.71 L 401.42,387.45 L 407.05,392.53 L 412.66,397.64 L 418.32,402.69 L 424.15,407.56 L 429.43,413.02 L 435.11,418.06 L 440.42,423.49 L 446.03,428.61 L 451.45,433.92 L 456.65,439.45 L 462.18,444.66 L 467.39,450.17 L 472.61,455.69 L 477.79,461.24 L 483.01,466.75 L 487.95,472.52 L 493.19,478.02 L 498.15,483.77 L 503.01,489.60 L 507.89,495.41 L 513.19,500.87 L 517.96,506.78 L 522.78,512.64 L 527.70,518.43 L 532.63,524.21 L 537.19,530.29 L 541.71,536.40 L 546.96,541.94 L 551.17,548.28 L 556.06,554.11 L 560.50,560.28 L 564.71,566.61 L 569.64,572.43 L 574.21,578.51 L 578.38,584.87 L 582.65,591.15 L 586.63,597.63 L 590.82,603.98 L 594.89,610.39 L 599.13,616.70 L 603.18,623.13 L 607.45,629.43 L 611.10,636.11 L 615.47,642.35 L 618.78,649.22 L 623.08,655.52 L 627.06,662.00 L 630.52,668.77 L 634.12,675.47 L 637.50,682.28 L 641.35,688.84 L 644.56,695.74 L 648.22,702.40 L 651.77,709.12 L 655.98,715.52 L 658.85,722.58 L 662.37,729.33 L 665.44,736.29 L 668.92,743.06 L 671.96,750.03 L 674.75,757.11 L 677.66,764.13 L 681.00,770.97 L 683.97,777.97 L 686.58,785.12 L 689.89,791.98 L 690.87,794.86 L 681.96,794.86 L 679.73,787.94 L 676.63,781.06 L 673.95,773.99 L 671.60,766.78 Z M 80.94,144.51 L 101.98,155.57 L 108.35,160.74 L 122.82,166.82 L 137.20,173.10 L 151.50,179.59 L 172.76,189.69 L 186.82,196.66 L 200.78,203.84 L 214.64,211.21 L 235.23,222.62 L 248.82,230.47 L 262.30,238.50 L 275.67,246.73 L 295.50,259.41 L 308.58,268.10 L 321.53,276.96 L 334.35,286.01 L 353.35,299.92 L 372.11,314.14 L 378.22,319.07 L 384.35,323.96 L 390.45,328.90 L 396.56,333.82 L 402.59,338.85 L 408.66,343.82 L 414.79,348.74 L 420.82,353.77 L 426.47,359.23 L 432.44,364.33 L 438.42,369.43 L 444.28,374.66 L 450.02,380.01 L 455.46,385.69 L 461.23,391.01 L 466.96,396.39 L 472.91,401.54 L 478.35,407.20 L 483.85,412.81 L 489.24,418.52 L 494.95,423.94 L 500.16,429.82 L 505.78,435.32 L 511.50,440.74 L 516.50,446.81 L 521.61,452.78 L 527.00,458.51 L 531.83,464.72 L 537.13,470.52 L 542.42,476.35 L 547.67,482.20 L 552.44,488.46 L 557.30,494.63 L 562.56,500.49 L 567.42,506.67 L 572.26,512.87 L 577.45,518.80 L 582.14,525.11 L 586.69,531.53 L 591.62,537.67 L 596.40,543.92 L 600.62,550.58 L 605.14,557.01 L 609.76,563.38 L 614.23,569.86 L 618.85,576.23 L 623.13,582.83 L 627.27,589.53 L 631.16,596.38 L 635.85,602.72 L 639.85,609.50 L 644.05,616.15 L 648.15,622.87 L 652.00,629.73 L 656.11,636.44 L 660.21,643.16 L 663.94,650.10 L 667.99,656.85 L 671.73,663.78 L 675.38,670.75 L 679.06,677.70 L 682.30,684.89 L 686.35,691.66 L 689.94,698.66 L 693.31,705.78 L 696.77,712.84 L 700.36,719.85 L 703.49,727.08 L 707.07,734.10 L 709.87,741.47 L 713.37,748.53 L 716.44,755.78 L 719.86,762.88 L 722.34,770.38 L 725.57,777.56 L 728.66,784.81 L 731.59,792.12 L 732.46,794.86 L 721.88,794.86 L 719.81,788.31 L 716.44,781.25 L 713.60,773.98 L 710.80,766.69 L 707.91,759.44 L 704.60,752.37 L 702.09,744.94 L 698.00,738.22 L 695.05,730.98 L 691.72,723.92 L 688.47,716.82 L 685.29,709.69 L 681.72,702.74 L 678.12,695.82 L 674.57,688.86 L 671.00,681.92 L 667.10,675.15 L 663.60,668.17 L 660.01,661.23 L 656.44,654.29 L 652.45,647.57 L 648.52,640.83 L 644.71,634.01 L 640.67,627.33 L 636.26,620.87 L 632.64,613.93 L 628.83,607.11 L 624.37,600.69 L 620.31,594.01 L 616.04,587.47 L 612.05,580.75 L 607.49,574.40 L 603.26,567.83 L 598.78,561.43 L 594.24,555.08 L 589.71,548.71 L 585.33,542.24 L 580.48,536.11 L 575.73,529.91 L 571.19,523.55 L 566.82,517.06 L 562.10,510.82 L 557.27,504.68 L 552.23,498.71 L 547.84,492.21 L 542.70,486.31 L 537.71,480.30 L 532.26,474.67 L 527.65,468.33 L 522.72,462.26 L 517.28,456.63 L 512.20,450.68 L 507.15,444.71 L 501.96,438.86 L 496.45,433.30 L 491.25,427.45 L 485.91,421.74 L 480.68,415.91 L 474.85,410.68 L 469.28,405.19 L 463.76,399.65 L 458.18,394.17 L 452.94,388.34 L 447.10,383.12 L 441.54,377.61 L 435.85,372.24 L 430.10,366.92 L 424.27,361.71 L 418.53,356.39 L 412.57,351.31 L 406.55,346.31 L 400.61,341.21 L 388.64,331.12 L 370.29,316.47 L 357.88,306.92 L 339.03,292.92 L 326.30,283.81 L 306.97,270.47 L 293.93,261.81 L 274.15,249.16 L 260.82,240.96 L 240.60,229.00 L 226.99,221.27 L 206.38,210.03 L 192.50,202.78 L 171.51,192.26 L 157.39,185.50 L 136.04,175.72 L 121.69,169.46 L 112.85,170.28 L 105.35,168.01 L 83.65,159.33 L 61.77,151.11 L 39.72,143.34 L 17.51,136.04 L 11.76,134.28 L 11.76,120.79 L 13.88,121.42 L 36.39,128.65 L 58.75,136.34 L 80.94,144.51 Z M 81.48,164.93 L 103.07,173.56 L 109.92,177.26 L 115.39,184.16 L 129.53,190.34 L 150.58,199.98 L 164.49,206.64 L 185.19,217.01 L 198.86,224.16 L 219.19,235.24 L 232.60,242.86 L 252.53,254.64 L 265.67,262.73 L 285.17,275.20 L 298.03,283.74 L 317.08,296.88 L 329.63,305.87 L 348.21,319.67 L 360.44,329.08 L 378.52,343.52 L 390.50,353.26 L 396.44,358.19 L 402.22,363.30 L 407.99,368.42 L 413.91,373.38 L 419.66,378.52 L 425.43,383.65 L 431.18,388.80 L 436.98,393.89 L 442.44,399.35 L 448.42,404.27 L 453.99,409.63 L 459.53,415.01 L 464.95,420.51 L 470.03,426.34 L 475.64,431.66 L 481.06,437.16 L 486.54,442.61 L 491.63,448.42 L 496.96,454.01 L 502.35,459.55 L 507.63,465.19 L 512.48,471.22 L 517.74,476.89 L 523.24,482.34 L 527.83,488.59 L 532.79,494.51 L 537.51,500.63 L 542.91,506.21 L 547.56,512.38 L 552.34,518.45 L 557.15,524.50 L 562.22,530.36 L 567.03,536.41 L 571.55,542.69 L 575.88,549.11 L 580.59,555.24 L 585.07,561.54 L 589.44,567.92 L 593.78,574.32 L 598.29,580.60 L 602.38,587.17 L 606.95,593.42 L 611.15,599.92 L 615.46,606.34 L 619.28,613.07 L 623.66,619.46 L 628.14,625.79 L 631.74,632.65 L 635.61,639.35 L 639.62,645.96 L 643.41,652.71 L 647.06,659.53 L 651.01,666.18 L 654.87,672.89 L 658.72,679.61 L 662.06,686.59 L 665.64,693.45 L 669.15,700.34 L 672.51,707.31 L 675.81,714.31 L 679.38,721.18 L 682.81,728.11 L 686.04,735.14 L 689.57,742.04 L 691.84,749.50 L 695.61,756.29 L 698.47,763.48 L 701.65,770.54 L 704.83,777.60 L 707.86,784.72 L 710.26,792.09 L 711.57,794.86 L 702.54,794.86 L 699.42,788.13 L 696.95,780.84 L 693.70,773.88 L 690.70,766.82 L 687.97,759.63 L 684.71,752.67 L 681.24,745.82 L 677.92,738.90 L 674.94,731.81 L 671.46,724.97 L 668.33,717.96 L 664.45,711.32 L 661.82,704.05 L 658.44,697.15 L 655.06,690.25 L 651.15,683.63 L 647.78,676.73 L 643.84,670.12 L 640.03,663.46 L 635.99,656.92 L 632.38,650.14 L 628.99,643.23 L 624.53,636.95 L 621.03,630.09 L 616.71,623.73 L 612.93,617.04 L 608.83,610.54 L 604.84,603.98 L 600.60,597.58 L 596.37,591.17 L 591.85,584.95 L 587.53,578.60 L 583.03,572.38 L 578.83,565.94 L 574.91,559.31 L 570.18,553.25 L 565.60,547.08 L 561.38,540.65 L 556.39,534.78 L 552.36,528.19 L 547.51,522.22 L 542.62,516.29 L 538.03,510.13 L 533.33,504.04 L 528.45,498.10 L 523.44,492.27 L 518.88,486.06 L 513.81,480.27 L 508.65,474.57 L 503.51,468.86 L 498.56,462.97 L 493.23,457.42 L 488.12,451.68 L 482.87,446.05 L 477.59,440.47 L 472.22,434.96 L 467.10,429.21 L 461.58,423.86 L 456.20,418.37 L 450.93,412.76 L 445.27,407.54 L 439.93,402.00 L 434.11,396.96 L 428.76,391.41 L 423.18,386.11 L 417.47,380.96 L 411.70,375.86 L 394.45,360.52 L 376.71,345.75 L 358.67,331.34 L 346.47,321.95 L 327.94,308.19 L 309.12,294.81 L 290.03,281.84 L 277.15,273.41 L 257.61,261.11 L 237.82,249.22 L 217.79,237.74 L 204.30,230.33 L 183.88,219.56 L 163.23,209.22 L 142.38,199.32 L 128.36,192.96 L 119.38,194.29 L 98.16,185.46 L 76.83,176.92 L 55.31,168.84 L 33.64,161.20 L 11.80,154.02 L 11.76,154.01 L 11.76,140.56 L 15.69,141.76 L 37.78,149.02 L 59.71,156.74 L 81.48,164.93 Z M 771.18,767.97 L 768.49,760.22 L 765.59,752.55 L 761.59,745.34 L 759.04,737.52 L 755.62,730.07 L 752.21,722.62 L 748.99,715.08 L 745.38,707.72 L 742.44,700.06 L 738.62,692.79 L 735.09,685.40 L 731.52,678.02 L 727.82,670.71 L 724.41,663.25 L 720.36,656.11 L 716.97,648.63 L 712.72,641.61 L 709.07,634.27 L 705.18,627.05 L 700.97,620.01 L 696.94,612.87 L 693.06,605.64 L 688.80,598.64 L 684.73,591.52 L 680.64,584.40 L 675.97,577.65 L 671.76,570.61 L 667.18,563.81 L 662.83,556.85 L 658.46,549.91 L 654.08,542.98 L 649.32,536.29 L 644.67,529.54 L 640.15,522.69 L 635.16,516.17 L 630.81,509.20 L 625.90,502.62 L 621.07,495.99 L 615.99,489.54 L 610.95,483.07 L 606.49,476.15 L 601.12,469.93 L 596.43,463.17 L 591.13,456.90 L 585.63,450.80 L 580.88,444.08 L 575.58,437.80 L 570.69,431.17 L 564.77,425.44 L 559.34,419.28 L 553.95,413.10 L 548.88,406.60 L 543.00,400.85 L 537.53,394.72 L 532.02,388.64 L 526.46,382.58 L 520.48,376.94 L 515.14,370.67 L 509.25,364.94 L 503.39,359.18 L 497.47,353.49 L 491.74,347.59 L 485.80,341.91 L 479.67,336.44 L 473.74,330.74 L 467.69,325.18 L 461.49,319.79 L 455.37,314.30 L 449.48,308.55 L 443.11,303.35 L 436.73,298.16 L 430.68,292.58 L 424.18,287.55 L 418.02,282.09 L 411.60,276.96 L 405.09,271.93 L 398.59,266.89 L 391.94,262.05 L 378.94,251.99 L 358.93,237.56 L 345.43,228.17 L 324.93,214.45 L 311.10,205.54 L 290.14,192.54 L 276.01,184.12 L 254.61,171.86 L 240.20,163.94 L 218.38,152.43 L 203.70,145.02 L 181.49,134.28 L 166.56,127.38 L 143.99,117.43 L 128.83,111.06 L 105.93,101.90 L 90.55,96.06 L 81.17,97.79 L 73.42,95.14 L 50.20,87.15 L 26.81,79.64 L 11.76,75.15 L 11.76,61.72 L 30.62,67.34 L 54.26,74.94 L 69.77,80.73 L 76.06,87.73 L 91.55,93.37 L 114.64,102.23 L 137.53,111.57 L 160.23,121.39 L 175.24,128.20 L 197.58,138.81 L 219.69,149.88 L 241.56,161.42 L 256.01,169.36 L 277.46,181.65 L 298.66,194.38 L 319.58,207.56 L 333.38,216.59 L 353.83,230.48 L 373.99,244.81 L 394.03,259.30 L 400.47,264.45 L 407.02,269.46 L 413.38,274.71 L 419.94,279.70 L 426.51,284.69 L 432.92,289.88 L 439.05,295.40 L 445.54,300.49 L 451.61,306.08 L 458.04,311.25 L 464.33,316.59 L 470.40,322.17 L 476.43,327.80 L 482.71,333.15 L 488.69,338.83 L 494.72,344.46 L 500.77,350.07 L 506.63,355.87 L 512.97,361.19 L 518.63,367.21 L 524.48,373.03 L 530.17,379.00 L 535.81,385.02 L 541.74,390.77 L 547.50,396.69 L 553.02,402.82 L 558.79,408.74 L 563.91,415.23 L 569.45,421.34 L 574.94,427.51 L 580.64,433.49 L 585.91,439.85 L 591.06,446.31 L 596.44,452.57 L 602.00,458.69 L 606.84,465.39 L 612.27,471.63 L 617.23,478.24 L 622.17,484.86 L 627.31,491.32 L 632.58,497.70 L 637.65,504.23 L 642.34,511.03 L 647.08,517.80 L 652.06,524.40 L 656.56,531.34 L 661.28,538.12 L 666.29,544.71 L 670.84,551.61 L 675.13,558.68 L 679.50,565.70 L 684.20,572.51 L 688.26,579.72 L 692.76,586.65 L 697.06,593.71 L 701.42,600.74 L 705.57,607.88 L 709.90,614.93 L 713.81,622.22 L 717.75,629.49 L 721.57,636.83 L 725.68,644.00 L 729.47,651.35 L 733.27,658.69 L 737.45,665.84 L 740.78,673.42 L 745.01,680.56 L 748.74,687.95 L 751.95,695.58 L 755.46,703.07 L 758.91,710.59 L 762.06,718.23 L 765.80,725.63 L 768.65,733.40 L 771.92,741.00 L 775.09,748.64 L 778.22,756.29 L 781.45,763.90 L 784.00,771.79 L 787.73,779.21 L 790.25,787.10 L 792.96,794.86 L 781.64,794.86 L 780.45,790.75 L 777.46,783.11 L 774.41,775.51 L 771.18,767.97 Z M 12.02,42.11 L 36.20,49.32 L 52.18,54.55 L 59.35,59.64 L 66.57,64.45 L 82.39,69.96 L 105.97,78.63 L 121.58,84.69 L 144.84,94.18 L 160.24,100.78 L 183.15,111.08 L 198.31,118.21 L 220.85,129.30 L 235.75,136.95 L 257.89,148.83 L 272.51,157.00 L 294.22,169.64 L 308.55,178.31 L 329.81,191.70 L 343.82,200.87 L 364.60,214.99 L 385.10,229.51 L 391.84,234.49 L 398.56,239.48 L 405.25,244.52 L 411.95,249.55 L 418.56,254.68 L 425.22,259.77 L 431.64,265.15 L 438.32,270.20 L 444.78,275.53 L 451.18,280.94 L 457.96,285.90 L 464.22,291.47 L 470.39,297.15 L 476.86,302.48 L 483.10,308.07 L 489.32,313.68 L 495.65,319.18 L 501.90,324.77 L 507.87,330.65 L 513.74,336.64 L 519.97,342.25 L 525.92,348.15 L 532.14,353.79 L 537.83,359.95 L 543.67,365.96 L 549.55,371.94 L 555.43,377.91 L 561.04,384.15 L 566.89,390.16 L 572.46,396.43 L 577.97,402.74 L 583.69,408.87 L 589.23,415.18 L 594.47,421.72 L 600.09,427.95 L 605.69,434.20 L 610.71,440.93 L 616.54,447.01 L 621.43,453.83 L 626.82,460.26 L 632.27,466.65 L 637.37,473.32 L 642.76,479.76 L 647.32,486.83 L 652.58,493.38 L 657.49,500.19 L 662.43,506.97 L 667.36,513.77 L 672.27,520.58 L 676.65,527.75 L 681.47,534.63 L 685.79,541.83 L 690.59,548.72 L 694.97,555.88 L 699.90,562.69 L 704.23,569.89 L 708.84,576.91 L 712.82,584.31 L 717.33,591.40 L 722.03,598.38 L 725.64,605.99 L 730.07,613.13 L 734.03,620.54 L 738.22,627.82 L 741.62,635.53 L 746.05,642.68 L 749.86,650.16 L 753.73,657.62 L 757.49,665.13 L 761.99,672.28 L 765.42,679.95 L 768.65,687.72 L 772.41,695.23 L 775.82,702.91 L 779.00,710.70 L 782.65,718.26 L 785.70,726.10 L 789.25,733.71 L 792.72,741.37 L 794.86,747.62 L 794.86,776.94 L 794.69,776.57 L 792.48,768.50 L 788.96,760.93 L 786.04,753.13 L 782.89,745.42 L 779.69,737.73 L 776.47,730.05 L 772.73,722.60 L 769.77,714.80 L 766.12,707.31 L 762.65,699.74 L 759.15,692.19 L 755.25,684.83 L 751.75,677.27 L 748.65,669.52 L 744.55,662.26 L 741.19,654.62 L 737.36,647.23 L 733.40,639.89 L 729.68,632.44 L 725.55,625.20 L 721.44,617.96 L 717.20,610.79 L 713.28,603.43 L 709.09,596.23 L 705.00,588.97 L 700.75,581.81 L 696.61,574.58 L 691.92,567.68 L 687.78,560.45 L 683.20,553.48 L 678.45,546.63 L 673.87,539.68 L 669.64,532.48 L 665.04,525.53 L 660.11,518.81 L 655.57,511.81 L 650.70,505.05 L 645.68,498.39 L 640.94,491.53 L 636.32,484.58 L 631.47,477.79 L 626.33,471.23 L 621.11,464.72 L 616.28,457.91 L 610.77,451.64 L 605.89,444.86 L 600.73,438.31 L 595.25,432.01 L 589.81,425.69 L 584.71,419.08 L 579.31,412.71 L 573.88,406.38 L 567.94,400.50 L 562.55,394.12 L 556.85,388.03 L 551.29,381.81 L 545.81,375.50 L 539.96,369.55 L 534.09,363.62 L 528.28,357.62 L 522.20,351.90 L 516.73,345.56 L 510.69,339.80 L 504.75,333.92 L 498.73,328.14 L 492.57,322.51 L 486.63,316.62 L 480.37,311.10 L 474.07,305.62 L 467.91,299.98 L 461.81,294.27 L 455.28,289.05 L 449.09,283.44 L 442.47,278.33 L 436.05,272.99 L 429.72,267.53 L 423.32,262.17 L 416.63,257.16 L 410.07,251.99 L 403.32,247.06 L 383.39,231.86 L 362.96,217.35 L 342.23,203.26 L 328.25,194.11 L 307.04,180.75 L 285.56,167.85 L 263.81,155.39 L 249.17,147.34 L 227.00,135.65 L 204.59,124.43 L 181.95,113.68 L 166.73,106.78 L 143.73,96.82 L 120.53,87.35 L 97.13,78.37 L 81.43,72.66 L 72.07,74.14 L 56.15,69.24 L 32.39,61.61 L 11.76,55.46 L 11.76,42.04 L 12.02,42.11 Z M 782.11,604.09 L 777.66,596.56 L 773.54,588.84 L 768.94,581.40 L 764.70,573.75 L 760.59,566.02 L 755.80,558.70 L 751.85,550.87 L 746.87,543.66 L 742.46,536.10 L 737.36,528.98 L 732.66,521.61 L 727.90,514.27 L 723.17,506.92 L 718.31,499.65 L 713.70,492.21 L 708.64,485.08 L 703.62,477.92 L 699.05,470.43 L 693.53,463.63 L 688.07,456.79 L 682.92,449.72 L 677.59,442.79 L 672.56,435.62 L 667.06,428.82 L 661.93,421.73 L 656.24,415.08 L 650.69,408.32 L 645.14,401.56 L 639.65,394.76 L 634.04,388.05 L 628.54,381.24 L 622.44,374.95 L 616.79,368.28 L 610.79,361.91 L 605.13,355.24 L 599.13,348.88 L 593.28,342.38 L 587.24,336.05 L 581.17,329.75 L 575.24,323.31 L 568.97,317.21 L 562.87,310.94 L 556.40,305.05 L 550.21,298.87 L 543.91,292.80 L 537.40,286.97 L 531.24,280.74 L 524.88,274.74 L 518.43,268.83 L 511.71,263.22 L 505.24,257.33 L 498.63,251.61 L 492.11,245.77 L 485.32,240.26 L 478.60,234.66 L 471.94,228.99 L 465.14,223.48 L 458.20,218.16 L 451.43,212.61 L 444.49,207.28 L 437.68,201.80 L 430.75,196.45 L 423.68,191.30 L 409.57,180.95 L 388.06,165.90 L 373.56,156.11 L 351.54,141.82 L 336.70,132.54 L 321.74,123.48 L 299.05,110.27 L 283.77,101.74 L 260.64,89.33 L 245.08,81.34 L 229.40,73.55 L 205.69,62.30 L 189.76,55.07 L 165.67,44.64 L 149.49,37.97 L 133.22,31.53 L 108.65,22.30 L 92.16,16.43 L 78.29,11.76 L 87.36,11.76 L 109.63,19.60 L 134.26,28.86 L 158.68,38.63 L 174.85,45.42 L 198.92,56.04 L 222.77,67.16 L 246.37,78.78 L 261.97,86.79 L 285.16,99.22 L 308.08,112.14 L 330.72,125.53 L 345.66,134.72 L 367.82,148.90 L 389.69,163.53 L 411.24,178.62 L 425.59,188.71 L 432.58,194.00 L 439.60,199.26 L 446.63,204.51 L 453.37,210.14 L 460.26,215.56 L 467.23,220.88 L 474.12,226.31 L 480.70,232.12 L 487.64,237.49 L 494.42,243.06 L 500.80,249.10 L 507.54,254.70 L 514.06,260.58 L 520.66,266.35 L 527.08,272.33 L 533.54,278.27 L 540.08,284.10 L 546.27,290.33 L 552.60,296.40 L 558.88,302.51 L 565.18,308.61 L 571.33,314.87 L 577.49,321.12 L 583.60,327.40 L 589.67,333.73 L 595.70,340.10 L 601.75,346.45 L 607.61,352.97 L 619.35,366.01 L 636.61,385.86 L 653.45,406.07 L 664.44,419.74 L 680.56,440.53 L 696.25,461.65 L 711.49,483.10 L 721.40,497.57 L 735.88,519.53 L 749.90,541.79 L 758.99,556.80 L 772.22,579.53 L 784.97,602.54 L 794.86,621.29 L 794.86,627.88 L 794.50,627.22 L 790.42,619.48 L 786.29,611.77 L 782.11,604.09 Z M 734.66,488.62 L 724.63,473.96 L 709.19,452.25 L 693.31,430.86 L 676.98,409.80 L 665.85,395.96 L 648.79,375.49 L 631.31,355.38 L 619.43,342.18 L 613.35,335.71 L 607.36,329.15 L 601.26,322.70 L 595.11,316.29 L 588.92,309.92 L 582.68,303.60 L 576.35,297.37 L 570.08,291.08 L 563.71,284.89 L 557.30,278.74 L 550.66,272.84 L 544.30,266.64 L 537.76,260.63 L 531.11,254.75 L 524.55,248.76 L 517.82,242.96 L 511.25,236.99 L 504.23,231.53 L 497.52,225.71 L 490.90,219.79 L 483.84,214.39 L 477.01,208.72 L 470.20,203.02 L 463.22,197.53 L 456.01,192.33 L 449.01,186.86 L 441.93,181.50 L 434.76,176.27 L 420.55,165.61 L 398.72,150.33 L 376.58,135.51 L 354.14,121.15 L 339.01,111.85 L 316.08,98.28 L 292.86,85.20 L 269.38,72.61 L 253.59,64.49 L 229.68,52.73 L 205.53,41.47 L 181.15,30.72 L 164.78,23.84 L 140.04,13.94 L 134.24,11.76 L 142.31,11.76 L 165.87,21.18 L 190.45,31.62 L 206.72,38.86 L 230.92,50.14 L 254.88,61.93 L 270.71,70.07 L 294.25,82.69 L 317.51,95.80 L 332.87,104.81 L 355.66,118.72 L 378.15,133.11 L 400.37,147.93 L 407.75,152.90 L 415.12,157.90 L 422.33,163.12 L 429.59,168.28 L 436.74,173.59 L 443.81,178.99 L 450.92,184.34 L 458.14,189.57 L 465.03,195.21 L 472.06,200.67 L 479.11,206.11 L 485.90,211.87 L 492.73,217.58 L 499.57,223.28 L 506.49,228.87 L 513.13,234.82 L 546.30,264.48 L 578.42,295.28 L 609.45,327.19 L 639.35,360.16 L 645.39,366.70 L 653.46,371.52 L 660.55,377.22 L 677.57,397.93 L 694.15,419.00 L 710.28,440.41 L 725.96,462.15 L 735.95,476.97 L 737.04,487.02 L 746.89,501.85 L 761.28,524.34 L 770.61,539.50 L 784.20,562.49 L 794.86,581.40 L 794.86,587.37 L 786.13,571.63 L 772.73,548.60 L 763.53,533.41 L 749.33,510.86 L 734.66,488.62 Z M 741.32,473.30 L 730.87,458.70 L 715.11,436.85 L 698.90,415.34 L 682.25,394.17 L 665.15,373.36 L 660.68,365.37 L 657.09,356.60 L 651.38,349.62 L 621.11,316.24 L 589.70,283.93 L 557.17,252.74 L 523.58,222.70 L 516.61,216.99 L 509.85,211.02 L 502.93,205.25 L 495.91,199.59 L 488.79,194.07 L 481.83,188.34 L 474.78,182.72 L 467.52,177.39 L 460.50,171.73 L 453.31,166.30 L 446.00,161.02 L 438.69,155.75 L 431.42,150.43 L 424.03,145.27 L 416.73,139.99 L 409.36,134.79 L 386.92,119.72 L 364.14,105.15 L 341.06,91.06 L 325.51,81.94 L 301.95,68.67 L 278.13,55.89 L 262.09,47.65 L 237.83,35.71 L 213.33,24.29 L 196.86,16.96 L 184.62,11.76 L 192.01,11.76 L 198.01,14.33 L 214.51,21.68 L 239.07,33.13 L 255.31,41.05 L 271.43,49.19 L 295.41,61.83 L 311.24,70.54 L 326.94,79.46 L 350.27,93.25 L 365.66,102.72 L 380.91,112.40 L 403.56,127.28 L 411.03,132.36 L 418.44,137.52 L 426.03,142.43 L 433.35,147.73 L 440.58,153.16 L 447.90,158.45 L 455.22,163.74 L 462.33,169.32 L 469.48,174.83 L 476.65,180.34 L 483.70,185.99 L 511.70,208.82 L 539.05,232.43 L 565.73,256.80 L 593.69,279.90 L 601.58,284.83 L 608.02,291.21 L 620.62,304.26 L 633.03,317.48 L 645.26,330.87 L 657.30,344.44 L 669.15,358.16 L 680.81,372.06 L 692.27,386.11 L 703.54,400.32 L 714.60,414.69 L 725.47,429.21 L 736.13,443.89 L 746.58,458.71 L 747.61,469.00 L 757.71,483.97 L 772.47,506.70 L 786.75,529.73 L 794.86,543.44 L 794.86,549.07 L 784.29,531.22 L 774.85,515.86 L 760.28,493.08 L 750.31,478.07 L 741.32,473.30 Z M 741.01,440.39 L 730.30,425.65 L 719.38,411.07 L 708.27,396.63 L 696.95,382.35 L 685.43,368.23 L 673.72,354.28 L 661.82,340.48 L 649.72,326.86 L 637.44,313.40 L 624.96,300.12 L 612.31,287.02 L 605.98,280.46 L 601.02,272.53 L 576.68,245.13 L 549.67,220.47 L 521.98,196.57 L 493.63,173.45 L 486.40,167.85 L 479.20,162.22 L 471.91,156.70 L 464.50,151.33 L 457.23,145.79 L 449.89,140.34 L 442.37,135.14 L 434.87,129.90 L 427.57,124.39 L 420.02,119.22 L 412.46,114.08 L 389.58,98.95 L 374.14,89.15 L 358.56,79.57 L 334.94,65.60 L 319.04,56.57 L 303.02,47.76 L 278.75,34.96 L 262.42,26.72 L 245.98,18.70 L 231.10,11.76 L 237.75,11.76 L 255.47,20.10 L 288.20,36.63 L 320.44,54.07 L 352.19,72.39 L 360.06,77.08 L 367.87,81.89 L 375.70,86.65 L 383.45,91.54 L 391.13,96.54 L 398.99,101.27 L 406.51,106.51 L 414.30,111.35 L 421.82,116.60 L 429.32,121.87 L 436.76,127.22 L 444.19,132.60 L 451.67,137.89 L 459.10,143.26 L 466.42,148.77 L 473.72,154.32 L 480.97,159.92 L 502.58,176.92 L 523.82,194.37 L 544.70,212.26 L 560.28,222.35 L 568.57,226.90 L 601.99,258.50 L 634.28,291.25 L 665.42,325.11 L 695.29,360.08 L 700.61,367.61 L 706.58,374.61 L 712.72,381.48 L 729.63,403.29 L 746.09,425.44 L 757.97,450.79 L 768.33,465.92 L 783.46,488.87 L 794.86,506.96 L 794.86,512.45 L 785.98,498.13 L 771.03,475.12 L 760.81,459.96 L 751.51,455.28 L 741.01,440.39 Z M 717.42,377.75 L 712.05,370.21 L 706.42,362.88 L 700.03,356.16 L 669.90,321.12 L 638.63,287.11 L 606.18,254.21 L 572.61,222.46 L 567.24,214.62 L 555.24,200.22 L 534.11,182.11 L 512.60,164.45 L 490.73,147.24 L 483.34,141.64 L 475.91,136.09 L 468.43,130.60 L 460.98,125.08 L 453.50,119.59 L 445.89,114.28 L 438.23,109.05 L 430.55,103.85 L 422.81,98.74 L 415.28,93.32 L 407.41,88.41 L 399.80,83.09 L 391.94,78.16 L 384.09,73.22 L 376.25,68.26 L 368.31,63.46 L 360.38,58.65 L 328.25,40.10 L 295.61,22.45 L 274.44,11.76 L 280.94,11.76 L 296.94,19.91 L 321.52,33.09 L 345.81,46.78 L 369.83,60.96 L 377.75,65.82 L 385.82,70.45 L 393.52,75.67 L 401.35,80.68 L 409.26,85.58 L 417.03,90.68 L 424.64,96.03 L 432.55,100.93 L 439.98,106.54 L 447.59,111.87 L 455.30,117.08 L 462.71,122.69 L 485.10,139.32 L 507.14,156.41 L 528.81,173.97 L 539.17,176.09 L 553.38,188.18 L 567.42,200.47 L 581.29,212.96 L 594.98,225.64 L 608.50,238.51 L 621.83,251.57 L 634.98,264.81 L 647.95,278.24 L 660.72,291.84 L 673.31,305.62 L 685.70,319.58 L 697.89,333.71 L 709.86,348.03 L 715.75,355.26 L 721.58,362.55 L 727.47,369.78 L 733.28,377.09 L 750.28,399.33 L 766.81,421.92 L 768.13,432.41 L 778.74,447.68 L 794.26,470.85 L 794.86,471.79 L 794.86,477.09 L 781.59,456.97 L 771.11,441.66 L 750.94,421.91 L 734.41,399.66 L 717.42,377.75 Z M 738.00,373.40 L 732.24,366.01 L 726.47,358.62 L 720.52,351.37 L 714.54,344.15 L 702.46,329.82 L 690.21,315.63 L 677.77,301.61 L 665.12,287.76 L 652.29,274.10 L 639.27,260.61 L 626.06,247.31 L 612.67,234.20 L 599.09,221.27 L 585.34,208.53 L 571.40,195.99 L 557.30,183.64 L 543.02,171.49 L 539.01,161.64 L 517.07,143.87 L 494.77,126.58 L 472.11,109.75 L 464.36,104.42 L 456.81,98.79 L 449.11,93.40 L 441.14,88.38 L 433.58,82.77 L 425.65,77.71 L 417.80,72.52 L 410.02,67.23 L 402.09,62.16 L 393.97,57.41 L 386.14,52.19 L 378.10,47.31 L 353.81,32.92 L 329.22,19.07 L 315.59,11.76 L 321.88,11.76 L 322.35,12.01 L 330.61,16.55 L 338.85,21.12 L 347.07,25.75 L 355.32,30.32 L 363.49,35.01 L 371.55,39.91 L 379.75,44.57 L 387.80,49.48 L 395.89,54.33 L 404.05,59.08 L 411.75,64.54 L 419.59,69.79 L 427.50,74.92 L 435.23,80.33 L 443.06,85.58 L 450.74,91.04 L 473.80,107.43 L 496.51,124.29 L 514.52,131.86 L 529.36,143.61 L 551.29,161.63 L 565.71,173.90 L 587.00,192.67 L 600.98,205.43 L 621.60,224.94 L 635.13,238.18 L 655.06,258.40 L 668.11,272.10 L 687.33,293.00 L 699.89,307.15 L 718.37,328.71 L 730.43,343.29 L 748.14,365.48 L 759.69,380.47 L 776.62,403.26 L 780.80,411.91 L 783.55,421.53 L 794.31,437.02 L 794.86,437.83 L 794.86,442.99 L 791.94,438.64 L 781.21,423.19 L 771.69,418.43 L 755.08,395.74 L 738.00,373.40 Z M 735.08,339.50 L 722.96,324.85 L 704.41,303.20 L 691.79,288.98 L 672.49,267.99 L 659.38,254.23 L 639.35,233.92 L 625.77,220.62 L 605.05,201.03 L 591.02,188.21 L 569.63,169.36 L 555.15,157.04 L 533.12,138.94 L 518.22,127.13 L 506.18,111.55 L 483.20,94.48 L 459.88,77.91 L 451.95,72.60 L 444.09,67.19 L 436.05,62.05 L 428.13,56.73 L 420.06,51.65 L 411.78,46.89 L 403.89,41.53 L 395.86,36.39 L 387.72,31.42 L 379.66,26.30 L 371.39,21.55 L 363.18,16.70 L 354.97,11.84 L 354.82,11.76 L 360.80,11.76 L 364.78,13.93 L 372.98,18.84 L 381.33,23.50 L 389.59,28.33 L 397.78,33.26 L 405.89,38.33 L 413.98,43.43 L 421.94,48.73 L 430.12,53.69 L 437.85,59.35 L 445.74,64.75 L 453.64,70.12 L 461.51,75.55 L 469.34,81.03 L 477.14,86.57 L 486.33,90.18 L 495.57,93.79 L 510.94,105.28 L 533.68,122.92 L 556.05,141.04 L 578.04,159.62 L 592.47,172.26 L 613.80,191.59 L 634.71,211.37 L 655.21,231.58 L 668.63,245.29 L 688.41,266.20 L 707.74,287.53 L 726.63,309.25 L 738.96,323.95 L 757.08,346.32 L 774.72,369.06 L 791.88,392.17 L 793.43,402.86 L 794.86,404.89 L 794.86,411.06 L 788.39,406.47 L 781.47,399.73 L 764.47,376.84 L 752.87,361.78 L 735.08,339.50 Z M 712.23,283.54 L 692.81,262.13 L 672.95,241.12 L 659.46,227.35 L 638.88,207.05 L 617.87,187.19 L 596.46,167.77 L 581.96,155.07 L 559.88,136.41 L 537.41,118.22 L 514.57,100.50 L 499.13,88.96 L 492.85,81.20 L 486.45,73.56 L 478.57,67.96 L 470.64,62.41 L 462.68,56.92 L 454.68,51.48 L 446.59,46.18 L 438.26,41.25 L 430.31,35.74 L 422.07,30.68 L 413.89,25.53 L 405.65,20.47 L 397.43,15.38 L 391.57,11.76 L 398.31,11.76 L 399.27,12.34 L 407.46,17.52 L 415.94,22.25 L 423.85,27.88 L 432.02,33.10 L 440.14,38.38 L 448.23,43.71 L 456.29,49.11 L 464.88,53.71 L 475.13,55.95 L 491.03,67.16 L 506.77,78.60 L 530.07,96.16 L 545.40,108.14 L 568.08,126.50 L 582.98,139.00 L 597.71,151.71 L 619.46,171.16 L 633.73,184.38 L 654.79,204.58 L 668.59,218.28 L 682.21,232.18 L 702.25,253.38 L 715.37,267.75 L 734.67,289.64 L 747.28,304.45 L 759.68,319.44 L 777.88,342.24 L 789.75,357.65 L 794.86,367.74 L 794.86,386.11 L 779.50,365.43 L 761.78,342.59 L 743.59,320.12 L 731.20,305.36 L 712.23,283.54 Z M 739.21,285.71 L 719.83,263.73 L 706.66,249.31 L 686.52,228.01 L 672.85,214.06 L 658.99,200.29 L 637.84,180.01 L 623.50,166.73 L 601.66,147.20 L 586.87,134.43 L 571.90,121.88 L 549.13,103.43 L 533.73,91.41 L 510.33,73.77 L 494.52,62.29 L 478.56,51.02 L 472.77,42.19 L 465.24,35.84 L 457.09,30.39 L 448.90,24.99 L 440.68,19.65 L 432.42,14.37 L 427.71,11.76 L 433.66,11.76 L 433.96,11.95 L 442.24,17.24 L 452.55,19.42 L 461.44,23.83 L 477.79,34.86 L 493.98,46.11 L 517.97,63.41 L 533.75,75.22 L 557.12,93.35 L 572.49,105.70 L 587.68,118.27 L 610.13,137.52 L 624.88,150.61 L 646.65,170.63 L 660.93,184.22 L 675.01,198.02 L 695.78,219.07 L 709.37,233.35 L 729.39,255.12 L 742.48,269.87 L 755.37,284.79 L 774.30,307.51 L 786.65,322.88 L 794.86,333.46 L 794.86,354.34 L 794.53,354.03 L 782.61,338.55 L 764.32,315.65 L 751.87,300.59 L 739.21,285.71 Z M 700.09,214.91 L 679.24,193.76 L 665.09,179.91 L 650.75,166.25 L 628.89,146.15 L 614.09,133.00 L 591.54,113.67 L 576.28,101.05 L 560.85,88.65 L 537.38,70.44 L 521.53,58.58 L 497.44,41.21 L 481.18,29.91 L 464.76,18.84 L 457.16,12.37 L 456.72,11.76 L 477.24,11.76 L 496.67,24.96 L 521.10,42.32 L 545.16,60.19 L 568.84,78.56 L 592.13,97.42 L 615.02,116.77 L 637.50,136.59 L 659.56,156.87 L 681.19,177.61 L 702.39,198.81 L 723.13,220.44 L 743.41,242.50 L 763.23,264.98 L 782.58,287.87 L 794.86,303.03 L 794.86,323.67 L 791.35,319.15 L 778.95,303.72 L 759.94,280.90 L 747.00,265.91 L 733.85,251.11 L 713.75,229.25 L 700.09,214.91 Z M 663.67,152.50 L 641.52,132.13 L 618.94,112.22 L 595.96,92.80 L 572.57,73.86 L 548.79,55.41 L 524.63,37.47 L 500.10,20.04 L 487.91,11.76 L 510.58,11.76 L 523.98,21.14 L 548.48,39.07 L 572.61,57.52 L 596.34,76.46 L 619.67,95.90 L 642.58,115.82 L 665.08,136.21 L 687.14,157.08 L 708.76,178.40 L 729.93,200.17 L 750.64,222.37 L 770.88,245.01 L 790.64,268.07 L 794.86,273.20 L 794.86,293.50 L 787.20,284.04 L 767.78,261.06 L 747.87,238.48 L 727.50,216.33 L 706.67,194.61 L 685.39,173.33 L 663.67,152.50 Z M 639.68,88.20 L 662.75,108.54 L 685.40,129.36 L 707.60,150.65 L 729.35,172.40 L 750.64,194.60 L 771.46,217.25 L 791.80,240.32 L 794.86,243.94 L 794.86,263.77 L 775.39,241.06 L 755.07,218.33 L 734.27,196.03 L 713.02,174.17 L 691.31,152.76 L 669.15,131.81 L 646.57,111.33 L 623.55,91.33 L 600.13,71.81 L 576.30,52.79 L 552.08,34.27 L 527.47,16.26 L 521.04,11.76 L 543.23,11.76 L 543.28,11.80 L 567.98,30.14 L 592.28,48.99 L 616.19,68.35 L 639.68,88.20 Z M 711.79,146.37 L 689.50,124.99 L 666.77,104.08 L 643.60,83.66 L 620.01,63.72 L 596.01,44.29 L 571.60,25.36 L 553.29,11.76 L 574.89,11.76 L 595.84,27.78 L 620.19,47.22 L 644.12,67.16 L 667.64,87.60 L 690.72,108.53 L 713.35,129.93 L 735.54,151.81 L 757.26,174.14 L 778.50,196.93 L 794.86,215.24 L 794.86,234.71 L 775.92,213.23 L 755.01,190.50 L 733.63,168.21 L 711.79,146.37 Z M 607.46,12.91 L 632.11,32.59 L 656.35,52.79 L 680.16,73.49 L 703.54,94.68 L 726.46,116.36 L 748.92,138.51 L 770.92,161.13 L 792.44,184.21 L 794.86,186.91 L 794.86,206.20 L 782.93,192.88 L 761.60,170.01 L 739.79,147.58 L 717.52,125.62 L 694.79,104.12 L 671.62,83.11 L 648.01,62.59 L 623.98,42.57 L 599.53,23.05 L 584.76,11.76 L 605.95,11.76 L 607.46,12.91 Z M 652.27,24.73 L 676.67,45.35 L 700.63,66.48 L 724.14,88.10 L 747.20,110.21 L 769.79,132.80 L 791.90,155.86 L 794.86,159.07 L 794.86,178.00 L 775.26,156.99 L 753.18,134.29 L 730.63,112.04 L 707.61,90.28 L 684.15,69.00 L 660.24,48.22 L 635.90,27.95 L 615.63,11.76 L 636.25,11.76 L 652.27,24.73 Z M 680.81,24.05 L 705.22,45.27 L 729.17,66.99 L 752.67,89.21 L 775.70,111.92 L 794.86,131.62 L 794.86,150.27 L 774.08,128.60 L 751.40,105.92 L 728.25,83.73 L 704.64,62.02 L 680.59,40.81 L 656.09,20.11 L 645.78,11.76 L 666.05,11.76 L 680.81,24.05 Z M 701.32,16.79 L 725.88,38.43 L 749.98,60.59 L 773.60,83.25 L 794.86,104.50 L 794.86,123.02 L 779.96,107.70 L 756.84,84.90 L 733.25,62.59 L 709.20,40.78 L 684.70,19.48 L 675.43,11.76 L 695.38,11.76 L 701.32,16.79 Z M 730.27,17.05 L 754.81,39.31 L 778.89,62.07 L 794.86,77.82 L 794.86,96.02 L 777.80,78.96 L 754.08,56.22 L 729.89,33.98 L 705.24,12.24 L 704.67,11.76 L 724.18,11.76 L 730.27,17.05 Z M 767.63,25.46 L 791.99,48.50 L 794.86,51.32 L 794.86,69.39 L 783.05,57.75 L 758.89,34.90 L 734.25,12.56 L 733.33,11.76 L 752.52,11.76 L 767.63,25.46 Z M 788.72,19.33 L 794.86,25.21 L 794.86,42.95 L 771.71,21.06 L 761.45,11.76 L 780.49,11.76 L 788.72,19.33 Z M 794.86,16.90 L 792.83,14.96 L 789.35,11.76 L 794.86,11.76 L 794.86,16.90 Z " fill="black"/>
</svg>
