<?xml version="1.0" ?>
<svg xmlns="http://www.w3.org/2000/svg" baseProfile="full" height="217.7mm" width="217.7mm" viewBox="0 0 800.0 800.0" version="1.1">
<path d="M 800.00,794.86 L 800.00,789.91 L 800.00,719.31 L 800.00,680.32 L 800.00,569.77 L 800.00,476.07 L 800.00,325.97 L 800.00,230.54 L 800.00,119.50 L 800.00,80.81 L 800.00,10.23 L 800.00,5.14 L 800.00,0.00 L 0.00,0.00 L 0.00,800.00 L 800.00,800.00 L 800.00,794.86 Z M 11.30,648.73 L 13.26,640.88 L 14.95,632.97 L 16.20,624.97 L 17.74,617.04 L 19.37,609.11 L 20.66,601.13 L 22.04,593.16 L 23.44,585.20 L 24.62,577.20 L 25.97,569.22 L 27.01,561.20 L 28.43,553.23 L 29.13,545.17 L 30.42,537.18 L 31.27,529.14 L 32.34,521.12 L 32.87,513.04 L 33.98,505.02 L 34.69,496.96 L 35.22,488.89 L 35.93,480.83 L 36.33,472.75 L 36.88,464.68 L 37.42,456.61 L 37.83,448.53 L 38.14,440.44 L 38.49,432.36 L 38.69,424.27 L 38.75,416.18 L 38.82,408.09 L 38.91,400.00 L 38.92,391.91 L 38.83,383.82 L 38.65,375.73 L 38.45,367.64 L 38.20,359.55 L 37.67,351.48 L 37.46,343.39 L 37.14,335.31 L 36.66,327.23 L 36.12,319.16 L 35.39,311.10 L 34.55,303.05 L 33.90,294.99 L 32.87,286.96 L 31.41,278.98 L 30.53,270.95 L 29.08,262.98 L 28.45,254.92 L 27.50,246.89 L 25.49,239.01 L 24.90,230.94 L 22.78,223.09 L 22.33,214.98 L 20.20,207.15 L 19.18,199.13 L 17.32,191.26 L 16.30,183.24 L 14.30,175.40 L 13.16,167.40 L 10.95,159.61 L 9.11,151.75 L 6.84,143.99 L 5.14,137.26 L 5.14,95.01 L 6.21,102.44 L 8.09,110.36 L 10.29,118.19 L 12.34,126.06 L 13.90,134.05 L 16.19,141.86 L 17.37,149.93 L 18.40,158.03 L 20.66,165.86 L 22.76,173.73 L 24.16,181.74 L 25.31,189.80 L 26.87,197.78 L 28.83,205.69 L 29.38,213.84 L 30.83,221.84 L 31.77,229.92 L 32.64,238.01 L 34.15,246.00 L 35.08,254.08 L 35.43,262.22 L 36.54,270.27 L 36.87,278.41 L 37.46,286.51 L 37.72,294.64 L 38.60,302.71 L 39.17,310.81 L 39.94,318.89 L 40.21,327.01 L 40.79,335.10 L 41.52,343.19 L 41.23,351.33 L 41.60,359.44 L 41.91,367.54 L 42.17,375.66 L 42.19,383.77 L 42.33,391.89 L 42.50,400.00 L 42.16,408.11 L 42.33,416.23 L 42.23,424.35 L 42.14,432.46 L 41.73,440.57 L 41.34,448.67 L 41.23,456.79 L 40.79,464.90 L 40.21,472.99 L 39.61,481.09 L 39.17,489.19 L 38.34,497.27 L 37.89,505.38 L 37.05,513.45 L 36.54,521.56 L 35.18,529.57 L 34.61,537.68 L 33.68,545.74 L 32.56,553.78 L 31.52,561.84 L 30.53,569.90 L 29.32,577.92 L 28.13,585.96 L 26.61,593.93 L 25.24,601.94 L 23.98,609.96 L 22.58,617.96 L 20.92,625.91 L 18.76,633.75 L 17.60,641.80 L 16.11,649.79 L 14.01,657.64 L 12.01,665.51 L 9.77,673.32 L 7.91,681.22 L 5.79,689.05 L 5.14,691.38 L 5.14,677.00 L 6.13,672.44 L 8.06,664.58 L 9.82,656.69 L 11.30,648.73 Z M 9.95,216.99 L 12.01,224.76 L 12.29,232.80 L 14.00,240.63 L 14.17,248.67 L 15.29,256.58 L 16.62,264.47 L 17.01,272.46 L 17.87,280.40 L 18.04,288.41 L 18.52,296.39 L 19.27,304.33 L 19.71,312.30 L 20.16,320.27 L 20.69,328.23 L 21.16,336.20 L 21.68,344.16 L 22.20,352.13 L 22.29,360.11 L 22.54,368.09 L 22.73,376.06 L 22.83,384.04 L 22.92,392.02 L 22.98,400.00 L 23.02,407.98 L 22.91,415.96 L 22.70,423.94 L 22.50,431.91 L 22.35,439.89 L 22.04,447.87 L 21.72,455.84 L 21.42,463.82 L 21.02,471.79 L 20.36,479.74 L 19.89,487.71 L 19.13,495.66 L 18.44,503.61 L 18.04,511.59 L 16.94,519.50 L 16.27,527.45 L 15.28,535.37 L 14.61,543.34 L 13.24,551.21 L 12.48,559.16 L 11.23,567.05 L 10.17,574.96 L 8.84,582.83 L 7.62,590.72 L 6.26,598.59 L 5.14,604.22 L 5.14,583.36 L 5.33,582.26 L 6.66,574.42 L 7.65,566.52 L 8.79,558.64 L 9.79,550.75 L 10.95,542.87 L 11.98,534.98 L 12.97,527.08 L 13.83,519.17 L 14.64,511.25 L 15.29,503.32 L 15.94,495.39 L 16.72,487.47 L 17.20,479.52 L 17.75,471.58 L 18.22,463.64 L 19.08,447.74 L 19.83,423.88 L 20.08,400.00 L 19.83,376.12 L 19.08,352.26 L 17.83,328.41 L 16.08,304.60 L 15.19,296.69 L 14.09,288.80 L 13.21,280.90 L 12.19,273.00 L 10.79,265.16 L 10.31,257.21 L 8.88,249.38 L 7.27,241.57 L 5.79,233.76 L 5.14,226.86 L 5.14,186.74 L 6.75,193.20 L 7.74,201.15 L 9.45,208.97 L 9.95,216.99 Z M 68.94,731.96 L 73.46,715.33 L 74.46,706.68 L 76.36,698.29 L 77.88,689.80 L 79.49,681.34 L 81.18,672.90 L 83.02,664.50 L 84.64,656.05 L 86.42,647.64 L 87.93,639.18 L 89.64,630.75 L 91.38,622.33 L 92.61,613.82 L 94.21,605.37 L 95.77,596.91 L 96.88,588.38 L 98.36,579.91 L 99.47,571.39 L 100.41,562.84 L 101.75,554.34 L 102.79,545.81 L 103.76,537.27 L 104.81,528.73 L 105.58,520.17 L 106.39,511.61 L 106.84,503.02 L 107.57,494.46 L 108.16,485.88 L 109.18,477.33 L 109.54,468.74 L 109.99,460.16 L 110.53,451.57 L 111.65,443.01 L 111.21,434.39 L 111.34,425.79 L 111.20,417.19 L 111.58,408.60 L 111.46,400.00 L 111.29,391.40 L 111.43,382.80 L 111.99,374.19 L 112.27,365.58 L 111.76,356.99 L 110.79,348.41 L 110.22,339.83 L 109.11,331.28 L 108.79,322.69 L 108.16,314.12 L 107.59,305.54 L 106.73,296.99 L 106.21,288.41 L 104.94,279.89 L 104.34,271.32 L 103.61,262.75 L 102.50,254.23 L 101.45,245.69 L 100.11,237.20 L 99.06,228.67 L 97.82,220.17 L 96.48,211.68 L 95.15,203.19 L 94.21,194.63 L 92.57,186.19 L 91.15,177.71 L 90.11,169.16 L 88.41,160.73 L 86.63,152.31 L 85.41,143.78 L 83.36,135.42 L 81.26,127.08 L 79.66,118.62 L 77.79,110.23 L 75.73,101.87 L 73.79,93.49 L 71.55,85.18 L 69.32,76.87 L 67.28,68.50 L 64.86,60.25 L 62.20,52.06 L 60.42,43.61 L 57.15,35.61 L 54.58,27.40 L 51.50,19.36 L 48.98,11.13 L 46.45,5.14 L 52.47,5.14 L 59.37,25.88 L 69.36,58.96 L 76.37,83.91 L 78.91,92.17 L 81.31,100.48 L 83.76,108.78 L 86.52,117.01 L 88.51,125.43 L 90.45,133.86 L 92.82,142.21 L 94.36,150.73 L 96.47,159.13 L 97.87,167.68 L 99.72,176.14 L 100.54,184.79 L 102.47,193.23 L 104.00,201.75 L 105.55,210.27 L 106.94,218.82 L 108.18,227.39 L 109.84,235.90 L 110.95,244.49 L 112.28,253.06 L 113.30,261.66 L 114.45,270.25 L 115.26,278.88 L 116.02,287.51 L 116.48,296.17 L 117.31,304.79 L 117.66,313.45 L 118.29,322.09 L 119.04,330.73 L 119.20,339.39 L 119.45,348.05 L 119.78,356.71 L 120.29,365.36 L 120.46,374.02 L 120.26,382.68 L 120.45,391.34 L 120.48,400.00 L 120.29,408.66 L 120.26,417.32 L 120.46,425.98 L 120.35,434.65 L 120.26,443.31 L 119.75,451.96 L 119.41,460.62 L 119.10,469.28 L 118.52,477.92 L 117.81,486.56 L 117.37,495.21 L 116.37,503.82 L 115.73,512.46 L 115.09,521.10 L 114.12,529.71 L 113.30,538.34 L 112.30,546.94 L 111.24,555.54 L 109.64,564.07 L 108.58,572.67 L 107.60,581.28 L 106.29,589.84 L 104.58,598.34 L 103.46,606.93 L 101.77,615.43 L 100.24,623.96 L 98.74,632.49 L 96.91,640.96 L 95.05,649.41 L 93.09,657.85 L 91.22,666.30 L 89.33,674.75 L 86.79,683.05 L 84.78,691.47 L 80.53,699.33 L 76.24,716.06 L 69.36,741.04 L 64.48,757.61 L 56.73,782.34 L 52.57,794.86 L 49.53,794.86 L 51.31,789.64 L 59.21,765.03 L 64.19,748.53 L 68.94,731.96 Z M 43.44,30.94 L 45.99,39.07 L 47.73,47.44 L 50.84,55.40 L 52.95,63.66 L 55.20,71.88 L 57.70,80.02 L 59.91,88.25 L 61.98,96.52 L 64.24,104.74 L 66.27,113.01 L 68.36,121.27 L 70.62,129.50 L 72.25,137.87 L 73.83,146.24 L 76.11,154.47 L 77.71,162.85 L 79.28,171.22 L 81.39,179.50 L 83.00,187.88 L 84.27,196.31 L 86.13,204.65 L 87.49,213.07 L 88.70,221.51 L 89.90,229.96 L 91.17,238.39 L 92.04,246.88 L 93.08,255.35 L 93.94,263.83 L 95.06,272.29 L 96.19,280.75 L 96.53,289.29 L 97.51,297.76 L 98.01,306.28 L 98.70,314.78 L 99.20,323.29 L 99.90,331.80 L 99.69,340.35 L 99.90,348.87 L 99.58,357.41 L 99.61,365.93 L 100.31,374.44 L 101.16,382.95 L 101.49,391.47 L 101.38,400.00 L 101.19,408.53 L 101.40,417.06 L 100.95,425.58 L 100.67,434.10 L 99.69,442.59 L 100.15,451.14 L 99.92,459.66 L 99.47,468.18 L 98.81,476.68 L 98.70,485.22 L 98.03,493.72 L 97.39,502.23 L 96.35,510.70 L 95.55,519.19 L 94.59,527.66 L 93.79,536.15 L 92.79,544.62 L 91.75,553.08 L 90.88,561.57 L 89.49,569.98 L 88.16,578.41 L 87.08,586.87 L 85.51,595.25 L 84.27,603.69 L 82.96,612.11 L 81.16,620.45 L 79.74,628.86 L 78.19,637.25 L 76.32,645.57 L 74.59,653.92 L 72.60,662.21 L 70.70,670.52 L 68.54,678.77 L 66.18,686.97 L 63.61,695.11 L 61.32,703.31 L 57.99,711.24 L 53.53,727.66 L 48.84,744.01 L 43.93,760.30 L 36.13,784.59 L 32.63,794.86 L 29.56,794.86 L 33.41,783.69 L 38.65,767.55 L 46.09,743.20 L 50.77,726.89 L 52.89,718.67 L 53.84,710.14 L 55.78,701.89 L 57.86,693.67 L 59.54,685.36 L 61.33,677.08 L 63.55,668.89 L 65.16,660.58 L 66.88,652.28 L 68.40,643.94 L 69.88,635.60 L 71.80,627.35 L 73.63,619.07 L 74.73,610.66 L 76.36,602.35 L 77.40,593.94 L 79.01,585.62 L 79.99,577.20 L 81.29,568.83 L 82.58,560.46 L 83.82,552.08 L 84.62,543.64 L 85.83,535.26 L 86.28,526.78 L 87.60,518.41 L 88.30,509.96 L 89.22,501.54 L 89.89,493.10 L 90.75,484.66 L 90.96,476.19 L 91.40,467.73 L 91.94,459.27 L 93.11,450.84 L 92.73,442.35 L 92.82,433.88 L 93.13,425.41 L 93.04,416.94 L 93.36,408.47 L 93.57,400.00 L 93.54,391.53 L 93.80,383.05 L 93.38,374.58 L 93.17,366.11 L 92.83,357.65 L 92.29,349.19 L 91.43,340.75 L 91.58,332.26 L 90.61,323.84 L 90.03,315.39 L 89.25,306.95 L 89.10,298.47 L 88.18,290.05 L 87.04,281.65 L 86.10,273.23 L 85.36,264.80 L 84.06,256.42 L 83.03,248.02 L 81.94,239.63 L 80.65,231.26 L 79.58,222.86 L 78.14,214.52 L 76.87,206.15 L 75.70,197.76 L 74.17,189.44 L 72.44,181.15 L 70.99,172.81 L 68.86,164.60 L 67.71,156.20 L 65.46,148.02 L 64.30,139.61 L 62.55,131.33 L 60.44,123.13 L 58.80,114.82 L 56.57,106.65 L 54.59,98.42 L 52.23,90.28 L 50.17,82.07 L 47.92,73.91 L 45.94,65.67 L 42.80,57.77 L 40.59,49.60 L 37.72,41.62 L 35.36,33.50 L 32.89,25.40 L 30.24,17.37 L 27.51,9.36 L 25.79,5.14 L 35.85,5.14 L 36.35,6.35 L 38.45,14.63 L 41.28,22.68 L 43.44,30.94 Z M 16.34,708.74 L 18.38,700.77 L 20.34,692.79 L 22.22,684.79 L 24.26,676.82 L 25.80,668.74 L 27.47,660.70 L 28.94,652.61 L 30.91,644.63 L 33.08,636.69 L 34.15,628.53 L 35.60,620.44 L 37.21,612.39 L 38.84,604.33 L 40.26,596.24 L 41.40,588.11 L 42.77,580.01 L 44.00,571.88 L 45.34,563.78 L 46.51,555.65 L 47.50,547.49 L 48.55,539.34 L 49.87,531.22 L 50.27,523.00 L 51.41,514.86 L 52.11,506.67 L 53.08,498.51 L 53.56,490.30 L 54.32,482.12 L 54.80,473.91 L 55.19,465.70 L 55.60,457.50 L 56.23,449.30 L 56.47,441.08 L 56.57,432.86 L 56.89,424.65 L 57.07,416.44 L 57.41,408.22 L 57.13,400.00 L 57.24,391.78 L 57.21,383.56 L 56.95,375.35 L 56.81,367.13 L 56.61,358.91 L 56.35,350.70 L 55.31,342.52 L 55.19,334.30 L 54.80,326.09 L 53.99,317.91 L 53.56,309.70 L 52.82,301.52 L 52.28,293.31 L 51.00,285.18 L 49.94,277.03 L 48.51,268.93 L 47.74,260.76 L 46.09,252.69 L 44.92,244.57 L 44.22,236.38 L 42.75,228.30 L 41.26,220.23 L 40.15,212.10 L 38.03,204.13 L 37.22,195.95 L 35.88,187.86 L 34.02,179.86 L 32.30,171.84 L 31.18,163.70 L 30.10,155.54 L 27.68,147.67 L 25.29,139.80 L 23.91,131.70 L 21.68,123.80 L 19.84,115.81 L 18.04,107.80 L 15.80,99.91 L 12.73,92.24 L 11.18,84.17 L 8.32,76.46 L 6.77,68.37 L 5.14,64.93 L 5.14,28.56 L 6.27,34.05 L 8.59,41.99 L 11.29,49.81 L 13.63,57.74 L 16.16,65.61 L 18.19,73.63 L 20.27,81.63 L 23.09,89.43 L 24.66,97.57 L 26.23,105.70 L 28.48,113.65 L 30.07,121.77 L 32.66,129.65 L 33.90,137.84 L 35.63,145.92 L 37.95,153.87 L 39.47,162.00 L 40.87,170.14 L 42.81,178.18 L 44.49,186.28 L 45.74,194.45 L 46.95,202.63 L 48.09,210.81 L 49.55,218.94 L 50.61,227.14 L 51.56,235.35 L 52.74,243.52 L 53.61,251.74 L 54.44,259.96 L 55.88,268.10 L 56.05,276.39 L 57.12,284.58 L 57.56,292.83 L 58.16,301.07 L 59.18,309.27 L 59.78,317.50 L 60.07,325.76 L 60.41,334.01 L 60.47,342.27 L 60.84,350.51 L 61.29,358.75 L 61.59,367.00 L 61.87,375.24 L 62.19,383.49 L 62.28,391.75 L 62.13,400.00 L 61.97,408.25 L 61.55,416.50 L 61.87,424.76 L 61.42,433.00 L 61.33,441.25 L 60.96,449.50 L 59.59,457.69 L 60.39,465.99 L 59.68,474.22 L 59.25,482.46 L 58.16,490.65 L 57.91,498.91 L 57.38,507.15 L 56.71,515.38 L 55.66,523.57 L 54.94,531.79 L 53.91,539.98 L 53.26,548.22 L 52.02,556.38 L 50.98,564.57 L 49.90,572.76 L 48.57,580.90 L 47.55,589.10 L 45.75,597.17 L 44.52,605.34 L 42.81,613.42 L 41.64,621.59 L 40.08,629.70 L 38.16,637.74 L 36.57,645.84 L 34.38,653.81 L 32.58,661.86 L 30.56,669.86 L 28.74,677.91 L 26.85,685.94 L 24.54,693.87 L 22.50,701.86 L 20.13,709.77 L 17.57,717.61 L 14.94,725.44 L 10.29,741.25 L 5.41,757.00 L 5.14,757.83 L 5.14,748.27 L 9.89,732.55 L 12.15,724.64 L 14.24,716.68 L 16.34,708.74 Z M 18.75,12.34 L 21.39,20.31 L 24.01,28.29 L 26.69,36.25 L 29.37,44.21 L 31.43,52.36 L 34.04,60.35 L 35.61,68.64 L 38.21,76.62 L 40.44,84.71 L 42.75,92.79 L 44.64,100.97 L 46.79,109.09 L 48.58,117.29 L 50.85,125.38 L 52.53,133.61 L 54.46,141.78 L 56.87,149.85 L 58.06,158.18 L 60.24,166.31 L 61.33,174.65 L 62.99,182.88 L 64.24,191.19 L 65.57,199.48 L 67.16,207.72 L 68.53,216.01 L 69.61,224.33 L 70.94,232.62 L 71.95,240.96 L 73.03,249.29 L 74.05,257.62 L 74.68,265.99 L 75.77,274.32 L 76.54,282.68 L 76.98,291.07 L 77.53,299.44 L 78.73,307.76 L 79.19,316.14 L 79.73,324.52 L 79.75,332.92 L 80.78,341.27 L 80.69,349.68 L 80.80,358.07 L 80.98,366.45 L 81.19,374.84 L 81.06,383.23 L 81.50,391.61 L 81.53,400.00 L 81.68,408.39 L 81.82,416.78 L 81.44,425.17 L 81.34,433.56 L 80.90,441.94 L 79.87,450.29 L 80.27,458.70 L 79.93,467.09 L 79.37,475.46 L 78.47,483.80 L 78.09,492.19 L 77.41,500.55 L 76.86,508.92 L 75.97,517.27 L 75.59,525.66 L 74.22,533.95 L 73.49,542.31 L 72.23,550.61 L 71.31,558.95 L 70.30,567.29 L 69.20,575.61 L 67.66,583.86 L 66.64,592.19 L 64.92,600.41 L 63.68,608.71 L 61.79,616.90 L 60.52,625.20 L 59.22,633.49 L 57.37,641.68 L 55.45,649.85 L 53.60,658.03 L 51.54,666.17 L 49.96,674.41 L 47.84,682.53 L 45.50,690.59 L 43.44,698.72 L 41.14,706.79 L 37.72,714.54 L 35.36,722.58 L 30.74,738.68 L 23.40,762.71 L 18.22,778.64 L 12.64,794.86 L 9.61,794.86 L 15.50,777.73 L 20.67,761.84 L 25.61,745.88 L 30.32,729.85 L 32.22,721.71 L 34.06,713.55 L 35.99,705.43 L 38.14,697.36 L 39.90,689.20 L 41.97,681.11 L 43.99,673.01 L 45.70,664.84 L 47.52,656.70 L 48.84,648.45 L 50.65,640.30 L 52.01,632.06 L 53.62,623.88 L 55.50,615.74 L 56.72,607.49 L 58.32,599.30 L 59.24,590.99 L 60.81,582.80 L 61.96,574.54 L 63.25,566.29 L 64.46,558.04 L 65.36,549.75 L 66.73,541.51 L 67.61,533.21 L 68.68,524.94 L 69.31,516.61 L 70.19,508.32 L 71.12,500.02 L 72.20,491.73 L 72.32,483.38 L 72.99,475.06 L 73.27,466.71 L 74.94,458.44 L 74.32,450.06 L 74.58,441.72 L 75.02,433.38 L 74.97,425.03 L 75.58,416.69 L 75.34,408.35 L 75.23,400.00 L 75.03,391.66 L 74.94,383.31 L 74.97,374.97 L 74.84,366.63 L 74.62,358.28 L 74.44,349.94 L 74.06,341.60 L 73.25,333.29 L 72.60,324.97 L 71.79,316.66 L 71.18,308.34 L 70.86,300.00 L 70.02,291.70 L 68.90,283.43 L 68.29,275.11 L 66.67,266.89 L 66.20,258.55 L 65.01,250.30 L 63.74,242.06 L 62.67,233.79 L 61.24,225.57 L 59.82,217.35 L 58.69,209.09 L 57.12,200.91 L 55.51,192.73 L 53.82,184.56 L 52.44,176.34 L 51.22,168.09 L 49.34,159.97 L 47.46,151.85 L 46.28,143.58 L 44.38,135.46 L 41.90,127.48 L 40.63,119.21 L 38.26,111.21 L 36.45,103.08 L 33.83,95.14 L 31.11,87.25 L 29.52,79.05 L 27.08,71.08 L 24.48,63.16 L 22.27,55.13 L 19.76,47.19 L 17.49,39.17 L 14.74,31.30 L 11.22,23.69 L 9.07,15.63 L 6.54,7.70 L 5.58,5.14 L 16.71,5.14 L 18.75,12.34 Z M 91.71,720.15 L 96.06,703.20 L 95.95,694.17 L 97.98,685.67 L 99.35,677.03 L 101.25,668.51 L 103.06,659.97 L 104.65,651.39 L 106.22,642.80 L 107.72,634.20 L 109.42,625.64 L 110.96,617.05 L 112.24,608.42 L 113.95,599.86 L 114.97,591.18 L 116.25,582.55 L 117.75,573.95 L 119.05,565.32 L 119.69,556.61 L 120.75,547.95 L 121.75,539.28 L 122.81,530.62 L 123.60,521.94 L 124.59,513.27 L 125.47,504.59 L 125.86,495.86 L 126.69,487.18 L 127.13,478.46 L 127.59,469.75 L 128.19,461.05 L 128.64,452.33 L 128.80,443.61 L 129.25,434.89 L 129.56,426.17 L 130.07,417.46 L 130.22,408.73 L 130.09,400.00 L 130.06,391.27 L 130.07,382.54 L 129.56,373.83 L 129.31,365.10 L 129.27,356.37 L 128.93,347.65 L 128.40,338.94 L 127.65,330.25 L 127.37,321.52 L 126.85,312.81 L 125.92,304.13 L 125.35,295.42 L 124.30,286.76 L 123.42,278.08 L 122.48,269.41 L 121.75,260.72 L 120.77,252.05 L 119.98,243.35 L 118.86,234.70 L 118.16,225.99 L 116.91,217.35 L 115.70,208.70 L 114.53,200.05 L 113.22,191.42 L 112.20,182.73 L 109.94,174.26 L 108.58,165.64 L 106.67,157.11 L 105.34,148.47 L 103.33,139.97 L 102.02,131.32 L 100.17,122.78 L 98.24,114.26 L 96.98,105.58 L 95.28,97.00 L 93.42,88.45 L 91.57,79.89 L 84.74,54.55 L 74.62,21.04 L 69.33,5.14 L 72.41,5.14 L 77.35,20.18 L 85.05,45.34 L 89.88,62.20 L 96.69,87.61 L 102.96,113.16 L 108.70,138.83 L 112.44,155.97 L 114.23,164.56 L 116.08,173.14 L 117.75,181.75 L 119.92,190.28 L 121.43,198.93 L 123.15,207.55 L 124.46,216.23 L 126.01,224.89 L 127.08,233.60 L 128.78,242.24 L 130.49,250.89 L 131.27,259.65 L 132.22,268.39 L 133.40,277.10 L 134.69,285.81 L 135.19,294.60 L 136.17,303.34 L 136.46,312.14 L 137.10,320.91 L 137.56,329.69 L 138.10,338.47 L 138.48,347.25 L 138.94,356.04 L 139.27,364.83 L 139.50,373.62 L 139.64,382.41 L 139.38,391.21 L 139.64,400.00 L 139.73,408.79 L 139.81,417.59 L 139.96,426.39 L 139.52,435.18 L 139.37,443.98 L 138.89,452.76 L 138.49,461.55 L 137.91,470.33 L 137.28,479.10 L 136.93,487.89 L 136.28,496.67 L 135.71,505.45 L 135.10,514.22 L 134.22,522.98 L 133.41,531.74 L 132.40,540.48 L 131.43,549.22 L 130.20,557.94 L 128.99,566.65 L 127.73,575.36 L 126.54,584.07 L 125.16,592.76 L 123.85,601.46 L 122.24,610.11 L 120.97,618.82 L 119.30,627.45 L 117.51,636.07 L 116.25,644.78 L 113.97,653.30 L 111.77,661.82 L 109.91,670.41 L 107.60,678.90 L 102.96,686.84 L 98.84,703.89 L 94.48,720.88 L 89.88,737.80 L 82.54,763.07 L 77.35,779.82 L 72.47,794.86 L 69.43,794.86 L 71.95,787.29 L 79.79,762.24 L 84.74,745.45 L 91.71,720.15 Z M 114.37,707.76 L 118.54,690.50 L 117.88,681.24 L 119.41,672.50 L 121.29,663.84 L 122.69,655.09 L 123.91,646.30 L 126.02,637.69 L 127.47,628.95 L 128.93,620.22 L 130.66,611.53 L 131.94,602.77 L 133.38,594.03 L 134.65,585.27 L 135.97,576.51 L 137.11,567.73 L 138.17,558.94 L 139.10,550.14 L 140.15,541.35 L 141.05,532.54 L 142.02,523.74 L 142.80,514.92 L 143.73,506.12 L 144.57,497.30 L 145.22,488.47 L 146.04,479.65 L 146.45,470.81 L 146.80,461.96 L 147.20,453.11 L 147.40,444.26 L 147.80,435.41 L 147.80,426.56 L 148.25,417.71 L 148.51,408.86 L 148.66,400.00 L 148.87,391.14 L 148.42,382.29 L 148.25,373.43 L 148.05,364.58 L 147.83,355.73 L 147.61,346.87 L 147.19,338.02 L 146.80,329.17 L 146.22,320.34 L 145.69,311.49 L 144.69,302.69 L 144.25,293.84 L 143.21,285.04 L 142.84,276.18 L 142.24,267.33 L 141.28,258.52 L 140.03,249.75 L 139.59,240.88 L 139.02,232.01 L 137.70,223.24 L 136.72,214.42 L 135.40,205.65 L 134.36,196.84 L 132.98,188.07 L 132.15,179.21 L 130.69,170.45 L 129.29,161.68 L 127.71,152.95 L 124.35,135.50 L 118.54,109.50 L 112.19,83.63 L 105.29,57.89 L 100.39,40.82 L 92.60,15.34 L 89.25,5.14 L 92.31,5.14 L 95.34,14.47 L 103.15,40.01 L 108.05,57.12 L 114.96,82.92 L 121.33,108.85 L 127.49,134.84 L 130.06,143.40 L 132.26,152.05 L 135.02,160.59 L 136.49,169.39 L 138.16,178.15 L 139.51,186.97 L 139.82,195.95 L 140.11,204.92 L 141.65,213.70 L 142.65,222.55 L 143.82,231.37 L 144.97,240.20 L 146.05,249.03 L 147.17,257.86 L 148.04,266.72 L 149.03,275.57 L 150.05,284.42 L 151.00,293.27 L 151.95,302.13 L 153.01,310.98 L 154.23,319.83 L 155.40,328.69 L 156.30,337.58 L 156.94,346.48 L 157.44,355.39 L 157.72,364.31 L 158.35,373.22 L 158.35,382.15 L 158.60,391.07 L 158.75,400.00 L 158.54,408.93 L 158.68,417.85 L 158.70,426.78 L 158.42,435.71 L 158.32,444.64 L 157.76,453.55 L 157.57,462.48 L 157.05,471.40 L 156.52,480.31 L 155.98,489.23 L 155.47,498.14 L 154.81,507.05 L 153.95,515.94 L 153.25,524.84 L 152.15,533.71 L 151.38,542.61 L 150.16,551.46 L 149.07,560.32 L 148.04,569.19 L 146.59,578.01 L 145.40,586.86 L 144.12,595.70 L 142.84,604.54 L 141.25,613.32 L 139.73,622.12 L 137.85,630.86 L 136.00,639.59 L 134.12,648.32 L 132.46,657.09 L 130.19,665.74 L 125.28,673.79 L 121.33,691.15 L 117.15,708.46 L 112.72,725.70 L 105.63,751.44 L 100.60,768.52 L 95.34,785.53 L 92.31,794.86 L 89.29,794.86 L 92.60,784.66 L 97.86,767.69 L 105.29,742.11 L 109.95,724.97 L 114.37,707.76 Z M 132.67,712.33 L 136.91,694.81 L 140.90,677.23 L 139.78,667.77 L 141.18,658.88 L 143.05,650.09 L 144.59,641.23 L 146.03,632.36 L 147.33,623.47 L 148.86,614.61 L 150.19,605.73 L 151.72,596.87 L 153.12,588.00 L 154.48,579.12 L 155.46,570.18 L 156.74,561.29 L 157.83,552.37 L 158.67,543.43 L 159.83,534.52 L 160.55,525.56 L 161.53,516.63 L 162.23,507.67 L 163.01,498.72 L 163.81,489.77 L 164.46,480.81 L 165.00,471.84 L 165.41,462.87 L 166.03,453.90 L 166.16,444.91 L 166.62,435.94 L 166.78,426.95 L 167.11,417.97 L 167.44,408.99 L 167.30,400.00 L 167.38,391.01 L 167.44,382.02 L 167.13,373.04 L 167.32,364.04 L 167.04,355.06 L 166.85,346.06 L 166.68,337.07 L 166.64,328.07 L 166.75,319.04 L 166.78,310.02 L 166.53,301.01 L 166.04,292.01 L 165.43,283.02 L 164.76,274.03 L 163.95,265.05 L 162.88,256.10 L 161.94,247.14 L 160.84,238.19 L 159.68,229.25 L 158.42,220.33 L 156.86,211.45 L 155.73,202.51 L 153.21,193.78 L 150.60,185.09 L 148.90,176.26 L 147.40,167.39 L 145.57,158.58 L 144.91,149.54 L 143.58,140.62 L 142.48,131.65 L 136.91,105.19 L 130.46,78.94 L 123.46,52.82 L 118.49,35.49 L 110.59,9.63 L 109.13,5.14 L 112.13,5.14 L 113.32,8.77 L 118.67,26.02 L 126.23,52.05 L 133.24,78.22 L 139.70,104.54 L 146.69,130.76 L 149.50,139.41 L 151.13,148.31 L 152.40,157.28 L 153.31,166.30 L 154.85,175.21 L 157.37,183.95 L 159.20,192.81 L 159.90,201.86 L 160.40,210.93 L 161.57,219.89 L 162.83,228.83 L 164.46,237.73 L 166.15,246.64 L 167.01,255.64 L 167.25,264.70 L 168.14,273.70 L 169.01,282.69 L 169.98,291.68 L 171.05,300.66 L 171.93,309.66 L 172.73,318.67 L 173.59,327.68 L 174.50,336.69 L 175.30,345.71 L 176.14,354.74 L 176.72,363.78 L 176.86,372.83 L 177.19,381.89 L 177.41,390.94 L 177.34,400.00 L 177.43,409.06 L 177.66,418.12 L 177.59,427.18 L 177.58,436.24 L 177.24,445.30 L 176.71,454.35 L 176.59,463.41 L 175.94,472.45 L 175.54,481.51 L 174.94,490.55 L 174.46,499.60 L 173.83,508.65 L 172.88,517.66 L 172.14,526.70 L 170.97,535.69 L 170.19,544.72 L 169.09,553.71 L 168.22,562.74 L 166.70,571.68 L 165.51,580.67 L 164.47,589.67 L 162.86,598.60 L 161.33,607.53 L 159.73,616.45 L 158.04,625.35 L 156.18,634.22 L 154.51,643.13 L 152.09,651.88 L 147.46,660.17 L 143.71,677.84 L 137.61,704.25 L 130.96,730.52 L 126.23,747.95 L 118.67,773.98 L 112.12,794.86 L 109.13,794.86 L 110.59,790.37 L 115.92,773.15 L 121.01,755.85 L 128.19,729.79 L 132.67,712.33 Z M 159.33,681.28 L 163.14,663.39 L 162.10,653.86 L 163.14,644.77 L 164.82,635.81 L 166.19,626.79 L 167.58,617.78 L 168.96,608.77 L 170.27,599.74 L 171.38,590.69 L 172.93,581.71 L 174.20,572.68 L 175.03,563.60 L 176.37,554.58 L 177.36,545.52 L 178.54,536.48 L 179.21,527.39 L 180.18,518.33 L 180.82,509.23 L 181.65,500.16 L 182.49,491.08 L 183.10,481.98 L 183.77,472.89 L 184.08,463.78 L 184.78,454.69 L 184.96,445.57 L 185.18,436.46 L 185.62,427.35 L 185.86,418.23 L 186.29,409.12 L 186.44,400.00 L 186.31,390.88 L 186.33,381.76 L 186.35,372.64 L 186.05,363.52 L 186.05,354.39 L 186.19,345.25 L 186.17,336.12 L 186.12,326.98 L 185.92,317.84 L 185.51,308.71 L 185.05,299.58 L 184.67,290.44 L 184.05,281.32 L 183.21,272.22 L 182.27,263.13 L 180.54,254.12 L 179.31,245.07 L 178.78,235.93 L 178.07,226.80 L 176.87,217.74 L 175.45,208.70 L 173.23,199.80 L 171.08,190.89 L 169.94,181.82 L 169.37,172.65 L 167.69,163.66 L 165.26,154.82 L 163.06,145.95 L 161.10,137.03 L 160.19,127.89 L 155.28,100.89 L 148.74,74.24 L 141.64,47.74 L 133.98,21.40 L 128.95,5.14 L 131.94,5.14 L 134.05,11.81 L 141.90,38.16 L 149.20,64.66 L 155.95,91.32 L 162.52,118.02 L 164.51,126.97 L 167.19,135.78 L 170.45,144.48 L 172.64,153.41 L 174.10,162.49 L 175.98,171.48 L 177.72,180.51 L 179.03,189.60 L 180.13,198.73 L 180.63,207.94 L 181.17,217.13 L 182.31,226.23 L 183.67,235.31 L 185.31,244.35 L 186.64,253.44 L 186.25,262.71 L 186.49,271.90 L 187.35,281.02 L 188.15,290.15 L 188.89,299.29 L 189.95,308.40 L 191.26,317.50 L 192.26,326.63 L 192.82,335.79 L 194.15,344.92 L 194.51,354.10 L 194.50,363.28 L 194.92,372.46 L 196.06,381.62 L 196.16,390.81 L 196.31,400.00 L 196.47,409.19 L 196.30,418.38 L 196.55,427.58 L 196.44,436.77 L 196.03,445.96 L 195.74,455.15 L 195.38,464.33 L 194.96,473.52 L 194.55,482.70 L 193.86,491.87 L 193.38,501.06 L 192.53,510.22 L 191.71,519.37 L 190.84,528.53 L 189.97,537.68 L 189.16,546.85 L 187.88,555.96 L 187.00,565.11 L 185.64,574.21 L 184.31,583.31 L 182.96,592.40 L 181.35,601.46 L 179.90,610.54 L 178.24,619.58 L 176.60,628.63 L 172.19,637.16 L 169.50,645.99 L 165.94,663.97 L 160.13,690.84 L 153.76,717.58 L 149.20,735.34 L 141.90,761.84 L 134.05,788.19 L 131.94,794.86 L 128.89,794.86 L 133.98,778.60 L 141.64,752.26 L 146.43,734.61 L 153.16,708.01 L 159.33,681.28 Z M 175.74,694.38 L 181.62,667.18 L 185.22,648.98 L 185.92,639.68 L 184.79,630.07 L 186.28,620.94 L 187.64,611.79 L 189.07,602.65 L 190.22,593.48 L 191.50,584.32 L 192.67,575.15 L 193.69,565.96 L 195.05,556.81 L 195.90,547.60 L 197.07,538.43 L 198.06,529.24 L 198.93,520.03 L 199.72,510.82 L 200.34,501.59 L 201.22,492.39 L 201.75,483.16 L 202.44,473.94 L 202.98,464.70 L 203.46,455.47 L 203.87,446.23 L 204.04,436.98 L 204.39,427.74 L 204.96,418.50 L 204.98,409.25 L 205.21,400.00 L 205.29,390.75 L 205.20,381.50 L 206.02,372.22 L 205.99,362.96 L 205.40,353.72 L 205.05,344.46 L 205.55,335.17 L 205.14,325.91 L 205.04,316.64 L 205.13,307.34 L 204.84,298.06 L 204.10,288.81 L 203.29,279.57 L 202.42,270.34 L 200.80,261.18 L 198.41,252.12 L 197.62,242.88 L 197.02,233.62 L 196.00,224.41 L 194.64,215.24 L 192.54,206.18 L 190.29,197.16 L 188.51,188.07 L 186.80,178.97 L 185.40,169.82 L 184.02,160.67 L 182.08,151.61 L 180.76,142.44 L 180.37,133.07 L 179.28,123.83 L 177.38,114.75 L 171.50,87.55 L 164.67,60.57 L 157.28,33.74 L 149.33,7.08 L 148.72,5.14 L 151.67,5.14 L 157.45,24.03 L 165.04,50.86 L 172.07,77.85 L 181.33,104.35 L 184.39,113.21 L 186.94,122.20 L 188.79,131.34 L 189.98,140.62 L 191.20,149.88 L 193.14,158.99 L 195.20,168.09 L 197.29,177.20 L 198.93,186.38 L 200.17,195.63 L 200.97,204.94 L 201.27,214.31 L 201.99,223.61 L 203.36,232.82 L 204.69,242.04 L 205.70,251.30 L 205.95,260.64 L 205.27,270.06 L 207.70,297.84 L 209.55,325.67 L 210.07,334.95 L 210.97,344.22 L 212.36,353.47 L 213.03,362.77 L 214.06,372.06 L 214.46,381.37 L 214.87,390.68 L 215.06,400.00 L 215.38,409.32 L 215.34,418.65 L 215.47,427.97 L 215.18,437.30 L 214.89,446.62 L 214.65,455.94 L 214.13,465.25 L 213.56,474.56 L 213.42,483.89 L 212.86,493.20 L 212.02,502.49 L 211.16,511.78 L 210.56,521.09 L 209.82,530.39 L 208.82,539.66 L 207.73,548.93 L 206.56,558.18 L 205.42,567.44 L 204.11,576.67 L 202.82,585.91 L 201.39,595.13 L 199.98,604.34 L 196.92,613.29 L 192.98,622.07 L 189.75,640.38 L 184.43,667.76 L 178.53,695.02 L 174.29,713.12 L 167.45,740.16 L 160.04,767.05 L 154.79,784.88 L 151.67,794.86 L 148.72,794.86 L 149.33,792.92 L 157.28,766.26 L 164.67,739.43 L 169.29,721.46 L 175.74,694.38 Z M 194.14,698.56 L 200.10,670.98 L 205.49,643.27 L 208.75,624.74 L 207.87,615.07 L 207.73,605.54 L 209.11,596.27 L 210.36,586.97 L 211.61,577.67 L 212.70,568.36 L 213.84,559.05 L 214.82,549.72 L 215.76,540.39 L 216.65,531.06 L 217.67,521.74 L 218.70,512.41 L 219.33,503.06 L 219.86,493.69 L 220.54,484.34 L 221.51,475.00 L 221.92,465.63 L 222.25,456.26 L 222.73,446.89 L 223.02,437.51 L 223.19,428.14 L 223.65,418.76 L 223.81,409.38 L 224.19,400.00 L 224.32,390.61 L 224.53,381.23 L 224.60,371.83 L 225.18,362.43 L 225.26,353.02 L 225.93,343.59 L 225.98,334.17 L 225.52,324.77 L 223.65,296.61 L 221.19,268.49 L 218.62,259.30 L 216.85,250.05 L 215.71,240.73 L 214.76,231.38 L 213.73,222.04 L 211.91,212.81 L 209.54,203.67 L 207.54,194.49 L 205.86,185.26 L 204.44,175.99 L 203.35,166.66 L 202.09,157.35 L 200.60,148.08 L 198.25,138.98 L 195.74,129.92 L 193.77,120.75 L 192.36,111.46 L 191.34,102.07 L 187.60,73.98 L 180.48,46.67 L 172.80,19.51 L 168.40,5.14 L 171.45,5.14 L 172.85,9.66 L 180.74,36.83 L 188.07,64.15 L 195.77,91.39 L 200.87,99.91 L 203.49,109.01 L 205.39,118.28 L 206.67,127.67 L 207.97,137.06 L 210.37,146.22 L 212.84,155.38 L 214.82,164.63 L 216.51,173.95 L 218.06,183.28 L 219.54,192.63 L 220.39,202.07 L 220.65,211.58 L 222.09,220.93 L 223.85,230.23 L 225.35,239.58 L 226.38,248.98 L 226.82,258.44 L 225.61,268.06 L 224.94,277.60 L 227.20,305.79 L 228.88,334.03 L 229.41,343.44 L 232.63,352.77 L 234.36,362.17 L 234.10,371.64 L 232.62,381.11 L 231.54,390.56 L 232.12,400.00 L 233.19,409.45 L 233.44,418.90 L 234.04,428.36 L 233.95,437.82 L 233.69,447.27 L 233.50,456.73 L 233.03,466.17 L 232.77,475.63 L 232.09,485.07 L 231.53,494.51 L 230.89,503.95 L 229.96,513.36 L 229.19,522.79 L 228.30,532.20 L 227.27,541.60 L 226.13,550.99 L 224.89,560.37 L 223.62,569.74 L 222.67,579.15 L 218.79,588.15 L 216.01,597.28 L 213.12,615.92 L 208.31,643.79 L 202.91,671.55 L 198.99,690.00 L 192.63,717.56 L 185.69,744.98 L 180.74,763.17 L 172.85,790.34 L 171.44,794.86 L 168.43,794.86 L 170.11,789.51 L 175.42,771.46 L 182.92,744.25 L 189.84,716.88 L 194.14,698.56 Z M 218.58,674.77 L 224.04,646.68 L 228.92,618.48 L 231.83,599.62 L 231.76,589.98 L 230.45,580.19 L 231.94,570.79 L 232.99,561.33 L 233.92,551.87 L 234.83,542.40 L 235.72,532.93 L 236.61,523.46 L 237.50,513.99 L 238.09,504.50 L 238.84,495.02 L 239.53,485.53 L 239.98,476.03 L 240.71,466.55 L 241.10,457.05 L 241.64,447.55 L 241.98,438.04 L 242.35,428.54 L 243.28,419.04 L 243.73,409.52 L 244.87,400.00 L 245.38,390.47 L 244.11,380.95 L 242.29,371.46 L 241.57,361.97 L 242.70,352.41 L 245.20,342.78 L 244.86,333.25 L 243.16,304.68 L 240.87,276.15 L 238.41,266.81 L 235.28,257.55 L 233.67,248.16 L 232.52,238.72 L 231.71,229.24 L 231.03,219.73 L 229.89,210.28 L 227.45,201.03 L 225.47,191.71 L 223.98,182.32 L 222.43,172.95 L 220.89,163.57 L 219.51,154.15 L 218.49,144.67 L 217.28,135.21 L 214.82,126.00 L 212.22,116.83 L 210.12,107.56 L 208.60,98.15 L 209.43,88.18 L 203.56,60.17 L 196.16,32.52 L 188.20,5.14 L 191.19,5.14 L 198.92,31.75 L 206.34,59.45 L 217.40,86.32 L 219.50,95.67 L 221.40,105.07 L 223.08,114.52 L 225.33,123.84 L 227.88,133.11 L 230.02,142.47 L 235.11,170.80 L 239.02,199.32 L 239.28,208.97 L 240.44,218.48 L 242.38,227.89 L 243.78,237.38 L 244.55,246.94 L 245.06,256.53 L 244.72,266.19 L 244.10,275.86 L 244.56,285.41 L 246.66,314.02 L 248.41,342.65 L 252.15,352.08 L 253.79,361.63 L 254.06,371.22 L 254.03,380.81 L 254.05,390.41 L 253.93,400.00 L 253.96,409.59 L 253.27,419.18 L 251.45,428.73 L 250.63,438.29 L 250.92,447.87 L 251.35,457.48 L 251.56,467.08 L 251.30,476.67 L 250.63,486.23 L 250.15,495.81 L 249.41,505.37 L 248.56,514.92 L 247.63,524.46 L 246.59,534.00 L 245.58,543.53 L 243.01,552.89 L 239.73,562.14 L 236.03,590.58 L 231.82,618.95 L 230.18,628.37 L 226.86,647.20 L 223.28,665.98 L 219.44,684.71 L 215.33,703.38 L 210.97,721.99 L 206.34,740.55 L 201.46,759.03 L 196.31,777.45 L 191.19,794.86 L 188.20,794.86 L 196.16,767.48 L 201.16,749.06 L 208.18,721.32 L 214.62,693.43 L 218.58,674.77 Z M 230.93,706.92 L 235.09,688.03 L 238.98,669.08 L 242.60,650.08 L 245.96,631.03 L 247.46,621.48 L 251.88,592.81 L 255.62,564.03 L 254.55,554.18 L 254.05,544.42 L 254.98,534.82 L 255.75,525.20 L 256.50,515.59 L 257.19,505.97 L 257.86,496.35 L 258.66,486.74 L 259.13,477.11 L 259.87,467.49 L 260.95,457.88 L 262.13,448.26 L 263.02,438.63 L 262.67,428.96 L 261.19,419.29 L 260.70,409.64 L 260.79,400.00 L 260.60,390.36 L 260.42,380.72 L 260.06,371.09 L 259.86,361.46 L 260.89,351.78 L 263.89,342.00 L 262.63,313.01 L 260.50,284.08 L 259.29,274.47 L 256.86,265.00 L 254.57,255.53 L 253.01,245.99 L 251.57,236.45 L 250.62,226.85 L 250.08,217.19 L 248.64,207.65 L 246.15,198.26 L 241.03,169.80 L 235.91,141.35 L 234.38,131.83 L 233.13,122.24 L 231.44,112.74 L 229.06,103.39 L 226.77,94.02 L 224.54,84.64 L 221.84,55.47 L 214.33,27.45 L 207.85,5.14 L 210.81,5.14 L 214.45,17.35 L 222.17,45.38 L 233.17,72.63 L 235.88,81.98 L 238.19,91.43 L 240.23,100.93 L 242.63,110.36 L 244.77,119.85 L 250.34,148.50 L 255.31,177.25 L 256.46,186.91 L 257.20,196.63 L 258.31,206.29 L 259.05,216.00 L 260.36,225.62 L 261.89,235.22 L 264.22,244.74 L 265.60,254.37 L 266.58,264.04 L 267.48,273.73 L 263.81,283.80 L 264.14,293.50 L 264.85,303.16 L 265.49,312.83 L 266.06,322.51 L 266.57,332.19 L 267.40,341.85 L 271.58,351.41 L 272.69,361.10 L 272.92,370.82 L 273.09,380.55 L 273.20,390.27 L 273.23,400.00 L 273.20,409.73 L 273.09,419.45 L 272.92,429.18 L 272.69,438.90 L 271.58,448.59 L 268.27,458.19 L 266.57,467.81 L 266.06,477.49 L 265.49,487.17 L 265.24,496.87 L 264.65,506.54 L 263.79,516.20 L 262.52,525.82 L 260.62,545.11 L 257.28,573.99 L 253.34,602.80 L 250.37,621.95 L 245.42,650.60 L 239.87,679.14 L 235.84,698.10 L 229.30,726.43 L 222.17,754.62 L 217.09,773.32 L 210.83,794.86 L 207.87,794.86 L 211.69,781.86 L 216.90,763.23 L 221.84,744.53 L 226.52,725.76 L 230.93,706.92 Z M 255.55,682.36 L 261.16,653.49 L 266.17,624.51 L 269.17,605.13 L 273.16,576.00 L 276.54,546.78 L 278.45,527.27 L 278.87,517.47 L 279.58,507.69 L 280.42,497.93 L 281.46,488.17 L 282.04,478.39 L 282.55,468.60 L 281.74,458.75 L 279.18,448.86 L 278.68,439.07 L 278.92,429.30 L 279.09,419.54 L 279.20,409.77 L 279.23,400.00 L 279.20,390.23 L 279.09,380.46 L 278.92,370.70 L 278.68,360.93 L 279.18,351.14 L 282.61,341.21 L 282.55,331.40 L 282.04,321.61 L 281.46,311.83 L 280.81,302.05 L 280.09,292.27 L 278.85,282.53 L 273.49,273.18 L 272.55,263.46 L 271.56,253.74 L 270.84,243.99 L 270.92,234.14 L 270.08,224.39 L 268.88,214.68 L 266.97,205.07 L 265.31,195.44 L 263.13,185.88 L 261.23,176.29 L 256.24,147.41 L 250.65,118.65 L 248.81,109.05 L 247.09,99.43 L 244.88,89.91 L 242.79,80.36 L 240.99,70.74 L 237.64,41.30 L 229.83,12.94 L 227.51,5.14 L 230.55,5.14 L 232.59,12.15 L 235.26,21.60 L 238.06,31.02 L 240.41,40.56 L 242.89,50.07 L 249.09,58.65 L 252.01,68.08 L 254.69,77.57 L 257.01,87.15 L 263.26,116.06 L 268.90,145.09 L 273.31,174.33 L 274.16,184.17 L 276.29,193.81 L 278.04,203.52 L 279.38,213.28 L 280.96,223.02 L 284.36,252.40 L 286.17,281.92 L 282.95,292.05 L 283.67,301.85 L 284.32,311.65 L 284.90,321.45 L 285.42,331.26 L 288.23,340.98 L 291.20,350.72 L 291.55,360.57 L 291.79,370.43 L 291.96,380.28 L 292.06,390.14 L 292.10,400.00 L 292.06,409.86 L 291.96,419.72 L 291.79,429.57 L 290.68,439.40 L 286.73,449.12 L 285.86,458.92 L 284.32,488.35 L 282.61,517.78 L 282.46,527.63 L 281.18,537.39 L 279.72,547.12 L 278.41,556.86 L 277.20,566.61 L 273.40,595.83 L 269.00,624.97 L 265.80,644.35 L 263.98,654.01 L 262.25,663.68 L 260.49,673.34 L 258.36,682.94 L 249.92,721.31 L 240.41,759.44 L 230.53,794.86 L 227.50,794.86 L 232.50,777.63 L 237.64,758.70 L 244.86,730.19 L 251.47,701.54 L 255.55,682.36 Z M 281.40,647.10 L 284.79,627.53 L 289.25,598.06 L 293.09,568.50 L 294.15,558.62 L 294.97,548.72 L 295.51,538.79 L 296.09,528.87 L 297.66,519.04 L 300.29,489.36 L 301.85,459.59 L 301.74,449.65 L 298.41,439.62 L 297.79,429.70 L 297.96,419.80 L 298.06,409.90 L 298.10,400.00 L 298.06,390.10 L 297.96,380.20 L 297.79,370.30 L 297.54,360.40 L 297.27,350.51 L 299.48,340.51 L 301.40,330.48 L 300.88,320.56 L 300.29,310.64 L 299.63,300.73 L 298.90,290.82 L 294.10,281.25 L 290.33,251.77 L 286.92,222.27 L 285.95,212.41 L 284.61,202.60 L 283.54,192.74 L 282.72,182.85 L 280.47,173.17 L 274.80,144.01 L 269.13,114.85 L 262.86,85.82 L 260.72,76.15 L 258.83,66.43 L 257.04,56.67 L 258.39,46.09 L 255.88,36.48 L 253.12,26.93 L 250.67,17.30 L 247.97,7.74 L 247.21,5.14 L 250.34,5.14 L 250.86,6.91 L 253.47,16.52 L 256.08,26.13 L 258.66,35.74 L 263.88,44.68 L 266.90,54.21 L 270.00,63.72 L 272.72,73.34 L 275.40,82.97 L 281.74,112.26 L 287.30,141.71 L 288.51,151.64 L 289.73,161.56 L 290.54,171.54 L 292.34,181.36 L 295.17,191.03 L 297.02,200.85 L 298.39,210.75 L 302.05,240.49 L 305.08,270.31 L 305.34,280.31 L 301.76,290.60 L 302.49,300.53 L 303.15,310.46 L 303.74,320.40 L 304.26,330.34 L 308.61,340.12 L 310.09,350.06 L 310.41,360.05 L 310.65,370.03 L 310.83,380.02 L 310.93,390.01 L 310.97,400.00 L 310.93,409.99 L 310.83,419.98 L 309.81,429.95 L 305.41,439.82 L 304.26,469.66 L 303.12,499.51 L 301.76,509.40 L 299.16,539.15 L 296.32,568.89 L 294.97,578.75 L 293.44,588.59 L 292.11,598.46 L 290.67,608.31 L 282.54,657.41 L 272.70,706.21 L 261.17,754.62 L 253.56,794.86 L 247.14,794.86 L 255.88,763.52 L 265.50,724.97 L 274.03,686.15 L 275.80,676.38 L 277.81,666.65 L 279.72,656.90 L 281.40,647.10 Z M 310.34,580.69 L 311.43,570.69 L 315.08,540.71 L 317.72,510.63 L 317.83,500.54 L 320.24,470.44 L 321.40,440.26 L 317.49,430.11 L 316.83,420.06 L 316.93,410.03 L 316.97,400.00 L 316.93,389.97 L 316.83,379.94 L 316.65,369.91 L 316.40,359.88 L 316.09,349.85 L 316.80,339.78 L 320.24,329.56 L 319.72,319.51 L 319.12,309.46 L 318.45,299.41 L 317.72,289.37 L 312.53,279.71 L 311.05,269.76 L 308.01,239.82 L 304.34,209.95 L 303.00,200.01 L 302.00,190.02 L 301.83,179.89 L 300.49,169.93 L 298.04,160.16 L 295.85,150.35 L 293.51,140.57 L 287.62,111.06 L 281.26,81.64 L 279.44,71.76 L 277.51,61.91 L 275.84,51.98 L 273.95,42.10 L 274.13,31.66 L 271.52,21.93 L 268.81,12.24 L 266.73,5.14 L 269.96,5.14 L 271.61,11.46 L 274.89,21.02 L 278.42,30.52 L 281.19,40.24 L 283.78,50.00 L 286.91,59.63 L 290.36,69.20 L 293.73,78.81 L 296.01,88.67 L 298.15,98.56 L 300.18,108.48 L 301.45,118.54 L 301.92,128.75 L 302.87,138.85 L 304.35,148.85 L 307.75,158.51 L 310.68,168.28 L 312.63,178.22 L 313.83,188.27 L 315.45,198.26 L 317.10,208.25 L 320.80,238.39 L 323.87,268.60 L 324.30,278.72 L 320.57,289.15 L 321.31,299.21 L 321.98,309.28 L 322.58,319.35 L 323.11,329.42 L 324.58,339.45 L 328.56,349.42 L 329.27,359.52 L 329.52,369.64 L 329.69,379.76 L 329.80,389.88 L 329.83,400.00 L 329.80,410.12 L 329.69,420.24 L 326.14,430.29 L 324.27,440.34 L 323.95,450.42 L 323.57,460.50 L 323.30,470.59 L 322.78,480.66 L 322.43,490.75 L 322.04,500.84 L 320.57,510.85 L 319.77,520.90 L 319.84,531.04 L 319.83,541.18 L 318.46,551.19 L 315.97,561.07 L 314.67,571.07 L 313.83,581.13 L 313.33,591.25 L 311.04,601.12 L 309.33,611.07 L 308.21,621.10 L 307.60,631.22 L 306.13,641.21 L 303.37,650.98 L 301.35,660.87 L 299.78,670.84 L 298.09,680.79 L 296.49,690.76 L 295.95,700.97 L 293.52,710.78 L 292.73,720.97 L 291.26,731.01 L 289.10,740.90 L 286.77,750.75 L 281.73,770.35 L 276.42,789.89 L 275.00,794.86 L 263.42,794.86 L 276.66,758.60 L 288.33,709.64 L 298.28,660.30 L 306.50,610.65 L 307.91,600.68 L 309.30,590.71 L 310.34,580.69 Z M 301.80,45.50 L 305.04,55.25 L 307.82,65.11 L 309.81,75.15 L 311.32,85.30 L 312.85,95.44 L 314.48,105.54 L 316.27,115.61 L 318.45,125.60 L 320.60,135.60 L 322.99,145.56 L 325.25,155.55 L 329.19,165.28 L 331.41,175.31 L 332.95,185.45 L 334.37,195.60 L 335.80,205.75 L 339.55,236.29 L 342.66,266.89 L 343.98,287.35 L 340.14,297.90 L 340.81,308.09 L 341.42,318.29 L 341.95,328.50 L 342.42,338.71 L 343.59,348.89 L 347.03,359.02 L 348.38,369.24 L 348.56,379.49 L 348.67,389.75 L 348.70,400.00 L 348.67,410.25 L 348.40,420.50 L 343.77,430.66 L 343.13,440.87 L 343.26,451.10 L 342.50,461.30 L 341.95,471.50 L 341.69,481.72 L 342.55,492.02 L 341.23,502.18 L 340.01,512.34 L 339.19,522.53 L 339.75,532.85 L 339.15,543.07 L 338.30,553.27 L 336.49,563.37 L 333.68,573.34 L 333.25,583.59 L 332.73,593.84 L 329.79,603.75 L 328.00,613.82 L 326.92,623.99 L 325.96,634.19 L 325.25,644.45 L 322.41,654.34 L 319.65,664.23 L 320.93,674.87 L 320.73,685.27 L 316.61,705.36 L 312.20,725.39 L 307.52,745.35 L 299.97,775.17 L 294.63,794.86 L 281.24,794.86 L 282.20,791.50 L 287.53,771.89 L 292.59,752.20 L 295.09,742.35 L 297.64,732.50 L 300.73,722.78 L 304.36,713.17 L 306.23,703.15 L 309.82,693.50 L 312.24,683.59 L 314.42,673.63 L 316.58,663.66 L 318.16,653.59 L 318.85,643.36 L 320.69,633.34 L 323.25,623.43 L 325.16,613.40 L 326.34,603.27 L 326.81,593.05 L 328.92,583.04 L 330.56,572.97 L 331.59,562.82 L 331.29,552.54 L 331.97,542.37 L 333.86,532.31 L 335.71,522.24 L 336.53,512.07 L 336.55,501.85 L 337.50,491.70 L 338.36,481.53 L 338.89,471.35 L 339.55,461.17 L 339.94,450.98 L 340.26,440.79 L 338.89,430.56 L 335.69,420.33 L 335.80,410.16 L 335.83,400.00 L 335.80,389.84 L 335.69,379.67 L 335.51,369.51 L 335.27,359.35 L 335.34,349.18 L 338.53,338.87 L 339.09,328.64 L 338.56,318.45 L 337.95,308.27 L 337.27,298.10 L 336.53,287.93 L 331.18,278.14 L 329.84,268.05 L 326.76,237.72 L 323.04,207.46 L 321.94,197.35 L 320.66,187.26 L 318.83,177.26 L 317.61,167.16 L 317.22,156.91 L 317.17,146.59 L 315.06,136.62 L 312.28,126.78 L 308.88,117.07 L 306.14,107.26 L 304.02,97.32 L 301.87,87.38 L 299.73,77.44 L 298.53,67.29 L 297.28,57.12 L 295.58,47.06 L 293.19,37.15 L 290.85,27.24 L 289.12,17.15 L 287.02,7.15 L 286.41,5.14 L 289.72,5.14 L 290.08,6.30 L 293.27,16.02 L 296.20,25.82 L 298.78,35.72 L 301.80,45.50 Z M 318.05,726.72 L 322.48,706.61 L 326.62,686.44 L 330.33,676.67 L 335.39,667.11 L 336.27,656.78 L 336.93,646.42 L 339.58,636.40 L 341.84,626.30 L 343.83,616.16 L 344.97,605.89 L 344.82,595.45 L 346.94,585.32 L 349.02,575.17 L 348.57,564.73 L 348.98,554.40 L 350.20,544.15 L 351.54,533.92 L 353.89,523.77 L 354.71,513.47 L 355.00,503.14 L 355.04,492.80 L 357.12,482.58 L 357.93,472.28 L 358.32,461.96 L 358.35,451.63 L 359.12,441.32 L 358.98,430.98 L 354.71,420.59 L 354.67,410.30 L 354.70,400.00 L 354.67,389.70 L 354.56,379.41 L 354.38,369.12 L 355.22,358.79 L 358.02,348.39 L 358.40,338.04 L 357.93,327.72 L 357.39,317.40 L 356.78,307.09 L 356.10,296.78 L 350.75,286.83 L 348.63,266.34 L 345.51,235.62 L 341.75,204.96 L 340.39,194.76 L 338.88,184.57 L 337.34,174.39 L 336.35,164.12 L 336.93,153.58 L 335.70,143.32 L 334.45,133.06 L 332.82,122.86 L 331.08,112.68 L 328.81,102.60 L 326.23,92.59 L 323.42,82.64 L 320.44,72.74 L 317.82,62.76 L 315.83,52.64 L 314.17,42.42 L 312.15,32.29 L 309.55,22.30 L 307.16,12.25 L 305.56,5.14 L 309.38,5.14 L 311.37,11.11 L 314.44,21.00 L 317.15,31.00 L 319.60,41.07 L 322.33,51.06 L 324.93,61.10 L 327.41,71.16 L 330.09,81.18 L 332.57,91.25 L 334.96,101.34 L 337.41,111.42 L 339.58,121.57 L 342.17,131.64 L 344.41,141.79 L 346.72,151.92 L 348.43,162.17 L 350.06,172.42 L 351.61,182.69 L 352.06,193.12 L 352.48,203.53 L 354.65,213.71 L 356.03,223.99 L 356.53,234.38 L 357.98,244.66 L 359.69,254.92 L 361.19,265.20 L 362.35,275.52 L 363.18,285.88 L 363.22,296.28 L 359.64,306.91 L 360.26,317.24 L 360.80,327.58 L 364.66,337.77 L 366.39,348.09 L 365.24,358.51 L 366.67,368.86 L 367.42,379.23 L 367.53,389.61 L 367.57,400.00 L 367.53,410.39 L 366.62,420.76 L 362.24,431.05 L 362.01,441.40 L 361.94,451.75 L 364.31,462.21 L 364.42,472.60 L 362.27,482.87 L 362.13,493.25 L 359.27,503.44 L 359.06,513.81 L 360.61,524.33 L 360.02,534.69 L 358.93,545.01 L 357.47,555.29 L 354.28,565.37 L 352.28,575.56 L 350.96,585.82 L 349.82,596.12 L 348.65,606.40 L 346.66,616.58 L 345.97,626.94 L 344.97,637.27 L 342.41,647.35 L 340.05,657.45 L 338.21,667.63 L 336.31,677.81 L 338.80,688.85 L 337.19,699.12 L 332.87,719.43 L 328.27,739.69 L 323.38,759.88 L 315.53,790.02 L 314.18,794.86 L 300.84,794.86 L 305.78,776.71 L 313.35,746.76 L 318.05,726.72 Z M 330.24,5.98 L 333.20,16.05 L 335.60,26.27 L 338.42,36.38 L 341.82,46.35 L 344.78,56.44 L 347.53,66.59 L 350.24,76.75 L 352.44,87.02 L 354.90,97.25 L 357.44,107.46 L 359.45,117.78 L 361.13,128.16 L 363.24,138.46 L 364.86,148.86 L 366.26,159.28 L 367.33,169.75 L 368.39,180.21 L 369.52,190.66 L 369.26,201.29 L 369.60,211.82 L 370.88,222.22 L 372.47,232.59 L 374.75,242.90 L 375.64,253.35 L 375.65,263.89 L 376.37,274.35 L 378.85,284.67 L 380.40,295.08 L 379.49,305.66 L 379.59,316.16 L 383.60,326.46 L 385.12,336.92 L 385.52,347.43 L 384.34,357.98 L 382.91,368.52 L 386.29,378.97 L 386.40,389.48 L 386.44,400.00 L 386.40,410.52 L 385.19,421.02 L 381.11,431.44 L 380.99,441.93 L 382.25,452.46 L 383.57,463.02 L 380.66,473.39 L 379.10,483.81 L 378.47,494.28 L 378.74,504.80 L 379.96,515.42 L 377.62,525.76 L 377.15,536.25 L 376.63,546.75 L 374.93,557.12 L 374.91,567.68 L 375.06,578.28 L 373.82,588.71 L 371.94,599.07 L 368.55,609.20 L 366.77,619.55 L 365.29,629.94 L 362.97,640.19 L 363.41,650.90 L 361.43,661.22 L 359.35,671.51 L 355.27,681.42 L 353.46,691.75 L 355.67,702.91 L 351.30,723.49 L 346.64,744.00 L 341.69,764.44 L 333.77,794.86 L 320.41,794.86 L 321.32,791.60 L 329.20,761.33 L 334.11,741.06 L 338.73,720.72 L 343.06,700.32 L 345.57,690.19 L 352.03,680.80 L 353.95,670.52 L 355.80,660.22 L 356.98,649.81 L 357.82,639.35 L 360.08,629.13 L 362.49,618.92 L 363.48,608.49 L 365.13,598.16 L 366.67,587.81 L 367.89,577.42 L 368.28,566.94 L 367.34,556.33 L 367.98,545.90 L 368.85,535.50 L 370.07,525.12 L 373.29,514.90 L 374.61,504.51 L 373.13,493.94 L 374.22,483.54 L 373.16,473.03 L 374.22,462.63 L 377.38,452.29 L 377.97,441.84 L 378.24,431.38 L 374.23,420.86 L 373.53,410.43 L 373.57,400.00 L 373.53,389.57 L 373.42,379.15 L 373.81,368.71 L 374.73,358.25 L 372.93,347.87 L 373.87,337.39 L 376.78,326.80 L 376.23,316.35 L 375.61,305.90 L 370.65,295.76 L 369.17,285.41 L 368.33,275.02 L 367.68,264.61 L 367.22,254.18 L 366.83,243.73 L 366.03,233.31 L 364.13,223.03 L 362.98,212.66 L 362.47,202.20 L 360.06,191.99 L 357.55,181.81 L 355.99,171.51 L 354.36,161.21 L 352.67,150.92 L 351.44,140.55 L 350.00,130.21 L 348.75,119.82 L 346.95,109.54 L 345.29,99.22 L 343.42,88.94 L 341.50,78.67 L 339.65,68.38 L 337.45,58.16 L 335.22,47.95 L 332.99,37.73 L 330.33,27.62 L 327.79,17.48 L 325.48,7.27 L 325.01,5.14 L 329.94,5.14 L 330.24,5.98 Z M 349.87,11.64 L 352.67,21.88 L 355.85,32.03 L 359.13,42.16 L 362.69,52.24 L 365.32,62.54 L 368.10,72.82 L 370.61,83.16 L 372.84,93.56 L 375.20,103.94 L 377.27,114.38 L 379.42,124.81 L 381.07,135.32 L 382.40,145.89 L 384.10,156.39 L 385.10,167.00 L 386.77,177.50 L 388.58,187.98 L 389.03,198.65 L 388.86,209.39 L 389.75,219.97 L 390.83,230.53 L 391.98,241.08 L 393.30,251.62 L 394.18,262.20 L 394.97,272.78 L 395.82,283.36 L 396.60,293.95 L 397.30,304.54 L 401.85,314.92 L 403.48,325.49 L 403.97,336.13 L 404.38,346.77 L 404.71,357.41 L 403.99,368.08 L 403.12,378.73 L 405.27,389.35 L 405.30,400.00 L 405.27,410.65 L 404.76,421.29 L 400.01,431.84 L 400.73,442.48 L 401.10,453.12 L 400.07,463.71 L 398.49,474.27 L 397.93,484.87 L 397.30,495.46 L 396.60,506.05 L 396.27,516.67 L 396.42,527.34 L 398.64,538.21 L 398.03,548.84 L 395.80,559.32 L 392.90,569.70 L 392.39,580.34 L 391.55,590.95 L 390.47,601.54 L 387.80,611.91 L 385.53,622.32 L 383.76,632.80 L 383.79,643.56 L 381.61,653.98 L 378.56,664.24 L 375.33,674.44 L 373.38,684.88 L 371.35,695.30 L 373.31,706.53 L 371.97,717.13 L 367.40,737.93 L 360.00,769.00 L 353.26,794.86 L 339.97,794.86 L 347.51,765.89 L 352.48,745.37 L 357.16,724.77 L 361.55,704.12 L 367.92,694.62 L 370.14,684.26 L 369.92,673.45 L 371.58,663.01 L 373.19,652.55 L 377.07,642.47 L 378.04,631.91 L 379.72,621.46 L 380.94,610.94 L 380.41,600.20 L 381.25,589.65 L 382.58,579.17 L 385.15,568.83 L 387.41,558.43 L 387.83,547.84 L 389.30,537.36 L 390.67,526.85 L 390.01,516.19 L 392.78,505.78 L 394.44,495.28 L 395.07,484.71 L 394.61,474.08 L 392.66,463.40 L 394.79,452.90 L 396.71,442.37 L 397.10,431.78 L 393.39,421.13 L 392.40,410.56 L 392.44,400.00 L 392.40,389.44 L 392.29,378.88 L 395.30,368.26 L 393.36,357.73 L 391.52,347.22 L 391.11,336.67 L 391.67,326.07 L 394.58,315.32 L 393.43,304.78 L 391.12,294.33 L 391.13,283.73 L 391.92,273.04 L 390.80,262.51 L 388.83,252.06 L 387.58,241.55 L 387.59,230.90 L 386.76,220.33 L 385.47,209.81 L 383.10,199.44 L 379.97,189.19 L 378.09,178.78 L 376.01,168.41 L 373.77,158.06 L 371.74,147.69 L 369.77,137.31 L 368.15,126.87 L 365.96,116.54 L 363.94,106.17 L 362.31,95.72 L 360.46,85.32 L 358.21,74.99 L 356.32,64.59 L 354.33,54.20 L 352.41,43.79 L 350.78,33.29 L 348.43,22.97 L 345.52,12.79 L 343.67,5.14 L 348.12,5.14 L 349.87,11.64 Z M 368.54,6.71 L 371.08,17.15 L 373.78,27.56 L 377.18,37.79 L 380.53,48.05 L 384.10,58.28 L 387.38,68.58 L 390.05,79.03 L 392.56,89.52 L 394.76,100.07 L 396.74,110.67 L 398.38,121.33 L 400.11,131.96 L 401.02,142.74 L 402.20,153.46 L 403.57,164.14 L 405.01,174.81 L 406.89,185.41 L 408.59,196.04 L 409.10,206.83 L 409.53,217.61 L 410.85,228.29 L 411.58,239.02 L 412.92,249.70 L 413.80,260.41 L 414.11,271.18 L 414.64,281.92 L 415.42,292.63 L 416.14,303.35 L 419.63,313.92 L 422.33,324.57 L 422.82,335.34 L 423.23,346.11 L 423.57,356.88 L 423.83,367.66 L 422.28,378.46 L 423.04,389.23 L 424.17,400.00 L 424.14,410.78 L 423.41,421.55 L 419.46,432.25 L 419.67,443.01 L 420.78,453.81 L 420.62,464.57 L 418.31,475.24 L 420.02,486.10 L 417.41,496.73 L 415.42,507.37 L 414.64,518.08 L 414.09,528.82 L 413.76,539.58 L 411.83,550.20 L 408.35,582.24 L 404.19,614.21 L 399.37,646.08 L 393.89,677.85 L 392.12,688.45 L 389.86,698.96 L 388.41,709.63 L 390.43,721.05 L 380.88,763.10 L 372.72,794.86 L 359.46,794.86 L 365.82,770.46 L 373.25,739.26 L 377.84,718.38 L 380.87,708.09 L 387.05,698.40 L 389.09,687.87 L 391.07,677.33 L 391.61,666.54 L 392.20,655.77 L 393.50,645.13 L 396.86,634.82 L 398.29,624.20 L 399.06,613.49 L 399.29,602.72 L 400.96,592.14 L 402.71,581.57 L 404.67,571.02 L 404.07,560.19 L 404.00,549.43 L 405.39,538.82 L 409.47,528.43 L 411.33,517.83 L 412.56,507.17 L 413.27,496.47 L 413.91,485.76 L 414.47,475.05 L 413.86,464.29 L 413.64,453.56 L 414.69,442.87 L 415.93,432.17 L 411.55,421.39 L 411.27,410.69 L 411.30,400.00 L 411.27,389.31 L 413.19,378.59 L 411.95,367.91 L 410.71,357.24 L 410.37,346.56 L 409.96,335.88 L 409.48,325.20 L 409.99,314.46 L 413.27,303.53 L 412.56,292.83 L 411.78,282.14 L 410.92,271.45 L 409.85,260.77 L 408.72,250.11 L 407.89,239.41 L 406.73,228.75 L 405.36,218.11 L 403.65,207.52 L 400.73,197.09 L 398.29,186.62 L 397.05,175.98 L 395.53,165.38 L 393.19,154.92 L 391.41,144.36 L 389.10,133.90 L 386.98,123.42 L 385.20,112.87 L 383.20,102.36 L 381.33,91.82 L 379.20,81.33 L 377.21,70.82 L 375.34,60.27 L 373.16,49.78 L 371.78,39.10 L 369.97,28.51 L 367.91,17.97 L 365.34,7.56 L 364.69,5.14 L 368.14,5.14 L 368.54,6.71 Z M 391.11,12.01 L 393.78,22.57 L 396.83,33.04 L 400.52,43.36 L 403.76,53.81 L 406.44,64.39 L 408.88,75.03 L 410.92,85.75 L 412.83,96.49 L 414.39,107.30 L 415.76,118.13 L 417.19,128.95 L 418.99,139.70 L 420.71,150.46 L 422.41,161.22 L 423.93,172.01 L 425.25,182.83 L 426.96,193.59 L 428.40,204.39 L 429.22,215.27 L 429.95,226.15 L 430.77,237.01 L 431.21,247.90 L 432.18,258.74 L 433.44,269.55 L 433.70,280.45 L 434.44,291.30 L 434.97,302.17 L 436.04,313.00 L 441.17,323.65 L 442.43,356.36 L 442.55,389.09 L 442.47,400.00 L 443.00,410.91 L 441.56,421.80 L 438.66,432.65 L 437.81,443.51 L 438.37,454.42 L 440.93,465.42 L 439.22,476.26 L 435.65,486.97 L 436.06,497.90 L 436.61,508.85 L 436.89,519.80 L 437.56,530.79 L 436.61,541.66 L 435.58,552.53 L 434.48,563.38 L 432.64,574.16 L 428.79,584.68 L 426.71,595.39 L 425.79,606.25 L 427.03,617.42 L 426.27,628.33 L 424.60,639.12 L 421.73,649.71 L 417.17,659.99 L 415.92,670.82 L 413.06,681.37 L 412.49,692.34 L 409.62,702.87 L 406.22,713.29 L 405.87,724.33 L 406.58,735.64 L 396.61,778.13 L 392.19,794.86 L 378.92,794.86 L 386.71,764.51 L 396.30,722.30 L 402.74,712.57 L 405.55,702.07 L 407.41,691.37 L 409.62,680.74 L 415.17,648.64 L 420.04,616.44 L 424.23,584.14 L 427.75,551.76 L 427.85,540.87 L 429.41,530.11 L 430.59,519.31 L 431.38,508.48 L 430.83,497.57 L 429.50,486.63 L 432.34,475.92 L 431.01,465.01 L 431.68,454.19 L 433.47,443.39 L 434.20,432.56 L 430.63,421.65 L 430.14,410.82 L 430.17,400.00 L 431.23,389.17 L 431.77,378.33 L 429.83,367.54 L 429.57,356.72 L 429.23,345.90 L 428.81,335.09 L 428.32,324.27 L 429.89,313.35 L 432.10,302.35 L 431.38,291.52 L 430.59,280.69 L 429.39,269.89 L 427.82,259.14 L 426.66,248.35 L 425.81,237.53 L 424.21,226.79 L 423.05,216.00 L 420.85,205.35 L 418.58,194.71 L 417.34,183.94 L 416.14,173.16 L 414.35,162.47 L 412.34,151.81 L 409.99,141.22 L 407.22,130.71 L 405.13,120.09 L 402.79,109.51 L 400.65,98.90 L 398.59,88.28 L 396.68,77.62 L 394.78,66.95 L 393.35,56.17 L 392.06,45.35 L 390.40,34.59 L 388.65,23.85 L 386.05,13.31 L 383.78,5.14 L 389.25,5.14 L 391.11,12.01 Z M 411.39,6.80 L 414.16,17.49 L 417.00,28.16 L 419.73,38.86 L 422.16,49.63 L 424.41,60.44 L 426.75,71.23 L 429.06,82.02 L 431.28,92.84 L 433.23,103.70 L 435.13,114.58 L 437.05,125.45 L 438.81,136.35 L 440.53,147.25 L 442.09,158.18 L 443.52,169.12 L 444.92,180.06 L 445.70,191.09 L 446.83,202.06 L 447.72,213.06 L 448.17,224.10 L 448.95,235.10 L 449.99,246.06 L 451.79,256.96 L 454.86,267.76 L 456.50,278.69 L 456.55,289.76 L 454.36,300.95 L 454.45,311.97 L 459.65,322.74 L 460.52,333.76 L 461.56,366.87 L 461.46,400.00 L 460.32,411.03 L 457.19,422.02 L 458.72,433.07 L 459.39,444.12 L 457.14,455.08 L 456.68,466.08 L 457.57,477.16 L 456.90,488.16 L 454.89,499.08 L 454.52,510.10 L 456.93,521.34 L 456.36,532.37 L 455.40,543.37 L 454.36,554.37 L 453.24,565.35 L 452.05,576.33 L 450.51,587.27 L 449.44,598.27 L 447.88,609.20 L 445.60,620.03 L 444.94,631.09 L 443.29,642.01 L 440.65,652.77 L 435.10,663.02 L 433.57,673.94 L 431.39,684.73 L 432.52,696.16 L 428.57,706.63 L 424.70,717.08 L 422.45,727.86 L 420.12,738.62 L 419.58,749.78 L 420.11,761.23 L 412.21,793.40 L 411.82,794.86 L 398.40,794.86 L 402.43,779.59 L 412.44,736.93 L 417.76,726.86 L 421.89,716.50 L 422.81,705.49 L 424.12,694.56 L 427.56,684.03 L 428.58,673.06 L 431.05,662.34 L 430.06,651.05 L 430.61,640.05 L 432.21,629.21 L 434.57,618.48 L 438.78,607.99 L 440.68,597.16 L 441.25,586.17 L 439.92,574.97 L 440.45,564.01 L 441.55,553.11 L 442.58,542.21 L 443.54,531.29 L 445.96,520.49 L 447.84,509.63 L 449.84,498.77 L 451.55,487.86 L 449.13,476.74 L 448.41,465.74 L 451.81,454.89 L 453.05,443.94 L 452.74,432.94 L 450.22,421.93 L 449.00,410.95 L 449.61,400.00 L 449.45,389.04 L 448.43,356.19 L 447.17,323.35 L 451.16,312.16 L 450.93,301.17 L 450.01,290.21 L 449.15,279.26 L 447.66,268.36 L 447.02,257.39 L 445.92,246.46 L 444.15,235.60 L 442.61,224.72 L 440.83,213.88 L 438.98,203.05 L 437.61,192.17 L 436.35,181.27 L 434.56,170.44 L 432.80,159.61 L 431.08,148.78 L 429.23,137.97 L 427.31,127.17 L 424.86,116.46 L 422.21,105.81 L 419.60,95.15 L 417.19,84.46 L 414.75,73.78 L 412.57,63.04 L 410.49,52.28 L 408.81,41.42 L 407.43,30.48 L 405.27,19.71 L 402.58,9.07 L 401.59,5.14 L 411.01,5.14 L 411.39,6.80 Z M 441.00,45.35 L 445.78,67.18 L 447.14,78.31 L 449.29,89.27 L 451.29,100.26 L 453.24,111.26 L 455.32,122.23 L 456.95,133.28 L 458.69,144.31 L 460.56,155.32 L 461.70,166.43 L 462.67,177.57 L 462.71,188.82 L 463.45,199.96 L 464.80,211.02 L 466.46,222.05 L 467.42,233.15 L 470.52,244.05 L 473.99,254.94 L 475.16,266.05 L 476.06,277.19 L 476.88,288.34 L 477.19,299.51 L 473.29,310.92 L 475.77,321.95 L 479.37,332.97 L 480.43,366.48 L 480.78,400.00 L 479.95,411.17 L 475.62,422.28 L 478.47,433.48 L 479.94,444.69 L 478.47,455.82 L 476.83,466.93 L 474.83,478.00 L 474.27,489.13 L 473.88,500.28 L 474.63,511.51 L 475.75,522.79 L 474.48,533.89 L 473.92,545.06 L 473.14,556.21 L 469.52,589.54 L 462.77,622.44 L 462.71,633.71 L 460.73,644.71 L 459.10,655.76 L 457.76,666.86 L 453.66,677.48 L 451.51,688.43 L 448.28,699.17 L 445.39,709.95 L 438.55,742.67 L 431.64,775.38 L 432.92,787.19 L 431.21,794.86 L 418.03,794.86 L 425.95,762.60 L 431.47,752.49 L 435.75,742.05 L 438.10,731.18 L 440.37,720.30 L 440.88,709.06 L 441.15,697.81 L 446.35,687.48 L 448.09,676.50 L 450.33,665.60 L 448.39,654.02 L 449.22,642.93 L 450.87,631.97 L 453.37,621.12 L 454.10,610.03 L 455.39,599.02 L 457.01,588.05 L 458.01,577.00 L 459.21,565.98 L 460.33,554.95 L 461.37,543.92 L 462.34,532.87 L 463.54,521.85 L 467.58,511.01 L 468.67,499.95 L 467.98,488.78 L 468.46,477.69 L 470.36,466.66 L 470.74,455.55 L 469.19,444.39 L 470.40,433.31 L 472.32,422.23 L 469.42,411.10 L 468.36,400.00 L 467.56,366.75 L 466.52,333.51 L 466.39,322.41 L 470.43,311.08 L 469.20,300.02 L 465.55,289.13 L 463.97,278.12 L 463.84,267.00 L 464.99,255.75 L 464.70,244.62 L 463.50,233.57 L 461.89,222.56 L 459.80,211.62 L 457.99,200.65 L 456.27,189.68 L 454.05,178.78 L 452.29,167.82 L 450.42,156.89 L 448.51,145.96 L 446.62,135.03 L 444.62,124.12 L 442.61,113.21 L 440.44,102.33 L 438.17,91.47 L 436.01,80.60 L 433.80,69.73 L 431.46,58.89 L 428.89,48.10 L 426.34,37.31 L 423.94,26.48 L 421.50,15.66 L 418.90,5.14 L 431.12,5.14 L 441.00,45.35 Z M 454.23,19.15 L 459.40,41.17 L 464.25,63.26 L 468.64,85.44 L 470.22,96.65 L 471.69,107.87 L 473.17,119.08 L 474.16,130.37 L 475.13,141.64 L 476.41,152.86 L 477.83,164.05 L 478.93,175.28 L 480.46,186.45 L 482.19,197.60 L 484.12,208.72 L 487.89,219.65 L 490.77,230.70 L 493.96,264.47 L 495.35,298.37 L 492.58,309.84 L 493.44,321.09 L 497.83,332.19 L 498.66,343.48 L 499.01,354.78 L 499.29,366.08 L 499.49,377.39 L 499.61,388.69 L 499.64,400.00 L 499.61,411.31 L 496.86,422.58 L 497.54,433.88 L 498.68,445.21 L 497.70,456.49 L 497.07,467.78 L 496.32,479.05 L 496.39,490.37 L 494.32,501.56 L 493.02,512.79 L 493.91,524.18 L 493.96,535.53 L 492.78,546.77 L 490.88,557.95 L 490.77,569.30 L 489.55,580.54 L 488.25,591.77 L 486.04,602.89 L 483.77,613.99 L 483.69,625.38 L 482.27,636.60 L 479.49,647.61 L 475.66,658.44 L 474.45,669.68 L 470.73,680.49 L 468.12,691.47 L 461.67,724.67 L 454.52,757.72 L 446.68,790.62 L 445.67,794.86 L 437.64,794.86 L 439.35,788.79 L 445.97,778.85 L 454.18,746.11 L 461.08,713.06 L 462.46,701.87 L 463.35,690.60 L 465.17,679.51 L 464.87,668.06 L 467.19,657.07 L 469.06,646.00 L 470.43,634.85 L 473.57,623.96 L 475.47,590.25 L 479.11,556.79 L 480.44,545.65 L 481.83,534.51 L 482.35,523.29 L 485.11,512.24 L 487.34,501.13 L 488.28,489.92 L 488.89,478.69 L 487.91,467.39 L 487.13,456.12 L 486.37,444.87 L 488.38,433.69 L 491.62,422.50 L 487.52,411.22 L 486.78,400.00 L 486.42,366.35 L 485.37,332.72 L 487.95,321.36 L 489.26,310.03 L 484.04,299.08 L 482.86,287.92 L 482.04,276.73 L 481.14,265.55 L 480.36,254.36 L 481.72,242.95 L 482.56,231.56 L 481.11,220.41 L 480.19,209.19 L 478.81,198.02 L 476.67,186.96 L 473.66,176.03 L 471.44,165.00 L 469.24,153.97 L 467.60,142.87 L 465.69,131.80 L 463.51,120.79 L 461.61,109.72 L 459.45,98.70 L 457.18,87.71 L 454.90,76.72 L 451.68,65.93 L 446.85,44.02 L 437.30,5.14 L 450.74,5.14 L 454.23,19.15 Z M 475.22,25.84 L 480.29,48.15 L 487.31,81.74 L 491.09,104.31 L 491.46,115.86 L 491.26,127.48 L 492.60,138.82 L 495.54,149.90 L 498.82,160.95 L 501.32,172.14 L 503.67,183.36 L 505.59,194.64 L 506.99,205.99 L 508.20,217.37 L 509.54,228.73 L 512.77,262.89 L 515.28,297.12 L 513.92,308.65 L 512.52,320.16 L 515.04,331.47 L 515.14,342.90 L 512.88,354.39 L 513.15,365.79 L 513.35,377.19 L 513.47,388.60 L 513.51,400.00 L 514.10,411.41 L 513.35,422.81 L 514.88,434.25 L 517.44,445.74 L 517.26,457.17 L 517.00,468.61 L 516.22,480.02 L 515.96,491.46 L 515.28,502.88 L 514.52,514.30 L 513.66,525.70 L 511.03,536.96 L 509.45,548.29 L 508.43,559.67 L 509.03,571.22 L 507.68,582.57 L 506.32,593.93 L 504.15,605.18 L 501.94,616.41 L 500.92,627.80 L 499.44,639.14 L 496.88,650.31 L 492.50,661.17 L 484.58,706.09 L 475.41,750.77 L 465.07,794.86 L 462.11,794.86 L 462.21,794.49 L 470.12,761.27 L 477.34,727.89 L 483.86,694.36 L 485.25,683.05 L 485.39,671.53 L 487.89,660.42 L 487.59,648.87 L 488.21,637.48 L 490.02,626.27 L 493.02,615.22 L 493.66,603.85 L 494.21,592.48 L 495.51,581.21 L 496.74,569.93 L 498.92,558.74 L 499.15,547.35 L 499.94,536.03 L 501.81,524.79 L 504.36,513.59 L 504.57,502.21 L 503.83,490.79 L 505.09,479.48 L 505.37,468.12 L 505.61,456.77 L 505.34,445.40 L 507.03,434.08 L 508.11,422.73 L 505.61,411.35 L 505.64,400.00 L 505.61,388.65 L 505.49,377.30 L 505.29,365.96 L 505.01,354.61 L 504.65,343.27 L 504.61,331.91 L 507.97,320.38 L 507.65,309.00 L 503.53,297.86 L 499.94,263.97 L 496.74,230.07 L 497.17,218.61 L 498.34,207.03 L 497.51,195.66 L 496.32,184.34 L 494.78,173.06 L 492.65,161.86 L 490.67,150.65 L 488.41,139.49 L 485.68,128.42 L 482.82,117.38 L 480.29,106.29 L 477.58,95.24 L 474.84,84.21 L 470.12,62.01 L 465.25,39.84 L 460.06,17.74 L 456.92,5.14 L 470.21,5.14 L 475.22,25.84 Z M 490.91,10.28 L 496.19,32.81 L 503.53,66.74 L 510.15,100.81 L 511.83,112.26 L 512.74,123.84 L 514.42,135.28 L 515.87,146.75 L 518.22,158.09 L 521.04,169.37 L 522.82,180.80 L 527.05,215.25 L 530.56,249.79 L 533.34,284.39 L 535.25,319.04 L 533.79,330.69 L 531.77,342.32 L 532.46,353.84 L 533.12,365.37 L 533.49,376.91 L 533.79,388.45 L 533.75,400.00 L 533.97,411.55 L 533.02,423.08 L 532.98,434.62 L 536.73,446.28 L 536.37,457.84 L 535.93,469.40 L 535.40,480.96 L 534.19,492.48 L 533.01,504.00 L 533.09,515.60 L 531.71,527.09 L 528.56,538.43 L 527.73,549.96 L 526.21,561.41 L 524.69,572.86 L 523.35,584.33 L 520.95,595.67 L 519.35,607.10 L 512.93,652.79 L 505.23,698.29 L 496.27,743.55 L 486.05,788.54 L 484.89,794.86 L 481.50,794.86 L 491.03,754.21 L 500.30,709.09 L 508.29,663.73 L 507.50,651.95 L 508.36,640.46 L 510.16,629.10 L 512.24,617.79 L 512.98,606.29 L 513.61,594.80 L 514.89,583.38 L 516.01,571.95 L 518.93,560.70 L 520.07,549.26 L 520.48,537.76 L 519.69,526.17 L 520.51,514.72 L 521.27,503.26 L 521.95,491.80 L 522.88,480.35 L 523.15,468.87 L 523.77,457.40 L 524.30,445.93 L 527.43,434.51 L 529.35,423.03 L 528.85,411.51 L 529.51,400.00 L 529.47,388.48 L 529.35,376.97 L 529.15,365.46 L 528.87,353.94 L 525.88,342.52 L 525.11,331.05 L 526.58,319.47 L 523.98,308.09 L 521.27,296.74 L 518.75,262.39 L 515.50,228.10 L 514.36,216.68 L 512.94,205.28 L 511.55,193.89 L 510.51,182.44 L 509.75,170.95 L 508.99,159.45 L 508.84,147.84 L 508.20,136.29 L 505.79,125.02 L 501.69,114.05 L 498.00,103.04 L 493.19,80.58 L 486.15,46.87 L 481.06,24.47 L 476.39,5.14 L 489.61,5.14 L 490.91,10.28 Z M 511.96,17.23 L 517.15,40.05 L 522.01,62.94 L 526.56,85.90 L 532.10,120.57 L 534.41,132.04 L 536.52,143.56 L 543.03,189.91 L 548.25,236.43 L 552.17,283.07 L 554.78,329.81 L 554.62,341.52 L 554.87,353.22 L 555.33,364.91 L 555.77,376.60 L 556.05,388.30 L 556.25,400.00 L 555.88,435.10 L 554.78,470.19 L 554.21,481.88 L 553.15,493.54 L 551.51,505.16 L 549.15,516.72 L 546.32,528.22 L 540.83,586.29 L 533.32,644.14 L 523.79,701.69 L 513.78,759.21 L 513.77,771.18 L 511.96,782.77 L 509.25,794.16 L 509.08,794.86 L 500.79,794.86 L 501.60,792.31 L 511.92,746.88 L 520.97,701.17 L 528.74,655.24 L 535.22,609.10 L 536.45,597.52 L 536.72,585.83 L 537.88,574.25 L 538.70,562.64 L 539.37,551.01 L 540.56,539.44 L 539.26,527.67 L 539.58,516.05 L 541.19,504.51 L 541.39,492.89 L 541.39,481.26 L 541.92,469.66 L 542.37,458.05 L 542.73,446.44 L 547.05,434.92 L 547.41,423.28 L 546.71,411.64 L 547.01,400.00 L 546.89,388.36 L 546.94,376.72 L 546.92,365.08 L 547.00,353.44 L 546.97,341.79 L 544.06,330.26 L 541.55,318.74 L 539.33,283.97 L 536.53,249.24 L 533.01,214.58 L 528.77,180.01 L 527.41,168.47 L 526.91,156.80 L 525.80,145.22 L 523.63,133.79 L 521.52,122.36 L 518.48,111.09 L 516.05,99.73 L 509.41,65.53 L 502.04,31.48 L 496.74,8.87 L 495.80,5.14 L 508.99,5.14 L 511.96,17.23 Z M 532.99,24.45 L 540.49,59.15 L 547.27,94.00 L 553.31,128.98 L 558.62,164.09 L 561.75,187.55 L 565.83,222.81 L 569.17,258.16 L 571.77,293.56 L 573.63,329.02 L 573.95,340.85 L 574.42,352.67 L 574.74,364.50 L 574.95,376.33 L 575.08,388.17 L 575.12,400.00 L 575.08,411.83 L 574.95,423.67 L 574.74,435.50 L 574.36,447.33 L 573.87,459.15 L 572.55,470.94 L 571.35,482.72 L 568.50,494.40 L 566.78,506.12 L 563.16,553.18 L 558.23,600.12 L 551.99,646.90 L 544.44,693.49 L 539.01,728.49 L 537.46,740.23 L 534.95,751.77 L 533.37,763.52 L 532.09,775.35 L 530.33,787.08 L 528.39,794.86 L 515.25,794.86 L 517.80,784.14 L 521.27,772.89 L 526.38,761.98 L 539.53,704.58 L 549.15,646.48 L 556.73,588.08 L 562.28,529.44 L 561.16,517.56 L 560.36,505.72 L 560.12,493.93 L 560.28,482.18 L 560.77,470.45 L 561.88,435.23 L 562.25,400.00 L 562.36,388.25 L 562.40,376.51 L 562.43,364.76 L 562.32,353.01 L 561.83,341.27 L 560.77,329.55 L 558.15,282.65 L 554.22,235.84 L 548.98,189.16 L 542.45,142.64 L 540.88,131.00 L 539.37,119.34 L 532.45,84.78 L 527.89,61.74 L 523.01,38.76 L 517.80,15.86 L 515.17,5.14 L 528.46,5.14 L 532.99,24.45 Z M 551.39,20.27 L 556.53,43.64 L 563.63,78.83 L 569.98,114.16 L 573.81,137.78 L 578.93,173.31 L 583.30,208.94 L 585.80,232.74 L 588.93,268.50 L 591.31,304.32 L 592.48,328.23 L 593.61,364.11 L 593.98,400.00 L 593.94,411.97 L 593.82,423.93 L 593.47,435.89 L 592.53,447.84 L 591.49,459.77 L 589.46,471.65 L 587.81,483.53 L 586.46,495.41 L 585.61,507.31 L 581.95,554.89 L 576.96,602.35 L 570.65,649.65 L 563.27,696.81 L 562.16,708.73 L 561.24,720.71 L 559.76,732.60 L 558.02,744.45 L 555.76,756.19 L 552.99,767.83 L 550.80,779.60 L 548.62,791.37 L 547.82,794.86 L 534.57,794.86 L 536.17,788.45 L 539.74,777.08 L 543.64,765.77 L 547.07,754.35 L 549.41,742.68 L 552.55,731.17 L 560.20,696.26 L 567.81,649.23 L 574.11,602.01 L 579.09,554.63 L 582.75,507.13 L 582.44,495.18 L 580.83,483.18 L 580.70,471.28 L 580.30,459.38 L 580.55,447.50 L 580.74,435.63 L 580.95,423.75 L 581.08,411.88 L 581.12,400.00 L 581.08,388.12 L 580.95,376.25 L 580.74,364.37 L 580.49,352.50 L 580.22,340.63 L 579.62,328.76 L 577.76,293.19 L 575.15,257.65 L 571.80,222.18 L 567.70,186.79 L 564.56,163.25 L 559.23,128.02 L 553.17,92.92 L 546.37,57.94 L 538.84,23.12 L 534.63,5.14 L 547.79,5.14 L 551.39,20.27 Z M 569.79,16.09 L 577.46,51.56 L 584.38,87.19 L 588.59,111.01 L 594.26,146.86 L 599.19,182.82 L 602.05,206.84 L 605.72,242.95 L 608.63,279.12 L 610.15,303.27 L 611.80,339.52 L 612.68,375.81 L 612.85,400.00 L 612.81,412.10 L 612.68,424.19 L 612.47,436.29 L 611.92,448.38 L 611.11,460.45 L 609.88,472.50 L 608.59,484.54 L 607.23,496.57 L 605.99,508.59 L 605.01,520.62 L 603.78,532.64 L 602.89,544.67 L 601.29,556.65 L 599.61,568.61 L 595.70,604.58 L 591.04,640.47 L 585.63,676.25 L 584.74,688.33 L 583.55,700.38 L 582.26,712.42 L 580.29,724.35 L 578.43,736.30 L 576.86,748.32 L 574.77,760.24 L 572.24,772.06 L 569.60,783.87 L 567.10,794.86 L 554.11,794.86 L 554.62,792.78 L 557.83,781.19 L 560.88,769.56 L 563.17,757.77 L 565.81,746.05 L 568.80,734.39 L 571.91,722.75 L 575.39,711.16 L 578.53,699.50 L 586.48,651.99 L 592.85,604.25 L 597.89,556.34 L 601.58,508.31 L 602.16,496.28 L 602.06,484.22 L 601.49,472.15 L 600.39,460.08 L 600.10,448.05 L 599.74,436.02 L 599.82,424.01 L 599.94,412.01 L 599.98,400.00 L 599.61,363.98 L 598.48,327.97 L 597.30,303.99 L 594.92,268.04 L 591.78,232.16 L 589.27,208.28 L 584.88,172.52 L 579.74,136.87 L 575.90,113.16 L 569.52,77.71 L 562.40,42.40 L 557.24,18.94 L 553.96,5.14 L 567.22,5.14 L 569.79,16.09 Z M 593.44,35.80 L 600.69,71.76 L 605.11,95.82 L 611.10,132.01 L 616.33,168.32 L 619.40,192.59 L 623.36,229.06 L 626.56,265.61 L 628.26,290.01 L 630.18,326.65 L 631.34,363.31 L 631.72,400.00 L 631.34,436.69 L 630.03,473.35 L 629.00,485.54 L 628.01,497.73 L 626.93,509.91 L 625.67,522.07 L 624.19,534.21 L 622.84,546.35 L 621.50,558.49 L 620.00,570.61 L 618.22,582.69 L 616.61,594.79 L 614.43,606.82 L 612.95,618.92 L 611.38,631.01 L 609.72,643.10 L 607.98,655.17 L 606.35,667.25 L 604.87,679.37 L 603.44,691.50 L 602.89,703.79 L 601.23,715.90 L 599.09,727.93 L 597.07,739.99 L 595.39,752.12 L 593.44,764.20 L 586.36,794.86 L 573.59,794.86 L 575.83,785.28 L 578.48,773.44 L 581.07,761.57 L 583.93,749.77 L 587.16,738.03 L 589.92,726.18 L 592.41,714.29 L 595.41,702.47 L 598.35,690.64 L 601.42,678.81 L 606.88,642.70 L 611.59,606.48 L 615.53,570.17 L 616.13,558.00 L 616.64,545.83 L 617.70,533.71 L 618.24,521.55 L 618.87,509.40 L 619.06,497.23 L 618.97,485.05 L 618.78,472.88 L 618.48,460.71 L 618.43,448.56 L 618.47,436.42 L 618.68,424.28 L 618.81,412.14 L 618.85,400.00 L 618.68,375.72 L 617.79,339.31 L 616.14,302.93 L 614.62,278.70 L 611.70,242.40 L 608.02,206.17 L 605.14,182.06 L 600.20,145.98 L 594.50,110.01 L 590.29,86.10 L 583.34,50.36 L 575.64,14.76 L 573.39,5.14 L 586.59,5.14 L 593.44,35.80 Z M 611.90,31.87 L 619.23,68.22 L 625.79,104.72 L 631.59,141.35 L 636.63,178.09 L 639.55,202.63 L 643.30,239.53 L 646.28,276.49 L 648.47,313.51 L 649.90,350.56 L 650.55,387.64 L 650.59,400.00 L 650.20,437.08 L 649.04,474.14 L 648.46,486.49 L 647.63,498.83 L 646.49,511.14 L 645.41,523.45 L 643.86,535.72 L 642.66,548.01 L 641.11,560.27 L 639.52,572.52 L 637.63,584.73 L 635.95,596.96 L 634.59,609.22 L 632.44,621.39 L 630.41,633.55 L 628.41,645.72 L 626.65,657.92 L 624.80,670.11 L 623.32,682.36 L 621.13,694.49 L 620.64,706.92 L 619.92,719.33 L 617.80,731.50 L 615.62,743.66 L 613.66,755.87 L 611.90,768.13 L 605.82,794.86 L 592.52,794.86 L 599.31,765.45 L 602.38,753.55 L 605.53,741.66 L 608.19,729.67 L 610.56,717.62 L 613.24,705.62 L 616.86,693.77 L 619.43,681.73 L 621.78,669.64 L 623.81,657.50 L 625.57,645.32 L 627.24,633.13 L 628.82,620.93 L 630.32,608.71 L 630.96,596.40 L 631.99,584.14 L 632.69,571.85 L 633.49,559.58 L 634.29,547.31 L 634.91,535.03 L 635.22,522.74 L 635.58,510.45 L 635.96,498.17 L 636.25,485.89 L 636.34,473.61 L 637.33,436.81 L 637.72,400.00 L 637.33,363.19 L 636.18,326.39 L 634.25,289.63 L 632.54,265.15 L 629.33,228.48 L 625.36,191.88 L 622.28,167.53 L 617.03,131.09 L 611.02,94.78 L 606.59,70.64 L 599.31,34.55 L 592.74,5.14 L 605.92,5.14 L 611.90,31.87 Z M 627.71,15.74 L 635.38,52.43 L 642.27,89.26 L 648.39,126.24 L 653.74,163.33 L 656.87,188.12 L 660.92,225.38 L 664.18,262.71 L 666.67,300.11 L 668.37,337.55 L 669.28,375.02 L 669.46,400.00 L 669.06,437.48 L 667.89,474.93 L 665.93,512.36 L 664.71,524.80 L 663.40,537.23 L 661.91,549.63 L 660.65,562.05 L 659.14,574.45 L 657.63,586.84 L 655.69,599.18 L 654.05,611.54 L 652.00,623.86 L 650.14,636.19 L 648.35,648.53 L 645.86,660.76 L 643.45,673.00 L 641.50,685.30 L 639.47,697.59 L 637.35,709.87 L 636.39,722.36 L 635.53,734.88 L 633.86,747.27 L 631.66,759.56 L 629.97,771.97 L 627.71,784.26 L 625.27,794.86 L 611.98,794.86 L 617.77,769.37 L 621.07,757.39 L 624.00,745.32 L 626.55,733.17 L 628.98,721.00 L 632.65,709.04 L 636.37,697.07 L 638.23,684.77 L 640.62,672.56 L 642.48,660.26 L 644.25,647.95 L 645.61,635.58 L 646.76,623.19 L 647.63,610.78 L 649.12,598.44 L 650.11,586.05 L 650.72,573.62 L 651.46,561.22 L 652.08,548.81 L 652.86,536.41 L 653.12,523.99 L 653.69,511.59 L 654.01,499.18 L 654.49,486.79 L 655.03,474.40 L 656.20,437.21 L 656.59,400.00 L 656.55,387.60 L 655.90,350.39 L 654.47,313.21 L 652.26,276.07 L 649.28,238.98 L 645.52,201.97 L 642.58,177.33 L 637.53,140.47 L 631.71,103.72 L 625.12,67.10 L 617.77,30.63 L 612.07,5.14 L 625.27,5.14 L 627.71,15.74 Z M 651.39,36.39 L 658.62,73.56 L 665.06,110.88 L 670.73,148.33 L 674.07,173.36 L 678.42,210.98 L 681.98,248.68 L 684.76,286.45 L 686.74,324.28 L 687.93,362.13 L 688.32,400.00 L 687.93,437.87 L 686.74,475.72 L 684.76,513.55 L 682.98,538.73 L 681.77,551.30 L 680.45,563.85 L 678.97,576.39 L 677.27,588.90 L 675.96,601.45 L 674.07,613.93 L 671.93,626.37 L 669.72,638.80 L 667.83,651.26 L 665.63,663.68 L 663.57,676.11 L 661.48,688.54 L 658.69,700.84 L 656.02,713.16 L 653.70,725.53 L 651.98,738.02 L 651.19,750.71 L 649.76,763.28 L 647.52,775.70 L 645.81,788.24 L 644.52,794.86 L 631.42,794.86 L 633.57,785.55 L 636.60,773.38 L 640.03,761.28 L 642.78,749.04 L 645.89,736.86 L 649.62,724.79 L 653.10,712.65 L 655.24,700.26 L 657.30,687.86 L 659.26,675.44 L 660.60,662.94 L 661.67,650.40 L 663.28,637.94 L 664.64,625.45 L 665.65,612.93 L 666.88,600.43 L 667.65,587.89 L 668.66,575.38 L 669.51,562.86 L 670.43,550.35 L 670.95,537.81 L 671.47,525.27 L 671.91,512.74 L 673.88,475.19 L 675.06,437.60 L 675.46,400.00 L 675.28,374.93 L 674.36,337.34 L 672.66,299.77 L 670.16,262.25 L 666.89,224.79 L 662.83,187.41 L 659.68,162.54 L 654.32,125.32 L 648.18,88.22 L 641.26,51.26 L 633.57,14.45 L 631.42,5.14 L 644.64,5.14 L 651.39,36.39 Z M 664.57,7.64 L 669.87,32.59 L 677.17,70.16 L 681.60,95.28 L 687.59,133.08 L 692.78,170.99 L 695.81,196.32 L 699.67,234.40 L 701.81,259.82 L 704.34,298.00 L 705.59,323.49 L 706.79,361.73 L 707.19,400.00 L 706.79,438.27 L 705.59,476.51 L 703.59,514.73 L 700.78,552.90 L 697.16,590.99 L 695.49,603.64 L 693.77,616.28 L 692.01,628.91 L 689.82,641.48 L 687.62,654.04 L 685.34,666.59 L 682.87,679.10 L 680.46,691.61 L 678.45,704.19 L 675.94,716.67 L 673.51,729.17 L 670.59,741.57 L 667.87,754.01 L 666.22,766.66 L 665.04,779.42 L 663.21,792.06 L 662.77,794.86 L 651.02,794.86 L 652.33,789.67 L 655.96,777.49 L 658.90,765.16 L 662.46,752.94 L 666.50,740.79 L 669.44,728.42 L 671.59,715.91 L 673.23,703.30 L 674.57,690.66 L 676.44,678.10 L 678.16,665.53 L 679.56,652.91 L 681.11,640.32 L 682.16,627.67 L 683.10,615.01 L 684.11,602.36 L 685.54,589.77 L 686.39,577.12 L 687.29,564.48 L 688.18,551.84 L 689.00,539.19 L 690.74,513.92 L 692.73,475.98 L 693.93,438.00 L 694.32,400.00 L 693.93,362.00 L 692.73,324.02 L 690.74,286.08 L 687.96,248.18 L 684.39,210.35 L 680.02,172.60 L 676.67,147.49 L 670.99,109.92 L 664.52,72.48 L 657.27,35.18 L 650.77,5.14 L 663.99,5.14 L 664.57,7.64 Z M 685.72,16.18 L 693.36,54.08 L 698.01,79.43 L 704.33,117.58 L 709.84,155.85 L 713.07,181.42 L 717.25,219.86 L 719.59,245.53 L 722.42,284.08 L 723.86,309.82 L 725.34,348.45 L 726.02,387.11 L 726.06,400.00 L 725.34,451.55 L 723.18,503.05 L 719.59,554.47 L 714.56,605.78 L 711.25,631.34 L 709.36,644.09 L 707.18,656.79 L 704.72,669.45 L 702.55,682.15 L 699.89,694.76 L 697.50,707.41 L 694.96,720.03 L 692.53,732.66 L 690.16,745.31 L 686.82,757.76 L 683.46,770.20 L 681.10,782.84 L 680.05,794.86 L 671.52,794.86 L 671.79,793.95 L 675.36,781.62 L 679.40,769.36 L 682.80,756.96 L 684.96,744.31 L 686.74,731.60 L 688.84,718.95 L 690.67,706.25 L 692.84,693.62 L 694.42,680.89 L 695.78,668.13 L 697.14,655.38 L 698.41,642.63 L 699.52,629.86 L 700.86,617.12 L 702.08,604.38 L 703.17,591.62 L 706.76,553.40 L 709.57,515.11 L 711.58,476.77 L 712.79,438.39 L 713.19,400.00 L 712.79,361.61 L 711.58,323.23 L 710.33,297.67 L 707.79,259.36 L 705.65,233.85 L 701.77,195.66 L 698.74,170.24 L 693.53,132.20 L 687.52,94.28 L 683.08,69.07 L 675.75,31.39 L 670.43,6.35 L 670.15,5.14 L 683.29,5.14 L 685.72,16.18 Z M 709.41,37.77 L 714.29,63.34 L 720.94,101.83 L 726.78,140.45 L 730.22,166.26 L 734.71,205.06 L 737.25,230.98 L 740.39,269.91 L 742.02,295.90 L 743.79,334.91 L 744.75,373.96 L 744.93,400.00 L 744.20,452.07 L 742.02,504.10 L 738.39,556.05 L 733.31,607.88 L 728.53,646.65 L 726.53,659.51 L 724.36,672.35 L 721.85,685.13 L 719.41,697.92 L 716.70,710.66 L 714.12,723.41 L 711.32,736.11 L 708.51,748.81 L 705.85,761.53 L 703.07,774.22 L 699.36,786.72 L 697.55,794.86 L 693.12,794.86 L 696.21,786.05 L 699.13,773.41 L 700.87,760.54 L 702.45,747.65 L 704.84,734.92 L 706.97,722.14 L 708.83,709.32 L 710.66,696.50 L 712.04,683.61 L 713.72,670.78 L 714.95,657.89 L 716.28,645.01 L 717.71,632.16 L 720.52,606.45 L 725.56,554.98 L 729.17,503.38 L 731.34,451.71 L 732.06,400.00 L 732.02,387.07 L 731.34,348.29 L 729.85,309.53 L 728.41,283.71 L 725.56,245.02 L 723.22,219.27 L 719.03,180.71 L 715.79,155.05 L 710.26,116.66 L 703.92,78.39 L 699.26,52.96 L 691.59,14.94 L 689.44,5.14 L 702.60,5.14 L 709.41,37.77 Z M 725.32,21.21 L 730.43,47.01 L 737.42,85.84 L 743.59,124.81 L 747.25,150.86 L 752.06,190.02 L 754.81,216.17 L 758.24,255.48 L 760.08,281.72 L 762.14,321.11 L 763.38,360.55 L 763.80,400.00 L 762.65,465.74 L 759.21,531.41 L 753.48,596.91 L 745.46,662.17 L 741.43,688.16 L 738.91,701.08 L 736.39,713.99 L 733.46,726.81 L 730.61,739.65 L 727.58,752.44 L 724.32,765.19 L 721.77,778.06 L 718.58,790.80 L 717.53,794.86 L 713.84,794.86 L 714.86,790.01 L 716.48,776.98 L 718.86,764.10 L 721.18,751.22 L 723.16,738.28 L 724.98,725.32 L 726.84,712.37 L 728.39,699.37 L 730.03,686.40 L 731.42,673.39 L 732.97,660.42 L 734.51,647.44 L 739.27,608.55 L 744.37,556.56 L 748.01,504.44 L 750.20,452.24 L 750.93,400.00 L 750.75,373.88 L 749.79,334.71 L 748.01,295.56 L 746.37,269.49 L 743.23,230.43 L 740.68,204.43 L 736.18,165.51 L 732.72,139.62 L 726.86,100.87 L 720.19,62.26 L 715.30,36.60 L 708.73,5.14 L 721.85,5.14 L 725.32,21.21 Z M 746.43,30.44 L 753.76,69.61 L 760.27,108.92 L 765.95,148.36 L 769.28,174.72 L 773.58,214.33 L 777.06,254.03 L 778.91,280.53 L 781.00,320.32 L 782.25,360.15 L 782.66,400.00 L 781.51,466.40 L 778.03,532.72 L 772.24,598.88 L 764.15,664.80 L 758.03,704.18 L 755.52,717.22 L 752.62,730.19 L 749.69,743.15 L 746.56,756.06 L 743.39,768.96 L 739.90,781.78 L 736.81,794.68 L 736.77,794.86 L 732.36,794.86 L 732.55,793.77 L 734.75,780.73 L 737.40,767.78 L 739.17,754.66 L 740.99,741.55 L 742.80,728.46 L 744.36,715.33 L 746.14,702.25 L 747.74,689.14 L 751.40,663.01 L 759.44,597.54 L 765.19,531.83 L 768.65,465.95 L 769.80,400.00 L 769.38,360.42 L 768.14,320.86 L 766.07,281.34 L 764.23,255.02 L 760.78,215.59 L 758.02,189.35 L 753.20,150.06 L 749.52,123.93 L 743.33,84.84 L 736.32,45.89 L 731.20,20.00 L 727.98,5.14 L 741.24,5.14 L 746.43,30.44 Z M 762.29,13.62 L 769.96,53.13 L 776.81,92.78 L 782.83,132.57 L 786.38,159.17 L 788.24,175.25 L 788.24,359.87 L 786.99,320.07 L 784.90,280.15 L 783.04,253.57 L 779.55,213.75 L 775.24,174.01 L 771.90,147.57 L 766.20,108.00 L 759.67,68.56 L 752.31,29.27 L 747.36,5.14 L 760.48,5.14 L 762.29,13.62 Z M 786.03,36.41 L 788.24,48.69 L 788.24,128.22 L 782.74,91.82 L 775.87,52.04 L 768.16,12.42 L 766.62,5.14 L 779.73,5.14 L 786.03,36.41 Z M 788.24,17.01 L 785.85,5.14 L 788.24,5.14 L 788.24,17.01 Z M 786.38,640.83 L 782.83,667.43 L 778.91,693.97 L 774.41,720.42 L 771.55,733.53 L 768.54,746.61 L 765.09,759.60 L 761.40,772.53 L 758.33,785.57 L 756.68,794.86 L 751.75,794.86 L 753.58,784.59 L 755.35,771.33 L 757.26,758.11 L 759.02,744.87 L 760.81,731.64 L 762.44,718.39 L 764.27,705.18 L 770.09,665.63 L 778.21,599.51 L 784.01,533.14 L 787.50,466.61 L 788.24,424.26 L 788.24,625.23 L 786.38,640.83 Z M 787.17,750.03 L 783.39,763.09 L 780.23,776.26 L 778.67,789.74 L 778.13,794.86 L 770.56,794.86 L 772.12,788.40 L 774.36,775.09 L 775.80,761.64 L 777.29,748.22 L 779.04,734.85 L 780.75,721.49 L 784.84,694.89 L 788.24,671.87 L 788.24,745.85 L 787.17,750.03 Z M 787.78,794.86 L 788.24,793.39 L 788.24,794.86 L 787.78,794.86 Z " fill="black"/>
</svg>
