<?xml version="1.0" ?>
<svg xmlns="http://www.w3.org/2000/svg" baseProfile="full" height="217.7mm" width="217.7mm" viewBox="0 0 800.0 800.0" version="1.1">
<path d="M 800.00,794.86 L 800.00,780.84 L 800.00,724.06 L 800.00,700.04 L 800.00,651.13 L 800.00,629.62 L 800.00,585.87 L 800.00,566.66 L 800.00,526.51 L 800.00,508.65 L 800.00,471.39 L 800.00,454.91 L 800.00,419.84 L 800.00,404.09 L 800.00,371.24 L 800.00,356.13 L 800.00,324.72 L 800.00,310.31 L 800.00,280.14 L 800.00,266.36 L 800.00,237.14 L 800.00,223.84 L 800.00,195.68 L 800.00,182.98 L 800.00,155.75 L 800.00,143.11 L 800.00,116.80 L 800.00,104.73 L 800.00,78.99 L 800.00,67.06 L 800.00,41.86 L 800.00,30.28 L 800.00,11.76 L 800.00,5.75 L 800.00,0.00 L 796.44,0.00 L 788.24,0.00 L 783.90,0.00 L 769.45,0.00 L 763.05,0.00 L 747.51,0.00 L 740.82,0.00 L 727.16,0.00 L 719.38,0.00 L 701.98,0.00 L 697.30,0.00 L 678.68,0.00 L 674.71,0.00 L 655.68,0.00 L 651.88,0.00 L 632.63,0.00 L 629.04,0.00 L 609.69,0.00 L 606.17,0.00 L 588.77,0.00 L 583.18,0.00 L 564.82,0.00 L 560.03,0.00 L 542.07,0.00 L 536.78,0.00 L 518.10,0.00 L 513.42,0.00 L 495.16,0.00 L 489.95,0.00 L 471.08,0.00 L 466.36,0.00 L 448.02,0.00 L 442.64,0.00 L 423.73,0.00 L 418.79,0.00 L 399.92,0.00 L 394.64,0.00 L 374.33,0.00 L 370.45,0.00 L 350.24,0.00 L 346.18,0.00 L 326.29,0.00 L 320.81,0.00 L 303.76,0.00 L 293.12,0.00 L 281.49,0.00 L 265.82,0.00 L 257.82,0.00 L 240.72,0.00 L 232.67,0.00 L 215.41,0.00 L 207.37,0.00 L 189.96,0.00 L 181.86,0.00 L 164.27,0.00 L 156.01,0.00 L 138.30,0.00 L 130.05,0.00 L 112.13,0.00 L 103.70,0.00 L 85.61,0.00 L 77.13,0.00 L 58.93,0.00 L 50.34,0.00 L 31.82,0.00 L 23.09,0.00 L 5.14,0.00 L 4.34,0.00 L 0.00,0.00 L 0.00,800.00 L 800.00,800.00 L 800.00,794.86 Z M 31.18,762.71 L 28.34,754.59 L 24.85,746.72 L 21.88,738.65 L 19.06,730.51 L 15.38,722.73 L 12.09,714.78 L 8.68,706.89 L 5.14,699.22 L 5.14,684.44 L 7.03,688.76 L 10.50,696.67 L 14.04,704.55 L 17.68,712.39 L 20.79,720.46 L 23.93,728.51 L 36.65,760.63 L 48.46,793.10 L 49.05,794.86 L 43.32,794.86 L 40.10,786.91 L 37.67,778.64 L 34.37,770.69 L 31.18,762.71 Z M 15.74,750.33 L 18.50,758.40 L 21.79,766.27 L 24.63,774.32 L 27.24,782.44 L 30.61,790.29 L 31.98,794.86 L 22.07,794.86 L 21.61,793.49 L 18.41,785.65 L 16.19,777.46 L 13.01,769.61 L 9.87,761.75 L 6.87,753.84 L 5.14,749.40 L 5.14,725.25 L 5.80,726.76 L 8.69,734.79 L 12.35,742.50 L 15.74,750.33 Z M 35.18,714.41 L 31.49,706.47 L 28.23,698.35 L 24.75,690.32 L 21.10,682.38 L 17.31,674.49 L 13.56,666.59 L 9.63,658.77 L 6.15,650.74 L 5.14,648.56 L 5.14,641.46 L 5.15,641.47 L 16.60,665.16 L 27.55,689.08 L 34.58,705.15 L 44.69,729.44 L 54.28,753.93 L 63.37,778.62 L 69.02,794.86 L 65.91,794.86 L 63.57,787.84 L 51.60,754.95 L 38.72,722.41 L 35.18,714.41 Z M 49.28,698.85 L 42.17,682.57 L 31.08,658.34 L 19.48,634.36 L 11.47,618.50 L 5.14,606.50 L 5.14,600.24 L 5.78,601.41 L 18.07,625.12 L 25.98,641.07 L 37.44,665.19 L 48.38,689.55 L 55.40,705.91 L 65.48,730.63 L 71.92,747.23 L 81.14,772.29 L 88.91,794.86 L 85.87,794.86 L 84.28,790.03 L 78.44,773.25 L 69.24,748.25 L 59.52,723.44 L 49.28,698.85 Z M 70.15,699.71 L 63.04,683.14 L 51.96,658.48 L 40.36,634.05 L 32.35,617.91 L 19.90,593.90 L 11.33,578.05 L 5.14,567.07 L 5.14,561.23 L 13.84,576.66 L 22.44,592.56 L 34.91,616.61 L 46.87,640.93 L 58.32,665.49 L 69.26,690.28 L 76.26,706.94 L 86.32,732.10 L 95.86,757.46 L 104.86,783.02 L 108.75,794.86 L 105.79,794.86 L 105.02,792.49 L 96.22,766.92 L 86.88,741.55 L 80.36,724.74 L 70.15,699.71 Z M 83.97,683.98 L 72.89,658.88 L 61.30,634.02 L 49.19,609.40 L 36.56,585.04 L 27.86,568.96 L 14.40,545.06 L 5.14,529.41 L 5.14,523.84 L 12.27,535.70 L 25.93,559.56 L 34.77,575.62 L 47.59,599.94 L 59.90,624.53 L 71.69,649.36 L 82.96,674.44 L 90.18,691.29 L 100.57,716.74 L 110.42,742.41 L 119.74,768.28 L 128.51,794.34 L 128.67,794.86 L 125.59,794.86 L 120.01,777.87 L 110.89,751.99 L 101.24,726.31 L 91.05,700.84 L 83.97,683.98 Z M 104.93,685.09 L 97.62,668.03 L 86.22,642.65 L 74.28,617.51 L 61.82,592.63 L 48.84,568.01 L 39.90,551.75 L 26.07,527.60 L 11.74,503.75 L 5.14,493.28 L 5.14,487.88 L 9.28,494.35 L 23.81,518.15 L 37.84,542.25 L 46.91,558.48 L 60.09,583.06 L 72.75,607.91 L 84.89,633.02 L 96.50,658.38 L 103.94,675.42 L 114.66,701.16 L 124.84,727.13 L 134.47,753.30 L 143.55,779.67 L 148.48,794.86 L 145.46,794.86 L 143.72,789.39 L 134.85,763.02 L 125.42,736.83 L 115.45,710.85 L 104.93,685.09 Z M 129.50,695.17 L 118.65,669.11 L 111.12,651.87 L 99.37,626.21 L 87.08,600.80 L 74.27,575.65 L 60.93,550.78 L 51.75,534.35 L 37.56,509.96 L 22.85,485.87 L 7.64,462.09 L 5.14,458.36 L 5.14,453.20 L 10.04,460.52 L 20.26,476.37 L 35.16,500.41 L 49.56,524.75 L 58.88,541.15 L 72.41,565.98 L 81.15,582.69 L 93.82,607.98 L 105.95,633.53 L 113.74,650.70 L 124.97,676.66 L 132.16,694.10 L 142.48,720.43 L 152.24,746.97 L 158.44,764.78 L 167.28,791.65 L 168.27,794.86 L 165.26,794.86 L 164.54,792.52 L 158.73,774.62 L 149.54,747.94 L 139.79,721.45 L 129.50,695.17 Z M 146.99,688.10 L 139.72,670.46 L 128.35,644.20 L 120.47,626.82 L 108.20,600.97 L 95.38,575.38 L 86.54,558.47 L 72.84,533.34 L 63.42,516.75 L 48.85,492.12 L 33.77,467.80 L 23.43,451.76 L 7.51,427.98 L 5.14,424.57 L 5.14,419.51 L 20.57,442.21 L 36.19,466.26 L 51.30,490.63 L 65.90,515.32 L 75.35,531.94 L 89.07,557.12 L 102.27,582.59 L 114.93,608.32 L 127.05,634.31 L 134.83,651.78 L 146.04,678.18 L 156.69,704.81 L 166.78,731.65 L 176.30,758.70 L 182.34,776.84 L 187.98,794.86 L 185.02,794.86 L 182.53,786.81 L 173.59,759.63 L 167.32,741.61 L 157.43,714.75 L 146.99,688.10 Z M 160.83,672.08 L 149.49,645.37 L 141.63,627.70 L 129.36,601.41 L 116.55,575.37 L 103.20,549.61 L 89.31,524.14 L 79.76,507.32 L 64.99,482.35 L 49.70,457.69 L 33.90,433.35 L 17.59,409.36 L 6.44,393.55 L 5.14,392.90 L 5.14,386.87 L 14.38,399.78 L 30.89,423.71 L 46.90,447.98 L 62.39,472.59 L 77.37,497.51 L 87.06,514.30 L 101.15,539.72 L 114.71,565.44 L 127.73,591.44 L 140.20,617.70 L 148.21,635.36 L 159.76,662.04 L 170.74,688.96 L 181.16,716.10 L 191.01,743.46 L 197.26,761.81 L 206.15,789.49 L 207.74,794.86 L 204.75,794.86 L 197.56,771.90 L 191.45,753.55 L 181.81,726.18 L 171.61,699.02 L 160.83,672.08 Z M 185.62,683.07 L 174.51,655.84 L 162.83,628.85 L 154.73,610.99 L 142.11,584.43 L 128.94,558.13 L 115.23,532.11 L 100.97,506.39 L 91.17,489.41 L 76.02,464.20 L 60.35,439.32 L 44.16,414.76 L 27.46,390.56 L 16.05,374.61 L 5.14,364.19 L 5.14,346.97 L 18.37,372.93 L 29.80,388.90 L 46.54,413.16 L 62.76,437.76 L 78.46,462.70 L 88.64,479.51 L 103.46,504.98 L 117.75,530.75 L 131.50,556.82 L 140.35,574.36 L 153.18,600.89 L 165.45,627.68 L 177.15,654.73 L 184.64,672.89 L 195.39,700.33 L 205.57,727.99 L 215.16,755.85 L 218.42,765.12 L 221.42,774.48 L 224.24,783.89 L 227.04,793.30 L 227.50,794.86 L 224.44,794.86 L 221.43,784.76 L 212.44,756.76 L 206.12,738.20 L 196.16,710.52 L 185.62,683.07 Z M 210.35,694.65 L 199.47,666.90 L 191.90,648.53 L 180.06,621.17 L 167.66,594.07 L 154.68,567.24 L 145.73,549.51 L 131.83,523.14 L 117.38,497.07 L 102.38,471.31 L 92.09,454.32 L 76.21,429.10 L 59.80,404.21 L 42.88,379.68 L 31.31,363.52 L 9.56,342.62 L 5.14,336.93 L 5.14,315.94 L 19.81,334.84 L 27.75,353.81 L 39.45,369.91 L 56.58,394.38 L 73.20,419.19 L 89.29,444.35 L 99.72,461.31 L 114.92,487.02 L 129.58,513.04 L 143.70,539.36 L 152.80,557.06 L 165.98,583.86 L 178.60,610.93 L 190.65,638.25 L 198.37,656.61 L 209.46,684.34 L 219.97,712.29 L 229.89,740.46 L 233.10,749.88 L 236.43,759.27 L 239.22,768.83 L 242.38,778.27 L 245.37,787.77 L 247.34,794.86 L 244.20,794.86 L 242.36,788.68 L 239.38,779.20 L 236.30,769.76 L 233.26,760.30 L 230.34,750.80 L 220.64,722.62 L 210.35,694.65 Z M 5.14,794.86 L 5.14,774.09 L 7.44,780.71 L 11.04,788.33 L 13.08,794.86 L 5.14,794.86 Z M 245.04,735.30 L 235.00,706.82 L 224.38,678.55 L 213.16,650.51 L 205.36,631.95 L 193.17,604.32 L 180.41,576.95 L 167.08,549.85 L 157.87,531.94 L 143.60,505.33 L 128.78,479.02 L 113.41,453.02 L 102.86,435.87 L 86.58,410.43 L 69.78,385.34 L 52.46,360.60 L 40.63,344.31 L 24.59,331.21 L 6.14,307.43 L 5.14,306.20 L 5.14,285.73 L 9.91,291.53 L 28.69,315.39 L 42.94,342.61 L 54.79,358.93 L 66.42,375.41 L 77.82,392.06 L 94.48,417.32 L 105.29,434.36 L 115.86,451.54 L 126.19,468.87 L 141.23,495.12 L 150.95,512.80 L 160.42,530.61 L 169.64,548.56 L 183.00,575.71 L 191.59,593.96 L 199.92,612.33 L 208.00,630.82 L 219.63,658.76 L 230.85,686.86 L 234.25,696.36 L 238.05,705.71 L 241.12,715.33 L 244.65,724.78 L 248.21,734.22 L 251.27,743.84 L 254.64,753.35 L 257.39,763.07 L 260.54,772.65 L 263.71,782.23 L 266.46,791.94 L 267.24,794.86 L 263.76,794.86 L 263.20,792.90 L 260.16,783.31 L 257.29,773.66 L 254.47,763.99 L 251.13,754.49 L 248.21,744.86 L 245.04,735.30 Z M 64.16,339.66 L 76.06,356.28 L 87.72,373.06 L 104.77,398.53 L 115.84,415.71 L 126.67,433.04 L 137.26,450.52 L 152.68,477.02 L 162.65,494.86 L 172.37,512.83 L 181.84,530.95 L 195.57,558.36 L 204.40,576.79 L 212.97,595.34 L 221.28,614.01 L 233.26,642.23 L 244.83,670.62 L 248.31,680.23 L 252.19,689.69 L 255.43,699.38 L 259.26,708.87 L 262.93,718.41 L 266.19,728.10 L 269.84,737.66 L 272.98,747.39 L 275.93,757.18 L 279.16,766.89 L 281.66,776.81 L 284.28,786.70 L 286.53,794.86 L 283.25,794.86 L 280.98,787.67 L 277.94,777.94 L 275.18,768.12 L 272.27,758.35 L 268.81,748.75 L 265.85,738.99 L 262.43,729.38 L 259.39,719.65 L 256.19,709.96 L 252.38,700.49 L 249.18,690.81 L 245.44,681.32 L 234.46,652.76 L 222.70,624.52 L 214.54,605.83 L 206.11,587.25 L 197.43,568.79 L 183.92,541.34 L 174.60,523.20 L 165.02,505.19 L 155.19,487.32 L 139.99,460.77 L 129.54,443.25 L 118.86,425.88 L 107.93,408.65 L 91.09,383.11 L 79.56,366.28 L 67.80,349.62 L 55.82,333.11 L 33.44,311.73 L 14.59,287.77 L 5.14,276.28 L 5.14,256.11 L 11.65,263.81 L 31.01,287.72 L 49.86,312.02 L 52.03,323.21 L 64.16,339.66 Z M 299.37,782.26 L 296.11,772.45 L 292.61,762.72 L 289.69,752.82 L 286.37,743.04 L 283.09,733.26 L 280.18,723.34 L 276.75,713.60 L 273.59,703.76 L 270.46,693.91 L 266.60,684.33 L 263.26,674.55 L 259.38,664.97 L 248.05,636.13 L 235.94,607.60 L 227.54,588.73 L 218.87,569.97 L 209.95,551.34 L 196.07,523.63 L 186.50,505.32 L 176.67,487.15 L 166.59,469.11 L 151.00,442.33 L 140.30,424.66 L 129.35,407.14 L 118.16,389.77 L 100.92,364.02 L 89.13,347.05 L 77.10,330.25 L 64.84,313.62 L 54.64,308.40 L 35.71,283.99 L 16.28,259.99 L 5.14,246.82 L 5.14,226.92 L 6.08,227.99 L 26.19,251.79 L 45.80,276.00 L 64.89,300.62 L 67.14,311.91 L 79.42,328.57 L 91.47,345.40 L 103.29,362.40 L 120.56,388.20 L 131.77,405.60 L 142.74,423.15 L 153.47,440.86 L 169.09,467.70 L 179.19,485.77 L 189.03,503.98 L 198.62,522.32 L 212.52,550.08 L 221.47,568.75 L 230.15,587.54 L 238.57,606.45 L 250.70,635.04 L 255.34,644.33 L 259.10,653.98 L 262.33,663.83 L 266.40,673.36 L 270.49,682.88 L 273.90,692.66 L 277.57,702.35 L 281.31,712.01 L 284.61,721.83 L 287.52,731.78 L 291.14,741.49 L 294.14,751.41 L 296.64,761.48 L 299.42,771.45 L 302.25,781.41 L 305.14,791.35 L 306.18,794.86 L 303.06,794.86 L 302.38,792.14 L 299.37,782.26 Z M 13.47,207.73 L 34.00,231.68 L 54.02,256.06 L 73.53,280.85 L 75.94,292.23 L 88.50,309.02 L 106.89,334.52 L 124.75,360.41 L 136.35,377.87 L 153.29,404.36 L 169.67,431.20 L 180.28,449.28 L 195.72,476.68 L 210.58,504.39 L 220.16,523.04 L 234.04,551.25 L 247.33,579.75 L 260.06,608.51 L 264.12,618.17 L 268.73,627.61 L 272.11,637.55 L 276.40,647.13 L 280.28,656.87 L 284.22,666.59 L 288.23,676.29 L 292.09,686.04 L 296.07,695.76 L 299.29,705.75 L 302.71,715.67 L 305.98,725.64 L 309.00,735.69 L 311.16,746.01 L 314.29,756.01 L 317.39,766.03 L 320.35,776.08 L 323.27,786.15 L 326.31,794.86 L 322.65,794.86 L 320.52,786.94 L 317.60,776.89 L 314.48,766.91 L 311.18,756.98 L 307.45,747.19 L 304.09,737.29 L 301.21,727.23 L 297.49,717.45 L 294.01,707.59 L 290.83,697.62 L 287.46,687.73 L 283.68,677.98 L 280.44,668.02 L 277.06,658.12 L 272.70,648.59 L 268.72,638.92 L 265.50,628.94 L 253.23,600.05 L 244.72,580.93 L 235.95,561.94 L 226.90,543.07 L 212.85,515.01 L 203.16,496.46 L 193.21,478.06 L 183.00,459.79 L 167.21,432.67 L 156.37,414.77 L 145.28,397.03 L 133.95,379.44 L 116.49,353.36 L 104.55,336.18 L 92.37,319.16 L 79.95,302.32 L 69.67,296.99 L 50.50,272.27 L 30.81,247.96 L 10.62,224.07 L 5.14,217.74 L 5.14,198.42 L 13.47,207.73 Z M 13.52,179.37 L 34.65,203.33 L 55.27,227.73 L 75.37,252.56 L 90.97,280.82 L 103.68,297.82 L 122.31,323.65 L 140.39,349.86 L 152.14,367.54 L 169.29,394.36 L 185.88,421.54 L 196.62,439.85 L 212.25,467.59 L 227.30,495.65 L 237.00,514.53 L 251.06,543.10 L 264.52,571.96 L 277.62,600.98 L 281.51,610.86 L 285.95,620.51 L 290.22,630.23 L 294.35,640.02 L 298.44,649.82 L 302.58,659.61 L 306.26,669.58 L 310.41,679.37 L 313.75,689.47 L 317.72,699.33 L 320.74,709.53 L 323.10,719.94 L 325.90,730.20 L 331.07,739.69 L 332.33,750.43 L 335.74,760.49 L 338.98,770.60 L 342.05,780.76 L 344.34,791.15 L 345.34,794.86 L 341.49,794.86 L 340.93,792.10 L 338.65,781.74 L 335.70,771.56 L 332.63,761.42 L 329.57,751.28 L 326.41,741.17 L 322.12,731.43 L 318.56,721.46 L 315.11,711.45 L 311.66,701.44 L 307.89,691.55 L 304.73,681.44 L 301.31,671.42 L 297.90,661.39 L 294.29,651.43 L 290.48,641.55 L 286.94,631.56 L 282.36,621.99 L 278.87,611.97 L 274.69,602.23 L 261.91,573.14 L 248.47,544.34 L 234.44,515.82 L 224.76,496.98 L 209.74,468.97 L 194.14,441.28 L 183.42,423.01 L 166.86,395.88 L 149.74,369.11 L 138.01,351.46 L 119.97,325.30 L 101.38,299.52 L 88.68,282.56 L 78.29,277.19 L 58.70,252.30 L 38.59,227.82 L 17.98,203.77 L 5.14,189.42 L 5.14,170.26 L 13.52,179.37 Z M 20.30,158.76 L 41.86,182.87 L 62.91,207.42 L 83.43,232.42 L 99.47,260.88 L 112.46,278.00 L 125.22,295.30 L 137.73,312.77 L 156.03,339.31 L 167.92,357.21 L 179.57,375.27 L 190.96,393.50 L 207.56,421.13 L 218.30,439.74 L 228.79,458.50 L 239.01,477.40 L 253.84,506.02 L 263.40,525.27 L 272.69,544.65 L 281.70,564.16 L 295.34,593.38 L 298.98,603.52 L 303.65,613.21 L 308.11,623.00 L 311.98,633.04 L 317.02,642.62 L 320.80,652.69 L 324.86,662.66 L 328.04,672.95 L 331.95,682.98 L 334.47,693.50 L 337.15,703.95 L 345.23,712.58 L 348.60,722.82 L 351.89,733.09 L 355.11,743.38 L 356.09,754.34 L 357.53,765.14 L 360.43,775.49 L 362.95,785.95 L 365.47,794.86 L 361.91,794.86 L 359.67,786.87 L 356.15,776.72 L 353.27,766.39 L 350.42,756.06 L 347.58,745.71 L 342.47,736.08 L 341.11,725.26 L 337.24,715.24 L 332.80,705.43 L 328.87,695.45 L 325.75,685.19 L 321.87,675.20 L 318.65,664.97 L 314.82,654.96 L 311.31,644.83 L 307.62,634.77 L 303.82,624.74 L 300.02,614.71 L 296.26,604.66 L 291.82,594.89 L 279.09,565.35 L 265.49,536.18 L 251.28,507.31 L 241.48,488.24 L 226.27,459.88 L 210.48,431.85 L 199.62,413.35 L 182.86,385.88 L 165.53,358.78 L 153.65,340.91 L 135.38,314.42 L 116.56,288.33 L 103.71,271.15 L 80.07,248.83 L 59.89,223.91 L 39.19,199.41 L 17.98,175.36 L 5.14,161.40 L 5.14,142.51 L 20.30,158.76 Z M 19.41,130.02 L 41.57,154.12 L 63.21,178.68 L 84.34,203.68 L 104.94,229.12 L 114.42,249.37 L 127.57,266.70 L 146.84,293.03 L 165.56,319.76 L 177.73,337.79 L 195.50,365.16 L 212.69,392.89 L 223.83,411.58 L 240.05,439.89 L 255.67,468.54 L 265.75,487.82 L 280.36,517.00 L 294.35,546.48 L 299.13,556.25 L 303.65,566.15 L 307.96,576.14 L 312.46,586.04 L 317.02,595.93 L 321.77,605.75 L 326.59,615.54 L 330.85,625.57 L 334.44,635.86 L 338.60,645.93 L 341.94,656.31 L 345.39,666.64 L 347.95,677.29 L 356.10,685.97 L 366.54,716.99 L 376.33,748.23 L 379.01,758.82 L 380.93,769.62 L 383.27,780.28 L 385.65,790.92 L 386.63,794.86 L 380.91,794.86 L 380.22,792.40 L 377.41,781.92 L 374.04,771.59 L 370.92,761.20 L 366.19,751.29 L 360.85,741.60 L 357.61,731.27 L 354.30,720.97 L 350.92,710.69 L 352.11,698.85 L 347.76,688.87 L 343.10,679.01 L 339.69,668.72 L 335.41,658.74 L 331.87,648.49 L 327.91,638.39 L 325.07,627.86 L 320.91,617.83 L 317.21,607.62 L 313.58,597.38 L 308.78,587.62 L 296.27,557.55 L 287.16,537.84 L 277.78,518.26 L 268.13,498.81 L 253.14,469.89 L 242.81,450.79 L 232.21,431.83 L 221.36,413.03 L 204.58,385.11 L 193.08,366.70 L 181.31,348.44 L 169.30,330.36 L 150.80,303.55 L 138.16,285.89 L 125.28,268.41 L 112.15,251.12 L 88.11,228.66 L 67.50,203.57 L 46.37,178.92 L 24.73,154.71 L 5.14,133.71 L 5.14,115.15 L 19.41,130.02 Z M 25.57,109.08 L 48.17,133.32 L 70.25,158.01 L 91.81,183.17 L 112.84,208.77 L 129.37,237.86 L 142.68,255.39 L 162.19,282.05 L 181.13,309.10 L 193.44,327.35 L 211.43,355.05 L 228.83,383.12 L 240.11,402.03 L 256.52,430.69 L 272.33,459.69 L 282.53,479.20 L 297.32,508.73 L 311.48,538.56 L 321.29,558.29 L 325.69,568.40 L 330.28,578.41 L 334.96,588.39 L 339.85,598.29 L 344.18,608.43 L 347.94,618.80 L 352.51,628.85 L 355.03,639.69 L 358.10,650.30 L 366.51,658.96 L 377.51,690.21 L 387.86,721.68 L 397.55,753.36 L 403.56,774.61 L 406.08,785.37 L 408.58,794.86 L 398.87,794.86 L 396.86,787.88 L 393.43,777.44 L 389.82,767.07 L 385.64,756.87 L 382.07,746.50 L 372.25,715.14 L 361.77,683.99 L 362.65,672.05 L 357.81,662.12 L 353.70,651.93 L 349.35,641.85 L 345.67,631.50 L 341.28,621.44 L 337.43,611.16 L 333.99,600.71 L 330.33,590.34 L 326.34,580.10 L 322.16,569.94 L 317.65,559.92 L 313.20,549.87 L 308.88,539.77 L 294.74,509.99 L 279.98,480.51 L 269.80,461.03 L 254.02,432.09 L 237.63,403.48 L 226.38,384.60 L 209.01,356.59 L 191.05,328.94 L 178.76,310.72 L 159.85,283.71 L 140.38,257.11 L 127.10,239.61 L 109.65,225.39 L 88.97,199.86 L 67.76,174.76 L 46.02,150.11 L 23.78,125.92 L 5.14,106.48 L 5.14,88.08 L 25.57,109.08 Z M 15.86,72.04 L 39.24,96.07 L 62.10,120.59 L 84.45,145.59 L 106.27,171.04 L 127.55,196.95 L 137.49,217.54 L 151.08,235.19 L 171.01,262.03 L 190.37,289.27 L 202.96,307.65 L 221.36,335.55 L 239.17,363.84 L 250.71,382.89 L 267.52,411.78 L 283.72,441.01 L 294.18,460.68 L 309.36,490.46 L 324.15,520.43 L 328.79,530.57 L 333.53,540.65 L 338.69,550.55 L 343.73,560.51 L 348.39,570.65 L 352.75,580.91 L 356.87,591.28 L 361.09,601.60 L 364.66,612.18 L 367.87,622.89 L 376.45,631.55 L 395.37,684.12 L 412.45,737.32 L 427.67,791.09 L 428.59,794.86 L 415.94,794.86 L 415.76,794.24 L 412.85,783.53 L 409.49,772.96 L 403.30,751.67 L 393.58,719.86 L 383.19,688.27 L 372.15,656.90 L 372.91,644.79 L 368.19,634.69 L 362.79,624.87 L 359.28,614.31 L 354.83,604.13 L 350.80,593.78 L 347.18,583.25 L 343.22,572.86 L 339.02,562.57 L 334.48,552.42 L 326.01,531.85 L 311.70,501.71 L 296.76,471.88 L 286.46,452.17 L 270.49,422.88 L 253.91,393.93 L 242.52,374.83 L 224.94,346.48 L 206.77,318.50 L 194.33,300.06 L 175.20,272.73 L 155.49,245.81 L 142.05,228.09 L 117.52,205.01 L 96.41,179.31 L 74.77,154.06 L 52.60,129.27 L 29.92,104.95 L 6.73,81.11 L 5.14,79.54 L 5.14,61.47 L 15.86,72.04 Z M 13.21,42.81 L 37.19,66.79 L 60.67,91.28 L 83.63,116.25 L 106.06,141.69 L 127.96,167.60 L 149.30,193.96 L 152.36,205.93 L 166.11,223.79 L 186.28,250.94 L 205.86,278.50 L 218.60,297.10 L 237.22,325.33 L 255.24,353.95 L 266.92,373.23 L 283.93,402.46 L 300.32,432.04 L 310.90,451.94 L 326.26,482.07 L 341.75,512.15 L 346.15,522.54 L 351.27,532.60 L 356.79,542.49 L 360.93,553.00 L 365.46,563.33 L 369.98,573.67 L 373.92,584.25 L 377.07,595.14 L 385.91,603.77 L 394.09,624.85 L 401.97,646.05 L 409.55,667.35 L 416.84,688.76 L 423.83,710.27 L 430.52,731.87 L 436.90,753.57 L 442.98,775.35 L 448.14,794.86 L 434.77,794.86 L 433.47,789.56 L 418.20,735.59 L 401.05,682.19 L 382.06,629.42 L 382.61,617.18 L 377.64,607.04 L 372.90,596.83 L 368.66,586.42 L 364.17,576.11 L 359.78,565.76 L 355.55,555.35 L 351.55,544.82 L 347.53,534.30 L 342.96,524.02 L 338.13,513.86 L 323.69,483.35 L 308.36,453.27 L 297.80,433.40 L 281.43,403.88 L 264.45,374.70 L 252.79,355.45 L 234.81,326.89 L 216.22,298.71 L 203.51,280.14 L 183.95,252.62 L 163.83,225.52 L 150.10,207.69 L 132.22,193.19 L 110.86,167.18 L 88.96,141.63 L 66.53,116.55 L 43.58,91.94 L 20.12,67.81 L 5.14,53.04 L 5.14,35.08 L 13.21,42.81 Z M 8.15,11.76 L 9.95,13.44 L 34.55,37.36 L 58.65,61.79 L 82.23,86.73 L 105.28,112.15 L 127.79,138.05 L 149.76,164.41 L 160.17,185.35 L 174.22,203.32 L 188.00,221.49 L 208.21,249.09 L 221.36,267.73 L 234.24,286.55 L 253.08,315.11 L 265.30,334.37 L 277.25,353.80 L 294.66,383.24 L 305.93,403.08 L 316.92,423.06 L 332.87,453.32 L 348.47,483.78 L 353.15,494.18 L 358.67,504.19 L 364.18,514.21 L 369.58,524.30 L 373.86,534.89 L 377.82,545.62 L 381.60,556.41 L 386.45,566.75 L 394.88,575.61 L 403.45,596.82 L 411.72,618.15 L 423.57,650.36 L 431.10,671.96 L 438.32,693.67 L 448.58,726.42 L 455.04,748.36 L 461.19,770.40 L 467.56,794.86 L 454.34,794.86 L 448.77,773.77 L 442.67,751.91 L 436.26,730.14 L 429.55,708.45 L 422.54,686.87 L 415.22,665.38 L 407.61,644.00 L 399.69,622.72 L 391.49,601.56 L 391.91,589.15 L 386.50,579.07 L 381.73,568.73 L 377.40,558.22 L 372.93,547.75 L 367.93,537.53 L 364.16,526.75 L 359.85,516.21 L 354.67,506.07 L 340.59,474.96 L 325.08,444.53 L 314.39,424.43 L 297.84,394.56 L 280.66,365.04 L 268.86,345.57 L 250.67,316.67 L 231.87,288.16 L 219.00,269.37 L 199.22,241.53 L 178.86,214.11 L 164.97,196.07 L 154.01,190.23 L 132.58,163.78 L 110.61,137.77 L 88.09,112.23 L 65.04,87.17 L 41.48,62.60 L 17.40,38.52 L 5.14,26.76 L 5.14,11.76 L 8.15,11.76 Z M 56.03,32.15 L 80.23,57.04 L 103.90,82.42 L 127.04,108.30 L 149.63,134.66 L 171.66,161.48 L 174.96,173.63 L 189.16,191.81 L 203.11,210.18 L 223.55,238.11 L 236.85,256.96 L 249.89,276.00 L 268.94,304.89 L 281.30,324.37 L 293.39,344.02 L 311.00,373.81 L 322.40,393.87 L 333.51,414.09 L 349.65,444.70 L 354.93,454.96 L 360.50,465.08 L 365.71,475.37 L 371.41,485.44 L 376.84,495.64 L 380.99,506.44 L 385.80,516.94 L 389.60,527.88 L 394.97,538.13 L 403.36,547.09 L 412.32,568.42 L 425.22,600.65 L 437.43,633.14 L 445.19,654.94 L 456.26,687.84 L 466.64,720.96 L 473.18,743.16 L 482.39,776.63 L 487.01,794.86 L 473.76,794.86 L 466.98,768.83 L 460.81,746.71 L 454.32,724.68 L 444.02,691.82 L 436.78,670.03 L 429.23,648.35 L 417.33,616.02 L 409.03,594.61 L 400.43,573.32 L 400.05,561.03 L 395.95,550.27 L 390.62,540.03 L 385.33,529.78 L 380.22,519.47 L 376.07,508.72 L 371.90,497.96 L 367.58,487.27 L 362.29,477.04 L 347.10,446.01 L 330.99,415.45 L 319.90,395.27 L 308.52,375.24 L 290.93,345.51 L 278.87,325.89 L 266.53,306.45 L 247.51,277.60 L 234.50,258.60 L 221.22,239.78 L 200.82,211.90 L 186.89,193.56 L 172.71,175.41 L 154.41,160.62 L 132.36,134.16 L 109.76,108.16 L 86.63,82.65 L 62.96,57.63 L 38.78,33.10 L 16.83,11.76 L 35.35,11.76 L 56.03,32.15 Z M 77.63,27.19 L 101.93,52.53 L 125.70,78.37 L 148.91,104.70 L 171.57,131.52 L 189.75,161.91 L 204.11,180.30 L 218.22,198.88 L 238.89,227.13 L 252.34,246.20 L 265.53,265.45 L 284.80,294.67 L 297.30,314.37 L 309.53,334.25 L 327.34,364.38 L 338.87,384.67 L 350.11,405.11 L 366.44,436.08 L 372.03,446.32 L 377.52,456.63 L 382.81,467.03 L 388.34,477.33 L 393.59,487.76 L 397.73,498.71 L 402.07,509.56 L 411.33,518.21 L 420.70,539.66 L 429.77,561.23 L 438.54,582.93 L 451.12,615.71 L 459.12,637.70 L 466.82,659.80 L 474.21,682.01 L 484.71,715.51 L 491.31,737.96 L 497.61,760.51 L 503.59,783.13 L 506.47,794.86 L 493.20,794.86 L 488.20,775.10 L 478.94,741.51 L 472.39,719.23 L 461.97,685.99 L 450.86,652.97 L 443.07,631.09 L 430.81,598.48 L 417.87,566.13 L 408.87,544.72 L 408.05,532.41 L 404.07,521.44 L 398.37,511.24 L 393.52,500.65 L 387.88,490.45 L 383.36,479.71 L 378.97,468.91 L 373.95,458.40 L 369.14,447.78 L 363.89,437.39 L 347.59,406.48 L 336.37,386.06 L 324.86,365.81 L 307.07,335.73 L 294.87,315.89 L 282.39,296.22 L 263.15,267.05 L 249.99,247.83 L 236.56,228.80 L 215.92,200.60 L 201.84,182.05 L 187.50,163.69 L 176.34,157.72 L 154.22,130.80 L 131.55,104.35 L 108.33,78.38 L 84.57,52.90 L 60.29,27.93 L 43.89,11.76 L 62.20,11.76 L 77.63,27.19 Z M 91.11,13.99 L 115.69,39.61 L 139.72,65.75 L 163.19,92.38 L 186.11,119.49 L 197.17,140.97 L 211.83,159.46 L 226.23,178.16 L 247.33,206.57 L 261.07,225.76 L 274.54,245.14 L 294.23,274.55 L 307.01,294.39 L 319.52,314.40 L 337.75,344.74 L 349.55,365.18 L 361.06,385.78 L 377.79,416.98 L 383.50,427.31 L 389.08,437.71 L 394.45,448.22 L 399.63,458.83 L 405.07,469.31 L 409.26,480.38 L 418.79,488.98 L 428.57,510.53 L 442.67,543.12 L 456.08,575.99 L 468.80,609.13 L 480.83,642.53 L 488.46,664.94 L 499.31,698.74 L 509.45,732.76 L 518.88,766.99 L 525.93,794.86 L 512.64,794.86 L 509.40,781.64 L 503.40,758.93 L 497.08,736.31 L 490.45,713.78 L 479.91,680.16 L 472.50,657.87 L 464.77,635.69 L 456.74,613.62 L 444.12,580.72 L 435.32,558.94 L 426.21,537.29 L 416.81,515.77 L 416.46,503.03 L 411.04,492.56 L 405.27,482.26 L 400.47,471.51 L 395.78,460.70 L 390.73,450.07 L 385.72,439.41 L 380.67,428.76 L 364.19,397.50 L 352.84,376.86 L 341.20,356.38 L 323.21,325.96 L 310.87,305.89 L 298.24,286.00 L 278.79,256.50 L 265.48,237.06 L 251.90,217.81 L 231.03,189.30 L 216.79,170.53 L 202.29,151.97 L 176.19,127.69 L 153.45,100.78 L 130.15,74.36 L 106.31,48.42 L 81.92,22.99 L 70.69,11.76 L 88.88,11.76 L 91.11,13.99 Z M 137.60,35.45 L 161.71,62.04 L 185.26,89.13 L 208.24,116.71 L 211.88,129.14 L 226.70,147.84 L 241.26,166.75 L 255.55,185.86 L 269.58,205.16 L 283.33,224.66 L 296.81,244.35 L 310.02,264.22 L 322.94,284.28 L 335.59,304.52 L 347.95,324.93 L 360.02,345.51 L 371.81,366.26 L 388.98,397.66 L 394.86,408.05 L 400.07,418.79 L 406.12,429.10 L 411.27,439.87 L 416.03,450.83 L 425.73,459.41 L 435.92,481.07 L 450.63,513.81 L 464.66,546.85 L 473.62,569.04 L 486.49,602.55 L 498.65,636.33 L 506.36,658.98 L 517.33,693.16 L 527.59,727.56 L 534.02,750.61 L 543.07,785.35 L 545.34,794.86 L 532.12,794.86 L 524.68,765.46 L 515.22,731.11 L 505.04,696.97 L 494.15,663.04 L 486.49,640.56 L 474.43,607.04 L 461.66,573.78 L 448.20,540.79 L 434.05,508.09 L 424.24,486.46 L 423.74,473.57 L 417.76,463.23 L 412.88,452.36 L 407.59,441.70 L 402.35,431.01 L 397.17,420.28 L 391.97,409.56 L 375.08,378.07 L 363.46,357.28 L 351.55,336.65 L 333.15,306.02 L 320.52,285.82 L 307.62,265.79 L 287.74,236.10 L 274.14,216.54 L 260.28,197.17 L 238.97,168.48 L 224.44,149.61 L 209.64,130.94 L 190.73,115.67 L 167.74,88.46 L 144.18,61.73 L 120.06,35.51 L 97.29,11.76 L 115.20,11.76 L 137.60,35.45 Z M 151.45,22.63 L 175.82,49.51 L 199.63,76.90 L 221.88,105.59 L 226.58,117.32 L 241.57,136.23 L 256.29,155.34 L 277.86,184.39 L 291.91,204.01 L 305.67,223.82 L 325.81,253.89 L 338.87,274.17 L 351.66,294.63 L 370.30,325.65 L 382.36,346.54 L 394.13,367.60 L 411.58,399.31 L 416.95,410.11 L 422.27,420.94 L 432.14,429.51 L 442.74,451.26 L 458.08,484.15 L 472.73,517.36 L 482.10,539.66 L 495.58,573.36 L 508.35,607.33 L 516.46,630.12 L 528.04,664.52 L 538.89,699.15 L 545.72,722.36 L 555.36,757.35 L 564.27,792.53 L 564.81,794.86 L 551.50,794.86 L 548.89,783.90 L 539.81,749.04 L 533.36,725.91 L 523.06,691.39 L 512.05,657.09 L 504.31,634.35 L 492.11,600.46 L 479.20,566.83 L 470.20,544.56 L 456.13,511.41 L 441.36,478.55 L 431.14,456.82 L 430.41,443.82 L 424.58,433.26 L 419.00,422.60 L 414.16,411.55 L 408.34,401.00 L 403.04,390.19 L 385.78,358.45 L 373.88,337.51 L 361.69,316.73 L 349.22,296.13 L 336.45,275.71 L 323.41,255.46 L 310.08,235.40 L 296.47,215.53 L 282.59,195.85 L 268.43,176.36 L 254.00,157.08 L 239.31,137.99 L 224.35,119.12 L 212.89,112.92 L 189.83,85.24 L 166.20,58.06 L 142.00,31.37 L 123.46,11.76 L 141.17,11.76 L 151.45,22.63 Z M 189.93,36.99 L 214.00,64.68 L 233.61,96.02 L 248.89,115.03 L 263.91,134.25 L 278.65,153.67 L 293.13,173.30 L 307.32,193.13 L 321.24,213.16 L 334.88,233.38 L 348.23,253.79 L 361.30,274.38 L 374.08,295.15 L 386.57,316.10 L 398.76,337.22 L 416.62,369.15 L 422.33,379.93 L 428.12,390.66 L 433.56,401.58 L 443.56,410.19 L 454.44,432.10 L 470.17,465.24 L 485.21,498.70 L 494.85,521.18 L 508.71,555.15 L 521.86,589.40 L 530.22,612.38 L 542.17,647.07 L 553.38,682.00 L 560.45,705.42 L 570.44,740.72 L 579.69,776.22 L 584.20,794.86 L 570.97,794.86 L 570.10,791.12 L 561.16,755.82 L 551.49,720.71 L 544.64,697.42 L 533.75,662.67 L 522.13,628.15 L 513.99,605.28 L 501.17,571.19 L 487.65,537.37 L 478.24,514.99 L 463.54,481.67 L 448.15,448.67 L 437.51,426.84 L 436.52,413.74 L 430.84,402.98 L 425.06,392.26 L 408.15,359.89 L 396.27,338.64 L 384.10,317.55 L 365.29,286.25 L 352.38,265.60 L 339.19,245.13 L 318.88,214.78 L 304.98,194.79 L 290.81,174.99 L 269.03,145.67 L 254.17,126.38 L 239.05,107.30 L 228.50,100.19 L 204.20,73.02 L 180.31,45.53 L 155.85,18.55 L 149.42,11.76 L 167.06,11.76 L 189.93,36.99 Z M 204.04,24.46 L 228.37,52.45 L 248.23,84.10 L 263.68,103.31 L 278.86,122.73 L 293.76,142.37 L 308.39,162.21 L 322.74,182.26 L 336.81,202.50 L 350.60,222.94 L 364.09,243.57 L 377.30,264.38 L 390.22,285.38 L 402.84,306.55 L 415.17,327.90 L 433.37,360.09 L 439.04,371.04 L 449.10,379.69 L 460.40,401.68 L 476.77,434.95 L 492.45,468.56 L 507.41,502.49 L 521.66,536.73 L 535.19,571.25 L 543.81,594.42 L 556.13,629.40 L 567.71,664.63 L 578.55,700.09 L 588.65,735.77 L 597.99,771.66 L 603.61,794.86 L 590.37,794.86 L 585.51,774.77 L 576.23,739.14 L 566.21,703.72 L 559.11,680.23 L 547.86,645.18 L 535.87,610.37 L 527.48,587.31 L 514.29,552.94 L 500.38,518.86 L 490.71,496.30 L 475.62,462.72 L 459.83,429.47 L 448.92,407.48 L 447.79,394.26 L 441.96,383.43 L 436.32,372.49 L 430.45,361.67 L 412.68,329.32 L 400.37,308.00 L 387.77,286.86 L 374.87,265.90 L 361.68,245.12 L 348.21,224.53 L 334.44,204.12 L 320.40,183.91 L 306.07,163.90 L 291.47,144.09 L 276.59,124.48 L 261.43,105.09 L 246.01,85.91 L 218.57,60.79 L 194.42,33.00 L 175.16,11.76 L 192.53,11.76 L 204.04,24.46 Z M 226.41,21.30 L 250.80,49.76 L 262.85,72.17 L 278.47,91.59 L 293.81,111.22 L 316.30,141.07 L 330.94,161.23 L 345.30,181.59 L 366.31,212.50 L 379.95,233.35 L 393.30,254.38 L 412.78,286.28 L 425.38,307.77 L 437.69,329.44 L 460.00,359.90 L 471.57,382.04 L 488.35,415.55 L 504.43,449.41 L 519.79,483.59 L 534.43,518.09 L 548.35,552.89 L 557.23,576.25 L 569.92,611.51 L 581.87,647.03 L 593.08,682.79 L 603.54,718.78 L 613.24,754.98 L 619.28,779.22 L 622.89,794.86 L 609.77,794.86 L 609.65,794.31 L 603.82,770.20 L 594.44,734.20 L 584.31,698.40 L 573.43,662.81 L 561.81,627.47 L 549.45,592.37 L 540.80,569.12 L 527.22,534.48 L 512.93,500.13 L 497.91,466.08 L 482.19,432.36 L 465.76,398.98 L 454.42,376.91 L 452.93,363.66 L 446.90,352.78 L 429.08,320.00 L 416.64,298.46 L 403.91,277.09 L 390.87,255.90 L 377.54,234.90 L 363.92,214.08 L 350.01,193.46 L 335.82,173.03 L 321.34,152.81 L 306.57,132.79 L 291.53,112.97 L 276.22,93.37 L 260.63,73.98 L 232.94,48.56 L 208.53,20.48 L 200.63,11.76 L 217.88,11.76 L 226.41,21.30 Z M 265.26,37.63 L 269.49,50.52 L 285.40,70.03 L 301.04,89.76 L 316.40,109.71 L 331.48,129.87 L 346.28,150.24 L 360.80,170.82 L 375.02,191.59 L 388.96,212.57 L 402.60,233.73 L 415.94,255.08 L 428.98,276.62 L 441.72,298.34 L 454.33,320.14 L 460.27,331.24 L 470.69,339.92 L 482.54,362.21 L 499.74,395.96 L 516.22,430.05 L 531.99,464.49 L 547.03,499.25 L 561.34,534.31 L 570.47,557.85 L 583.55,593.39 L 595.88,629.20 L 607.45,665.26 L 618.27,701.56 L 628.33,738.07 L 634.61,762.53 L 642.31,794.86 L 629.05,794.86 L 625.11,777.81 L 619.05,753.49 L 609.32,717.17 L 598.83,681.06 L 587.58,645.17 L 575.59,609.53 L 562.85,574.15 L 553.95,550.72 L 539.98,515.80 L 525.29,481.19 L 509.87,446.89 L 493.75,412.92 L 476.91,379.30 L 465.29,357.08 L 451.66,321.63 L 439.24,299.77 L 426.52,278.09 L 406.87,245.90 L 393.40,224.68 L 379.64,203.64 L 358.44,172.46 L 343.95,151.91 L 329.18,131.58 L 306.48,101.46 L 291.01,81.65 L 275.25,62.06 L 255.40,45.90 L 230.93,17.35 L 225.93,11.76 L 243.08,11.76 L 265.26,37.63 Z M 284.02,38.49 L 300.10,58.21 L 315.91,78.15 L 331.43,98.30 L 346.67,118.68 L 361.63,139.26 L 376.29,160.05 L 390.67,181.04 L 404.75,202.23 L 418.53,223.62 L 432.01,245.20 L 445.19,266.96 L 458.06,288.90 L 481.18,319.74 L 493.32,342.19 L 510.93,376.16 L 522.27,399.01 L 538.68,433.58 L 549.22,456.81 L 564.42,491.93 L 578.88,527.37 L 588.11,551.15 L 601.32,587.07 L 609.71,611.16 L 621.66,647.51 L 629.21,671.88 L 639.88,708.63 L 649.79,745.60 L 655.96,770.35 L 661.62,794.86 L 648.48,794.86 L 640.43,761.08 L 634.13,736.54 L 624.04,699.90 L 613.18,663.49 L 601.57,627.31 L 589.20,591.38 L 576.08,555.72 L 566.92,532.10 L 552.56,496.92 L 537.47,462.05 L 521.65,427.50 L 505.11,393.29 L 487.86,359.43 L 475.97,337.06 L 474.29,323.53 L 467.96,312.52 L 455.58,290.34 L 442.73,268.43 L 429.57,246.70 L 416.11,225.16 L 402.35,203.80 L 388.29,182.65 L 373.94,161.69 L 359.29,140.93 L 344.36,120.38 L 329.15,100.04 L 313.65,79.91 L 297.87,60.00 L 281.81,40.32 L 269.85,33.77 L 250.98,11.76 L 266.83,11.76 L 284.02,38.49 Z M 298.56,26.46 L 314.81,46.38 L 330.78,66.53 L 346.46,86.90 L 361.86,107.48 L 376.97,128.28 L 391.79,149.28 L 406.31,170.49 L 420.53,191.90 L 434.46,213.51 L 448.08,235.31 L 461.40,257.30 L 474.40,279.47 L 482.87,289.44 L 491.47,299.38 L 503.88,321.97 L 521.92,356.17 L 533.54,379.18 L 550.37,413.99 L 561.18,437.38 L 576.78,472.76 L 591.64,508.45 L 601.13,532.42 L 614.73,568.61 L 623.38,592.89 L 635.71,629.54 L 643.50,654.11 L 654.55,691.16 L 664.81,728.43 L 671.22,753.40 L 680.18,791.01 L 681.03,794.86 L 667.77,794.86 L 661.79,768.94 L 655.60,744.10 L 645.66,707.02 L 634.95,670.15 L 627.38,645.70 L 615.39,609.22 L 606.97,585.05 L 593.72,549.02 L 584.46,525.16 L 569.95,489.61 L 554.70,454.37 L 544.13,431.06 L 527.66,396.38 L 516.28,373.45 L 498.61,339.37 L 486.44,316.85 L 471.92,280.90 L 458.93,258.77 L 445.64,236.81 L 432.04,215.05 L 418.13,193.47 L 403.93,172.10 L 389.43,150.92 L 374.64,129.95 L 359.55,109.18 L 344.18,88.63 L 328.52,68.30 L 312.57,48.18 L 296.35,28.29 L 278.24,11.76 L 289.08,11.76 L 298.56,26.46 Z M 313.10,14.44 L 329.51,34.56 L 345.64,54.91 L 361.49,75.49 L 377.04,96.28 L 392.31,117.29 L 407.28,138.51 L 421.95,159.94 L 436.32,181.57 L 450.39,203.40 L 464.15,225.42 L 477.60,247.64 L 493.53,268.43 L 501.55,278.83 L 514.25,301.56 L 532.71,335.99 L 544.61,359.15 L 561.85,394.19 L 572.94,417.75 L 588.95,453.38 L 604.21,489.33 L 613.97,513.47 L 627.96,549.94 L 636.87,574.41 L 649.59,611.34 L 657.63,636.10 L 669.05,673.45 L 679.69,711.04 L 686.34,736.21 L 695.65,774.14 L 700.36,794.86 L 687.17,794.86 L 686.04,789.68 L 677.05,751.95 L 670.62,726.90 L 660.31,689.50 L 649.23,652.33 L 641.41,627.68 L 629.04,590.92 L 620.37,566.56 L 606.72,530.25 L 597.20,506.21 L 582.29,470.40 L 566.64,434.91 L 555.79,411.43 L 538.91,376.51 L 527.25,353.43 L 509.16,319.12 L 496.70,296.45 L 492.62,283.90 L 488.26,271.47 L 475.14,249.11 L 461.71,226.93 L 447.97,204.94 L 433.92,183.14 L 419.57,161.55 L 404.92,140.15 L 389.98,118.96 L 374.74,97.99 L 359.20,77.22 L 343.38,56.68 L 327.28,36.36 L 310.89,16.27 L 305.97,11.76 L 311.37,11.76 L 313.10,14.44 Z M 368.55,53.66 L 407.65,106.31 L 444.89,160.29 L 480.22,215.54 L 503.36,247.58 L 511.42,258.10 L 524.41,280.97 L 543.29,315.61 L 555.48,338.92 L 573.14,374.20 L 584.51,397.92 L 600.93,433.79 L 616.60,470.00 L 626.63,494.32 L 641.02,531.05 L 650.19,555.70 L 663.29,592.92 L 671.60,617.87 L 683.39,655.52 L 694.40,693.41 L 701.30,718.79 L 710.98,757.04 L 716.98,782.65 L 719.62,794.86 L 706.51,794.86 L 701.50,772.77 L 692.15,734.72 L 685.48,709.46 L 674.81,671.76 L 663.35,634.29 L 655.28,609.44 L 642.52,572.39 L 633.59,547.85 L 619.55,511.27 L 609.76,487.04 L 594.45,450.98 L 578.39,415.24 L 567.26,391.60 L 549.96,356.44 L 538.02,333.21 L 519.51,298.67 L 506.76,275.87 L 501.82,263.64 L 491.35,239.44 L 477.78,217.04 L 463.90,194.83 L 449.71,172.81 L 435.22,150.99 L 420.42,129.38 L 405.32,107.98 L 389.92,86.79 L 374.23,65.82 L 358.25,45.06 L 341.98,24.54 L 331.56,11.76 L 335.10,11.76 L 368.55,53.66 Z M 391.55,52.67 L 430.67,106.13 L 467.90,160.91 L 503.19,216.96 L 513.42,226.29 L 521.07,237.19 L 534.36,260.19 L 553.68,295.05 L 572.26,330.30 L 584.24,354.01 L 601.58,389.88 L 618.17,426.12 L 634.00,462.69 L 644.12,487.25 L 658.66,524.35 L 672.42,561.75 L 681.16,586.84 L 693.60,624.69 L 705.25,662.80 L 716.10,701.14 L 722.89,726.83 L 732.39,765.52 L 738.95,794.86 L 725.76,794.86 L 722.83,781.32 L 716.81,755.63 L 707.10,717.26 L 700.18,691.80 L 689.14,653.79 L 677.30,616.02 L 668.97,590.98 L 655.83,553.65 L 646.63,528.92 L 632.19,492.07 L 622.13,467.67 L 606.41,431.35 L 589.94,395.36 L 578.54,371.57 L 560.82,336.18 L 548.59,312.79 L 529.64,278.04 L 516.61,255.10 L 511.41,242.86 L 493.85,207.15 L 458.22,151.44 L 420.66,97.00 L 381.23,43.90 L 355.57,11.76 L 359.35,11.76 L 391.55,52.67 Z M 406.58,41.27 L 438.33,84.34 L 468.88,128.29 L 498.18,173.07 L 520.56,206.44 L 530.52,216.09 L 544.10,239.23 L 563.85,274.29 L 582.87,309.76 L 595.13,333.62 L 612.90,369.73 L 629.91,406.21 L 646.15,443.03 L 656.54,467.76 L 671.49,505.13 L 685.65,542.80 L 694.65,568.07 L 707.49,606.21 L 719.52,644.62 L 730.75,683.26 L 737.78,709.15 L 747.65,748.17 L 756.71,787.38 L 758.30,794.86 L 745.10,794.86 L 738.24,764.15 L 728.70,725.33 L 721.89,699.57 L 711.01,661.10 L 699.32,622.88 L 686.84,584.90 L 678.07,559.74 L 664.27,522.22 L 649.68,485.00 L 639.53,460.36 L 623.65,423.68 L 607.01,387.33 L 589.61,351.34 L 577.60,327.55 L 558.95,292.19 L 539.57,257.23 L 526.25,234.15 L 520.36,222.15 L 516.88,208.67 L 481.29,152.15 L 443.74,96.90 L 404.29,43.00 L 379.71,11.76 L 383.52,11.76 L 406.58,41.27 Z M 437.79,51.50 L 469.25,95.44 L 499.47,140.25 L 528.43,185.88 L 539.75,194.82 L 553.62,218.09 L 573.82,253.36 L 593.27,289.04 L 605.82,313.05 L 624.02,349.38 L 641.45,386.10 L 658.11,423.16 L 668.78,448.06 L 684.14,485.69 L 698.70,523.63 L 707.97,549.09 L 721.20,587.51 L 733.62,626.21 L 745.23,665.15 L 752.52,691.25 L 762.76,730.57 L 772.18,770.11 L 777.62,794.86 L 764.43,794.86 L 762.57,786.09 L 753.49,746.76 L 743.58,707.62 L 736.53,681.65 L 725.26,642.88 L 713.19,604.36 L 700.32,566.10 L 691.29,540.75 L 677.08,502.96 L 662.09,465.47 L 651.66,440.66 L 635.37,403.73 L 618.31,367.14 L 600.49,330.92 L 588.19,306.98 L 569.11,271.40 L 549.29,236.23 L 535.67,213.02 L 531.79,199.64 L 511.69,164.50 L 482.14,119.34 L 451.34,75.03 L 419.32,31.59 L 403.82,11.76 L 407.63,11.76 L 437.79,51.50 Z M 452.98,40.30 L 476.92,73.50 L 500.16,107.19 L 522.69,141.36 L 548.73,173.39 L 555.89,185.05 L 569.90,208.54 L 590.29,244.15 L 609.93,280.18 L 622.61,304.42 L 640.98,341.11 L 658.58,378.18 L 675.40,415.61 L 686.18,440.75 L 701.68,478.75 L 716.39,517.05 L 725.74,542.76 L 739.10,581.56 L 751.65,620.63 L 763.37,659.95 L 770.73,686.30 L 781.07,726.01 L 788.24,756.11 L 788.24,794.86 L 783.76,794.86 L 778.03,768.78 L 768.58,729.12 L 758.31,689.67 L 751.00,663.50 L 739.35,624.43 L 726.89,585.62 L 713.62,547.08 L 704.33,521.54 L 689.72,483.48 L 674.31,445.74 L 663.61,420.76 L 646.90,383.58 L 629.41,346.75 L 611.16,310.30 L 598.57,286.22 L 579.06,250.43 L 558.80,215.06 L 544.88,191.71 L 542.06,177.49 L 512.86,131.49 L 482.39,86.31 L 450.67,42.00 L 427.71,11.76 L 431.47,11.76 L 452.98,40.30 Z M 476.30,40.22 L 500.24,73.90 L 523.47,108.08 L 545.97,142.74 L 572.03,175.27 L 586.17,199.00 L 606.76,234.95 L 626.59,271.32 L 639.39,295.80 L 657.94,332.84 L 675.71,370.27 L 692.69,408.06 L 703.57,433.44 L 719.22,471.80 L 734.07,510.48 L 743.52,536.43 L 757.01,575.60 L 769.67,615.05 L 781.51,654.75 L 788.24,678.87 L 788.24,730.22 L 786.89,724.56 L 776.52,684.73 L 769.14,658.30 L 757.38,618.85 L 744.80,579.67 L 731.40,540.75 L 722.01,514.96 L 707.26,476.54 L 691.71,438.43 L 680.90,413.21 L 664.03,375.66 L 646.37,338.48 L 627.94,301.68 L 615.23,277.36 L 595.53,241.22 L 575.07,205.51 L 561.02,181.94 L 553.91,170.21 L 536.14,132.69 L 513.43,98.24 L 489.99,64.27 L 465.86,30.81 L 451.50,11.76 L 455.16,11.76 L 476.30,40.22 Z M 499.70,40.41 L 523.63,74.58 L 546.84,109.25 L 569.32,144.40 L 595.35,177.45 L 609.46,201.50 L 629.99,237.94 L 649.75,274.80 L 662.50,299.60 L 680.96,337.12 L 698.64,375.03 L 715.52,413.30 L 726.32,439.00 L 741.85,477.83 L 756.57,516.98 L 765.92,543.25 L 779.26,582.89 L 788.24,611.54 L 788.24,656.56 L 787.27,653.10 L 775.40,613.28 L 762.70,573.71 L 749.17,534.42 L 739.69,508.39 L 724.80,469.59 L 709.10,431.12 L 698.19,405.65 L 681.15,367.75 L 663.33,330.21 L 644.72,293.06 L 631.89,268.50 L 612.00,232.02 L 591.34,195.96 L 577.16,172.16 L 559.48,134.17 L 536.79,99.23 L 513.38,64.77 L 489.24,30.82 L 475.09,11.76 L 478.73,11.76 L 499.70,40.41 Z M 523.17,40.87 L 547.09,75.53 L 570.27,110.69 L 592.71,146.33 L 608.20,169.79 L 618.72,179.90 L 632.79,204.28 L 653.26,241.20 L 672.95,278.55 L 685.64,303.67 L 704.02,341.68 L 721.59,380.07 L 738.36,418.82 L 749.08,444.84 L 764.49,484.15 L 779.07,523.77 L 788.24,550.12 L 788.24,591.47 L 784.97,581.04 L 771.59,541.28 L 762.21,514.93 L 747.45,475.66 L 731.87,436.71 L 721.03,410.93 L 704.10,372.55 L 686.37,334.53 L 667.85,296.89 L 655.07,272.02 L 635.25,235.05 L 614.65,198.50 L 600.50,174.38 L 582.88,135.92 L 560.23,100.49 L 536.83,65.54 L 512.71,31.09 L 498.56,11.76 L 502.18,11.76 L 523.17,40.87 Z M 546.72,41.60 L 570.61,76.76 L 593.77,112.41 L 616.17,148.54 L 634.99,170.35 L 649.20,194.96 L 669.86,232.23 L 689.73,269.92 L 702.54,295.28 L 721.09,333.65 L 738.83,372.40 L 755.75,411.51 L 766.58,437.77 L 782.13,477.45 L 788.24,494.07 L 788.24,531.87 L 784.72,521.76 L 770.10,482.02 L 754.65,442.59 L 743.89,416.49 L 727.07,377.63 L 709.44,339.13 L 691.01,301.00 L 678.29,275.81 L 658.54,238.35 L 638.01,201.31 L 623.89,176.86 L 620.06,162.72 L 606.34,137.95 L 583.72,102.03 L 560.35,66.59 L 536.25,31.65 L 521.91,11.76 L 525.51,11.76 L 546.72,41.60 Z M 570.33,42.60 L 594.20,78.26 L 617.32,114.40 L 639.71,151.00 L 651.26,160.81 L 665.60,185.64 L 686.45,223.25 L 706.51,261.30 L 719.44,286.89 L 738.16,325.62 L 756.06,364.72 L 773.15,404.19 L 784.07,430.70 L 788.24,441.34 L 788.24,476.69 L 787.74,475.32 L 772.14,435.53 L 761.28,409.18 L 744.31,369.96 L 726.52,331.10 L 707.91,292.62 L 695.07,267.18 L 675.13,229.37 L 654.41,191.99 L 640.17,167.32 L 629.85,140.25 L 607.28,103.84 L 583.94,67.90 L 559.86,32.47 L 545.14,11.76 L 548.74,11.76 L 570.33,42.60 Z M 594.02,43.88 L 617.85,80.03 L 640.92,116.67 L 656.27,141.13 L 667.17,151.48 L 674.82,163.76 L 689.11,188.92 L 709.89,227.03 L 723.29,252.68 L 742.73,291.49 L 755.23,317.58 L 773.30,357.05 L 788.24,391.57 L 788.24,425.07 L 778.68,401.87 L 761.55,362.28 L 743.59,323.06 L 724.82,284.23 L 711.85,258.56 L 691.73,220.40 L 670.82,182.67 L 656.44,157.77 L 653.38,142.85 L 630.89,105.92 L 607.59,69.50 L 583.54,33.56 L 568.27,11.76 L 571.86,11.76 L 594.02,43.88 Z M 617.76,45.43 L 641.56,82.08 L 664.65,119.18 L 672.30,131.57 L 683.81,141.71 L 698.41,167.00 L 719.65,205.31 L 740.08,244.05 L 753.24,270.11 L 772.30,309.55 L 788.24,344.36 L 788.24,376.47 L 778.78,354.61 L 760.66,315.03 L 748.12,288.86 L 728.63,249.93 L 715.19,224.21 L 694.35,186.00 L 680.01,160.76 L 673.09,148.00 L 669.23,133.40 L 654.55,108.29 L 631.30,71.36 L 607.28,34.94 L 591.29,11.76 L 594.87,11.76 L 617.76,45.43 Z M 633.48,34.99 L 657.49,71.97 L 673.23,96.80 L 681.06,109.24 L 688.92,121.67 L 700.09,132.16 L 714.82,157.68 L 736.24,196.33 L 756.86,235.43 L 770.14,261.73 L 788.24,299.17 L 788.24,329.94 L 777.73,306.99 L 758.62,267.45 L 745.41,241.31 L 724.93,202.45 L 703.63,164.03 L 688.99,138.67 L 685.61,123.64 L 678.20,110.97 L 655.07,73.51 L 631.09,36.58 L 614.22,11.76 L 617.69,11.76 L 633.48,34.99 Z M 657.35,36.93 L 681.32,74.41 L 689.62,86.71 L 697.28,99.42 L 705.17,111.98 L 716.36,122.61 L 731.22,148.36 L 752.84,187.36 L 773.64,226.80 L 787.04,253.34 L 788.24,255.82 L 788.24,285.38 L 775.52,259.06 L 762.19,232.68 L 741.52,193.48 L 720.04,154.71 L 705.26,129.13 L 701.41,114.22 L 694.07,101.36 L 686.53,88.62 L 671.00,63.40 L 646.80,26.14 L 637.03,11.76 L 640.50,11.76 L 657.35,36.93 Z M 664.91,14.11 L 673.14,26.60 L 681.29,39.15 L 689.38,51.73 L 697.90,64.05 L 706.02,76.62 L 713.82,89.40 L 724.43,100.50 L 732.63,113.07 L 747.63,139.04 L 769.44,178.38 L 788.24,214.04 L 788.24,242.40 L 778.97,224.06 L 758.12,184.50 L 736.44,145.39 L 721.54,119.58 L 717.57,104.59 L 710.13,91.63 L 702.28,78.93 L 694.89,65.93 L 670.74,28.17 L 659.76,11.76 L 663.33,11.76 L 664.91,14.11 Z M 689.05,16.19 L 697.31,28.82 L 705.86,41.27 L 714.24,53.84 L 722.21,66.66 L 730.08,79.55 L 741.21,90.50 L 756.52,116.59 L 778.80,156.13 L 788.24,173.74 L 788.24,201.18 L 774.72,175.53 L 752.85,136.08 L 737.81,110.03 L 730.73,96.75 L 725.86,82.10 L 718.02,69.25 L 710.31,56.30 L 702.83,43.20 L 694.74,30.48 L 686.53,17.84 L 682.52,11.76 L 686.06,11.76 L 689.05,16.19 Z M 713.74,18.24 L 722.14,30.94 L 730.56,43.64 L 738.37,56.73 L 749.22,67.96 L 757.41,80.84 L 772.86,107.16 L 788.24,134.46 L 788.24,161.05 L 784.05,153.24 L 761.71,113.59 L 746.36,87.43 L 741.89,72.40 L 733.97,59.43 L 725.98,46.51 L 718.21,33.44 L 710.43,20.37 L 704.89,11.76 L 709.22,11.76 L 713.74,18.24 Z M 738.07,20.83 L 746.11,33.93 L 755.59,46.13 L 765.69,57.98 L 781.46,84.42 L 788.24,96.27 L 788.24,122.24 L 778.05,104.16 L 762.57,77.76 L 755.02,64.45 L 749.96,49.60 L 741.66,36.70 L 733.79,23.55 L 726.51,11.76 L 732.35,11.76 L 738.07,20.83 Z M 762.41,23.74 L 773.75,34.96 L 788.24,58.89 L 788.24,84.20 L 786.63,81.39 L 770.83,54.87 L 764.87,40.42 L 758.11,26.42 L 749.72,13.44 L 748.64,11.76 L 755.15,11.76 L 762.41,23.74 Z M 781.57,11.77 L 788.24,22.62 L 788.24,47.31 L 778.86,31.82 L 773.81,16.61 L 770.64,11.76 L 781.56,11.76 L 781.57,11.77 Z " fill="black"/>
</svg>
